<?xml version="1.0" standalone="no"?>
<!DOCTYPE svg PUBLIC "-//W3C//DTD SVG 20010904//EN"
 "http://www.w3.org/TR/2001/REC-SVG-20010904/DTD/svg10.dtd">
<svg version="1.0" xmlns="http://www.w3.org/2000/svg"
 width="960.000000pt" height="960.000000pt" viewBox="0 0 960.000000 960.000000"
 preserveAspectRatio="xMidYMid meet">
<metadata>
Created by potrace 1.14, written by Peter Selinger 2001-2017
</metadata>
<g transform="translate(0.000000,960.000000) scale(0.100000,-0.100000)"
fill="#000000" stroke="none">
<path d="M4441 8371 c-12 -16 -21 -31 -21 -34 0 -3 -27 -49 -60 -102 -33 -53
-60 -100 -60 -106 0 -5 -5 -9 -12 -9 -6 0 -9 -3 -6 -6 4 -3 -19 -47 -51 -97
-76 -123 -243 -401 -260 -435 -8 -15 -18 -28 -23 -30 -4 -2 -8 -8 -8 -13 0 -5
-12 -28 -27 -52 -15 -23 -38 -62 -52 -87 -13 -24 -30 -50 -37 -58 -8 -7 -14
-17 -14 -22 0 -5 -17 -35 -39 -67 -21 -32 -41 -68 -45 -80 -4 -13 -12 -23 -17
-23 -5 0 -9 -4 -9 -9 0 -8 -72 -133 -110 -191 -5 -8 -19 -31 -30 -50 -11 -19
-29 -48 -39 -65 -10 -16 -77 -129 -149 -250 -72 -121 -135 -225 -140 -231 -6
-6 -20 -29 -31 -50 -11 -21 -34 -61 -51 -89 -17 -27 -36 -60 -42 -72 -6 -13
-15 -23 -20 -23 -4 0 -8 -7 -8 -16 0 -8 -11 -30 -24 -47 -13 -18 -32 -48 -41
-67 -10 -19 -21 -37 -25 -40 -3 -3 -17 -25 -31 -50 -13 -25 -27 -47 -30 -50
-4 -3 -19 -27 -33 -55 -15 -27 -65 -112 -112 -189 -46 -76 -84 -142 -84 -147
0 -5 -4 -9 -10 -9 -5 0 -10 -4 -10 -9 0 -10 -331 -566 -350 -588 -5 -7 -10
-14 -10 -17 0 -2 -22 -41 -50 -86 -27 -45 -50 -85 -50 -89 0 -4 -8 -16 -17
-27 -10 -10 -26 -35 -36 -54 -18 -37 -114 -196 -160 -267 -15 -24 -27 -47 -27
-52 0 -5 -6 -16 -13 -23 -7 -7 -50 -76 -96 -153 -45 -77 -100 -169 -122 -204
-21 -34 -39 -65 -39 -67 0 -2 -20 -35 -45 -74 -25 -39 -45 -72 -45 -74 0 -2
-34 -59 -75 -126 -41 -67 -75 -124 -75 -127 0 -3 -13 -24 -28 -47 -15 -22 -52
-81 -80 -131 -29 -49 -85 -142 -123 -205 -39 -63 -75 -125 -82 -138 -7 -12
-63 -105 -124 -207 -62 -102 -113 -190 -113 -195 0 -6 -4 -10 -10 -10 -5 0
-10 -4 -10 -9 0 -6 -98 -173 -230 -391 -5 -8 -21 -35 -36 -60 -15 -25 -41 -68
-58 -95 -17 -28 -37 -59 -43 -70 -7 -11 -22 -38 -34 -60 -12 -22 -26 -43 -31
-46 -5 -3 -10 -10 -10 -15 -1 -5 -7 -18 -14 -29 -7 -11 -78 -129 -158 -262
l-145 -243 591 0 591 0 56 28 c31 15 58 29 61 32 3 3 28 17 55 32 28 15 84 45
125 68 41 23 87 47 102 53 16 6 28 15 28 19 0 4 9 8 19 8 11 0 21 4 23 9 2 4
41 28 88 51 47 24 87 46 90 49 3 3 21 14 40 25 163 86 252 134 290 156 25 14
60 32 78 39 17 7 32 17 32 22 0 5 9 9 20 9 11 0 20 4 20 9 0 5 12 14 28 20 15
5 56 26 92 46 36 20 99 55 140 77 154 84 177 97 259 142 46 25 85 46 87 46 1
0 29 15 61 34 32 18 92 51 133 73 41 22 93 50 115 63 22 12 58 32 80 43 22 11
52 29 68 39 15 11 27 17 27 13 0 -3 17 6 37 20 21 14 42 25 46 25 5 0 21 9 37
20 15 11 30 17 34 13 3 -3 6 -1 6 5 0 7 3 12 8 12 4 0 120 61 257 136 138 75
279 152 315 172 36 19 92 49 125 67 33 18 78 43 100 55 22 12 65 36 95 52 30
16 88 47 129 68 l73 39 42 -21 c22 -11 43 -24 46 -28 5 -7 32 -18 40 -16 3 0
19 -8 35 -20 17 -11 68 -41 115 -66 177 -95 308 -167 345 -188 37 -22 159 -87
245 -131 36 -19 67 -36 70 -39 3 -3 23 -14 45 -26 22 -11 62 -33 90 -48 27
-16 87 -48 132 -72 45 -24 110 -60 145 -80 35 -19 77 -42 93 -50 17 -8 50 -26
75 -40 25 -14 77 -42 115 -62 39 -20 72 -39 75 -42 3 -3 23 -15 45 -26 42 -21
152 -80 220 -118 22 -12 85 -46 140 -75 55 -30 105 -57 110 -61 6 -4 42 -24
80 -44 39 -20 77 -41 85 -46 8 -5 137 -75 285 -156 149 -80 295 -160 325 -176
58 -32 217 -119 329 -179 36 -19 84 -45 106 -57 40 -22 42 -22 632 -22 l593 0
-95 157 c-52 86 -95 157 -95 159 0 2 -27 46 -60 99 -33 53 -60 98 -60 99 0 3
-106 181 -170 286 -5 8 -48 80 -97 160 -48 80 -90 149 -92 154 -2 5 -30 51
-62 103 -33 52 -59 96 -59 98 0 3 -16 29 -35 59 -19 30 -35 58 -35 61 0 3 -16
28 -35 55 -19 28 -32 50 -29 50 4 0 0 8 -8 18 -13 15 -139 220 -161 262 -9 17
-21 37 -132 221 -44 73 -84 141 -90 151 -5 9 -37 61 -70 115 -33 54 -66 110
-75 125 -8 14 -107 179 -220 367 -113 187 -212 353 -220 368 -8 15 -18 30 -22
31 -5 2 -8 8 -8 13 0 5 -15 32 -32 62 -42 68 -49 78 -99 162 -23 39 -49 78
-57 88 -8 9 -11 17 -7 17 4 0 1 8 -7 18 -8 9 -48 73 -89 142 -40 69 -79 131
-86 138 -7 7 -13 17 -13 22 0 5 -30 58 -66 117 -37 59 -74 122 -84 138 -9 17
-31 53 -48 80 -16 28 -41 68 -54 91 -28 49 -386 644 -410 682 -10 15 -22 36
-28 47 -11 21 -18 34 -62 103 -16 24 -28 45 -28 48 0 3 -16 30 -35 60 -19 30
-35 57 -35 60 0 2 -5 10 -10 17 -11 13 -140 228 -140 233 0 2 -13 22 -28 46
-16 24 -38 59 -48 78 -10 19 -22 37 -25 40 -3 3 -25 39 -48 80 -23 41 -55 95
-72 120 -16 25 -32 52 -36 60 -3 8 -21 39 -40 68 -18 29 -33 56 -33 61 0 5 -4
11 -8 13 -4 2 -27 37 -51 78 -71 122 -77 133 -111 190 -18 30 -41 67 -52 82
-10 15 -18 31 -18 37 0 5 -4 11 -8 13 -5 2 -33 45 -63 97 -30 52 -63 109 -74
127 -85 140 -135 227 -135 235 0 5 -4 9 -8 9 -5 0 -16 15 -25 33 -9 17 -23 41
-29 52 -7 10 -30 48 -51 82 l-39 63 -338 0 -339 0 -20 -29z m469 -693 c57 -95
116 -192 132 -215 16 -24 26 -43 22 -43 -4 0 0 -8 8 -17 22 -25 228 -372 228
-384 0 -5 4 -9 8 -9 5 0 16 -15 25 -32 9 -18 27 -50 39 -70 107 -175 138 -229
138 -237 0 -5 3 -11 8 -13 5 -2 292 -474 312 -513 20 -40 427 -711 433 -713 4
-2 7 -7 7 -12 0 -5 73 -129 161 -277 89 -147 169 -281 179 -298 9 -16 63 -106
120 -200 57 -93 111 -185 121 -202 10 -18 37 -61 59 -96 22 -35 40 -69 40 -76
0 -6 5 -11 10 -11 6 0 10 -4 10 -9 0 -4 36 -68 80 -142 44 -74 85 -141 90
-149 22 -37 287 -476 307 -509 13 -20 31 -50 40 -68 10 -17 41 -69 68 -115 28
-45 55 -90 60 -100 6 -9 33 -54 60 -99 28 -46 61 -101 74 -124 13 -22 32 -52
42 -67 11 -14 19 -29 19 -33 0 -4 8 -19 19 -33 28 -40 71 -115 78 -134 3 -10
9 -18 14 -18 5 0 9 -5 9 -11 0 -6 8 -23 19 -37 10 -15 28 -43 39 -62 10 -19
79 -134 152 -255 130 -215 162 -270 184 -310 6 -11 19 -31 28 -45 43 -67 71
-115 67 -116 -2 -1 3 -10 12 -20 9 -11 22 -29 28 -42 14 -26 20 -29 -229 108
-158 86 -237 129 -320 173 -41 22 -79 43 -85 47 -5 4 -55 31 -110 60 -55 29
-113 61 -130 70 -35 21 -149 82 -220 119 -27 14 -52 28 -55 31 -3 3 -21 13
-40 23 -113 60 -212 114 -263 143 -32 19 -60 34 -63 34 -3 0 -39 20 -82 43
-42 24 -122 68 -177 97 -55 29 -104 56 -110 60 -5 4 -45 26 -87 49 -186 99
-237 126 -308 166 -41 23 -111 61 -155 85 -108 58 -190 102 -250 135 -27 16
-68 37 -90 49 -22 12 -42 23 -45 26 -3 3 -39 22 -80 44 -41 21 -94 49 -118 63
-50 29 -53 25 68 90 41 22 93 51 115 63 22 12 66 36 97 52 32 16 60 33 63 38
4 6 15 10 26 10 10 0 19 4 19 8 0 4 15 15 33 23 49 23 141 72 147 78 3 4 28
17 55 31 28 14 115 61 195 105 80 44 158 86 172 94 l28 14 -22 36 c-12 20 -32
52 -45 71 -13 19 -23 40 -23 47 0 7 -4 13 -8 13 -5 0 -16 15 -25 33 -9 17 -27
49 -39 69 -13 20 -47 77 -76 127 l-53 91 -87 -47 c-48 -26 -107 -57 -132 -70
-25 -13 -52 -28 -60 -33 -46 -30 -235 -130 -246 -130 -7 0 -14 -4 -16 -8 -1
-5 -32 -24 -68 -42 -36 -19 -73 -41 -84 -49 -10 -9 -19 -14 -20 -12 -1 4 -38
-15 -181 -95 -51 -28 -110 -60 -180 -97 -22 -12 -48 -28 -59 -37 -10 -8 -20
-14 -22 -13 -6 4 -38 -9 -44 -17 -3 -4 -42 -26 -87 -50 l-82 -43 -49 26 c-53
28 -131 70 -202 109 -59 33 -136 75 -235 128 -198 107 -391 213 -402 222 -7 6
-13 7 -13 3 0 -4 -7 -1 -16 6 -16 14 -108 65 -279 154 -49 26 -91 51 -93 56
-2 5 -11 9 -20 9 -8 0 -23 7 -31 14 -9 8 -21 12 -27 8 -6 -4 -37 -52 -70 -107
-32 -55 -63 -107 -69 -116 -5 -9 -20 -34 -33 -55 -13 -22 -34 -57 -47 -79 -41
-68 -65 -114 -65 -123 0 -6 8 -12 18 -15 9 -3 49 -23 87 -45 39 -21 111 -60
160 -87 50 -26 104 -56 120 -65 31 -18 90 -50 205 -112 36 -20 85 -47 110 -60
46 -26 114 -63 230 -125 36 -19 77 -42 93 -51 27 -16 36 -32 18 -32 -5 0 -75
-36 -155 -80 -81 -44 -151 -80 -156 -80 -6 0 -10 -3 -10 -8 0 -4 -17 -15 -37
-24 -21 -10 -65 -33 -98 -51 -65 -36 -156 -86 -275 -150 -41 -22 -83 -47 -92
-55 -10 -8 -18 -12 -18 -7 0 4 -10 1 -22 -7 -13 -8 -52 -31 -88 -51 -36 -19
-108 -59 -160 -87 -52 -29 -124 -68 -160 -87 -36 -20 -90 -49 -120 -65 -30
-17 -73 -40 -95 -52 -22 -11 -42 -23 -45 -26 -3 -3 -32 -18 -65 -35 -33 -16
-68 -36 -77 -44 -10 -8 -18 -10 -18 -6 0 4 -8 2 -17 -6 -10 -8 -28 -20 -41
-27 -53 -29 -142 -78 -212 -114 -41 -22 -79 -43 -85 -47 -5 -4 -54 -31 -107
-59 -93 -50 -277 -149 -366 -198 -23 -13 -86 -47 -140 -75 -53 -29 -105 -59
-114 -67 -10 -8 -18 -12 -18 -8 0 3 -17 -4 -37 -17 -21 -13 -82 -47 -137 -76
-86 -47 -96 -50 -86 -30 7 13 16 26 19 29 3 3 14 21 24 40 34 64 52 95 58 100
3 3 34 52 68 110 82 139 81 137 118 197 18 28 33 54 33 57 0 2 27 48 60 101
33 53 60 98 60 100 0 2 23 40 51 85 28 45 59 96 68 114 44 75 242 403 256 421
8 10 15 23 15 27 0 5 15 32 33 61 18 28 38 61 44 72 7 11 45 74 85 140 40 66
79 132 88 146 30 53 153 256 191 318 21 34 39 65 39 68 0 2 13 24 30 48 16 24
35 54 40 67 6 13 30 53 53 90 55 88 168 275 187 310 8 15 69 117 135 225 66
109 125 207 131 218 6 11 25 43 42 70 17 28 45 75 63 105 17 30 42 71 54 90
12 19 23 40 24 45 1 6 8 17 15 25 7 8 30 44 51 80 21 36 53 88 71 117 19 28
34 54 34 56 0 3 23 42 50 86 28 44 50 85 50 91 0 5 5 10 10 10 6 0 10 4 10 9
0 6 27 53 60 106 33 53 60 98 60 100 0 3 68 117 110 185 64 103 140 234 140
241 0 5 3 9 8 9 7 0 17 15 46 77 9 17 20 34 25 38 5 3 16 18 24 33 24 47 69
127 79 139 17 21 148 245 148 252 0 4 8 16 18 27 11 11 21 24 23 30 2 6 42 74
89 152 47 78 90 150 95 159 6 10 61 103 123 206 62 104 121 201 130 217 91
152 115 190 122 190 4 0 54 -78 110 -172z"/>
<path d="M4720 2402 c-47 -26 -107 -58 -135 -72 -27 -14 -52 -28 -55 -31 -3
-4 -39 -23 -80 -44 -41 -21 -76 -41 -78 -46 -2 -5 -12 -9 -22 -9 -10 0 -20 -3
-22 -8 -3 -7 -77 -48 -145 -81 -18 -8 -33 -19 -33 -23 0 -4 -5 -8 -11 -8 -6 0
-64 -29 -128 -64 -64 -35 -143 -78 -176 -95 -33 -18 -67 -36 -75 -41 -20 -12
-155 -86 -255 -140 -44 -24 -172 -93 -285 -155 -113 -62 -241 -131 -285 -155
-44 -23 -93 -50 -110 -60 -44 -26 -204 -111 -247 -132 -20 -10 -40 -22 -43
-28 -4 -7 744 -10 2269 -10 1252 0 2276 2 2276 5 0 3 -15 11 -32 19 -18 8 -64
32 -103 54 -38 21 -106 58 -150 82 -44 23 -105 56 -135 73 -30 16 -68 37 -85
46 -16 9 -32 18 -35 21 -3 3 -30 17 -60 33 -30 15 -91 48 -135 72 -44 25 -91
50 -104 55 -13 6 -36 19 -51 30 -16 11 -35 20 -44 20 -9 0 -16 3 -16 8 0 4
-10 12 -23 18 -56 27 -114 59 -139 76 -16 11 -28 16 -28 13 0 -3 -12 2 -27 13
-16 10 -41 26 -58 34 -77 39 -120 64 -123 71 -2 4 -8 7 -14 7 -5 0 -57 26
-116 59 -59 32 -138 75 -177 96 -38 21 -133 73 -210 115 -77 42 -176 96 -220
120 -139 75 -170 92 -180 100 -6 5 -46 -11 -95 -38z"/>
</g>
</svg>
