<svg width="132" height="193" fill="none" xmlns="http://www.w3.org/2000/svg"><path d="M13.5 23.5C18.3 16.7 41.167 6.333 52 2l28.5 2c2 .167 6.6 1.1 9 1.5 3 .5 12.5 4 20.5 10.5s16 20.5 18.5 26.5 3 15 2 21S86 129 83 131s-19.5 5-26.5 5-25-15.5-29.5-19.5S5 92.5 2 70s5.5-38 11.5-46.5z" fill="#E6E6E6" stroke="#E6E6E6"/><path d="M99.989 10.786l1.676.886c-.121.78-.183 1.694-.514 2.412-.241.524-.285 1.065-.526 1.585l-.869.31.745-.871-.494-.443c.198-1.36.114-2.52-.018-3.88zm5.345 3.284c.375.182.962.373 1.232.682-.1 2.73-1.802 5.306-3.449 7.386.054-.787.339-2.837.777-3.516.118-.183.384-.241.492-.43.491-.861.709-3.07.948-4.123zm22.985 44.287l.168.135c-.25 1.433-.918 2.924-1.625 4.19-.437.78-1.794 3.555-2.444 4.055-.349.267-.451.08-.839.54-.728.865-1.062 1.774-2.178 2.096l-.167.607c-2.729 2.51-5.34 4.671-8.756 6.164-.667.291-1.192.73-1.922.864-.371-.33-.46-.3-.561-.81 1.965-.463 4.837-2.384 6.295-3.748.916-.858 2.026-1.43 2.761-2.473.241-.34.383-.579.738-.804 3.498-2.219 6.606-7.216 8.53-10.816zM3.534 50.238l.382 1.739c.44-.813.817-1.414.81-2.37l.553.1c1.37-1.47 2.055-3.321 3.408-4.73.732-.762 1.13-1.965 1.977-2.597L9.12 46.13c-.357 1.005-1.11 1.907-1.54 2.922l-.135.255c-.484.973-.719 2.41-.996 3.48l.002 2.191h.275c.376-.517 1.035-1.746 1.512-2.082.075-.052.547-.18.572-.216.32-.46-.222-.496.508-.984l.405.308a3.679 3.679 0 01-.542 1.003c-3.312 4.541-5.08 9.395-6.271 14.823-.523-1.177-.272-2.583-.2-3.844-.143-3.287.048-6.04 1.4-9.057-.06-.566-.062-1.115-.38-1.6-.536-.818-.276-2.148-.196-3.09z" fill="#4F4F4F"/><path d="M4.11 54.929c.526-1.99 1.499-3.629 2.52-5.391.149.861-.373 2.141-.532 3.028-.515 2.668-1.415 5.07-2.154 7.662-.287 1.004-.512 3.028-1.235 3.758-.142-3.287.05-6.04 1.402-9.057z" fill="#E6E6E6"/><path d="M2.91 67.83c.043.425.106.917.026 1.34-.166.872-.476 1.31-1.18 1.779C.35 68.257.21 64.587.077 61.6c-.32-7.169.312-14.19 2.846-20.97.63-1.684 1.589-3.258 2.292-4.924 1.375-3.257 2.886-6.794 5.147-9.57 1.144-1.404 2.925-2.539 4.2-3.934-.744 2.752-2.104 5.044-3.491 7.501-2.123 3.763-4.463 7.774-5.718 11.915-.347 1.147-.826 2.368-.708 3.583.042.428.081.625-.078 1.032-.482 1.235-.603 2.705-1.033 4.004-.08.943-.34 2.273.196 3.09.319.486.32 1.035.38 1.6-1.352 3.02-1.543 5.771-1.4 9.059-.072 1.26-.322 2.666.2 3.843zm21.145-24.986l-.33.377-.183-.272c-.261-4.439 1.708-8.307 2.99-12.44 1.031-3.328 3.162-6.582 5.203-9.382 4.164-5.713 8.697-10.118 14.465-14.2 1.46-1.034 2.797-2.07 4.393-2.908l-.63.087c-2.323.303-4.174 1.315-6.328 2.081-1.596.568-3.258.928-4.85 1.518-4.126 1.528-8.078 3.509-11.72 5.985-2.51 1.707-4.578 3.866-7.354 5.266-.63.318-1.062.416-1.726.206-.024-.767-.014-.845.41-1.464 1.06-1.551 2.509-2.402 3.935-3.565 2.606-2.126 5.01-4.34 8.004-5.939C31.785 7.42 33.379 7 34.917 6.44l6.747-2.431c3.12-1.055 5.926-2.462 9.23-3.081C52.87.557 54.98.553 56.987.389c1.608-.131 3.423-.491 5.02-.361 1.312.107 2.464.618 3.834.65 2.048.046 4.026-.408 6.062-.44 4.909-.08 10.988 1.195 15.043 4.04l.155.114.19-.367c.357-.57.67-.766 1.295-.922 3.423.726 6.84 2.55 10.04 3.945 1.228.534 2.655.907 3.778 1.632l6.559 4.695c1.415 1.04 2.96 2.011 4.245 3.202 3.008 2.789 5.327 6.511 7.826 9.737.532.687 1.213 1.231 1.674 1.977.789 1.277 1.294 2.685 2.026 3.981.794 1.407 1.705 2.608 2.337 4.122 1.04 2.491 1.639 5.4 2.193 8.042l-.436.42c-.306-.755-.908-1.511-1.379-2.177-1.459-2.062-2.244-4.507-3.579-6.666-.356 2.015-.724 3.46-1.539 5.315-.173.392-.123.482-.427.838l-1.299 1.58c.715-2.146 1.687-4.21 2.018-6.473.127-.874-.074-1.762.106-2.62.15-.717-.765-2.024-1.114-2.714l-.156.009c-.421.945-.962 1.676-1.594 2.481.013.35-.014.562-.117.901-.241.796-.216 1.6-.689 2.31-.15.224-.282.381-.353.645-.44 1.617-2.136 3.242-3.439 4.257 1.804-2.446 3.505-5.093 4.125-8.107.267-1.3 1.072-1.872 1.343-3.034.22-.95-.542-1.65-1.052-2.445-.628 1.348-2.352 3.866-2.307 5.208l-.332.153-.367-.017-.098.236-.134.304c-.273.666-.759.94-1.323 1.351 1.595-2.826 2.727-5.257 3.578-8.393-.877-1.622-1.945-2.976-3.112-4.394l-1.034 4.676c-.292.925-.803 1.725-1.659 2.159l.061.276-.468.68-.162-.41.43-.675-.268-.403.164-.336c.228-.361.439-.484.537-.932.142-.653.424-1.3.447-1.966l.006-.283.264-.54c.137-.583.29-3.21.114-3.732-.224-.661-1.688-2.034-2.193-2.64l-1.229 3.32c-.277.477-.568.726-1.081.895.034-1.2.614-2.183.532-3.408-.057-.838-.011-1.594.069-2.426l-3.552-2.907c-.271-.31-.857-.5-1.232-.683-1.072-.927-2.461-1.645-3.669-2.397l-1.676-.886-.809-.675c-.32-.27-.622-.386-1.006-.556-3.483-1.536-7.088-3.723-10.84-4.547-1.024-.224-2.416-.088-3.475-.093.994.75 2.57 2.273 3.695 2.613 3.32 1.004 10.25 9.683 11.823 12.783.449.885.73 1.883 1.389 2.634 1.119 1.278 1.777 3.508 2.375 5.098 1.487 3.95 3.201 7.843 3.389 12.117l-.191.996-.333-.004c-1.734-1.456-2.129-3.717-3.005-5.73-2.721-6.256-5.16-13.935-9.896-18.918-1.106-1.622-2.834-3-4.162-4.467-1.507-1.02-2.759-2.112-4.098-3.338-.44-.713-1.188-.988-1.91-1.359l-.846-.422c-1.904-.957-4.045-1.458-6.037-2.233l-3.066-.83 1.353 1.724c.271.305.288.527.433.885.425 1.043 1.587 2.384 2.3 3.29.557.71.69 1.644 1.055 2.46 1.103 2.463 2.217 4.765 3.152 7.315 2.34 5.553 3.673 12.245 3.808 18.272.029 1.285.18 2.968-.285 4.173-.156.405-.311.69-.672.94-.207-.695-.385-1.413-.723-2.057-.73-2.655-1.043-5.727-2.06-8.245l-.086-.205c.089-.384.19-.719.12-1.115l-1.765-6.935c-.485 2.317-1.212 4.23-2.448 6.253l-.294-.095c.993-1.69 2.155-4.273 1.947-6.257-.062-.59.083-1.117.004-1.688-.255-1.817-.901-3.255-1.778-4.847l-.744-.858.274-.315-.358-1.921c-1.603-2.947-3.146-5.718-5.072-8.471-.715-1.022-1.515-2.309-2.801-2.634-.512-.13-1.133-.04-1.657-.04-.714 0-1.22-.227-1.85-.54-1.164.44-1.945 1.347-2.795 2.215-3.026 3.093-4.865 6.62-6.623 10.521-.61 1.354-1.004 2.953-1.748 4.216-.648 1.1-.9 2.54-1.272 3.755-.708 2.302-1.384 4.872-2.266 7.1-.212.536-.953 1.126-1.46 1.383-.106-2.448-.12-4.909.539-7.295.64-2.318 1.694-4.424 2.166-6.804.69-3.477 3.343-7.218 5.132-10.299.542-.934 1.533-2.029 1.738-3.088-.843.212-1.634.41-2.493.51-.896.104-1.69.958-2.743 1.15-2.177.397-5.538 2.308-7.137 3.84-.566.542-1.33.908-1.944 1.41-1.393 1.14-2.697 2.45-3.952 3.743-5.203 5.357-8.322 11.292-11.462 17.95-.875 1.855-1.897 3.578-2.54 5.54-.542 1.178-1.716 2.835-1.924 4.053zm81.65 39.974l.221-.035c1.748-.304 3.479-1.144 5.076-1.898 6.14-2.896 10.589-6.886 14.425-12.473 2.027-2.952 2.981-6.443 5.038-9.38l.389-.752c.583.19.588.245.946.753.64 4.822-.359 10.917-1.544 15.618-.208.823-.284 1.642-.636 2.425-.497 1.104-.536 2.342-.885 3.491-.718 2.367-1.81 5.26-3.026 7.408-1.32 2.332-2.258 4.832-3.872 7.009-.575.775-.89 1.661-1.645 2.297l-.059.317c-.355 1.607-2.211 3.597-3.233 4.944-1.267 1.671-2.308 3.501-3.67 5.1-1.921 2.257-4.127 4.08-6.24 6.128-5.588 5.417-10.966 10.975-17.772 14.916-1.353.784-2.805 1.402-4.143 2.202-2.166 1.294-3.66 2.77-6.256 3.262l-.125.073-.651-.307c-.504.113-.86.196-1.37.079-.531-.121-.466-.041-.916.217l-.404-.549c-.853.171-1.958-.198-2.795-.431.237-1.132 1.227-2.204 1.892-3.138-.038-1.164.715-1.737.754-2.798l-.675-.298-1.202 1.366c-.352.532-.583.859-1.043 1.32-.306.307-.539.709-.982.709l-.121-.54c.348-.447.505-.892.798-1.351.328-.514.379-.533.943-.673l-.132-.408.54-.811.81-1.081 2.446-2.974c1.291-1.666 3.091-2.877 4.44-4.578.744-.088 1.608-.994 2.37-1.333l.02-.015c.657-.368 1.21-.742 1.794-1.221l-.27-.254.135-.333c1.318-.52 2.355-1.841 3.29-2.87 1.45-1.598 2.993-3.193 4.24-4.958.238-.718.555-1.264 1.129-1.762l4.547-6.717c.011-.492.002-.472.34-.83l.616-1.307c.716-1.168 1.195-2.25 1.653-3.543.393-.587.62-.958.691-1.667.161-.457.297-.723.626-1.081l2.74-5.83c.185-.59.328-.968.758-1.438z" fill="#4F4F4F"/><path d="M120.376 87.286c.708-.955 1.646-1.664 2.39-2.58.973-1.199 1.726-3.09 3.057-3.787-.018 1.883-1.8 5.45-2.881 6.969l-.331-.086c-.535.344-.999.804-1.534 1.113-.728.421-1.27 1.076-1.969 1.54l-.377-.406c-.592-.023-1.194.303-1.738.516l3.383-3.28z" fill="#D6D6D6"/><path d="M104.947 84.256c.486-.174.972-.36 1.484-.435 1.671-.245 3.249-.947 4.816-1.56 6.191-2.428 11.33-5.92 15.009-11.575 1.187-1.824 2.033-3.922 2.901-5.908-.156 2.267-.087 3.564-1.36 5.541-4.091 8.895-12.423 15.08-21.385 18.415-1.107.411-3.111 1.45-4.205 1.352l2.74-5.83z" fill="#E6E6E6"/><path d="M128.358 72.279c-.463 1.777-1.307 3.924-2.388 5.413l-3.258 4.785c-.722 1.278-2.178 2.46-3.138 3.601-1.932 1.769-3.882 3.772-6.003 5.298-3.495 2.515-7.207 3.983-11.289 5.187-1.226.361-2.382 1.013-3.661 1.12l.616-1.306c.716-1.168 1.195-2.25 1.653-3.543.393-.587.62-.958.691-1.667 1.329-.366 2.705-.399 4.02-.78 6.71-1.946 13.009-5.308 17.481-10.822 1.825-2.25 2.976-4.916 5.002-7.007l.274-.28z" fill="#E6E6E6"/><path d="M88.723 116.442c6.372-2.577 13.011-5.968 18.482-10.161 3.174-2.432 5.978-5.132 8.93-7.812l.201.268-5.923 7.141c-2.571 1.826-5.272 3.29-7.918 4.978l-7.043 4.452c-2.084 1.199-4.363 2.039-6.46 3.217-2.16 1.212-3.981 2.795-6.017 4.171-2.345 1.584-4.682 3.024-6.416 5.329 1.278-.611 4.42-3.346 5.508-3.237l19.888-12.038c1.956-1.078 3.447-2.651 5.523-3.59-2.151 2.121-4.236 4.214-6.676 6.009-1.572 1.156-3.14 1.819-4.818 2.747l-7.766 4.513c-.98.598-3.562 2.763-4.513 2.875-2.361 1.719-4.467 3.411-6.401 5.625l21.978-13.576c-3.64 3.474-8.047 5.777-12.206 8.521-1.76 1.163-3.254 2.436-4.884 3.765-.853.695-1.918 1.066-2.61 1.903-.357.432-.824.787-1.25 1.15.56.451 1.041.394 1.747.477-.448.311-.879.587-1.26.981l-.125.073-.651-.307c-.504.113-.86.196-1.37.079-.53-.122-.466-.041-.916.217l-.404-.549c-.853.171-1.958-.198-2.795-.431.237-1.132 1.227-2.204 1.892-3.138.373-.301.66-.532.882-.968.897-1.759 2.102-3.319 3.278-4.899l.019.015 10.094-7.8z" fill="#D6D6D6"/><path d="M119.108 90.456c.699-.465 1.241-1.12 1.969-1.54.535-.31.999-.77 1.534-1.114l.332.086c-1.09 1.984-2.324 5.007-4.119 6.42-.194 1.017-1.371 2.21-2.243 2.807l-.294.19c-.304.213-.471.401-.717.667-2.057 2.23-5.043 4.002-7.538 5.7-3.895 2.651-7.591 5.189-11.793 7.379-2.84 1.481-6.016 2.523-8.491 4.557l-.159.097c-1.45.9-3.026 2.583-4.674 2.965-.038-.602.47-1.223.482-2.026l.02-.015c.656-.368 1.21-.742 1.793-1.221l-.27-.254.135-.333c1.318-.519 2.355-1.841 3.29-2.87 1.45-1.598 2.993-3.193 4.24-4.958.238-.718.555-1.264 1.129-1.762l4.547-6.717c3.253-.36 7.04-.834 10.099-2.106 3.09-1.285 6.081-3.673 8.613-5.843.544-.213 1.146-.54 1.739-.516l.376.406z" fill="#E6E6E6"/><path d="M119.108 90.456c.699-.465 1.241-1.12 1.969-1.54.535-.31.999-.77 1.534-1.114-3.823 5.128-8.836 9.593-14.205 13.049-.732.472-1.302 1.174-2.041 1.652-3.287 2.127-7.879 3.679-11.719 4.23l-2.04.26c.237-.718.554-1.264 1.128-1.762 2.286.125 5.116-1.257 7.251-1.993 1.126-.389 2.895-.879 3.511-1.902 1.85-.25 3.426-1.829 4.88-2.884 3.504-2.544 6.714-4.842 9.732-7.996z" fill="#4F4F4F"/><path fill-rule="evenodd" clip-rule="evenodd" d="M52.971 96.288c.249.766.471 1.5.613 2.293.097.29.193.585.29.884.52 1.594 1.07 3.281 1.91 4.677.429.789.728 1.603 1.028 2.42.202.547.404 1.096.646 1.641 1.432 3.221 2.892 6.7 3.845 10.098.168.745.451 1.454.735 2.163.37.923.738 1.846.851 2.846.546 1.705.697 3.604.845 5.459.062.776.123 1.545.212 2.289l-9.596-12.257c-.636-.125-11.837-13.238-13.233-14.991-.577-.723-1.051-1.494-1.528-2.269-.264-.43-.53-.861-.814-1.286a32.13 32.13 0 00-1.374-1.858c-.494-.635-.988-1.271-1.432-1.944-.3-.455-.534-.935-.767-1.415a15.464 15.464 0 00-.586-1.123 9.498 9.498 0 00-.334-.492c-.324-.46-.745-1.057-.767-1.278-.018-.18.015-.36.048-.54.017-.09.033-.18.043-.27-.618-.235-.86-.476-1.273-.993l-.133-.17-4.674-8.658-.458.246c.16 1.766.932 3.447 1.69 5.1.336.73.668 1.454.944 2.177.213.558.385 1.119.557 1.68.249.809.496 1.617.866 2.41.448.96 1.01 1.838 1.573 2.72.274.429.549.858.811 1.3 3.28 5.505 6.868 10.762 11.265 15.464a288.027 288.027 0 003.71 3.871c4.905 5.053 9.8 10.096 13.097 16.413l-2.298.737-.19-.124c-.144-.09-.192-.122-.244-.147-.056-.028-.116-.048-.306-.128l-.17.131c-1.23.91-2.52.833-3.898.752a26.561 26.561 0 00-.909-.044l.15-.172c.106-.125.14-.163.166-.205.027-.044.044-.094.117-.249l-.192-.001c-.434-.003-.864-.005-1.295.058l-.295-.406c.192-.284.31-.342.549-.458l.165-.082-.13-.247-.296.112-.244-.668-.327.127-.125.855c-.642-.135-.93-.488-1.302-.942l-.137-.166c-.796.066-1.243-.298-1.787-.741a12.054 12.054 0 00-.455-.358c.093-.403.061-.703.032-.975-.048-.451-.088-.824.468-1.457l-.346-.549c-.669.624-.748 1.273-.85 2.099l-.033.267c-.82-.34-1.459-.923-2.105-1.513l-.336-.304-.126-.401-.328-.094c-.53-.17-1.008-.562-1.45-.925a20.678 20.678 0 00-.249-.202c.003-.441.059-.533.273-.885l.036-.06-.94-.407.21.676-.405.153-1.63-1.337.104-.708a6.797 6.797 0 01-.134-.111c-.175-.149-.195-.165-.559-.181.181-.442.361-.622.726-.924.114-.389.197-.717.254-1.119.057-.391.164-.682.314-1.044l-.172-.541c-.496.785-.862 1.65-1.227 2.513-.18.426-.36.852-.556 1.267l-2.292-2.158.13-.134c.48-.512.782-1.221 1.084-1.929.194-.456.389-.912.63-1.316l-.218-.212c-.901.848-1.585 1.607-1.7 2.917l-.58.094-.75-.636.088-.676c-.213-.05-.271-.08-.324-.073-.056.007-.106.056-.327.168-.14-.108-.306-.224-.481-.347-.611-.428-1.348-.944-1.594-1.505.36-.283.54-.359.996-.405l.134-.362c-.703.029-1.122.139-1.755.45-.524-.365-.925-.782-1.332-1.206-.25-.259-.5-.521-.784-.775-.197-.176-.446-.366-.712-.569-.79-.602-1.727-1.317-1.899-2.127l-.626-.277c-.137-.448-.466-.695-.743-.903-.2-.15-.372-.279-.428-.448a.392.392 0 01.059-.397c.08-.119.138-.205-.234-.495l-.48.081-.187-.244-3.582-3.733.113-.155c.453-.618.857-1.171 1.037-1.95l-.406-.199-.059.098c-.287.48-.57.952-.794 1.468l-.31.077c-1.987-1.91-3.502-4.204-5.016-6.497-1.189-1.8-2.377-3.6-3.792-5.212l.864-3.702-.405-.43c-.301.468-.453 1.001-.605 1.533-.135.475-.27.949-.51 1.374-.145-.263-.344-.593-.566-.962-.8-1.327-1.906-3.162-1.89-4.221a5.943 5.943 0 00-.122-.147c-.362-.433-.698-.835-.932-1.362-.224-.505-1.752-2.13-2.262-2.398-.255 1.576.453 3.496 1.001 4.98l.015.038c1.822 4.934 4.414 9.481 7.498 13.751 7.63 10.561 17.857 19.801 28.294 27.5l5.73 4.315c.667.457 1.506.904 2.376 1.367 1.628.867 3.365 1.791 4.285 2.954 1.39 1.757 1.947 4.627 2.434 7.132.151.783.297 1.53.458 2.197.08.332.207.656.333.981.252.646.504 1.292.394 2.001-.069.442-.32.842-.563 1.208l.004.364c.009.915.013 1.372.614 2.262l.064.025c.523.202.999.386 1.458.728l11.826.54.555-.27-.03-.54.639.036c.79-.928 1.228-2.134 1.13-3.345-.037-.456-.094-.878-.15-1.294-.099-.739-.195-1.456-.171-2.298.29-.459.48-1.082.662-1.685.106-.346.209-.686.327-.983l.083-.207v-.001c.81-2.021 1.648-4.114 2.714-6.003.065-.115.132-.241.201-.373.282-.532.612-1.154 1.042-1.478l.238-.166c-.009-.528.123-.793.371-1.238l.09-.157c-.222-.213-.484-.404-.747-.596-.425-.31-.852-.622-1.114-1.026.512.041.591-.013.939-.254l.157-.107-.651-.307-.025.006c-.49.11-.843.188-1.346.073-.42-.096-.466-.066-.69.079-.059.038-.13.085-.225.139l-.404-.55c-.756.152-1.71-.121-2.499-.347l-.296-.083c.186-.888.834-1.738 1.425-2.513.164-.215.323-.424.467-.626-.02-.618.182-1.07.383-1.516.177-.394.352-.784.37-1.282l-.674-.298-1.202 1.366c-.352.533-.583.859-1.043 1.32a5.37 5.37 0 00-.192.208c-.225.254-.443.501-.79.501l-.121-.54a5.07 5.07 0 00.488-.801c.096-.182.192-.365.31-.55.328-.514.379-.533.943-.673l-.132-.408.54-.811.81-1.081 2.446-2.974c.652-.841 1.433-1.566 2.22-2.296.773-.717 1.552-1.44 2.22-2.282.444-.053.931-.397 1.414-.738.326-.23.65-.459.957-.595l.019-.015c.657-.368 1.21-.742 1.794-1.221l-.27-.254.135-.333c1.138-.448 2.066-1.495 2.9-2.435.132-.148.262-.295.39-.435.25-.277.504-.553.758-.83 1.217-1.325 2.45-2.668 3.482-4.128.237-.718.555-1.264 1.129-1.762l4.547-6.717c.006-.246.006-.364.048-.465.041-.102.123-.186.292-.365l.616-1.307c.716-1.167 1.195-2.25 1.653-3.543l-.228-.292c-.357-.482-.421-.974-.286-1.563l.092-.322.04-.164c.051-.22.091-.39.23-.614.173-.278.146-.71.122-1.094-.007-.116-.014-.229-.015-.33l-5.12 8.82-.29.491c-.642 1.093-1.282 2.183-1.771 3.356-.068.163-.089.217-.117.266-.032.058-.074.11-.212.319-.524.781-1.11 1.465-1.7 2.152-.384.447-.77.896-1.14 1.374-4.485 5.795-9.096 11.597-15.238 15.709-.562.815-1.217 1.477-1.875 2.142-.467.472-.935.946-1.373 1.477-.642.779-1.19 1.623-1.74 2.466-.489.752-.978 1.505-1.534 2.211-.178-.83-.004-1.372.246-2.147l.032-.096.023-.017 1.743-6.962 4.582-12.327c.015-.612.322-1.476.616-2.3.186-.524.367-1.033.464-1.451 1.576-3.319 2.636-6.89 3.692-10.447.53-1.788 1.06-3.572 1.654-5.318l.647-2.444c.52-1.482.841-3.099 1.156-4.678.103-.52.206-1.035.315-1.54-.101.087-.188.165-.264.235-.4.364-.553.503-1.267.503-.385-.351-.647-.771-.918-1.205l-.105-.167c-.034-.37-.073-.586-.246-.926l-.15-.267c.21-.516.305-1.1.397-1.666.025-.155.05-.308.077-.459a15.087 15.087 0 01-2.181 2.745 8.985 8.985 0 01-.456.405c-.371.316-.797.68-.924.934-.085.168-.069.283-.057.37.018.132.028.204-.323.309-.62.184-1.454 1.159-2.18 2.005-.37.431-.71.83-.98 1.073-1.004.906-2.17 1.6-3.344 2.26l-7.197 3.15c-.417.208-.888.305-1.35.4-.15.032-.3.063-.445.097-.24.056-.533.132-.858.215-1.245.322-2.95.761-3.797.675l-.485.314-.197-.12c-.456-.192-1.271-.13-2.006-.073-.373.028-.725.056-.999.047-.624-.568-1.08-1.765-1.448-2.733-.096-.253-.187-.49-.273-.696l-.12-.05-.56-1.567-.611-1.615-.095-.259c-.386-1.051-.68-1.852-.176-2.923l-.537-.047-2.745-8.664c-.379.652-.387 1.309-.396 2.014-.002.163-.004.328-.01.495-.082 2.062.27 3.87.633 5.728.212 1.09.428 2.197.562 3.383.042.376.12.485.294.733l.1.143c.805 1.178 1.212 2.662 1.62 4.15.332 1.215.666 2.431 1.217 3.484.364.694.517 1.492.672 2.295.124.645.25 1.292.484 1.89l.71.162zm5.197 41.228l-.014.717c1.067 3.286 2.278 10.002 2.278 10.002l.7 3.259 10.211-.007c.01-.198.016-.437.023-.7.029-1.242.07-3.035.738-3.756.15-.121.537-1.245.493-2.752-.022-.727.468-1.952.968-3.204.678-1.699 1.377-3.447.842-4.061l-.335-.018c-.463-.027-.931-.055-1.385.033-.165.032-.201.046-.234.041-.037-.006-.07-.034-.257-.085-.674-.187-1.623-.049-2.45.07-.263.039-.515.075-.74.098-.315.452-.463.836-.64 1.351-.548.533-.997.823-1.791.825-.826.002-1.543-.109-2.11-.757l-1.27-1.994c-.264.019-.527.034-.789.05-1.468.086-2.9.17-4.238.888z" fill="#4F4F4F"/><path d="M116.993 90.564c.544-.212 1.146-.538 1.739-.515l.376.406c-3.018 3.155-6.228 5.453-9.732 7.996-1.454 1.056-3.03 2.634-4.88 2.885-.616 1.023-2.385 1.513-3.511 1.902-2.135.735-4.965 2.118-7.251 1.993l4.548-6.717c3.252-.36 7.039-.834 10.098-2.106 3.09-1.285 6.082-3.673 8.613-5.844z" fill="#E6E6E6"/><path d="M95.724 97.274l5.121-8.82c.004.437.119 1.062-.107 1.425-.172.277-.192.47-.27.778l-.092.322c-.135.589-.071 1.081.286 1.563l.228.292c-.458 1.294-.937 2.376-1.653 3.543l.034-.281c.095-.743.188-1.142.526-1.788.246-.47.288-1.169.335-1.69l-.158.309-.361.723c-.486 1.02-1.621 1.642-1.823 2.687-.482.393-.668.387-1.234.546l-.832.391z" fill="#4F4F4F"/><path d="M73.004 104.58l.439-.131.185.266c-.262.848-.523 1.79-.95 2.568-.34.618-.954.986-1.478 1.425-2.176 1.82-5.767 3.768-8.536 4.376l-.607-.395c-.663-.934-.926-1.599-1.18-2.703 1.988-1.163 4.01-1.33 6.103-2.064 2.097-.736 4.13-2.187 6.024-3.342zm-1.967 5.676l.325.018c.242.793-.422 2.744-.896 3.48-.396.614-1.524.892-2.119 1.314-.984.697-1.788 1.684-3.047 1.944-.387.08-.526.156-.834.395l.218.279c1.847-.261 3.422-1.315 5.035-2.2-.526 1.569-1.309 5.091-2.788 5.877l-.249.111c.216.324.092.213.46.421l.279.147-.44 2.368-.744 3.606c-.494-1.828-.975-3.97-1.062-5.867l.86-.257.11-.352-.983-.202c-.691-.757-.836-1.879-1.137-2.838l-1.585-4.448c3.166-.814 5.651-2.477 8.597-3.796zm.895-9.174l3.823-2.594c-.243.79-.494 2.206-.89 2.895-.169.296-.985.812-1.273 1.047-1.208.987-2.437 2.124-3.823 2.851-2.886 1.515-5.846 3.157-9.136 3.42-.256-.615-.512-1.159-.877-1.716l-.039-.015-.797-.635c-.145-.708-.174-1.268-.144-1.985 4.007-.231 8.112-2.239 11.766-3.808l1.39.54z" fill="#E6E6E6"/><path d="M58.776 104.35c4.007-.231 8.112-2.239 11.766-3.808l1.39.54c-2.462 1.712-4.931 2.547-7.788 3.358-1.269.36-4.195.272-4.9 1.086l.473 1.444-.797-.635c-.145-.708-.174-1.268-.144-1.985z" fill="#4F4F4F"/><path d="M75.153 89.156c1.09-.73 1.865-1.782 2.905-2.537.713-.519 1.338-.844 2.025-1.477l-1.273 3.41-.443.777c-.297.725-.5 1.284-.532 2.07l-.026.034c-.478 2.535-.782 4.564-3.025 6.113-.438.303-.876.495-1.366.696-.327.134-.4.293-.634.526l-2.242 1.774c-3.654 1.569-7.76 3.577-11.766 3.808-1.114-2.396-2.449-5.418-2.863-8 2.272.438 5.274-.47 7.465-1.028 1.005-.256 2.108-.413 2.983-1.003.301-.203.362-.293.743-.364.325-.06.517-.109.821-.253l4.25-2.208c1.207-.565 2.015-1.434 2.978-2.338z" fill="#E6E6E6"/><path d="M72.439 94.332c1.757-1.862 4.085-3.176 5.928-5.003-.297.725-.5 1.284-.532 2.07l-.026.034-.701.327c-.204.848-.696 1.457-1.447 1.943-.218.141-.795.457-1.067.442-.098.224-.12.31-.25.5-1.483 2.177-10.39 5.351-13.146 5.674-.325.039-.54.011-.85.158-.315.149-.406.052-.745-.028-.542.264-.888.353-1.489.405l.017-.734c.953-.383 2.092-.118 3.1-.487.29-.105.534-.19.838-.252 3.784-.77 6.935-3.533 10.37-5.05z" fill="#4F4F4F"/><path d="M81.43 75.56c-.126.7-.207 1.466-.474 2.124l.15.267c.172.34.21.555.245.926.31.493.589.976 1.024 1.372.85 0 .905-.199 1.53-.738-.44 2.041-.781 4.249-1.47 6.218l-.648 2.444c-.262-.547-.487-1.052-.898-1.508l-2.08 1.887 1.275-3.41c-.688.633-1.313.958-2.026 1.477-1.04.755-1.816 1.807-2.905 2.537-.963.904-1.77 1.773-2.979 2.338L67.925 93.7a2.87 2.87 0 01-.821.254c-.38.07-.442.161-.743.364-.875.59-1.978.747-2.983 1.003-2.191.558-5.193 1.466-7.465 1.028l.32-.429-.057-.395-.85-.475c-.926-1.012-.854-2.379-1.526-3.468-.237-.383-.13-.464-.063-.898l-.087-.32c.813.026 2.317-.264 3.005.027l.197.12.485-.315c1.069.109 3.5-.619 4.655-.89.598-.14 1.243-.221 1.795-.497l7.197-3.15c1.174-.66 2.34-1.354 3.344-2.26.799-.722 2.226-2.8 3.16-3.078.585-.175.168-.258.38-.68.188-.375 1.03-.99 1.38-1.338a15.09 15.09 0 002.181-2.745z" fill="#4F4F4F"/><path d="M71.586 86.659c1.7-.082 2.557-1.497 3.713-2.54 1.156-1.043 2.409-1.9 3.497-3.037.715-.746 1.228-1.823 2.204-2.225-.181.987-.29 2.085-.651 3.02.304.558.283.575.179 1.207l-.456-.627c-1.223 1.619-2.742 3.004-4.165 4.447-.476.483-1.264 1.084-1.605 1.637l-.435.42-.57-.059-.182.189c-1.866 1.832-5.076 3.367-7.545 4.214-.662.226-1.382.165-1.96.461-2.51 1.285-5.538 1.267-8.285 1.285-.925-1.011-.853-2.379-1.526-3.468-.236-.383-.129-.464-.062-.897.825.302 1.697.587 2.575.668 1.074.1 2.31-.2 3.376-.353 3.475-.496 9.21-1.92 11.898-4.343z" fill="#E6E6E6"/><path d="M25.98 38.791c.642-1.961 1.665-3.685 2.54-5.54 3.139-6.658 6.259-12.592 11.461-17.95 1.255-1.292 2.559-2.602 3.952-3.742.614-.503 1.378-.87 1.944-1.411 1.6-1.531 4.96-3.443 7.137-3.84 1.053-.191 1.847-1.046 2.743-1.15.859-.099 1.65-.298 2.494-.51-.206 1.06-1.197 2.154-1.74 3.088-1.788 3.081-4.44 6.822-5.13 10.3-.473 2.38-1.527 4.486-2.167 6.803-.659 2.386-.645 4.847-.539 7.295-.617.74-.68 1.816-.595 2.788l.11.665c-.846 1.595-.72 3.363-.988 5.107-.362 2.363-1.304 4.463-.54 6.904.14.442.154.458.5.782.396.37.535.748.697 1.253l-.68 1.413c-.97 3.092-.717 7.827-.409 11.095.059.622.364 1.186.346 1.813-.04 1.432-.449 2.905-.546 4.358.048 1.054-.035 2.266.428 3.228l.087.271c-.466.803-.371 1.611-.406 2.51-.13 3.27.833 5.901 1.195 9.11.05.441.147.514.394.876 1.463 2.14 1.61 5.293 2.837 7.634.656 1.252.63 2.844 1.156 4.185l.71.163c.25.765.472 1.499.613 2.293.614 1.834 1.203 3.902 2.2 5.56.717 1.319 1.07 2.704 1.674 4.061 1.432 3.221 2.892 6.7 3.845 10.098.386 1.714 1.387 3.241 1.587 5.009.774 2.419.754 5.229 1.057 7.748l-9.597-12.257c-.636-.124-11.837-13.238-13.233-14.991-.897-1.125-1.547-2.366-2.342-3.555-.874-1.308-1.937-2.484-2.806-3.802-.536-.812-.86-1.707-1.352-2.538-.201-.34-1.07-1.45-1.102-1.77-.027-.27.061-.54.091-.81-.618-.235-.86-.476-1.272-.992l-.133-.17-4.675-8.659-.458.246c.04-.544-.006-.585.371-.967-.635-4.09-.722-9.137-3.47-12.383l-.443-.706c-.648-1.174-.81-2.67-1.038-3.98-.829-4.771-.863-9.141.4-13.85 1.011-1.713 1.186-5.035 1.54-7.025l-.373-.005c.208-1.218 1.382-2.875 1.924-4.053z" fill="#D06F54"/><path d="M22.889 49.873c1.509 2.585.467 5.866 1.66 8.513.56 3.095.793 6.533-.408 9.518l-.171.506-.444-.707c-.648-1.173-.81-2.67-1.038-3.979-.829-4.771-.863-9.141.4-13.85z" fill="#4F4F4F"/><path d="M81.28 19.53c-.936-2.55-2.05-4.853-3.152-7.316-.366-.816-.5-1.75-1.056-2.46-.712-.906-1.875-2.246-2.3-3.29-.145-.358-.162-.58-.432-.885l-1.354-1.725 3.066.83c1.992.777 4.133 1.277 6.037 2.234l.846.422c.722.37 1.47.646 1.91 1.36 1.34 1.225 2.59 2.317 4.098 3.337 1.328 1.467 3.056 2.845 4.162 4.467 4.737 4.983 7.175 12.662 9.896 18.918.876 2.013 1.271 4.275 3.006 5.73l.332.004.192-.996c.046.637.103 1.256.053 1.893-.117 1.499.445 3.45.614 4.98-.306 1.798-.489 3.407.188 5.142l.138.36.685 5.079c.255 2.593.641 5.295.616 7.899-.04 4.097-.917 8.348-1.793 12.34-.354 1.61-.632 3.476-1.327 4.965-.43.47-.573.848-.758 1.438l-2.74 5.83c-.329.358-.465.624-.626 1.081-.071.71-.298 1.08-.691 1.667l-.227-.292c-.358-.481-.421-.974-.287-1.563l.092-.321c.078-.308.099-.502.27-.779.226-.363.111-.988.107-1.425l-5.12 8.82c-.735 1.26-1.499 2.5-2.061 3.848-.147.352-.073.195-.329.586-.865 1.288-1.9 2.313-2.839 3.525-4.486 5.795-9.097 11.598-15.239 15.709-.96 1.393-2.193 2.34-3.248 3.62-1.215 1.473-2.096 3.179-3.274 4.676-.186-.864.011-1.415.278-2.243l.023-.017 1.743-6.962 4.582-12.327c.026-1.001.83-2.675 1.08-3.751 2.368-4.986 3.572-10.543 5.346-15.765l.647-2.444c.69-1.969 1.032-4.177 1.47-6.218-.624.54-.678.738-1.53.738-.434-.396-.712-.88-1.023-1.372-.034-.37-.073-.586-.246-.925l-.15-.268c.268-.658.349-1.424.474-2.125l1.03-6.345c.203-.316.12-1.42.14-1.828.063-1.286.349-2.511.419-3.812.22-1.68.155-3.402.158-5.094.227-.969.01-2.535.005-3.567-.083-1.374.567-4.476.567-4.476s1.301-.884.578-6c-.724-5.117-.344-.335.476-2.463.465-1.205.314-2.887.285-4.173-.135-6.026-1.468-12.719-3.808-18.271z" fill="#D06F54"/><path d="M83.748 50.436l.652-1.002.314.138c.342 5.275.883 10.841.624 16.12-.225 4.617-1.223 9.23-1.433 13.819-.625.54-.68.738-1.53.738-.435-.396-.713-.88-1.024-1.372-.034-.37-.073-.586-.246-.925l-.15-.268c.268-.658.349-1.424.474-2.125l1.03-6.345c.203-.316.12-1.42.14-1.829.063-1.285.349-2.51.419-3.81.22-1.68.155-3.403.158-5.095.227-.97.01-2.535.005-3.567-.083-1.374.319-3.102.567-4.477zm18.877 32.86c1.615-5.161 2.65-11.024 3.375-16.395.25-1.85.281-3.738.573-5.58.219-1.381.453-2.832 1.636-3.708.255 2.594.641 5.296.616 7.9-.04 4.097-.917 8.348-1.793 12.339-.354 1.61-.632 3.477-1.327 4.966-.43.47-.573.847-.758 1.438l-2.74 5.83c-.329.358-.465.624-.626 1.081-.071.71-.298 1.08-.691 1.667l-.228-.292c-.357-.482-.421-.975-.286-1.563l.092-.322c.078-.307.098-.501.27-.778.226-.363.111-.988.107-1.425.213-1.64 1.391-3.455 1.78-5.158z" fill="#4F4F4F"/><path d="M48.675 32.133c.508-.257 1.249-.846 1.46-1.382.882-2.228 1.558-4.798 2.266-7.1.373-1.215.624-2.656 1.272-3.755.744-1.263 1.138-2.862 1.748-4.216 1.758-3.901 3.597-7.429 6.623-10.52.85-.87 1.631-1.777 2.796-2.217.629.313 1.135.54 1.85.541.523 0 1.144-.09 1.656.04 1.286.325 2.086 1.611 2.8 2.633 1.927 2.754 3.47 5.524 5.073 8.471l.358 1.922-.274.314.744.858c.877 1.592 1.523 3.031 1.778 4.848.08.57-.066 1.097-.004 1.688.208 1.984-.954 4.566-1.947 6.257l.294.094c1.236-2.023 1.963-3.935 2.448-6.252l1.765 6.935c.071.396-.031.73-.12 1.115l.087.205c1.016 2.518 1.329 5.59 2.06 8.245.078.75.01 1.763.473 2.348.33.417.376.714.445 1.231l-.824.902c-1.85 2.129-1.763 5.631-2.759 8.1-.28.692-.828 1.329-1.222 1.963-.997 1.604-2.229 3.65-2.95 5.388l.402.268.489-.134.186-.947.188.068c.275.092.164.068.46.068.554-.815 1.18-1.59 1.398-2.566l-.156-.273.212-.241c1.638-1.968 2.53-6.044 3.272-8.541.236-.795.384-1.831.821-2.532l-.095 4.477c-.249 1.374-.65 3.103-.567 4.476.005 1.033.222 2.599-.005 3.568-.003 1.692.061 3.414-.158 5.094-.07 1.3-.356 2.526-.419 3.811-.02.408.063 1.513-.14 1.829l-1.03 6.345a15.09 15.09 0 01-2.181 2.745c-.35.349-1.192.962-1.38 1.339-.212.421.205.504-.38.678-.934.279-2.361 2.357-3.16 3.078-1.004.907-2.17 1.6-3.344 2.26l-7.197 3.15c-.552.276-1.197.357-1.795.498-1.155.271-3.586.999-4.655.89l-.485.314-.197-.12c-.688-.29-2.192 0-3.005-.027-.786-.715-1.306-2.433-1.72-3.428l-.121-.05-.56-1.567-.611-1.615c-.428-1.183-.815-2.025-.27-3.182l-.538-.047-2.745-8.664-.087-.272c-.464-.961-.38-2.174-.428-3.227.097-1.453.506-2.926.546-4.358.018-.627-.287-1.192-.346-1.813-.308-3.268-.562-8.003.409-11.096l.68-1.413c-.162-.504-.301-.881-.697-1.252-.346-.325-.36-.34-.5-.783-.764-2.44.178-4.54.54-6.904.267-1.743.142-3.511.987-5.107l-.11-.664c-.083-.972-.021-2.048.596-2.789z" fill="#E6E6E6"/><path d="M76.219 14.628l.358 1.922-.274.315.744.858c-.564.807-.117 2.115-.353 3.09-.174.72-.65 1.367-1 2.011-1.374 2.533-4.102 4.656-6.148 6.69.096-1.15 2.406-3.361 3.141-4.456 1.098-1.635 2.263-3.643 2.871-5.51.512-1.57.569-3.284.66-4.92zM48.19 35.587l2.177-2.605c-.04 2.801-.58 5.21-.887 7.94-.253 2.246.27 5.006-.82 7.046l-.8 1.665c-.163-.505-.302-.882-.698-1.253-.346-.324-.36-.34-.5-.782-.764-2.441.178-4.541.54-6.904.267-1.744.142-3.512.987-5.107zm34.991 19.326c.004 1.032.222 2.598-.005 3.567-.285.454-.615.909-.833 1.398-1.181 2.72-2.551 5.094-4.529 7.318l-.875 1.042a34.551 34.551 0 01-8.36 6.94c-1.088.646-1.509 1.098-2.814 1.189l-.484.695-.548-.1-1.129.805c-.297.012-.483.014-.749.163-.746.418-1.57.72-2.357 1.053-.514-.166-.565-.205-.91-.623l6.177-2.846c4.47-1.745 7.816-6.031 11.338-9.119 1.662-2.081 2.817-4.491 4.062-6.838.682-1.563 1.546-3.003 2.016-4.644z" fill="#4F4F4F"/><path d="M83.018 63.574c-.07 1.3-.356 2.526-.419 3.812-.02.407.063 1.512-.14 1.828-1.266.943-1.78 2.173-2.718 3.39-1.997 2.585-5.193 6.307-8.171 7.586-3.957 2.932-7.989 4.163-12.65 5.497-1.481.29-2.968.595-4.47.757-.833.09-1.86-.023-2.52.492l-.121-.05-.56-1.567c2.275-.031 4.71-.2 6.946-.627 1.99-.442 4.216-.98 6.085-1.78 2.338-1 4.477-2.465 6.81-3.5l.248-.11c1.182-.981 2.142-2.232 3.192-3.353 2.067-2.205 4.172-4.316 5.797-6.89 1.072-1.701 1.85-3.66 2.69-5.485z" fill="#4F4F4F"/><path d="M71.57 80.19c2.978-1.28 6.174-5 8.17-7.587.94-1.216 1.454-2.446 2.719-3.39l-1.03 6.346a15.087 15.087 0 01-2.181 2.745c-.35.349-1.192.962-1.38 1.339-.212.421.205.504-.38.678-.934.28-2.361 2.357-3.16 3.078-1.004.907-2.17 1.6-3.344 2.26l-7.197 3.15c-.552.277-1.197.357-1.795.498-1.155.271-3.586.999-4.655.89l-.485.314-.197-.12c-.688-.29-2.192 0-3.005-.027-.786-.715-1.306-2.433-1.72-3.428.66-.516 1.687-.403 2.52-.493 1.502-.162 2.989-.466 4.47-.756 4.661-1.334 8.693-2.565 12.65-5.497z" fill="#E6E6E6"/><path fill-rule="evenodd" clip-rule="evenodd" d="M74.368 154.344c-.226-.528-.447-1.043-.541-1.344l-15.667.278.012.326c.023.574.056 1.365-.108 1.771-.043.108-.156.211-.27.313-.112.102-.224.203-.268.31-.228.55-.331 1.298-.43 2.016-.058.42-.115.83-.194 1.183-.178.793-.375 1.56-.57 2.32-.426 1.659-.843 3.284-1.04 5.078l-.427.144c-.066.439-.125.894-.184 1.356-.212 1.635-.435 3.36-1.002 4.822-.1.312-.162.658-.225 1.003-.184 1.015-.368 2.03-1.48 2.19l-.15.021c-.422.057-.475.064-.824.437.006.126.008.246.01.362.009.522.016.957.334 1.443l1.472-.131c.033.035.071.067.11.099.077.065.155.129.187.222.11.325.039 1.169-.018 1.843a12.9 12.9 0 00-.05.726l.034 7.902c.055 1.091.638 1.582 1.348 2.18.177.148.36.303.547.476l10.838.009c.353.007.988.038 1.783.076 3.145.153 8.805.429 9.54-.183.4-.332 1.52-1.6 1.673-2.07.111-.34.071-.995.037-1.56-.016-.252-.03-.485-.03-.666.002-.929-.038-1.905-.078-2.896-.093-2.235-.188-4.548.192-6.585.356.162.835.322 1.228.305.982-.04 1.225-.225 1.822-.929.05-.778.03-.926-.313-1.62l-.896.011c-.751-.436-.912-1.399-1.072-2.353-.114-.687-.228-1.368-.56-1.844l-.207-.274c-.024-1.143-.214-2.159-.458-3.27-.842-.727-1.001-2.074-1.115-3.144a11.014 11.014 0 01-.025-.249c-.053-.547-.121-1.252-.338-1.689-.047-.094-.15-.185-.253-.276-.113-.1-.225-.199-.263-.3-.225-.6-.295-1.495-.358-2.304-.028-.36-.055-.702-.094-.994l-.342.342c-.295-.573-.384-1.291-.472-1.999-.056-.448-.111-.892-.217-1.291-.09-.339-.363-.975-.628-1.593zm-11.92 5.608c-.397-.64-.535-1.327-.673-2.017-.16-.794-.32-1.591-.874-2.328l-.158-.201.072-.434c1.096-.295 2.457-.201 3.726-.114.5.035.985.068 1.434.076l5.933-.128.35.335-.398 1.562c-.076.181-.155.36-.233.54-.476 1.098-.95 2.188-1.061 3.391l-.164 1.553-.347.07c-.208.48-.306.875-.398 1.39-.12.669-.38 1.277-.644 1.89-.14.327-.282.656-.402.997-.406 1.145-.71 2.314-1.016 3.486-.084.322-.168.645-.254.967l-.56.132-.56 1.367c-.904-1.965-1.575-4.651-2.118-6.823l-.061-.247a5.489 5.489 0 01-.098-.538c-.056-.383-.112-.761-.339-1.095-.443-.651-.661-1.666-.864-2.608-.094-.438-.185-.86-.293-1.223zm10.702-3.409l-.885 3.888c-.063.285-.125.575-.188.868-.24 1.119-.49 2.277-.827 3.336-.096.3-.243.581-.39.863-.151.287-.302.576-.4.886-.072.231-.114.51-.156.794-.07.473-.143.961-.366 1.276-.277.392-.369.91-.458 1.411a8.08 8.08 0 01-.128.624c-.065.249-.179.384-.298.526a1.751 1.751 0 00-.239.342c-.15.292-.221.784-.286 1.226a8.46 8.46 0 01-.1.594l.125.348-.547-.107-.178.666.39.625c.945.036 1.962.017 3-.001 2.219-.041 4.537-.082 6.473.392.277.067.323.051.506-.016a4.38 4.38 0 01.14-.05l.04-.273c.09-.613.175-1.182-.176-1.758l-.11-.18-.001-.001c-.285-.461-.493-.797-.56-1.392a6.544 6.544 0 01-.016-.447c-.006-.402-.015-.918-.085-1.025-.064-.098-.163-.17-.261-.242a.98.98 0 01-.268-.253c-.16-.259-.245-.84-.293-1.166l-.006-.041c-.193-1.303-.544-2.371-.898-3.45-.265-.807-.532-1.621-.737-2.543-.74-1.897-1.445-3.718-1.817-5.72zm-16.722 11.128l-1 6.422c.66.236 1.628.166 2.471.105.284-.02.555-.039.794-.046l5.593.026c-.114-.35-.201-.858-.293-1.394-.154-.897-.32-1.869-.644-2.291-.65-.846-.724-2.061-.791-3.153l-.031-.474-.333-.072-.328.072-.742-3.285-.498-.167-.011-.072c-.278-1.817-.49-3.207-1.357-4.867l-.318-.161c-.05.056-.106.108-.161.161-.11.104-.219.209-.297.336-.13.213-.188.882-.237 1.448-.026.306-.05.581-.081.739-.17.853-.395 1.694-.62 2.535-.347 1.293-.694 2.585-.835 3.923l-.281.215z" fill="#4F4F4F"/></svg>