<svg width="207" height="191" fill="none" xmlns="http://www.w3.org/2000/svg"><path d="M123.071 138.322l-1.205-.191c-1.11 1.649-1.671 2.693-1.219 4.739.089.385.223.525.426.815l1.323-.013c.753-.939 1.306-2.193 1.893-3.252l-1.218-2.098z" fill="#4F4F4F"/><path d="M177.292 171.397l-1.153-1.141c.182-.669.174-.967.115-1.64l-1.949.139-.311 1.054c-.994.899-.97 1.037-2.382 1.076l-1.838.317c-2.154-.206-4.268.2-6.474-.01l2.292 1.95c3.791-.382 8.084-.563 11.7-1.745z" fill="#9C9C9C"/><path d="M188.509 168.26c-2.101.513-3.907.719-6.062.68-1.725-1.377-3.084-1.656-5.201-2.023-.543.226-1.047.466-1.635.559l-.301.03-1.005 1.249 1.949-.139c.059.673.067.971-.115 1.64l1.153 1.141c3.718-.892 7.712-1.572 11.217-3.137z" fill="#656565"/><path d="M91.162 101.557l-1.803-.152-.834 2.44c1.138 1.18 1.995 1.59 3.57 2.021l.286.509c.533.887 1.451 1.433 2.28 2.01l.08.295c.45 1.572 1.404 2.872 2.463 4.099l.82-.391.473.502-.33 1.026c1.46.775 2.253 1.023 3.901.746l-.218-.706.93.153.642-.825-.476-.975.569-1.163-.001-.339-3.703-5.076c-.41-.179-.409-.796-.596-1.201-1.36-.033-2.11-.533-3.251-1.237l-.457-.283c.103-.616-.048-.857-.257-1.429-.598.788-.214 1.696-.603 2.468-.227.452-1.119 1.143-1.502 1.535l-.784-.115-.377-.698-.99.168c-.532-.59-1.002-1.075-1.333-1.802l1.5-1.58z" fill="#9C9C9C"/><path d="M89.727 90.25c-.396-.183-1.742-.64-1.965-.915-1.104-1.32-.18-2.114-2.109-3.285-1.319 2.04-1.606 2.479-1.549 5.017-.935.107-1.326-.217-2.157-.598-.286 1.16-.511 2.038-.247 3.216.097.431.108.83.148 1.266.08.917.326 1.288.887 1.998l-.045 1.283.313.126c1.585.696 1.762 1.423 3.552.79.74-.262 1.228-.683 1.819-1.178l.264.305-.584 1.826.733.24.792-.594c.893.194 1.228.361 1.867 1.021l-.285.788-1.5 1.58c.33.727.801 1.213 1.333 1.802l.99-.168.377.698.784.115c.383-.392 1.275-1.082 1.502-1.534.39-.773.005-1.68.603-2.469.209.573.36.814.257 1.43l.456.282c1.143.704 1.892 1.204 3.252 1.237.187.405.186 1.023.596 1.201l.939-1.751-.525-1.634-1.065-.262c-.723-.634-1.027-1.337-1.43-2.186l-.174-.373-1.214-.405-.997-.373c-.046-.763-.203-1.082-.633-1.71l-2.063-1.013c-1.273-.709-1.427-2.838-1.823-4.234l-.98-1.155-.119-.385zm39.609 56.062c-.441-.397-.335-.206-.524-.707l-1.171-2.998-.984.202c-.615-1.022-1.46-1.649-2.368-2.39-.587 1.059-1.14 2.313-1.893 3.253l1.17.573.972-.439.418.352c-.892.602-.816.662-1.09 1.72.796 2.06 2.549 2.137 3.951 3.702l.476.52c.449.818.943 1.482 1.521 2.209l1.15 1.334.687-.197c.193 1.193.067 1.43-.141 2.574-.125.699-.099 1.643.376 2.154 1.161 1.228 1.864 1.962 3.625 2.001l1.497-1.021 3.023-.03.934 2.305c.726 2.162 1.792 2.723 3.59 3.971l1.319.048c.916.372 1.368.667 2.366.544l.98-1.933c1.048.164 2.006 1.313 2.737 2.041.431.427.266.31.702.892.484.646.838.841 1.54 1.191l-.475-1.723.726-.886 1.472.341.592-.486-.548-3.475c-1.221-.698-1.762-1.254-3.184-.888l-.981-1.163c-.837.046-1.146-.016-1.858-.463l.032-1.783-1.212-.559c-1.671-.192-3.359.148-4.768-.915l-2.242-1.751-.786-1.083-1.491.134c-.354-.569-.229-.479-.624-.823-.414-.371-.833-.685-1.199-1.114l-.694-.809c-.742-.578-1.061-.572-1.691-1.429l-.209-.28-.295.814-1.032-.072-.444-1.088-1.323 1.138c-.597-1.873-1.188-2.26-2.629-3.508z" fill="#8C8C8C"/><path d="M154.45 165.574c.382-.482.68-.942.979-1.485l-1.022-.429c-.501-.913-.793-1.209-1.72-1.681l-1.091 1.092c-.813-.571-1.166-.759-2.169-.751l-.61 1.135c-1.11.565-1.982 1.202-2.943 1.994.917.371 1.369.666 2.366.543l.981-1.933c1.048.164 2.005 1.313 2.737 2.042.431.426.265.309.701.891.484.647.839.842 1.54 1.191l-.475-1.723.726-.886z" fill="#ADADAD"/><path d="M138.255 155.285l.034-1.305-1.441-.625c-.543-1.022-1.31-1.667-2.15-2.431-1.78-.148-3.285.697-4.883 1.385l1.15 1.334.686-.197c.194 1.193.068 1.43-.141 2.574-.125.7-.099 1.643.376 2.154 1.161 1.228 1.864 1.962 3.625 2.001l1.497-1.02c.642-.327 1.172-.543 1.88-.658l.659-.1-.037-1.176-1.255-1.936z" fill="#9C9C9C"/><path d="M138.255 155.285c-1.582 1.114-2.397 1.995-3.277 3.713l.533 1.177 1.497-1.02c.642-.327 1.172-.543 1.88-.658l.66-.1-.038-1.175-1.255-1.937z" fill="#4F4F4F"/><path d="M204.613 150.235c-2.542.741-3.837 3.921-5.99 5.558-4.666 3.551-11.678 5.088-17.32 6.045l-4.134.969-.655-.292c-2.567.394-4.543-.377-7.026-.669-1.047-.122-1.477-.289-2.399-.815l-.332-.194c-.794.083-1.459.194-2.213.462l.028 1.742 3.037-.244c.666 1.605 1.592 2.74 2.694 4.048l-1.076 2.306.547 2.052 1.838-.318c1.413-.038 1.388-.177 2.382-1.076l.311-1.053 1.005-1.25.301-.03c.588-.093 1.092-.332 1.635-.558 2.117.367 3.476.645 5.201 2.022 2.155.039 3.961-.167 6.063-.68 2.111-.544 5.264-1.75 7.054-3.007 1.673-1.175 3.718-1.974 5.54-2.964l.299-1.121c1.59-.777 2.013-1.524 3.093-2.843l.686-.785c.929-1.642-.243-5.396-.569-7.305z" fill="url(#paint0_linear_249_99243)"/><path d="M173.994 169.809c-.28-.976-.361-1.483-1.183-2.146l-1.311.454.112 2.768c1.413-.038 1.388-.177 2.382-1.076z" fill="#4F4F4F"/><path d="M171.5 168.117l-.341-.91-.857-.362-1.075 2.305.547 2.052 1.837-.317-.111-2.768zM108.393 1.12c-1.967.12-3.671.325-5.57.872l-.998 1.419-1.297-.007c-.77 1.09-1.112 1.717-1.505 2.971-.396 1.276-1.466 2.616-2.016 3.884-1.144 2.625-1.532 5.493-2.146 8.27-.304 1.39-.821 2.137-.872 3.597-.057 1.51-1.04 3.184-1.179 4.847-.325 3.768.29 8.623-.575 12.18 1.008.774 2.015 1.664 3.22 2.106l-.35-5.932c.716-3.116-.813-5.705.978-8.585.053-1.24.555-2.447.948-3.617 1.107 1.42 1.264 3.152 1.594 4.879l.787-2.295-.05-4.582c.999.468 1.119.699 1.753 1.62 1.005-.791 1.002-1.979 1.27-3.197l1.5.046.901-1.218c.062-1.524-.002-1.638-.857-2.91.839-2.372 3.461-4.865 5.493-6.282l.488-.334.2-1.603 2.873-1.225-.144-.782-1.21-.426 1.781-.308.35-.957c-.999-1.72-2.922-1.521-4.681-2.172l-.686-.259z" fill="#656565"/><path d="M99.617 18.42c1.62-3.44 1.845-10.042 4.834-12.478 1.383-1.13 3.706-1.999 5.342-2.719-1.387-.609-2.52-.59-3.98-.32l-.319.34c-.734.631-1.661.825-2.568 1.093-.831.997-2.364 2.476-2.845 3.643-.52 1.275.818 1.848-1.184 3.014-.03.79.05 1.246.345 1.98-.314.79-1.54 2.518-1.525 2.898.05 1.788-.48 3.506-.43 5.338.021.668-.115 1.265-.256 1.916 1.107 1.42 1.263 3.152 1.594 4.879l.786-2.294-.05-4.583.256-2.706z" fill="#9C9C9C"/><path d="M134.233 141.997l-.156.61.875 1.007.134 1.562.082.515-.569.283-1.435-1.464c-.492.228-.711.386-1.09.802l-.327.381-2.419-2.182c-1.609-1.458-2.123-3.154-2.871-5.144l-.688.058-.665.861a24.375 24.375 0 00-1.539-3.016l-.58.095.086 1.956 1.218 2.098c.908.741 1.753 1.368 2.368 2.39l.984-.203 1.171 2.999c.19.5.084.31.524.706 1.441 1.249 2.033 1.636 2.629 3.509l1.323-1.138.444 1.087 1.032.073.295-.814.209.28c.63.856.949.851 1.691 1.429l.694.808c.366.43.785.744 1.199 1.114.395.345.27.255.624.824l1.491-.134.786 1.083 2.242 1.751c1.409 1.063 3.097.722 4.768.914l1.212.56-.031 1.783c.711.447 1.02.509 1.857.463l.982 1.162c1.421-.366 1.962.19 3.183.889l.548 3.475-.592.485-1.472-.341-.726.887.475 1.723.303.319.53.154c1.757.475 3.865.041 5.768.391l1.084.036c.336 1.298.214 1.352 1.416 2.108 2.206.21 4.32-.196 6.474.011l-.547-2.052 1.076-2.305c-1.102-1.309-2.028-2.444-2.694-4.049l-3.037.245c-1.339-.33-2.039-.586-3.044-1.547l.316-1.067c-.693-.509-.987-.275-1.809-.191-.724-.561-1.223-1-2.153-1.152-.666-.109-.887-.165-1.46-.524l.619-.835c1.476.574 2.877.426 4.426.372-2.523-1.443-4.688-3.376-7.104-4.995l-.242.072c.077.857.152 1.618-.012 2.474-2.247-.903-3.69-.538-5.473-2.37l-1.712-.924c-1.078-.545-2.661-1.313-3.106-2.53l-.163-.513a6.937 6.937 0 01-1.518.435c-.102-.374-.51-1.918-.742-2.081-.109-.083-.994.015-1.161-.065-.152-.074-.354-1.319-.519-1.427-.049-.03-1.258-.327-1.322-.363-1.261-.675-2.698-2.857-4.16-3.813z" fill="#787878"/><path d="M169.227 169.151l-.816-1.716c-.286-1.097-.358-1.421-1.054-2.367-.848-.23-1.792-.506-2.623-.139-.92.406-2.084.619-3.067.367-.5-.654-1.171-1.037-1.989-1.181-1.203-.216-1.45.245-2.364.93-.034.765-.044 1.209.257 1.936l.243.515-.255.501-3.057.505.53.154c1.757.475 3.865.042 5.768.392l1.084.035c.336 1.298.214 1.352 1.416 2.109 2.206.21 4.32-.196 6.474.011l-.547-2.052z" fill="#8C8C8C"/><path d="M87.522 64.007l-1.301-.53c-.876 3.244-2.305 6.154-3.752 9.168-2.057 2.479-2.957 4.536-2.641 7.85l.072.624-1.226.981c-.167 2.34-.026 5.194-.647 7.435 1.357.724 2.402.831 3.92.934.83.38 1.222.705 2.157.598-.057-2.538.23-2.977 1.549-5.017 1.93 1.17 1.005 1.965 2.11 3.285.222.275 1.568.732 1.964.915l.118.384.98 1.156c.397 1.396.55 3.524 1.824 4.233l2.063 1.013c.43.628.587.947.633 1.71l.997.373 1.213.406.175.372c.403.849.707 1.552 1.43 2.186l1.064.262.526 1.634-.94 1.751 3.703 5.076.001.34-.568 1.163.476.975-.643.825-.929-.154.218.706c.927.098 1.565.334 2.415-.091 1.058-.528 2.274-.696 3.421-.923 2.394 1.287 4.795 2.407 6.819 4.243l.292.252c1.718 1.546 2.585 5.138 3.284 7.304.63 2.571 1.033 6.006 2.803 8.015.491.561.671 1.132.923 1.826l-.092-1.778-1.074-4.656c-.367-2.562-.828-7.162-2.55-9.065a6.172 6.172 0 01-1.275-.006l-1.366-5.117.57-.86 2.846 1.162-.674-1.147c-.862-1.272-.919-1.387-2.467-1.708l-.455-.731c-.953-1.622-3.833-6.11-5.333-7.116-2.409-1.622-4.21-4.183-6.862-5.61-.585-.312-.995-.445-1.492-.918l-.46-.467-4.675-4.682c-3.91-4.303-7.163-8.006-9.28-13.507-.467-1.215-1.086-2.671-.952-3.99.09-.906.094-.423.093-1.096.012-2.353.04-4.444.547-6.753l.448-3.235z" fill="#787878"/><path d="M103.514 111.146l-.568 1.163.476.975.693.096c1.22.022 3.125-.326 4.041-1.087l-.543-.692c-1.486-.505-2.545-.604-4.099-.455z" fill="#4F4F4F"/><path d="M84.052 81.673l-.394-.002-.537.929c-.465.085-.261.085-.762.01l-.375-.062c-.028 1.3.207 2.229.61 3.46l.693.334 1.482-1.224c.356-1.465-.158-2.075-.717-3.445z" fill="#9C9C9C"/><path d="M191.538 118.734l-.647-.458c-1.549.426-3.177 1.03-4.789 1.009l-1.038.56c-3.751 1.454-7.361 3.794-11.184 4.914-2.196.644-6.439 3.739-7.889 5.44-.532.622-.968.922-1.659 1.341-2.692 1.639-5.992 4.087-8.079 6.437l-.382.4c-1.099 1.547-.519 4.828-1.244 6.723-.724 1.897.139 3.84-.915 5.772.167.495.763 1.783.652 2.23 2.415 1.62 4.58 3.553 7.103 4.995-1.549.055-2.95.203-4.426-.371l-.619.834c.573.36.794.416 1.461.525.929.151 1.428.591 2.152 1.152.822-.084 1.116-.319 1.809.191l-.316 1.067c1.005.96 1.705 1.217 3.044 1.546l-.028-1.742c.755-.268 1.419-.379 2.213-.462l.332.194c.922.526 1.352.693 2.4.815 2.482.292 4.458 1.063 7.025.669l.655.292 4.134-.969c5.642-.957 12.654-2.494 17.32-6.045 2.154-1.637 3.448-4.817 5.99-5.558l-.449-1.28-1.315-.281c-.672-7.648-.52-14.83-3.978-22.003-.869-1.813-2.796-5.008-4.65-5.621-.852-1.005-1.522-1.671-2.683-2.316z" fill="#BCBCBC"/><path d="M171.038 148.614l-1.362-.213-1.015.773.094 1.878c1.304.171 1.628-.018 2.812-.49l-.529-1.948z" fill="#ADADAD"/><path d="M195.097 124.192l-.773.992c.414 1.913.657 4.059 1.733 5.719l.721.213-1.213-6.161-.468-.763z" fill="#9C9C9C"/><path d="M191.538 118.734l-.647-.458c-1.55.426-3.177 1.029-4.789 1.009l-1.039.559c2.327-.098 2.42-.069 4.105 1.452 1.314-.271 1.823-.276 2.852-1.177l-.482-1.385zm5.24 12.382l.608 2.189c-.671.492-.927.323-1.738.304l1.302-.844-.818-.766c-.897.663-.948.789-1.339 1.842l.877 1.021 3.179-.433c.556-.983.55-.976.317-2.105-.572-2.777-1.084-5.712-3.601-7.37l1.213 6.162z" fill="#ADADAD"/><path d="M161.467 158.097c-1.549.055-2.95.203-4.426-.371l-.619.834c.573.36.794.416 1.46.525.93.151 1.429.591 2.153 1.152.822-.084 1.116-.319 1.809.191l-.316 1.067c1.005.96 1.705 1.217 3.044 1.546l-.028-1.742c.754-.268 1.419-.379 2.213-.462l.332.194c.922.526 1.352.693 2.399.815 2.483.292 4.459 1.063 7.026.669l.655.292 4.134-.969c-.67-.419-12.604-1.639-14.101-1.666l-.307-.002c-1.636-1.116-3.574-1.415-5.428-2.073z" fill="#656565"/><path d="M123.984 11.035c-1.12-1.703-2.659-3.39-3.535-5.2l-.279-.597-.724-.141c-1.221-.405-1.71-1.038-2.047-2.18-.907-.566-2.921-2.218-3.849-2.404-1.063-.212-3.98.468-5.157.607l.686.26c1.758.65 3.682.451 4.681 2.171l-.35.957-1.781.308 1.21.426.144.782-2.873 1.225-.201 1.603-.487.334c-2.032 1.417-4.655 3.91-5.493 6.281.855 1.273.919 1.387.857 2.911l-.901 1.218-1.501-.046c-.268 1.218-.264 2.405-1.269 3.197-.634-.921-.754-1.152-1.753-1.62l.05 4.582-.787 2.295.901 7.585c.71 2.44 1.203 4.85 2.866 6.83 1.003 1.2 1.844 2.556 3.011 3.61 1.652 1.168 4.281.919 6.211.591 2.037-.345 3.977-1.285 5.832-2.167 1.813-.415 3.475-.236 5.183-.585l1.043 1.012 1.697.005c.503.672.703 1.064.84 1.894l.251.227c.93.864 1.362 1.59 1.921 2.707.675 1.362 1.333 2.672 2.272 3.88l1.048.128-.286.656-.179.763.664 1.097c-1.102.942-2.865 1.188-4.351 1.138-.674-.024-1.19-.185-1.836-.384l-2.048 1.448c1.021 1.514 2.564 1.51 3.572 3.327l.402.467c1.186.206 2.132.284 3.058 1.125l-.097.781c.075 1.518-.522 1.893-.269 3.338-.528.397-1.014.745-1.602 1.042l.08.754.624.112c.541.098.955.219 1.438.481.801-.751 1.8-1.49 2.24-2.514l2.652-.909c1.221.738 2.236 3.093 2.515 4.481l.047.437-.76.193c-1.497.31-3.724.312-4.58 1.58l.565 2.196.31 1.944.529 1.737 3.203.503c-.838 1.205-1.631 2.002-1.777 3.5l.959 1.701 4.852-.316c-.696 1.35-1.823 1.444-2.27 2.386-.309.647-.619 1-1.114 1.5l.331 1.981c1.914 1.083 5.12.095 7.27-.227l.061.395c.907 1.861 1.498 3.324 1.744 5.405-1.476.76-2.084 1.03-2.74 2.612l-1.807.198c-.229.654-.528 1.318-.611 2.007l1 .812-.214.73c.994.817 1.232.845 1.517 2.147l1.207-.386 2.963.164c.217.872.328.882-.12 1.65-.308.532-.418.694-.929 1.06-.712.51-1.017 1.182-1.432 1.936l.08 1.163 2.434-.943c-.95 2.735-2.835 2.404-4.109 4.658l.711.403c1.34-.543 1.583-1.525 2.46-1.967.696-.352 2.054-.121 2.715-.504.245-.142.872-1.384 1.066-1.695.764.335 1.168 1.52 1.579 2.251.919-.618.97-.993 1.407-1.991l-.125-.761 2.609-4.154c1.053-.433 1.379-.774 1.975-1.74l.175-.29 2.428.27.151-.431c1.845-.604 3.591-1.533 5.459-2.05 2.299-.635 4.864-.539 7.237-.578l.468 1.972 1.88 2.843 1.088-.816.88 1.247.753-.065.203-.503c.351-.827.969-1.458 1.567-2.118l.841-1.481-.384-.698c-.753-2.024-2.126-2.796-3.11-4.558-.477-.852-.405-1.775-.914-2.693l-1.082-.064c-1.251-.035-2.289-.143-3.494-.503-.768-.228-1.11-1.433-1.473-2.14.103-2.786-1.211-5.188-.777-8.04l.511-.324 1.623 2.29 1.354.163 1.666-2.046.442-.473c-.128-2.113-.581-3.373-1.543-5.215l-.938-.242c-1.897-.526-3.566-.577-5.516-.614-.911-2.175-1.031-4.362-1.203-6.682 1.365-1.235 2.79-3.541 4.335-4.324l.613-.283c.176-.453.266-.603.266-1.149-.021-1.241-.58-2.195-1.42-3.006l-4.383.46c-.205-.505-.365-.922-.452-1.463-.329-2.098-.238-3.157.977-4.873-.914-2.401.803-4.368 1.146-6.785l.071-.513c2.286-4.085 3.545-8.39 4.953-12.834-1.056-1.34-2.055-3.265-3.674-3.909l-.715.491c-1.237.674-1.688 1.13-2.565 2.28l-.308.405-1.35.11c-1.128-6.133-.886-13.716-3.503-19.41l-1.007-.558c-.559-.45.049-.26-.63-.687-2.283-1.444-5.048-.478-7.455.123l-23.08 4.161c-1.197-.517-1.813-1.792-2.571-2.843l-.515.181-2.325-4.189z" fill="#4F4F4F"/><path d="M116.099 14.034l-.148-1.685c-.803-1.053-.809-1.044-2.1-1.352l-.807.84.567 2.205c.887.076 1.602.172 2.488-.008zm48.812 66.834l-1.237 2.088c-.612.834-.657 1.245-.817 2.204-.088.538-.081.368-.509.922l.052.425c1.323-.43 1.603-.869 2.529-1.863l1.043.925 1.197.397.143-.6c-.791-1.318-1.331-2.33-1.52-3.872l-.881-.626zm-8.678 2.044l-1.976.857c-.285 1.667.041 2.072.801 3.51 1.149.531 1.535.907 2.837.405.267-.102.441-.27.651-.444.182-1 .288-2.186.05-3.179-.919-.05-1.369-.419-2.086-.939l-.277-.21z" fill="#656565"/><path d="M142.313 78.198c-1.177-.278-1.989-1.26-2.712-1.442-1.613-.402-3.579 1.267-5.741.518l.529 1.736 3.203.504c1.039-.224 1.226-.4 2.043-1.103 1.103.728 1.609 1.71 2.277 2.83l1.242.148-.841-3.19z" fill="#ADADAD"/><path d="M157.318 77.699c-1.328-.063-2.637-.051-3.9-.49l-.318.096c-.958.272-1.456.379-2.437.052-.526.91-.302 1.107-.409 2.042-.03.24-.179.513-.287.728l.371 1.46c2.009.373 4.25-.967 6.082-1.733l-.008-.045 1.063-1.086-.157-1.024z" fill="#9C9C9C"/><path d="M149.898 100.636l-1.634.861.403 1.138c-.665.195-.917.172-1.593.097L146 103.96l2.963.164c.217.871.328.881-.12 1.649-.308.532-.418.695-.929 1.06-.712.511-1.017 1.182-1.431 1.936l.079 1.163 2.434-.943-.031-.474c.959-1.177 1.75-2.362 2.512-3.668.041-1.64-.254-2.912-.744-4.472l-.835.261z" fill="#ADADAD"/><path d="M159.575 68.69l-2.391.648c-.901.594-1.669 1.031-2.213 2 1.662 1.473 2.13 2.237 4.452 2.03.961-.086 1.454-.305 2.277-.761.975.119 1.426.492 2.207 1.047l.384-.263c.192-1.362-.7-3.008-1.203-4.266-1.77.287-1.961.402-3.513-.435z" fill="#656565"/><path d="M143.154 81.39l-1.242-.15c-.668-1.118-1.174-2.1-2.277-2.829-.817.703-1.004.879-2.043 1.103-.838 1.205-1.63 2.002-1.777 3.5l.96 1.7 4.851-.316.969-.624 1.113-1.005-.554-1.38z" fill="#C8C8C8"/><path d="M163.736 34.998l-.222-.483c-1.487-2.93-.572-5.32-1.086-8.432-.555-3.35-.863-8.245-3.789-10.327 1.871 5.297 3.312 12.6 2.727 18.217l.52 2.562c.599 3.058 1.062 6.255 2.127 9.188.392-1.467.4-2.718.355-4.229.111-2.074-.38-4.425-.632-6.496z" fill="#656565"/><path d="M165.971 85.57l-1.042-.926c-.926.994-1.206 1.434-2.529 1.863-1.065 1.322-1.487 1.658-1.375 3.424l.151.952-.599 1.155c.744.301.372.298.989.117 2.133-.622 3.724-.603 5.695.472l.339.192 2.309-.119c.363-2.3-1.635-4.784-2.74-6.734l-1.198-.396z" fill="#787878"/><path d="M99.411 25.71l-.786 2.294.901 7.585c.71 2.44 1.203 4.85 2.866 6.83 1.003 1.2 1.844 2.556 3.011 3.61 1.653 1.168 4.281.919 6.211.591 2.037-.345 3.977-1.285 5.832-2.167l-5.601.316-.39-.52 1.151-1.167-1.388.434c-1.666.045-3.417.4-4.913-.372-2.888-1.49-3.518-3.056-4.515-5.97-1.82-3.09-2.067-7.927-2.379-11.465z" fill="#656565"/><path d="M125.346 19.172c-3.201.557-6.87.766-9.336 3.073l-1.681 3.508c-.94 3.708-1.039 13.074.884 16.415.79-.685 1.751-.604 2.189-1.177.944-1.227 3.425-2.319 4.822-2.99 1.257.819 2.727 1.607 3.761 2.692l-.127 1.152.478.402c1.199 1.033 1.741 2.26 3.187 3.08 3.603 2.036 3.706 8.804 8.586 8.61l.192 1.307c4.041.088 7.702-.21 11.695-.778 1.577-.224 3.302-.268 4.701-1.092.78-.457.692-.665.927-1.531 3.085-1.304 5.709-2.708 8.131-5.058l.258-1.062c-1.065-2.933-1.528-6.13-2.127-9.188l-.52-2.563c.585-5.616-.856-12.919-2.727-18.216-.946 0-1.209-.587-1.86-1.229l-4.534.799-2.075.461c-8.254-.285-16.568 2.928-24.824 3.385z" fill="#BCBCBC"/><path d="M125.346 19.172c-3.201.557-6.87.766-9.336 3.073 2.704-.483 5.485-1.11 8.221-1.365 6.104-.567 11.874-.879 17.941-2.034 3.001-.571 5.639-.935 7.998-3.059-8.254-.285-16.568 2.928-24.824 3.385z" fill="#656565"/><path d="M161.366 33.972l-.059.413c-.37 2.93.954 5.76.221 8.567l-3.701 1.366.271.965 1.641.853c-.401 1.164-.745 1.28-1.703 2.005l.896.424c-.598 1.159-6.83 3.702-8.191 4.083-.59.165-1.009.14-1.59.188-1.974.163-3.567 1.173-5.646 1.066l-4.319-.095-1.077.13.192 1.307c4.041.088 7.702-.21 11.694-.778 1.578-.224 3.303-.269 4.702-1.092.78-.457.692-.665.927-1.531 3.085-1.305 5.708-2.708 8.131-5.058l.258-1.062c-1.065-2.933-1.528-6.13-2.127-9.188l-.52-2.563z" fill="#9C9C9C"/><path d="M97.031 23.125c-.393 1.17-.895 2.378-.948 3.617-1.791 2.88-.262 5.468-.978 8.585l.35 5.932c-1.205-.442-2.212-1.332-3.22-2.105l-.282 2.598-.187.682c-.249.827-.552.926-1.1 1.535-1.171 1.303-1.762 4.175-2.093 5.87l-2.405 13.546.053.093 1.3.53-.447 3.234c-.507 2.309-.535 4.4-.547 6.753.001.673-.003.19-.092 1.097-.134 1.318.484 2.774.95 3.99 2.118 5.5 5.37 9.203 9.28 13.506l4.676 4.682.46.467c.498.473.907.606 1.493.918 2.651 1.427 4.452 3.988 6.861 5.61 1.5 1.007 4.38 5.494 5.333 7.116l.455.731c1.548.321 1.605.436 2.468 1.709l.673 1.146-2.846-1.161-.57.859 1.366 5.117c.458.041.81.053 1.275.007 1.723 1.903 2.183 6.503 2.55 9.065l1.074 4.655.092 1.778-.159 2.844 1.205.191-.086-1.956.58-.096a24.388 24.388 0 011.539 3.017l.665-.862.688-.058c.748 1.991 1.262 3.686 2.871 5.145l2.419 2.181.327-.381c.379-.416.598-.573 1.09-.801l1.435 1.464.569-.284-.082-.514-.134-1.562-.875-1.008.156-.61c1.462.957 2.899 3.139 4.16 3.814.064.035 1.273.333 1.322.363.165.107.367 1.353.519 1.427.167.08 1.052-.019 1.161.064.232.163.64 1.707.742 2.081a6.99 6.99 0 001.518-.434l.163.512c.445 1.217 2.028 1.985 3.106 2.53l1.712.925c1.783 1.832 3.226 1.466 5.473 2.369.164-.855.089-1.617.012-2.474l.242-.072c.112-.447-.484-1.735-.651-2.23 1.054-1.932.19-3.875.915-5.772.725-1.895.145-5.176 1.244-6.723l.382-.401c2.087-2.35 5.387-4.797 8.079-6.436.691-.419 1.126-.719 1.659-1.341 1.45-1.702 5.693-4.796 7.889-5.44 3.823-1.12 7.433-3.46 11.183-4.915l1.039-.559c1.612.021 3.239-.583 4.789-1.009a12.87 12.87 0 01-1.288-1.37c-1.803-2.281-3.403-3.942-4.673-6.633l-2.948-4.628c-.75-.958-.49-1.511-.409-2.675-.598.66-1.216 1.291-1.567 2.118l-.203.503-.753.065-.88-1.247-1.088.816-1.88-2.843-.468-1.972c-2.373.039-4.938-.057-7.237.578-1.868.517-3.614 1.446-5.459 2.05l-.151.431-2.427-.27-.176.29c-.595.966-.922 1.307-1.975 1.74l-2.609 4.154.125.761c-.437.998-.488 1.373-1.407 1.991-.411-.731-.815-1.916-1.579-2.251-.194.311-.821 1.553-1.066 1.695-.661.383-2.019.152-2.715.504-.876.442-1.12 1.424-2.46 1.967l-.71-.403c1.273-2.254 3.158-1.924 4.108-4.658l-2.434.943-.079-1.163c.414-.754.719-1.426 1.431-1.936.511-.366.621-.528.929-1.06.448-.768.337-.778.12-1.65l-2.963-.164-1.207.386c-.285-1.302-.523-1.33-1.517-2.147l.214-.73-1-.812c.084-.689.382-1.353.611-2.007l1.807-.198c.656-1.582 1.264-1.851 2.74-2.612-.246-2.081-.837-3.544-1.744-5.405l-.061-.395c-2.15.322-5.356 1.31-7.27.227l-.331-1.982c.495-.499.805-.852 1.114-1.5.447-.942 1.574-1.035 2.27-2.385l-4.851.316-.96-1.701c.146-1.498.939-2.295 1.777-3.5l-3.203-.504-.529-1.736-.31-1.944-.565-2.195c.856-1.269 3.083-1.272 4.58-1.58l.76-.194-.047-.437c-.279-1.388-1.294-3.743-2.515-4.48l-2.651.908c-.441 1.024-1.44 1.763-2.241 2.514-.482-.262-.897-.383-1.438-.481l-.624-.112-.08-.754c.589-.297 1.074-.645 1.602-1.042-.253-1.445.344-1.82.269-3.338l.097-.781c-.926-.841-1.872-.919-3.058-1.126l-.402-.466c-1.008-1.817-2.551-1.813-3.572-3.327l2.048-1.448c.646.199 1.162.36 1.836.384 1.486.05 3.249-.196 4.351-1.138l-.664-1.097.18-.763.286-.656-1.049-.128c-.939-1.208-1.597-2.518-2.272-3.88-.558-1.117-.991-1.843-1.921-2.707l-.25-.227c-.138-.83-.337-1.222-.84-1.894l-1.698-.005-1.043-1.012c-1.708.349-3.37.17-5.183.585-1.855.882-3.795 1.822-5.832 2.167-1.93.328-4.558.577-6.211-.591-1.167-1.054-2.008-2.41-3.011-3.61-1.663-1.98-2.156-4.39-2.866-6.83l-.901-7.585c-.33-1.727-.487-3.459-1.594-4.879z" fill="#BCBCBC"/><path d="M90.774 65.708l-.63.099c-.342 1.504.434 3.909.584 5.52l.825-1.159c-.03-1.634-.254-2.911-.779-4.46zm12.465-9.964l-.349-.586c-.404-.645-.766-.922-1.441-1.288l-.881 1.291c.52 1.477 2.162 3.089 3.64 3.757.838.38 1.677.391 2.517-.014l.356-.211c-.828-.364-1.722-.48-2.612-.656-.797-.813-1.053-1.114-1.23-2.293zm14.423 5.803l-1.131-1.058c-2.543-.263-4.207-1.538-6.758-1.094 1.138.51 2.264.998 3.332 1.652l.106 2.276c1.09-.467 3.809-1.03 4.451-1.776z" fill="#ADADAD"/><path d="M157.262 114.804l-1.223.209-.574 1.635c1.357.85 1.885 1.544 3.567 1.418.313-.71.614-1.239 1.141-1.805l.492-.521-.531-.162-.215-1.232-2.657.458z" fill="#C8C8C8"/><path d="M121.405 54.712l-1.647-1.098-2.185.622-.059 1.12c-.699.418-1.362.835-2.127 1.12-.547.202-.862.486-1.298.863l3.02 1.541.909-.634.379.21c.958.524 1.876 1.072 3.01.856.353-.067.499-.186.775-.358l-1.072-.762c-1.432-1.2-1.971-1.488-2.161-3.37l2.456-.11zm-23.399-7.35l.469-.482c-.298-1.665-.8-1.91-1.965-3.085l.136-1.554-1.204-.896-.643.533-.26.26c-.695.69-1.124 1.108-2.116 1.35l.3.637c.393.875.283 1.412.13 2.33.583-.749 1.767-1.849 2.165-2.654.236-.485-.267-.95.418-1.07l.284 1.712-.959 1.057c.405 1.692 1.208 3.166 1.974 4.715.152-1.504.38-1.698 1.27-2.853zm45.373 74.454c-.852-.211-1.515.119-2.303.402l-.442 1.39-1.101-.468c-1.305.237-1.271.269-2.126 1.293l.736 2.378 1.156.578c1.028-.035 1.998.018 2.933-.465.12-.896.218-1.628.741-2.386.6-.862.397-1.688.406-2.722z" fill="#ADADAD"/><path d="M121.405 54.712l-2.455.11c.19 1.882.728 2.17 2.16 3.37l1.072.762c1.691 1.47 2.786 2.408 5.055 2.812-1.008-1.816-2.551-1.813-3.572-3.327l2.048-1.448-.018-.14c-1.383-.877-2.787-1.498-4.29-2.14z" fill="#656565"/><path d="M118.934 96.499l-.385-.074c-.844-.083-1.483.217-2.117.755-.908.766-1.017.807-1.116 1.99 1.738 1.074 3.198 2.139 4.637 3.588l.414.412c.535 1.106 1.152 1.97 1.923 2.926l.459-.83c-.244-2.693-2.133-6.677-3.815-8.767zm-12.407-20.953c.578.807 1.027.798 1.954 1.099.449 1.407.972 2.108 2.049 3.107l1.35-1.15-.276-.326c-1.585-2.12-1.946-3.813-1.649-6.41.06-.53-.187-.695-.468-1.135l-.938.004-.795 1.702-4.791-3.504c1.118 2.11 2.423 4.494 4.502 5.77l.326.787-1.264.056zm68.207 24.863c-2.373.04-4.938-.056-7.237.579-1.868.517-3.614 1.446-5.459 2.05l-.151.431c-.821.674-1.613 1.31-2.511 1.881-1.442.915-2.852 2.556-3.167 4.255l-.129 1.015 1.314-.272c.66-.848 1.414-1.702 1.83-2.702l.2-.518 1.38.604c.623-.89 1.238-1.997 2.276-2.432l.575-.213.58-1.391.138-.373 1.322.313.891-.439c2.719-1.111 5.819-1.866 8.616-.815l-.468-1.973z" fill="#ADADAD"/><path d="M165.991 125.779l-3.471.969c-.391.764-.46 1.12-1.287 1.469-.848.357-1.563.182-2.178.914-.601.725-1.221 1.302-2.19 1.301l-.524-.039c-1.125-.069-2.369.274-3.475.485l-.577 1.115-1.401-.77c-.529 1.267-.642 2.203-.6 3.569l.635 1.015c-.615 1.397-.345 3.529-.057 5.053.232-.297.901-.966.999-1.285.151-.51-.139-1.757.102-2.167.439-.737 1.294-1.385 1.817-2.439l.224-.468c1.306-.481 1.406-2.081 2.581-2.645 2.19-1.054 4.189-2.489 6.409-3.537.881-.416 1.856-1.835 2.993-2.54z" fill="#9C9C9C"/><path d="M130.6 64.14l-1.398.498.013 1.16-2.117 1.223.421 1.2-.481.29c-.51.332-.687.484-.978.987l-.077.893c-.811.57-2.414 2.52-2.866 2.644-1.903.524-2.978 1.208-4.455 2.505l-.299 1.166c1.08.432 1.901.964 3.077.483l3.453-2.073c.41-.112 2.525-1.257 2.805-1.57.098-.107.34-1.017.428-1.093.474-.415 1.971-.095 2.797-.744l-.772-.63.72-1.213c-.483-.262-.897-.383-1.438-.481l-.624-.112-.08-.754c.588-.297 1.074-.645 1.601-1.042-.252-1.445.345-1.82.27-3.338z" fill="#656565"/><path d="M103.239 55.744c.177 1.18.433 1.48 1.231 2.293.889.176 1.783.292 2.611.656l2.692.702c2.551-.444 4.215.831 6.758 1.094l1.131 1.058c2.147-.087 4.019-.418 5.978.508.953.453 2.966.267 3.999.177l-.402-.466c-2.269-.404-3.364-1.342-5.055-2.812-.276.172-.422.291-.775.358-1.134.216-2.052-.332-3.01-.856l-.379-.21-.909.634-3.02-1.54-1.028.243c-1.091-.412-2.168-.866-3.34-.952-.967-.072-.354.016-1.33-.151l-5.152-.736z" fill="#787878"/><path d="M118.662 75.54c-.543-.069-1.19-.189-1.723-.111-.412.06-.829.336-1.18.536-.354.683-.684 1.337-1.12 1.972.572.69 1.594 1.537 1.642 2.4.09 1.64 1.845 2.935 2.78 4.165l6.091 7.957c.746 1.021 1.237 2.163 2.12 3.095.59.626 3.245 2.492 3.523 3.125.132.299-.576 1.704-.721 2.002l.535.981.841-1.482.857 2.16c.576-.834.392-.804.215-1.773-.178-.937-.262-1.463-.887-2.204l-.426-.527c-.387-.464-.834-.813-1.308-1.19-1.337-1.075-1.774-2.328-2.799-3.613-2.519-3.167-5.706-5.664-7.572-9.39l.843-1.677-.637-.73-1.71-.034-.308-.558c1.341-.744 2.758-.426 4.039-.966.482-.203.883-1.117 1.451-1.407l.318-.347 1.367-2.809-3.453 2.074c-1.176.481-1.997-.05-3.077-.483l.299-1.166zM98.23 64.712c-1.23-1.21-1.359-1.07-2.835-1.731-1.17-.524-2.785-4.11-4.209-5.134l-.711.263c-.481 1.162-.81 2.32-1.13 3.535l-.415.919-.873-.12c-.163.528-.294 1.065-.535 1.563l-.448 3.235c.883-.826 1.714-1.695 2.774-2.293.475-1.701.228-3.12.966-4.854l.795.01.181.576c.49 1.517 1.09 2.66 1.957 3.997 1.525.397 1.992.444 2.823 1.87.84 1.437 1.556 2.782 2.646 4.063l.317 1.985.882.176 1.052-1.274c.845 1.337 1.852 2.812 1.555 4.448l.618-.757 2.472.19.415.166 1.264-.055-.326-.786c-2.079-1.277-3.384-3.662-4.502-5.77l-3.825-5.11-.908.888z" fill="#ADADAD"/><path d="M99.138 63.824l-.908.888c.805 1.608 1.55 3.163 2.625 4.61 1.636 2.2 2.953 4.41 5.257 6.056l.415.168 1.264-.056-.326-.786c-2.079-1.277-3.384-3.662-4.502-5.77l-3.825-5.11z" fill="#8C8C8C"/><path d="M184.93 110.273c-1.528-.2-2.5-.43-3.899.273l-.417.196c-2.512 1.209-3.226 2.829-4.213 5.312.705.785.827.899 1.835 1.211l-.912 1.907c-.673.234-1.071.163-1.771.034-.927.651-1.188 1.159-1.687 2.136l3.193-.807c.987-1.19 2.634-1.971 4.07-2.546 1.3-.519 1.474-.186 2.681.348l.656-.624c1.3-.227 1.482-.478 2.594.307l-.959 1.265c1.613.02 3.24-.583 4.789-1.009a13.16 13.16 0 01-1.287-1.37c-1.803-2.281-3.403-3.942-4.673-6.633z" fill="#9C9C9C"/><path d="M161.887 103.469l-2.427-.27-.176.29c-.595.966-.922 1.307-1.975 1.74l-2.609 4.154.125.761c-.437.998-.488 1.373-1.407 1.991-.411-.731-.815-1.916-1.579-2.251-.194.311-.821 1.553-1.066 1.695-.661.383-2.019.152-2.715.504-.877.442-1.12 1.424-2.46 1.967l-.71-.403c1.273-2.254 3.158-1.923 4.108-4.658l-2.434.943-2.263 2.178c-.676.59-.845 1.163-1.116 1.989l.897 4.393.687 1.892c2.358 1.496 3.144.411 5.673.26l.385-.006c.69-.426 1.234-.772 1.799-1.371l-1.097-.363.198-1.245.829-.254.325-.847c.35-.875.537-1.428 1.339-1.964 1.181-.785 1.451-2.66 1.862-3.974l.129-1.015c.315-1.699 1.725-3.34 3.167-4.255.898-.571 1.69-1.207 2.511-1.881z" fill="#787878"/><path d="M152.879 116.558c-.72-.918-.814-2.708-1.046-3.868-1.331-.702-1.975-.306-3.418-.024-.293.536-.551.973-.959 1.434l-1.82 2.167 3.22 2.809-.195.846-2.763.228c-.562-.592-1.059-1.102-1.5-1.799l-.318.141.687 1.892c2.358 1.496 3.144.411 5.673.26l.385-.006c.69-.426 1.234-.772 1.799-1.371l-1.097-.363.198-1.245.829-.254.325-.847zM94.8 41.877l-1.723-.983-1.124.858-.187.682c-.249.827-.552.926-1.101 1.535-1.17 1.303-1.761 4.175-2.092 5.87l-2.405 13.546.053.092 1.3.53c.241-.498.373-1.035.536-1.563l.873.12.414-.92c.32-1.214.65-2.372 1.13-3.535l.712-.262c1.424 1.024 3.04 4.61 4.208 5.134 1.477.661 1.606.521 2.836 1.731l.908-.888-1.602-2.422c-.812-1.234-1.216-2.13-.92-3.6.192-.95-.059-1.55-.408-2.428l-1.02-.166-.349 1.63c-.352-.6-.603-1.08-1.141-1.538-.53-.451-.524-1.038-.7-1.712l-1.022-.438c-.597-2.211-.302-4.024-.002-6.268l.88-.427c.152-.919.262-1.455-.13-2.33l-.301-.637c.992-.242 1.42-.661 2.116-1.35l.26-.26z" fill="#8C8C8C"/><path d="M91.976 53.15l.168.591c.726 2.408 2.231 4.9 3.342 7.176-1.66-1.624-3.025-3.276-4.407-5.146l-1.056.291c-.711 1.889-1.267 3.584-.678 5.583.32-1.214.648-2.373 1.13-3.535l.711-.263c1.424 1.025 3.04 4.61 4.209 5.134 1.476.661 1.605.522 2.835 1.731l.908-.888-1.602-2.422c-.812-1.234-1.216-2.13-.92-3.6.192-.95-.058-1.55-.408-2.427l-1.02-.167-.348 1.63c-.353-.6-.604-1.08-1.142-1.537-.53-.452-.524-1.039-.7-1.712l-1.022-.438z" fill="#9C9C9C"/><path d="M119.084 114.967l-2.845-1.161-.571.86 1.366 5.117c.458.04.81.052 1.275.006 1.723 1.903 2.183 6.503 2.55 9.065l1.074 4.656.092 1.777-.159 2.844 1.206.191-.087-1.956.58-.096a24.25 24.25 0 011.539 3.017l.665-.862.689-.057c.747 1.99 1.261 3.686 2.87 5.144l2.419 2.181.327-.381c.379-.415.599-.573 1.09-.801l1.435 1.464.569-.284-.082-.514-.134-1.562-.875-1.007.156-.611c-3.012-3.741-6.287-7.907-8.356-12.253l-1.658-2.621-4.203-8.777c-.462-1.143-.727-2.163-.932-3.379z" fill="#656565"/><path d="M97.031 23.125c-.393 1.17-.895 2.378-.948 3.617-1.791 2.88-.262 5.468-.978 8.585l.35 5.932c-1.205-.442-2.212-1.332-3.22-2.105l-.282 2.598 1.124-.858 1.722.983.643-.533 1.204.897-.136 1.554c1.166 1.174 1.667 1.42 1.965 3.085l-.47.482.467 1.88 1.806 3.13.506-.142c-.186-.9-.801-2.593-.724-3.444.13-1.463.802-.786.063-2.56 1.085-.582 1.637-.546 2.84-.367 1.193 1.58 1.874 2.559 1.98 4.626l.624.656-.039.486c-.043.673-.053.404.057 1.038 1.519.78 2.252.01 3.67.632l.94-.416.118-.783-.518-.422c-1.108-.926-1.817-2.24-2.776-3.313 1.416-1.438 7.907-1.747 9.959-1.71l.812.065 2.01-1.001c.492-.266 1.007-.442 1.527-.636 1.037.354 1.324.121 2.345-.201l-1.043-1.012c-1.708.349-3.37.17-5.183.585-1.855.882-3.795 1.822-5.832 2.167-1.93.328-4.559.577-6.211-.591-1.167-1.054-2.008-2.41-3.011-3.61-1.663-1.98-2.156-4.39-2.866-6.83l-.901-7.585c-.33-1.727-.487-3.459-1.594-4.879z" fill="#9C9C9C"/><path d="M95.105 35.327l.35 5.932c1.842.038 2.148.29 3.716 1.306l.904 1.8 1.11.688.423-.617c-.154-.8-.371-1.294-.821-1.957-.293-.426-.555-.802-.775-1.27-.924-1.953-3.524-3.925-4.907-5.882z" fill="#8C8C8C"/><path d="M97.031 23.125c-.393 1.17-.895 2.377-.949 3.617.343 2.798.238 5.91 1.11 8.567 1.085.503 1.157.5 2.334.28l-.901-7.585c-.33-1.727-.487-3.46-1.594-4.879z" fill="#ADADAD"/><path d="M186.101 119.284l.959-1.264c-1.112-.785-1.294-.534-2.594-.307l-.656.624c-1.207-.534-1.381-.867-2.681-.348-1.436.575-3.083 1.356-4.07 2.546l-3.193.806c-1.196.328-1.6.552-2.569 1.22l-.414.17c-1.291.572-2.417 1.671-3.716 2.359l-1.176.688c-1.137.705-2.112 2.125-2.993 2.54-2.22 1.048-4.219 2.484-6.409 3.537-1.175.565-1.274 2.165-2.581 2.646l-.224.467c-.523 1.054-1.378 1.703-1.817 2.439-.241.411.049 1.657-.102 2.167-.098.319-.767.988-.999 1.286.559 4.205.621 9.195 2.26 13.079-1.865-.343-2.582-1.612-4.491-.661 1.783 1.833 3.227 1.467 5.474 2.37.163-.855.089-1.617.012-2.474l.242-.072c.112-.448-.485-1.735-.651-2.231 1.053-1.931.19-3.874.915-5.772.725-1.894.145-5.176 1.244-6.723l.381-.4c2.088-2.35 5.388-4.797 8.08-6.436.691-.419 1.126-.719 1.658-1.341 1.451-1.702 5.694-4.796 7.889-5.44 3.824-1.12 7.434-3.46 11.184-4.915l1.038-.56z" fill="#8C8C8C"/><path d="M45.155 155.31l-1.205-.191c-1.11 1.649-1.67 2.692-1.22 4.739.09.385.224.525.427.814l1.323-.012c.753-.94 1.306-2.193 1.893-3.253l-1.218-2.097z" fill="#4F4F4F"/><path d="M99.376 188.386l-1.153-1.142c.182-.669.174-.967.115-1.639l-1.95.139-.31 1.053c-.994.899-.97 1.038-2.383 1.076l-1.837.318c-2.154-.207-4.268.199-6.474-.011l2.291 1.95c3.792-.382 8.085-.563 11.701-1.744z" fill="#9C9C9C"/><path d="M110.593 185.248c-2.101.513-3.907.719-6.062.68-1.725-1.377-3.084-1.655-5.201-2.022-.543.226-1.047.465-1.635.558l-.301.03-1.005 1.25 1.949-.139c.059.672.067.97-.115 1.639l1.153 1.142c3.717-.893 7.712-1.573 11.217-3.138z" fill="#656565"/><path d="M13.245 118.545l-1.803-.152-.833 2.44c1.137 1.18 1.995 1.59 3.57 2.021l.285.509c.534.887 1.452 1.433 2.28 2.01l.081.295c.449 1.571 1.404 2.872 2.462 4.099l.82-.391.474.502-.33 1.026c1.46.775 2.253 1.023 3.9.746l-.217-.707.93.154.642-.825-.476-.975.568-1.163v-.339l-3.704-5.076c-.41-.179-.408-.796-.595-1.201-1.36-.033-2.11-.533-3.252-1.237l-.457-.283c.104-.616-.047-.857-.256-1.429-.598.788-.214 1.696-.604 2.468-.226.452-1.118 1.143-1.5 1.535l-.785-.116-.377-.697-.99.168c-.532-.59-1.003-1.075-1.333-1.802l1.5-1.58z" fill="#9C9C9C"/><path d="M11.811 107.238c-.396-.183-1.742-.64-1.965-.914-1.104-1.321-.18-2.115-2.11-3.286-1.318 2.04-1.605 2.479-1.548 5.017-.935.107-1.327-.217-2.157-.598-.286 1.16-.511 2.039-.247 3.217.097.431.108.829.148 1.266.08.917.326 1.287.887 1.997l-.046 1.283.314.126c1.584.696 1.762 1.424 3.552.79.74-.262 1.228-.682 1.818-1.177l.265.304-.585 1.826.734.241.792-.595c.893.195 1.228.362 1.867 1.022l-.285.788-1.5 1.58c.33.727.8 1.212 1.333 1.801l.99-.167.377.697.784.115c.383-.391 1.275-1.082 1.502-1.534.389-.773.005-1.68.603-2.468.209.572.36.813.256 1.429l.457.283c1.142.704 1.892 1.204 3.252 1.236.187.406.186 1.023.595 1.202l.94-1.751-.526-1.634-1.065-.262c-.722-.635-1.026-1.337-1.43-2.187l-.173-.372-1.214-.405-.997-.374c-.046-.762-.203-1.082-.633-1.709l-2.063-1.014c-1.274-.708-1.427-2.837-1.823-4.233l-.98-1.156-.119-.384zM51.42 163.3c-.44-.397-.335-.206-.524-.707l-1.171-2.999-.984.203c-.615-1.022-1.46-1.649-2.368-2.39-.587 1.059-1.14 2.313-1.893 3.253l1.17.573.972-.439.418.352c-.892.602-.816.661-1.09 1.72.796 2.06 2.55 2.137 3.95 3.702l.477.52c.449.818.943 1.482 1.521 2.209l1.15 1.333.687-.197c.193 1.194.067 1.431-.14 2.575-.126.699-.1 1.643.375 2.154 1.16 1.228 1.864 1.962 3.625 2.001l1.497-1.021 3.023-.03.933 2.305c.727 2.162 1.793 2.723 3.59 3.971l1.32.048c.916.372 1.368.667 2.366.543l.98-1.932c1.048.164 2.006 1.312 2.737 2.041.431.427.266.31.702.892.484.646.838.841 1.54 1.191l-.475-1.723.726-.886 1.472.341.592-.486-.548-3.475c-1.221-.699-1.762-1.254-3.184-.888l-.981-1.163c-.837.046-1.146-.016-1.858-.463l.032-1.783-1.212-.56c-1.671-.191-3.36.149-4.768-.914l-2.242-1.751-.786-1.083-1.49.134c-.355-.569-.23-.479-.625-.824-.414-.37-.833-.684-1.2-1.114l-.694-.808c-.74-.578-1.06-.573-1.69-1.429l-.21-.28-.294.814-1.032-.072-.444-1.088-1.323 1.138c-.597-1.873-1.188-2.26-2.63-3.508z" fill="#8C8C8C"/><path d="M76.534 182.562c.382-.483.68-.942.978-1.485l-1.02-.43c-.502-.912-.794-1.208-1.721-1.68l-1.09 1.092c-.814-.571-1.167-.76-2.17-.751l-.61 1.134c-1.11.566-1.982 1.203-2.943 1.994.916.372 1.368.667 2.366.544l.98-1.933c1.048.164 2.006 1.313 2.737 2.041.431.427.266.31.702.892.484.646.838.842 1.54 1.191l-.475-1.723.726-.886z" fill="#ADADAD"/><path d="M60.339 172.273l.034-1.305-1.441-.625c-.543-1.022-1.31-1.667-2.15-2.431-1.78-.148-3.286.697-4.884 1.385l1.15 1.333.687-.197c.193 1.194.067 1.431-.14 2.575-.126.699-.1 1.643.375 2.154 1.16 1.228 1.864 1.962 3.625 2.001l1.497-1.021c.642-.327 1.172-.542 1.88-.657l.66-.1-.038-1.176-1.255-1.936z" fill="#9C9C9C"/><path d="M60.339 172.273c-1.582 1.114-2.397 1.995-3.277 3.713l.533 1.178 1.497-1.021c.642-.327 1.172-.542 1.88-.657l.66-.101-.038-1.175-1.255-1.937z" fill="#4F4F4F"/><path d="M126.697 167.223c-2.542.741-3.837 3.921-5.99 5.558-4.666 3.55-11.678 5.088-17.32 6.045l-4.134.968-.655-.291c-2.567.394-4.543-.377-7.026-.669-1.047-.122-1.477-.289-2.399-.816l-.332-.194c-.794.084-1.459.195-2.213.463l.028 1.742 3.036-.244c.666 1.605 1.592 2.74 2.694 4.048l-1.075 2.306.547 2.052 1.837-.318c1.413-.038 1.39-.177 2.383-1.076l.31-1.054 1.006-1.249.3-.03c.588-.093 1.093-.332 1.636-.558 2.117.367 3.476.645 5.201 2.022 2.155.039 3.961-.167 6.062-.68 2.111-.544 5.264-1.75 7.054-3.007 1.674-1.175 3.718-1.974 5.54-2.964l.3-1.121c1.59-.777 2.013-1.524 3.093-2.843l.686-.786c.929-1.641-.243-5.395-.569-7.304z" fill="url(#paint1_linear_249_99243)"/><path d="M96.077 186.797c-.279-.976-.36-1.484-1.182-2.146l-1.311.454.111 2.768c1.413-.039 1.39-.177 2.382-1.076z" fill="#4F4F4F"/><path d="M93.584 185.105l-.341-.91-.857-.362-1.075 2.306.547 2.052 1.837-.318-.111-2.768zM30.477 18.109c-1.967.12-3.671.325-5.57.871l-.998 1.42-1.297-.008c-.77 1.091-1.113 1.717-1.505 2.971-.396 1.276-1.466 2.616-2.016 3.884-1.144 2.625-1.532 5.493-2.146 8.27-.304 1.39-.822 2.138-.873 3.597-.056 1.51-1.038 3.184-1.178 4.847-.325 3.768.289 8.623-.575 12.18 1.008.774 2.015 1.664 3.22 2.106l-.35-5.932c.716-3.116-.813-5.705.977-8.584.053-1.24.556-2.447.95-3.618 1.106 1.42 1.262 3.152 1.593 4.879l.786-2.294-.05-4.583c1 .468 1.12.699 1.754 1.62 1.005-.791 1.002-1.978 1.27-3.197l1.5.046.901-1.217c.062-1.525-.002-1.64-.857-2.911.838-2.371 3.461-4.865 5.493-6.281l.487-.334.201-1.604 2.873-1.225-.144-.782-1.21-.426 1.781-.308.35-.957c-.999-1.72-2.923-1.52-4.681-2.171l-.686-.26z" fill="#656565"/><path d="M21.701 35.408c1.62-3.44 1.845-10.042 4.834-12.478 1.383-1.13 3.706-1.999 5.342-2.719-1.387-.609-2.52-.59-3.98-.32l-.319.34c-.734.631-1.661.825-2.568 1.092-.831.997-2.364 2.477-2.845 3.643-.52 1.276.818 1.849-1.184 3.015-.03.79.05 1.246.345 1.98-.314.79-1.54 2.518-1.526 2.898.05 1.788-.48 3.506-.43 5.337.022.669-.114 1.266-.255 1.917 1.107 1.42 1.264 3.152 1.594 4.879l.786-2.294-.05-4.583.256-2.707z" fill="#9C9C9C"/><path d="M56.316 158.985l-.155.611.874 1.007.135 1.562.082.514-.57.284-1.434-1.464c-.492.228-.712.386-1.09.801l-.327.381-2.42-2.181c-1.608-1.458-2.122-3.154-2.87-5.144l-.689.057-.665.862a24.328 24.328 0 00-1.538-3.017l-.58.096.086 1.956 1.218 2.097c.908.741 1.753 1.369 2.368 2.391l.984-.203 1.17 2.998c.19.501.084.311.525.707 1.44 1.249 2.032 1.636 2.628 3.509l1.323-1.138.445 1.087 1.032.073.295-.814.209.279c.63.857.949.851 1.69 1.429l.695.809c.366.43.785.743 1.199 1.114.395.345.27.254.624.823l1.49-.133.787 1.082 2.242 1.752c1.408 1.062 3.096.722 4.768.914l1.211.56-.03 1.783c.71.447 1.02.508 1.856.462l.982 1.163c1.421-.366 1.963.19 3.184.889l.548 3.474-.593.486-1.471-.341-.727.886.476 1.723.303.32.53.153c1.756.475 3.865.042 5.768.392l1.084.035c.335 1.298.214 1.352 1.416 2.109 2.206.21 4.32-.196 6.474.011l-.548-2.052 1.076-2.306c-1.102-1.308-2.028-2.443-2.694-4.048l-3.037.244c-1.338-.329-2.038-.586-3.043-1.546l.316-1.067c-.693-.51-.987-.275-1.81-.191-.724-.561-1.223-1.001-2.152-1.152-.667-.109-.888-.165-1.46-.525l.619-.835c1.476.575 2.877.427 4.425.372-2.523-1.442-4.687-3.375-7.103-4.995l-.242.072c.076.857.151 1.619-.013 2.474-2.247-.902-3.69-.537-5.473-2.369l-1.712-.925c-1.078-.544-2.66-1.312-3.106-2.53l-.162-.512a6.949 6.949 0 01-1.519.434c-.101-.374-.509-1.918-.741-2.08-.11-.083-.995.015-1.162-.065-.151-.074-.354-1.32-.518-1.427-.05-.03-1.258-.328-1.323-.363-1.26-.675-2.697-2.857-4.16-3.814z" fill="#787878"/><path d="M91.31 186.138l-.816-1.715c-.286-1.097-.357-1.422-1.053-2.367-.849-.23-1.792-.507-2.624-.139-.919.405-2.083.619-3.066.366-.5-.653-1.171-1.036-1.99-1.18-1.202-.216-1.45.245-2.364.93-.034.765-.044 1.208.258 1.936l.243.515-.255.501-3.057.505.53.154c1.757.475 3.865.041 5.768.392l1.084.035c.335 1.298.214 1.352 1.416 2.109 2.206.21 4.32-.196 6.474.01l-.547-2.052z" fill="#8C8C8C"/><path d="M9.606 80.995l-1.301-.53C7.429 83.71 6 86.62 4.553 89.633c-2.057 2.479-2.957 4.537-2.641 7.85l.072.624-1.226.981c-.167 2.34-.026 5.194-.647 7.435 1.357.724 2.402.831 3.92.934.83.381 1.222.705 2.157.598-.057-2.538.23-2.977 1.549-5.017 1.93 1.171 1.005 1.965 2.11 3.286.222.274 1.568.731 1.964.914l.118.384.98 1.156c.397 1.396.55 3.525 1.824 4.233l2.063 1.014c.43.627.587.946.633 1.709l.997.374 1.214.405.174.372c.403.849.707 1.552 1.43 2.186l1.064.262.526 1.635-.94 1.75 3.704 5.077v.339l-.568 1.163.476.975-.643.825-.93-.154.219.706c.927.099 1.565.334 2.415-.091 1.058-.528 2.274-.696 3.421-.923 2.394 1.287 4.796 2.407 6.82 4.243l.29.252c1.72 1.546 2.586 5.138 3.285 7.304.63 2.571 1.033 6.006 2.803 8.015.491.561.671 1.132.923 1.826l-.092-1.778-1.074-4.656c-.367-2.561-.828-7.161-2.55-9.064a6.243 6.243 0 01-1.275-.007l-1.366-5.117.57-.859 2.846 1.161-.673-1.147c-.863-1.272-.92-1.387-2.468-1.708l-.455-.731c-.953-1.622-3.833-6.109-5.333-7.116-2.409-1.622-4.21-4.183-6.861-5.61-.586-.312-.995-.445-1.493-.918l-.46-.467-4.675-4.682c-3.91-4.303-7.163-8.006-9.28-13.507-.467-1.215-1.085-2.671-.951-3.99.089-.905.093-.423.092-1.096.012-2.353.04-4.444.547-6.753l.448-3.235z" fill="#787878"/><path d="M25.598 128.134l-.568 1.163.476.975.693.096c1.22.023 3.125-.326 4.04-1.087l-.542-.692c-1.486-.504-2.545-.604-4.099-.455z" fill="#4F4F4F"/><path d="M6.136 98.66h-.394l-.537.928c-.465.085-.261.085-.762.01l-.375-.062c-.028 1.3.207 2.229.61 3.459l.693.335 1.482-1.224c.356-1.465-.158-2.076-.717-3.445z" fill="#9C9C9C"/><path d="M113.622 135.722l-.648-.458c-1.549.426-3.176 1.03-4.789 1.009l-1.038.56c-3.75 1.454-7.36 3.794-11.184 4.914-2.195.644-6.438 3.739-7.888 5.44-.533.622-.968.922-1.66 1.341-2.691 1.639-5.991 4.087-8.079 6.437l-.381.4c-1.099 1.547-.52 4.828-1.244 6.723-.725 1.897.139 3.84-.915 5.772.166.495.762 1.783.651 2.23 2.416 1.62 4.58 3.553 7.104 4.995-1.549.055-2.95.202-4.426-.372l-.619.835c.573.36.793.416 1.46.525.93.151 1.428.591 2.153 1.152.822-.084 1.116-.319 1.81.191l-.317 1.067c1.005.96 1.705 1.217 3.044 1.546l-.028-1.742c.754-.268 1.42-.379 2.213-.463l.332.194c.922.527 1.352.694 2.4.816 2.482.292 4.458 1.063 7.025.669l.655.291 4.134-.968c5.642-.957 12.654-2.495 17.32-6.045 2.153-1.637 3.448-4.817 5.99-5.558l-.449-1.28-1.316-.281c-.672-7.648-.519-14.83-3.977-22.003-.87-1.813-2.796-5.008-4.65-5.621-.852-1.005-1.522-1.671-2.683-2.316z" fill="#BCBCBC"/><path d="M93.122 165.602l-1.362-.212-1.015.773.094 1.878c1.304.171 1.628-.018 2.812-.491l-.529-1.948z" fill="#ADADAD"/><path d="M117.181 141.18l-.774.992c.414 1.913.658 4.059 1.734 5.719l.721.213-1.213-6.162-.468-.762z" fill="#9C9C9C"/><path d="M113.622 135.722l-.648-.458c-1.549.426-3.176 1.03-4.789 1.009l-1.038.56c2.327-.099 2.42-.07 4.105 1.452 1.314-.271 1.823-.277 2.852-1.177l-.482-1.386zm5.24 12.382l.608 2.189c-.672.491-.927.323-1.738.303l1.301-.844-.818-.765c-.896.663-.947.789-1.338 1.841l.877 1.022 3.179-.434c.556-.982.55-.975.317-2.104-.572-2.778-1.084-5.712-3.601-7.37l1.213 6.162z" fill="#ADADAD"/><path d="M83.55 175.085c-1.548.055-2.949.202-4.425-.372l-.619.835c.573.36.794.416 1.46.524.93.152 1.429.591 2.153 1.153.822-.084 1.116-.319 1.81.191l-.317 1.066c1.005.961 1.705 1.218 3.044 1.547l-.028-1.742c.754-.268 1.42-.38 2.213-.463l.332.194c.922.527 1.352.694 2.4.816 2.482.291 4.458 1.063 7.025.669l.655.291 4.134-.969c-.67-.418-12.604-1.638-14.101-1.665l-.307-.002c-1.636-1.117-3.573-1.416-5.428-2.073z" fill="#656565"/><path d="M46.068 28.023c-1.12-1.703-2.66-3.39-3.535-5.2l-.28-.597-.723-.141c-1.22-.405-1.71-1.038-2.047-2.18-.907-.566-2.92-2.218-3.849-2.404-1.063-.212-3.98.468-5.157.607l.686.26c1.758.65 3.682.452 4.681 2.171l-.35.957-1.78.308 1.21.426.143.782-2.873 1.225-.2 1.604-.488.334c-2.032 1.416-4.655 3.91-5.493 6.28.855 1.273.919 1.387.857 2.912l-.901 1.217-1.5-.046c-.269 1.219-.265 2.406-1.27 3.197-.634-.921-.755-1.152-1.754-1.62l.05 4.583-.786 2.294.901 7.585c.71 2.44 1.203 4.85 2.866 6.83 1.003 1.2 1.844 2.556 3.01 3.61 1.653 1.169 4.282.919 6.212.592 2.036-.346 3.977-1.285 5.832-2.168 1.813-.415 3.475-.236 5.183-.584l1.043 1.011 1.697.005c.503.672.703 1.064.84 1.894l.251.227c.93.864 1.362 1.59 1.921 2.707.675 1.362 1.333 2.672 2.271 3.88l1.05.129-.287.655-.18.763.665 1.097c-1.102.943-2.865 1.188-4.351 1.138-.674-.024-1.19-.185-1.837-.384l-2.047 1.448c1.02 1.514 2.564 1.51 3.572 3.327l.402.467c1.186.206 2.132.284 3.058 1.125l-.097.781c.075 1.518-.522 1.893-.27 3.338-.527.398-1.013.745-1.601 1.042l.08.754.624.112c.541.098.955.219 1.438.481.8-.751 1.8-1.49 2.24-2.514l2.652-.908c1.22.737 2.236 3.093 2.515 4.48l.047.437-.76.194c-1.497.309-3.724.311-4.58 1.58l.565 2.195.31 1.944.528 1.737 3.204.503c-.838 1.205-1.63 2.002-1.777 3.5l.96 1.701 4.851-.316c-.696 1.35-1.823 1.444-2.27 2.386-.31.647-.62 1-1.114 1.5l.33 1.981c1.915 1.083 5.12.095 7.27-.227l.062.395c.907 1.861 1.498 3.324 1.744 5.405-1.476.761-2.084 1.03-2.74 2.612l-1.808.198c-.228.654-.527 1.318-.61 2.007l1 .812-.214.73c.994.817 1.232.845 1.517 2.148l1.207-.386 2.962.164c.218.871.329.881-.12 1.649-.307.532-.417.695-.928 1.06-.712.511-1.017 1.182-1.432 1.936l.08 1.163 2.434-.943c-.95 2.735-2.835 2.404-4.109 4.659l.711.402c1.34-.542 1.583-1.525 2.46-1.966.696-.353 2.054-.122 2.715-.505.244-.142.872-1.384 1.066-1.695.764.335 1.168 1.52 1.579 2.251.919-.618.97-.993 1.407-1.991l-.125-.761 2.61-4.154c1.052-.433 1.378-.774 1.974-1.74l.175-.29 2.428.27.15-.431c1.846-.604 3.592-1.533 5.46-2.05 2.299-.635 4.864-.538 7.237-.578l.468 1.972 1.88 2.843 1.087-.816.881 1.248.753-.066.203-.503c.351-.827.969-1.458 1.567-2.118l.841-1.48-.384-.699c-.753-2.024-2.126-2.796-3.11-4.558-.477-.852-.405-1.775-.914-2.692l-1.082-.064c-1.25-.036-2.289-.144-3.494-.503-.768-.228-1.11-1.434-1.473-2.141.103-2.786-1.211-5.188-.777-8.04l.511-.324 1.623 2.29 1.354.164 1.666-2.047.442-.473c-.128-2.113-.581-3.372-1.543-5.214l-.938-.243c-1.897-.526-3.566-.577-5.516-.614-.911-2.175-1.03-4.362-1.203-6.682 1.365-1.235 2.79-3.541 4.335-4.324l.613-.283c.176-.453.266-.603.266-1.149-.02-1.241-.58-2.195-1.42-3.006l-4.383.46c-.205-.505-.365-.922-.452-1.463-.33-2.098-.238-3.157.977-4.873-.914-2.401.803-4.368 1.146-6.785l.07-.513c2.287-4.085 3.546-8.39 4.954-12.833-1.056-1.34-2.055-3.266-3.674-3.91l-.715.491c-1.237.674-1.688 1.13-2.565 2.28l-.308.405-1.35.11c-1.128-6.133-.886-13.716-3.503-19.41l-1.007-.557c-.56-.45.049-.261-.63-.687-2.283-1.444-5.048-.479-7.455.122l-23.08 4.161c-1.197-.517-1.813-1.792-2.571-2.843l-.515.181-2.325-4.189z" fill="#4F4F4F"/><path d="M38.183 31.022l-.149-1.685c-.802-1.053-.808-1.044-2.1-1.352l-.806.84.566 2.206c.887.076 1.603.17 2.489-.01zm48.812 66.834l-1.237 2.089c-.612.834-.657 1.244-.817 2.204-.088.537-.081.368-.51.921l.053.426c1.323-.43 1.603-.869 2.529-1.864l1.042.926 1.198.397.143-.6c-.79-1.319-1.331-2.331-1.52-3.873l-.881-.626zM78.317 99.9l-1.977.857c-.284 1.667.041 2.072.802 3.51 1.148.531 1.534.907 2.837.405.266-.102.44-.27.65-.444.183-1.001.29-2.186.05-3.179-.918-.05-1.368-.419-2.085-.939l-.277-.21z" fill="#656565"/><path d="M64.397 95.187c-1.177-.278-1.989-1.26-2.712-1.443-1.614-.401-3.58 1.268-5.741.518L56.472 96l3.204.503c1.039-.224 1.226-.4 2.043-1.103 1.102.728 1.609 1.711 2.277 2.83l1.242.149-.84-3.191z" fill="#ADADAD"/><path d="M79.402 94.687c-1.329-.062-2.637-.051-3.9-.489l-.318.096c-.958.272-1.456.378-2.438.051-.525.91-.301 1.107-.408 2.042-.03.24-.18.513-.287.728l.37 1.461c2.01.373 4.251-.968 6.083-1.733l-.008-.046 1.063-1.086-.157-1.024z" fill="#9C9C9C"/><path d="M71.981 117.624l-1.633.86.402 1.139c-.664.195-.916.172-1.592.097l-1.074 1.228 2.962.164c.218.871.33.881-.12 1.649-.307.532-.417.695-.928 1.06-.712.511-1.017 1.182-1.432 1.936l.08 1.163 2.434-.943-.032-.474c.96-1.177 1.75-2.362 2.513-3.668.041-1.641-.254-2.912-.744-4.472l-.836.261z" fill="#ADADAD"/><path d="M81.66 85.678l-2.392.649c-.9.593-1.67 1.03-2.213 2 1.661 1.472 2.13 2.236 4.452 2.03.961-.087 1.454-.306 2.277-.762.975.119 1.426.492 2.207 1.047l.384-.263c.192-1.362-.7-3.007-1.203-4.265-1.77.287-1.961.402-3.513-.436z" fill="#656565"/><path d="M65.238 98.378l-1.242-.15c-.668-1.118-1.175-2.1-2.277-2.829-.817.703-1.005.879-2.043 1.103-.838 1.205-1.63 2.002-1.777 3.5l.96 1.701 4.85-.316.97-.624 1.113-1.005-.554-1.38z" fill="#C8C8C8"/><path d="M85.82 51.986l-.222-.483c-1.487-2.93-.572-5.32-1.086-8.432-.555-3.35-.863-8.245-3.79-10.326 1.872 5.297 3.313 12.599 2.728 18.216l.52 2.562c.599 3.058 1.062 6.255 2.127 9.188.392-1.467.4-2.717.354-4.228.112-2.075-.379-4.426-.63-6.497z" fill="#656565"/><path d="M88.055 102.558l-1.042-.926c-.926.994-1.206 1.434-2.529 1.863-1.065 1.321-1.487 1.658-1.375 3.424l.151.952-.599 1.155c.744.301.372.298.989.117 2.133-.623 3.724-.604 5.695.472l.34.192 2.308-.119c.363-2.301-1.635-4.784-2.74-6.734l-1.198-.396z" fill="#787878"/><path d="M21.495 42.698l-.786 2.294.901 7.585c.71 2.44 1.203 4.85 2.866 6.83 1.003 1.2 1.844 2.557 3.01 3.61 1.653 1.169 4.282.919 6.212.592 2.036-.346 3.976-1.285 5.832-2.168l-5.602.316-.39-.52 1.152-1.166-1.388.433c-1.667.046-3.418.4-4.914-.372-2.888-1.489-3.518-3.055-4.514-5.97-1.82-3.09-2.067-7.926-2.379-11.464z" fill="#656565"/><path d="M47.43 36.16c-3.201.557-6.87.766-9.336 3.073l-1.681 3.508c-.94 3.708-1.039 13.074.884 16.415.79-.684 1.75-.604 2.19-1.177.943-1.226 3.424-2.318 4.821-2.99 1.257.819 2.727 1.607 3.76 2.692l-.126 1.152.478.402c1.2 1.033 1.74 2.26 3.187 3.08 3.602 2.037 3.706 8.804 8.586 8.61l.192 1.307c4.041.088 7.702-.209 11.694-.777 1.578-.225 3.303-.27 4.702-1.092.78-.457.692-.666.927-1.532 3.085-1.304 5.708-2.708 8.13-5.057l.26-1.063c-1.066-2.933-1.53-6.13-2.128-9.188l-.52-2.562c.585-5.617-.856-12.92-2.727-18.216-.947 0-1.21-.588-1.86-1.23l-4.534.8-2.075.46C64 32.49 55.686 35.703 47.43 36.161z" fill="#BCBCBC"/><path d="M47.43 36.16c-3.201.557-6.87.766-9.336 3.073 2.704-.483 5.485-1.11 8.221-1.365 6.104-.567 11.874-.879 17.94-2.033 3.002-.572 5.64-.936 7.999-3.06C64 32.49 55.686 35.703 47.43 36.161z" fill="#656565"/><path d="M83.45 50.96l-.06.413c-.369 2.93.955 5.76.222 8.567l-3.7 1.366.27.965 1.641.854c-.401 1.163-.745 1.28-1.703 2.004l.896.424c-.598 1.159-6.83 3.703-8.19 4.083-.59.165-1.01.14-1.591.188-1.974.163-3.567 1.173-5.646 1.066l-4.32-.095-1.076.13.192 1.307c4.041.088 7.702-.21 11.694-.778 1.578-.224 3.303-.268 4.702-1.091.78-.458.692-.666.927-1.532 3.085-1.304 5.708-2.708 8.13-5.058l.26-1.062c-1.066-2.933-1.53-6.13-2.128-9.188l-.52-2.562z" fill="#9C9C9C"/><path d="M19.115 40.113c-.393 1.17-.896 2.377-.949 3.617-1.79 2.88-.261 5.468-.977 8.585l.35 5.932c-1.205-.442-2.212-1.332-3.22-2.106l-.282 2.6-.187.681c-.25.827-.552.926-1.101 1.535-1.17 1.303-1.761 4.175-2.092 5.87L8.252 80.374l.053.092 1.3.53-.447 3.235c-.507 2.309-.535 4.4-.547 6.753 0 .673-.003.19-.093 1.097-.134 1.318.485 2.774.951 3.989 2.118 5.501 5.37 9.204 9.28 13.507l4.676 4.682.46.467c.497.473.906.606 1.492.918 2.652 1.427 4.453 3.988 6.862 5.61 1.5 1.007 4.38 5.494 5.333 7.116l.455.731c1.548.321 1.605.436 2.467 1.708l.674 1.147-2.846-1.162-.57.86 1.366 5.117c.458.041.81.053 1.275.007 1.722 1.903 2.183 6.502 2.55 9.064l1.074 4.656.092 1.778-.16 2.844 1.206.191-.086-1.957.58-.095c.588.993 1.09 1.953 1.538 3.017l.665-.862.69-.058c.747 1.99 1.261 3.686 2.87 5.145l2.419 2.181.326-.381c.38-.416.6-.573 1.091-.801l1.435 1.464.57-.284-.083-.514-.135-1.562-.874-1.008.155-.61c1.463.956 2.9 3.139 4.16 3.814.065.035 1.274.332 1.323.362.164.108.367 1.354.519 1.428.166.08 1.052-.019 1.161.064.232.163.64 1.707.742 2.081a6.95 6.95 0 001.518-.435l.162.513c.446 1.217 2.029 1.985 3.106 2.53l1.712.925c1.783 1.832 3.227 1.466 5.474 2.369.163-.855.089-1.617.012-2.474l.242-.072c.111-.448-.485-1.735-.651-2.23 1.053-1.932.19-3.875.915-5.772.725-1.895.145-5.177 1.244-6.724l.381-.4c2.088-2.35 5.388-4.797 8.08-6.436.69-.419 1.126-.719 1.658-1.341 1.45-1.702 5.694-4.796 7.89-5.44 3.823-1.12 7.433-3.46 11.183-4.915l1.038-.559c1.613.02 3.24-.583 4.789-1.009-.47-.44-.878-.862-1.287-1.37-1.803-2.281-3.403-3.942-4.673-6.633l-2.948-4.628c-.75-.959-.49-1.511-.409-2.675-.598.66-1.216 1.291-1.567 2.117l-.203.504-.753.065-.881-1.247-1.088.816-1.879-2.843-.468-1.973c-2.373.04-4.938-.056-7.237.579-1.868.516-3.614 1.446-5.46 2.05l-.15.431-2.428-.27-.175.29c-.596.966-.922 1.307-1.975 1.74l-2.61 4.154.126.761c-.437.998-.488 1.373-1.407 1.991-.411-.731-.815-1.916-1.58-2.251-.193.311-.82 1.553-1.065 1.695-.661.383-2.02.152-2.715.504-.877.442-1.12 1.424-2.46 1.967l-.71-.403c1.273-2.254 3.158-1.924 4.108-4.658l-2.434.943-.08-1.163c.415-.754.72-1.426 1.432-1.936.511-.366.621-.528.928-1.06.449-.768.338-.778.12-1.65l-2.962-.164-1.207.386c-.285-1.302-.523-1.33-1.517-2.147l.214-.73-1-.812c.083-.689.382-1.353.61-2.007l1.808-.198c.656-1.582 1.264-1.851 2.74-2.612-.247-2.081-.837-3.544-1.744-5.405l-.061-.395c-2.15.322-5.356 1.31-7.27.227l-.331-1.982c.495-.499.804-.852 1.114-1.499.447-.943 1.574-1.036 2.27-2.386l-4.852.316-.959-1.701c.146-1.498.94-2.295 1.777-3.5l-3.204-.504-.528-1.736-.31-1.944-.565-2.195c.856-1.269 3.083-1.272 4.58-1.58l.76-.194-.047-.437c-.279-1.388-1.294-3.743-2.515-4.48l-2.652.908c-.44 1.024-1.44 1.763-2.24 2.514-.483-.262-.897-.383-1.438-.482l-.624-.112-.08-.753c.588-.297 1.074-.645 1.601-1.042-.252-1.445.345-1.82.27-3.338l.096-.781c-.925-.842-1.87-.919-3.057-1.126l-.402-.466c-1.008-1.817-2.551-1.813-3.572-3.327l2.047-1.448c.647.199 1.163.36 1.837.384 1.486.05 3.249-.196 4.351-1.138l-.665-1.097.18-.763.286-.656-1.049-.128c-.938-1.208-1.596-2.518-2.27-3.88-.56-1.117-.992-1.843-1.922-2.707l-.25-.227c-.138-.83-.338-1.222-.84-1.894l-1.698-.005-1.043-1.012c-1.708.349-3.37.17-5.183.585-1.856.882-3.796 1.822-5.832 2.167-1.93.328-4.559.577-6.211-.591-1.167-1.054-2.008-2.41-3.01-3.61-1.664-1.98-2.157-4.39-2.867-6.83l-.901-7.585c-.33-1.727-.487-3.46-1.594-4.879z" fill="#BCBCBC"/><path d="M12.858 82.696l-.63.099c-.342 1.504.434 3.909.584 5.52l.824-1.159c-.03-1.634-.253-2.911-.778-4.46zm12.466-9.964l-.35-.586c-.404-.645-.765-.922-1.44-1.288l-.882 1.291c.52 1.477 2.162 3.089 3.64 3.757.838.38 1.677.391 2.517-.015l.356-.21c-.828-.364-1.721-.48-2.611-.656-.797-.813-1.054-1.114-1.23-2.293zm14.422 5.803l-1.131-1.058c-2.543-.263-4.207-1.538-6.758-1.094 1.138.511 2.264.998 3.332 1.652l.106 2.277c1.09-.467 3.81-1.031 4.451-1.777z" fill="#ADADAD"/><path d="M79.346 131.792l-1.223.209-.574 1.634c1.357.851 1.885 1.544 3.567 1.419.313-.71.614-1.239 1.141-1.805l.492-.521-.53-.162-.216-1.233-2.657.459z" fill="#C8C8C8"/><path d="M43.49 71.7l-1.648-1.098-2.185.622-.06 1.12c-.698.418-1.36.835-2.127 1.12-.547.202-.861.485-1.297.863l3.02 1.541.909-.635.379.21c.957.525 1.876 1.073 3.01.856.352-.066.5-.185.775-.357l-1.072-.762c-1.433-1.2-1.97-1.488-2.16-3.37l2.455-.11zm-23.4-7.35l.469-.482c-.298-1.664-.8-1.91-1.965-3.085l.136-1.553-1.204-.897-.643.533-.26.26c-.695.69-1.124 1.109-2.116 1.35l.3.637c.393.876.283 1.412.13 2.33.583-.748 1.767-1.849 2.165-2.654.236-.485-.267-.95.418-1.07l.284 1.712-.959 1.057c.405 1.692 1.208 3.166 1.974 4.715.152-1.504.38-1.698 1.27-2.853zm45.373 74.454c-.853-.211-1.516.119-2.304.402l-.441 1.39-1.101-.468c-1.306.237-1.271.269-2.126 1.293l.735 2.378 1.157.578c1.027-.034 1.997.018 2.932-.465.12-.896.219-1.628.742-2.386.6-.861.397-1.688.406-2.722z" fill="#ADADAD"/><path d="M43.49 71.7l-2.457.111c.19 1.881.728 2.17 2.16 3.37l1.073.762c1.69 1.47 2.786 2.407 5.055 2.811-1.008-1.816-2.551-1.813-3.572-3.326l2.047-1.449-.017-.14c-1.383-.877-2.787-1.497-4.29-2.139z" fill="#656565"/><path d="M41.018 113.487l-.385-.075c-.844-.082-1.483.218-2.117.756-.908.766-1.017.807-1.117 1.99 1.739 1.074 3.198 2.139 4.638 3.588l.414.412c.535 1.106 1.152 1.97 1.923 2.926l.46-.83c-.245-2.693-2.134-6.677-3.816-8.767zM28.61 92.533c.579.808 1.028.8 1.954 1.1.45 1.407.973 2.108 2.05 3.107l1.35-1.15-.276-.326c-1.585-2.12-1.946-3.813-1.65-6.41.06-.53-.186-.695-.467-1.135l-.938.004-.796 1.702-4.79-3.504c1.118 2.11 2.423 4.494 4.502 5.77l.326.787-1.264.055zm68.208 24.864c-2.373.04-4.938-.056-7.237.579-1.868.516-3.614 1.446-5.46 2.05l-.15.431c-.821.674-1.613 1.31-2.511 1.881-1.442.915-2.852 2.556-3.167 4.254l-.129 1.015 1.314-.271c.66-.849 1.414-1.702 1.83-2.702l.2-.519 1.38.605c.623-.89 1.238-1.997 2.276-2.432l.574-.213.58-1.391.14-.373 1.32.313.892-.44c2.718-1.11 5.82-1.865 8.616-.814l-.468-1.973z" fill="#ADADAD"/><path d="M88.075 142.766l-3.471.97c-.391.764-.46 1.12-1.287 1.469-.848.357-1.563.181-2.178.914-.601.725-1.221 1.302-2.19 1.301l-.523-.04c-1.126-.068-2.37.275-3.476.485l-.577 1.116-1.401-.771c-.529 1.268-.642 2.204-.6 3.57l.635 1.015c-.615 1.397-.345 3.529-.057 5.053.232-.298.901-.966.999-1.286.15-.51-.14-1.756.102-2.166.44-.737 1.294-1.386 1.817-2.44l.224-.467c1.306-.481 1.406-2.081 2.581-2.646 2.19-1.053 4.19-2.489 6.409-3.536.88-.416 1.856-1.835 2.993-2.541z" fill="#9C9C9C"/><path d="M52.684 81.128l-1.398.498.013 1.16-2.117 1.223.42 1.2-.48.29c-.51.332-.687.484-.978.987l-.077.894c-.81.57-2.414 2.519-2.866 2.644-1.903.523-2.978 1.207-4.455 2.504l-.299 1.166c1.08.432 1.901.964 3.076.483l3.454-2.073c.41-.112 2.525-1.257 2.805-1.569.098-.108.34-1.018.428-1.094.474-.415 1.971-.095 2.797-.744l-.772-.63.72-1.212c-.483-.263-.897-.384-1.438-.482l-.624-.112-.08-.754c.588-.297 1.074-.644 1.601-1.041-.252-1.446.345-1.82.27-3.338z" fill="#656565"/><path d="M25.323 72.732c.177 1.18.433 1.48 1.23 2.293.89.177 1.784.292 2.612.656l2.692.702c2.55-.444 4.215.831 6.758 1.094l1.13 1.058c2.148-.087 4.02-.418 5.98.508.952.453 2.965.267 3.998.177l-.402-.466c-2.269-.404-3.364-1.342-5.055-2.812-.276.172-.423.291-.775.358-1.134.216-2.053-.332-3.01-.856l-.38-.21-.908.634-3.02-1.54-1.028.243c-1.091-.412-2.168-.866-3.34-.952-.967-.072-.354.016-1.33-.15l-5.152-.737z" fill="#787878"/><path d="M40.746 92.528c-.543-.068-1.19-.189-1.723-.11-.412.06-.83.335-1.18.535-.354.684-.685 1.337-1.12 1.972.572.69 1.594 1.538 1.642 2.4.09 1.641 1.845 2.936 2.78 4.165l6.091 7.957c.746 1.022 1.237 2.163 2.12 3.095.59.626 3.245 2.492 3.523 3.125.132.299-.576 1.704-.72 2.003l.534.98.84-1.482.858 2.16c.576-.834.392-.804.215-1.773-.178-.937-.262-1.462-.887-2.204l-.427-.526c-.386-.465-.833-.814-1.307-1.191-1.337-1.074-1.774-2.328-2.8-3.613-2.518-3.167-5.705-5.664-7.571-9.39l.843-1.677-.637-.73-1.71-.034-.308-.558c1.34-.744 2.758-.426 4.04-.965.48-.204.882-1.118 1.45-1.408l.318-.347 1.367-2.809-3.453 2.074c-1.176.481-1.997-.05-3.077-.483l.299-1.166zM20.314 81.7c-1.23-1.21-1.359-1.07-2.835-1.73-1.17-.525-2.785-4.11-4.209-5.135l-.711.263c-.481 1.162-.81 2.32-1.13 3.535l-.415.919-.873-.12c-.163.528-.295 1.066-.535 1.563l-.448 3.235c.883-.826 1.714-1.695 2.774-2.293.475-1.701.228-3.12.966-4.853l.795.009.18.576c.491 1.517 1.091 2.66 1.958 3.997 1.525.397 1.992.444 2.823 1.87.84 1.437 1.556 2.782 2.646 4.063l.317 1.985.882.176 1.052-1.274c.845 1.337 1.852 2.812 1.555 4.449l.618-.758 2.472.19.415.167 1.264-.056-.326-.786c-2.08-1.276-3.384-3.662-4.502-5.77l-3.825-5.11-.908.889z" fill="#ADADAD"/><path d="M21.222 80.812l-.908.888c.805 1.608 1.55 3.163 2.624 4.61 1.636 2.2 2.954 4.41 5.258 6.056l.415.167 1.264-.055-.326-.786c-2.08-1.277-3.384-3.662-4.502-5.771l-3.825-5.109z" fill="#8C8C8C"/><path d="M107.013 127.262c-1.527-.2-2.499-.431-3.898.272l-.417.197c-2.512 1.209-3.227 2.829-4.213 5.312.705.785.827.898 1.835 1.21l-.912 1.908c-.673.233-1.071.162-1.77.034-.928.65-1.19 1.158-1.689 2.135l3.194-.806c.986-1.19 2.634-1.972 4.07-2.546 1.299-.52 1.474-.186 2.681.348l.656-.625c1.3-.226 1.482-.477 2.594.307l-.959 1.265c1.613.021 3.24-.583 4.789-1.009-.47-.44-.878-.861-1.287-1.369-1.803-2.282-3.403-3.943-4.674-6.633z" fill="#9C9C9C"/><path d="M83.971 120.457l-2.428-.269-.175.289c-.596.967-.922 1.308-1.975 1.74l-2.61 4.154.126.761c-.437.999-.488 1.374-1.407 1.991-.411-.73-.815-1.915-1.58-2.25-.193.31-.82 1.552-1.065 1.695-.661.382-2.02.152-2.715.504-.877.441-1.12 1.424-2.46 1.966l-.71-.402c1.273-2.255 3.158-1.924 4.108-4.659l-2.434.943-2.263 2.178c-.676.59-.846 1.164-1.117 1.989l.898 4.393.687 1.892c2.358 1.496 3.144.412 5.673.26l.385-.006c.69-.425 1.234-.771 1.799-1.37l-1.097-.364.197-1.245.83-.253.325-.847c.35-.876.537-1.429 1.34-1.965 1.18-.784 1.45-2.66 1.861-3.974l.129-1.015c.315-1.699 1.725-3.339 3.167-4.255.898-.57 1.69-1.206 2.511-1.881z" fill="#787878"/><path d="M74.963 133.546c-.72-.918-.814-2.708-1.046-3.868-1.331-.703-1.975-.306-3.418-.024-.293.536-.551.973-.959 1.434l-1.82 2.167 3.22 2.809-.195.845-2.763.228c-.562-.591-1.058-1.102-1.5-1.799l-.318.142.687 1.892c2.358 1.496 3.144.411 5.673.26l.385-.006c.69-.426 1.234-.772 1.799-1.371l-1.097-.363.198-1.245.829-.254.325-.847zm-58.08-74.681l-1.722-.983-1.124.858-.187.682c-.25.827-.552.926-1.101 1.535-1.17 1.303-1.761 4.175-2.092 5.87L8.252 80.374l.053.093 1.3.53c.241-.499.373-1.036.536-1.564l.873.12.415-.919c.32-1.214.648-2.373 1.13-3.535l.711-.263c1.424 1.025 3.04 4.61 4.209 5.134 1.476.661 1.605.522 2.835 1.731l.908-.888-1.602-2.422c-.812-1.234-1.216-2.13-.92-3.6.192-.95-.059-1.55-.408-2.427l-1.02-.167-.349 1.63c-.352-.6-.603-1.08-1.141-1.537-.53-.452-.524-1.04-.7-1.713l-1.022-.437c-.597-2.212-.302-4.025-.002-6.27l.88-.426c.152-.918.262-1.455-.13-2.33l-.301-.637c.992-.242 1.42-.661 2.116-1.35l.26-.26z" fill="#8C8C8C"/><path d="M14.06 70.139l.168.59c.726 2.408 2.231 4.9 3.342 7.176-1.66-1.624-3.025-3.276-4.407-5.146l-1.056.291c-.711 1.889-1.267 3.584-.678 5.583.32-1.214.649-2.373 1.13-3.535l.711-.263c1.424 1.025 3.04 4.61 4.209 5.134 1.476.662 1.605.522 2.835 1.732l.908-.888-1.602-2.423c-.812-1.234-1.216-2.13-.92-3.6.192-.95-.059-1.55-.408-2.427l-1.02-.167-.348 1.63c-.352-.6-.604-1.08-1.142-1.537-.53-.451-.524-1.039-.7-1.712l-1.022-.438z" fill="#9C9C9C"/><path d="M41.168 131.955l-2.846-1.161-.57.86 1.366 5.117c.458.04.81.052 1.275.006 1.722 1.903 2.183 6.503 2.55 9.065l1.074 4.656.092 1.777-.16 2.844 1.206.191-.086-1.956.58-.096c.588.993 1.09 1.953 1.538 3.017l.665-.862.69-.057c.747 1.99 1.261 3.686 2.87 5.144l2.419 2.181.326-.381c.38-.415.6-.573 1.091-.801l1.435 1.464.57-.284-.083-.514-.135-1.562-.874-1.007.155-.611c-3.011-3.741-6.286-7.907-8.355-12.253l-1.658-2.621-4.204-8.777c-.461-1.143-.726-2.163-.931-3.379z" fill="#656565"/><path d="M19.115 40.113c-.393 1.17-.895 2.378-.948 3.618-1.791 2.879-.262 5.468-.978 8.584l.35 5.932c-1.205-.442-2.212-1.332-3.22-2.105l-.282 2.598 1.124-.858 1.722.984.643-.533 1.204.896-.136 1.554c1.166 1.175 1.667 1.42 1.965 3.085l-.47.482.467 1.88 1.806 3.13.506-.142c-.186-.9-.801-2.592-.724-3.443.13-1.464.802-.787.063-2.562 1.085-.581 1.637-.544 2.84-.366 1.193 1.58 1.874 2.559 1.98 4.626l.624.656-.04.486c-.042.673-.053.404.058 1.038 1.52.78 2.252.01 3.67.632l.94-.416.118-.783-.518-.422c-1.108-.925-1.817-2.24-2.776-3.313 1.416-1.437 7.907-1.747 9.96-1.709l.811.064 2.01-1.001c.492-.266 1.007-.442 1.527-.636 1.037.354 1.324.121 2.345-.2l-1.043-1.013c-1.708.349-3.37.17-5.183.585-1.855.883-3.795 1.822-5.832 2.168-1.93.327-4.559.577-6.211-.592-1.167-1.054-2.008-2.41-3.01-3.61-1.664-1.98-2.157-4.39-2.867-6.83l-.901-7.585c-.33-1.727-.487-3.459-1.594-4.879z" fill="#9C9C9C"/><path d="M17.189 52.315l.35 5.932c1.842.038 2.148.29 3.716 1.306l.904 1.8 1.11.688.423-.617c-.154-.8-.371-1.295-.822-1.957-.292-.426-.554-.802-.774-1.27-.924-1.954-3.524-3.925-4.907-5.882z" fill="#8C8C8C"/><path d="M19.115 40.113c-.393 1.17-.896 2.377-.949 3.617.343 2.798.238 5.91 1.11 8.567 1.084.503 1.157.5 2.334.28l-.901-7.586c-.33-1.726-.487-3.458-1.594-4.878z" fill="#ADADAD"/><path d="M108.185 136.272l.959-1.264c-1.112-.785-1.294-.534-2.594-.307l-.656.624c-1.207-.534-1.381-.867-2.681-.348-1.436.575-3.083 1.356-4.07 2.546l-3.194.806c-1.195.328-1.6.552-2.568 1.22l-.414.17c-1.29.571-2.417 1.671-3.716 2.359l-1.176.688c-1.137.705-2.112 2.124-2.993 2.54-2.22 1.048-4.219 2.484-6.409 3.537-1.175.565-1.275 2.165-2.581 2.646l-.224.467c-.523 1.054-1.378 1.703-1.817 2.439-.241.411.049 1.657-.102 2.167-.098.319-.767.988-1 1.286.56 4.205.622 9.195 2.261 13.079-1.865-.343-2.582-1.612-4.49-.661 1.782 1.832 3.226 1.467 5.473 2.37.163-.855.089-1.617.012-2.474l.242-.072c.111-.448-.485-1.735-.651-2.231 1.053-1.931.19-3.874.915-5.772.725-1.894.145-5.176 1.244-6.723l.381-.4c2.088-2.35 5.388-4.797 8.08-6.436.69-.42 1.126-.719 1.658-1.341 1.45-1.702 5.694-4.797 7.89-5.44 3.823-1.12 7.433-3.46 11.183-4.915l1.038-.56z" fill="#8C8C8C"/><defs><linearGradient id="paint0_linear_249_99243" x1="194.525" y1="167.545" x2="179.013" y2="149.164" gradientUnits="userSpaceOnUse"><stop stop-color="#474646"/><stop offset="1" stop-color="#6B6A6A"/></linearGradient><linearGradient id="paint1_linear_249_99243" x1="116.609" y1="184.533" x2="101.097" y2="166.152" gradientUnits="userSpaceOnUse"><stop stop-color="#474646"/><stop offset="1" stop-color="#6B6A6A"/></linearGradient></defs></svg>