<svg width="1274" height="632" fill="none" xmlns="http://www.w3.org/2000/svg"><path d="M677.665 358.796l-1.163 1.333-1.342-.527c.957-2.766.205-5.253.651-7.986.21-1.281 2.492-3.824 3.337-4.89.806 4.541-.123 7.75-1.483 12.07zm-29.688 25.044l.92-3.535 1.902-.734 1.183 1.155c-.108 2.198.065 4.5-1.363 6.304h1.865c1.255 1.739 2.046 3.391 2.957 5.323.474 1.007.258.652 1.226 1.394l1.262-2.513-1.763-2.102.678-5.471c1.36 1.72.296 3.241.949 5.051.234.647 2.068 1.435 2.443 2.101.401.711.456 3.683.334 4.624-.251 1.924-1.389 4.588-2.651 6l-2.992-.956c-.44-1.151-.703-2.64-1.704-3.363-2.179 4.143-1.33 12.187-1.459 16.979l-1.186-.166-1.086-2.714.154-2.895c.047-1.817-.272-3.801-.426-5.623-.908-.078-1.349-.209-2.173-.537l.93-18.322zm43.138 30.921c-.262 2.166-.595 4.302-.463 6.486 1.119-.214 1.799-.641 2.748-1.259 1.525 1.731 1.89 4.048 1.815 6.295-1.109 1.985-2.237 3.7-2.472 5.996l-1.252.417c-.897-1.522-.709-2.088-.643-3.818l-.208-2.274-.826-.382c-1.184 2.135-2.246 3.89-3.956 5.642l-1.459-.421c-1.97-2.451-2.616-4.599-3.382-7.565l.375-.699.497-.962c1.133-2.139 1.407-4.205 1.8-6.572l.838.263 1.664.08c-.206 1.655-.754 2.965-1.336 4.527l1.191 1.471c2.317-.5 2.868-5.487 5.069-7.225zm-99.272.309c-1.42-1.739-1.92-2.678-2.193-4.921l1.218-1.253c1.698 1.653 2.646 1.933 4.992 2.248l.72.085c1.066 3.279-1.08 14.637-2.363 18.251l-.808-.32-.944-.082c.029-4.613.365-9.488-.622-14.008zm-7.275 36.054c1.395 2.015 4.326 4.156 5.383 6.062.266.477-.256 2.054.008 2.53.425.766 2.166 1.1 2.931 1.257l.085.724c.252 1.243.823 1.826 1.591 2.791 1.437-.334 1.952-.969 2.938-2.029 1.773 1.358 2.26 2.98 3.059 5.016.053 1.684.223 2.467-.543 3.994l-2.097-1.137-1.417-1.222c-5.525-2.958-8.085-7.498-12.389-11.838l-1.333 1.921-1.333-3.688c.225-1.936 1.806-3.078 3.117-4.381zm24.995-72.823l5.098-11.633c1.39 1.825 2.476 3.232 4.448 4.432l1.086-.336-1.133 3.01-2.57.742c-.285 1.608-.334 2.368.116 3.931 1.355 4.702-.87 11.445-.292 16.592l.844-.248c1.09-.313.645-.213 1.588-.372.064.504.216 1.492.138 1.973-.286 1.768-.734 2.699-.692 4.673l.02.772c-.892 1.403-1.677 2.649-2.924 3.774l-1.004-.833-.245-5.043c-.659-2.957-.709-5.02-.612-8.123l.408-.993 2.594-10.64-1.56-2.074-1.408 1.932c-1.717-.023-2.436-.675-3.9-1.536zm38.992-40.673l1.39-6.151 2.522 1.418-1.422 5.535c-.655 2.758-3.894 8.776-3.515 11.02l-2.179 4.271-1.77-.449c-.376-1.259-.57-2.17-.384-3.47l.175-1.11c-2.517-.189-2.638-.299-4.525-1.995 2.058-1.142 4.998-2.396 6.46-4.257l.703-.933c1.517-1.586 1.81-1.75 2.545-3.879zm-21.259 149.026l-1.163 1.333-1.342-.527c.957-2.766.205-5.253.652-7.986.209-1.281 2.491-3.824 3.336-4.89.806 4.541-.123 7.75-1.483 12.07zm61.77 22.256c-1.42-1.739-1.919-2.677-2.192-4.921l1.217-1.253c1.698 1.653 2.646 1.934 4.993 2.248l.719.086c1.066 3.279-1.08 14.636-2.363 18.25l-.808-.319-.944-.083c.029-4.612.366-9.488-.622-14.008zm-89.024 14.077c-1.42-1.739-1.919-2.678-2.192-4.921l1.218-1.253c1.697 1.653 2.646 1.934 4.992 2.248l.72.085c1.065 3.279-1.08 14.637-2.364 18.251l-.808-.319-.943-.083c.029-4.613.365-9.488-.623-14.008z" fill="#D06F54"/></svg>