<svg width="888" height="177" fill="none" xmlns="http://www.w3.org/2000/svg"><path fill-rule="evenodd" clip-rule="evenodd" d="M87.865.667C39.34.667 0 40.066 0 88.667s39.339 88 87.865 88h712.27c48.526 0 87.865-39.399 87.865-88s-39.339-88-87.865-88H87.865zm60.014 163h-47.868c-3.845 0-7.33-.553-10.453-1.661-3.076-1.155-5.72-2.816-7.93-4.983-2.211-2.214-3.917-4.935-5.119-8.16-1.153-3.274-1.73-7.006-1.73-11.194v-11.555h22.78v11.555c0 4.814 2.404 7.222 7.21 7.222h43.11v-18.777h22.781v50.553h-22.781v-13zm28.56-37.553h93.718v12.999h-70.938v5.778h70.938v12.999h-70.938v5.777h70.938v13h-93.718v-50.553zm122.257 0h-22.78v50.553h22.78l20.042-13.866 20.041 13.866h33.018l-36.55-25.277 36.55-25.276h-33.018l-40.083 27.732v-27.732zm130.522 50.553h-25.665l40.876-50.553h25.664l40.876 50.553h-25.664l-28.044-34.665-28.043 34.665zm157.755 0h22.78v-50.553h-22.78l-50.32 28.887v-28.887h-22.781v50.553h22.781l50.32-28.888v28.888zm120.869 0h-68.486c-3.461 0-6.729-.65-9.805-1.95-3.076-1.348-5.767-3.154-8.074-5.416-2.259-2.311-4.061-5.008-5.407-8.089-1.297-3.081-1.946-6.355-1.946-9.822 0-3.466.649-6.74 1.946-9.822 1.346-3.081 3.148-5.753 5.407-8.016 2.307-2.311 4.998-4.116 8.074-5.416 3.076-1.348 6.344-2.022 9.805-2.022h68.486v18.777h-63.8c-2.019 0-3.725.577-5.119 1.733-1.394 1.155-2.09 2.744-2.09 4.766s.696 3.611 2.09 4.767c1.394 1.155 3.1 1.733 5.119 1.733h63.8v18.777zm5.759-33.221h36.478v33.221h22.781v-33.221h36.622v-17.332h-95.881v17.332z" fill="#fff"/></svg>