<svg width="136" height="42" fill="none" xmlns="http://www.w3.org/2000/svg"><path d="M83.986 5.24c3.072-2.5 5.504-3.257 9.6-4.46.74-.218 1.44-.486 2.229-.592 3.679-.495 7.168-.021 10.294 1.519 4.312 1.628 8.051 4.046 10.435 7.311-2.419.642-2.999-.364-5.449-.142l-.782-.76-1.706-.03-2.823-2.32-.66 2.38-.628.14c-1.837.937-3.663 1.86-5.7 2.52-1.918-.174-2.284-.17-4.055.35l-3.401.57c-.676.12-1.076.384-1.607.708l-1.97-.397-.427-1.372-1.838-.406.384-.566c1.173.01 2.23-.079 3.387-.223l-.413-1.76c-1.557-1.18-2.848-1.835-4.87-2.47z" fill="#656565"/><path d="M95.951 3.443l-.107-.94c.88.058 1.61.13 2.46.34l.674.18c-.172-.947-.16-.453.004-1.482l1.515.02 1.118 1.376 3.119.404 1.375-1.634c4.312 1.629 8.051 4.046 10.435 7.311-2.419.642-2.999-.364-5.449-.142l-.783-.76-1.705-.03-2.823-2.32c-1.157-.045-1.867-.094-2.894-.546-2.504-1.105-4.114-1.439-6.939-1.777z" fill="#787878"/><path d="M95.951 3.442c2.825.339 4.435.673 6.939 1.778 1.027.452 1.738.501 2.894.547l-.659 2.38-.629.139c-1.837.937-3.663 1.86-5.7 2.52-1.918-.173-2.284-.17-4.055.35l-3.401.57c-.676.12-1.076.384-1.607.708l-1.97-.397-.427-1.372-1.838-.406.384-.566c1.174.01 2.23-.079 3.387-.223l-.413-1.76c2.066.302 3.99.539 6.093.572a8.076 8.076 0 00-2.504-1.135 23.987 23.987 0 01-2.764-.944l.438-.553c1.145.275 1.594.277 2.734-.012l-.038-.546-.724-.558 2.43-.244 1.43-.848z" fill="#C8C8C8"/><path d="M83.986 5.241c2.023.635 3.313 1.29 4.87 2.469l.413 1.76c-1.157.144-2.213.233-3.386.223l-.385.566 1.838.407.427 1.372-3.425 1.29c0 2.263 2.514 3.05 1.16 5.76-1.113-.444-1.494-.747-2.312-1.448l-4.095.233.356-.976-1.042.294-4.418.594 3.154 1.267-3.386.514.188.774 2.61 1.008-.299.686-1.011.003c-1.01.018-1.485.157-2.36.51-1.6.646-3.357.431-5.103.345.658 1.393 1.425 1.408 3.081 2.087-1.501.185-2.642.17-4.134.053l-.394-.291c-.632-.498-1.121-1.045-1.642-1.611-1.339 1.107-.7 2.172-2.689 2.417l-2.338-.041-.464-.839 1.227-.646c-.858-1.017-1.58-.86-3.046-1.111-3.605.916-4.497.628-8.088.19l-.77 1.413c-1.875.088-2.627-.217-4.237-.859l-.386.737 1.413.52c-1.445 1.055-2.55.876-4.494 1.037l-1.155-.56-.768.712.625.89c-1.363.752-2.076 1-3.748 1.118l-.383-1.219c-1.522-.282-1.857-.62-3.036-1.383 4.238-1.17 5.504-1.984 7.672-4.953l.283-.393c1.298-.335 2.67-.632 3.83-1.201 1.076-.53 2.017-.924 3.25-1.2 3.192-.711 9.042-1.195 11.918.349 3.098 1.663.92 1.901 1.54 3.828l.886-.395c1.005-2.343 5.036-5.955 7.583-7.488 2.068-1.246 5.557-2.087 8.167-1.713 1.451.207 1.32.107 2.622-.323l-.112-.435c-.183-2.208 2.375-4.631 3.993-6.34z" fill="#787878"/><path d="M35.773 28.108c1.672-.119 2.385-.366 3.748-1.117l-.625-.891.768-.713 1.155.56c1.944-.16 3.049.02 4.494-1.036l-1.413-.52.386-.737c1.61.642 2.362.947 4.237.86l.77-1.415c3.59.439 4.483.727 8.088-.19 1.466.251 2.188.095 3.046 1.112l-1.227.646.464.839 2.338.04c1.99-.244 1.35-1.309 2.689-2.416.521.566 1.01 1.112 1.642 1.61l.394.292-.488 1.073h2.312l.762.886-.762.896.762.588c-1.645.75-2.938 1.266-4.23 2.37-.72.618-1.48 1.14-2.157 1.795l-4.772 1.146c-1.262.248-2.075.661-3.146 1.222l-.064.787-1.414.984c-.66-.355-1.995-1.3-2.697-1.45-2.372-.513-2.13 1.07-4.237-.856-2.24.352-3.122 1.67-4.57 2.973-1.006.802-1.851.75-3.133 1.086-1.95.51-4.744.888-6.727.274-1.71-.528-3.744.464-5.643.202l-.72-.142-.869-.164c-1.283-.248-1.984.714-3.757.412-1.008-.172-1.537-.554-2.67-.556-1.705-.004-2.634.084-4.142-.618-.665-.309-1.07-.579-1.869-.614-1.958-.088-2.457-.263-4.022-1.13 1.151-.887 1.513-.588 3.073-.588l-.381-.305c-.857-.14-1.47-.232-2.215-.613-.764-.392-1.472-.372-2.41-.282-1.156.111-1.327.488-1.926 1.166l-1.152-.866C2.028 34.011 1.257 33.651 0 32.633c.907-1.817 1.821-3.502 4.264-4.396 1.768-.648 3.255-1.128 4.973-1.973 2.22.33.68 1.299 2.691 1.917 1.11.341 1.614.272 2.6.91 1.217.786 1.278.573 2.797.578.608.447 1.134.843 1.604 1.386l.314.39c2.54.005 5.822 1.065 8.096.6.545-.112 1.88-1.202 2.31-1.188.094.003.977.542 1.148.588 1.246.336 4.34.037 5.786.049l1.163-.94c-1.47-.757-1.419-1.186-1.973-2.446z" fill="#C8C8C8"/><path d="M105.784 5.767l2.823 2.32 1.705.03.783.759c2.45-.222 3.03.784 5.449.142 2.752 2.609 2.694 7.04 2.218 10.256-.363 2.453-.937 3.268-3.215 5.044 1.97.666 2.251.938 3.164 2.462-3.792 2.402-7.208.458-10.201 3.65l.999.42.572-.227c.978-.337 1.89-.408 2.938-.515l1.365-.946 2.695.346 1.541-1.504c2.612.423 1.991.079 4.237-.403 3.138-.675 10.054 3.97 11.472 5.803.55.71.864 1.418 1.2 2.198-.576 1.413-1.643 2.68-3.371 3.441-.792.35-.951.34-1.731.478-1.658.194-3.186.35-4.874.299l-.77.47c-2.202 1.264-4.811 1.206-7.396.935-2.707-.705-7.56-2.549-10.25-2.62-1.951-.052-5.77 1.789-8.092 2.108l-1.223.163c-5.872 1.226-7.659-1.68-12.544-2.336-5.897-.793-12.311 1.748-18.498.162-1.6-.41-3.124-.305-4.778-.494-7.224-.829-12.521-1.26-19.977-.762 1.448-1.303 2.331-2.621 4.571-2.973 2.106 1.925 1.864.343 4.237.855.702.152 2.036 1.096 2.696 1.45l1.415-.983.064-.787c1.07-.56 1.883-.974 3.145-1.222l4.773-1.146c.677-.654 1.436-1.177 2.157-1.796 1.291-1.103 2.585-1.618 4.23-2.37l-.762-.587.761-.896-.761-.886h-2.312l.488-1.073c1.492.117 2.633.131 4.134-.053-1.656-.679-2.424-.694-3.081-2.087 1.746.086 3.503.3 5.103-.346.874-.353 1.35-.492 2.36-.51l1.01-.002.3-.686-2.61-1.009-.188-.773 3.385-.514-3.154-1.268 4.419-.593 1.042-.294-.356.976 4.095-.233c.818.701 1.198 1.004 2.311 1.449 1.355-2.71-1.159-3.498-1.159-5.762l3.425-1.29 1.97.397c.53-.323.93-.588 1.607-.707l3.401-.57c1.77-.52 2.137-.524 4.054-.352 2.038-.66 3.864-1.582 5.701-2.519l.628-.14.66-2.38z" fill="#BCBCBC"/><path d="M115.09 39.382l.563-.036c1.374-.098 2.305-.087 3.353-.867 1.791.015 4.889.388 6.403-.238 2.504-1.036 5.29-.991 7.856-2.045-.562 1.619-1.702 2.047-3.415 3.026l.577.298c-1.658.195-3.186.35-4.874.3l-.77.47c-2.202 1.264-4.811 1.206-7.396.935l-2.297-1.843z" fill="#C8C8C8"/><path d="M114.509 34.41l3.333-2.372.009-1.787.78.303-.177.521-.521 1.854 1.073.831c2.358-1.707 2.7-2.867 6.158-3.98l1.27.18c-.052.643-.121 1.149-.328 1.779 1.729.69 2.643-.012 4.078.597-1.055 1.173-1.346 1.885-3.313 2.245-1.826.334-4.088-.004-5.939-.16-1.792.973-4.117.48-6.279.372l-.144-.383zM98.796 10.805c1.799.889 3.091 1.149 5.187 1.417 1.136.145.448.02 1.541.402 1.269.442 2.742.317 4.113.307l2.388.134.937 2.047-2.039 1.879.38.896-5.008.58-.761.802.761 1.49-4.185.456.479.727.24.642c-2.516-.063-3.061-1.393-5.277-.936.496 1.089 2.338 1.495 2.574 2.076.245.607-.979.418.007 1.194l3.081.153.881 1.114-1.082 1.514-5.19.3c-.445.44-.748.825-1.109 1.307-.712.952-1.765 1.039-2.359 2.144l-2.486.727c-1.137.293-4.674 2.242-5.217 2.243-.653 0-2.586-1.136-3.081-1.04-.817.16-2.566 1.73-3.081 2.228l-1.926-.012.763-.885-1.148-.786c-1.436.369-1.674.56-3.084.195-.12-1.119.85-1.003.97-1.784.022-.137-.253-.194-.38-.292-1.09-.836-1.43-.85-1.43-2.081-1.154-.122-1.691-.034-2.799.163-1.439.258-3.082.308-4.446.742-1.519.485-2.435 1.405-4.084 1.771.677-.653 1.436-1.176 2.158-1.795 1.29-1.103 2.584-1.618 4.228-2.37l-.761-.587.761-.896-.761-.886h-2.312l.488-1.073c1.492.117 2.633.131 4.134-.053-1.656-.679-2.423-.694-3.081-2.087 1.746.086 3.503.3 5.104-.346.873-.353 1.35-.492 2.359-.51l1.01-.002.3-.686-2.61-1.009-.188-.773 3.385-.514-3.154-1.268 4.419-.593 1.042-.294-.356.976 4.095-.233c.818.701 1.199 1.004 2.312 1.449 1.354-2.71-1.16-3.498-1.16-5.762l3.425-1.29 1.97.397c.53-.324.93-.588 1.607-.707l3.401-.57c1.77-.52 2.137-.524 4.055-.352z" fill="#D6D6D6"/><path d="M109.636 12.93l2.389.134.936 2.047-2.038 1.88c-1.764.126-2.341.379-3.85-.394V15.11c.818-.804 1.537-1.523 2.563-2.18z" fill="#C8C8C8"/></svg>