<svg width="304" height="100" fill="none" xmlns="http://www.w3.org/2000/svg"><path d="M81.084 55.774c3.255 1.658 6.788 4.889 7.663 7.86l.091.377c-.636.07-1.196.155-1.85.11-1.6-.111-2.457-1.184-3.328-2.083-.674-.699-2.13-.82-3.197-1.158l-1.589-.496c-1.612-.391-2.074-.52-3.437-1.34l.74-.57 3.736.64c1.26-1.221 1.052-1.812 1.171-3.34z" fill="#BCBCBC"/><path d="M232.859 75.4c1.884-1.112 4.026-2.742 6.481-2.689-.303 1.814-.796 1.857-2.489 3.048l.493-.137c.908-.235 1.682-.272 2.635-.284 2.13-.025 2.736-.212 4.317-1.253l1.267 1.36c-3.992.735-7.58 5.091-11.874 3.766l-1.076-.658-1.11-.206 1.356-2.946z" fill="#C8C8C8"/><path d="M54.094 79.407c-3.056 1.11-6.422 2.137-9.78 2.487l-5.307.45c-2.075.045-4.176-.506-6.322-.522C23.587 81.754 6.798 83.024 0 78.058l.302-1.152c1.86-1.496 3.672-2.932 6.068-3.919 3.693-1.522 7.584-1.998 11.7-2.298-.864 1.623-2.413 1.54-2.424 3.342h-3.737l-1.983 2.07c2.889-.059 6.314 1.24 8.917.206 1-.397 2.291-.478 3.154-.867 1.392-.626 1.633-.89 3.301-1.043.997-.092 1.857-.164 2.82-.399 2.07-.505 3.013-.668 5.129-.176l-.878.998c-1.465.106-2.502-.114-3.48.79a17.165 17.165 0 00-1.742 1.895l-.666.578-1.86 1.128.37.783c3.623.778 5.088 1.116 8.46-.384l.878-.405 1.651-.57.59.582-1.487 1.147c1.11.241 1.178.415 2.294.07 2.175-.67 3.547-1.053 5.92-.627l-1.488 1.133 1.487.57c1.235-.574 3.104-1.729 4.49-1.734 1.889-.008 3.157.027 4.802-.718l1.506.349z" fill="#656565"/><path d="M9.926 76.102c2.888-.06 6.314 1.238 8.917.205 1-.397 2.29-.478 3.154-.867 1.392-.626 1.633-.89 3.301-1.043.997-.092 1.857-.164 2.82-.399 2.07-.505 3.013-.668 5.128-.176l-.877.998c-1.465.106-2.502-.114-3.48.79a17.165 17.165 0 00-1.742 1.895c-2.217-.34-5.255 1.814-7.383 2.45l-.756.215c-.66.192-1.312.39-2.026.425-2.99.15-7.4-.882-9.766-2.248l.209-.526 9.342 1.738 1.36-.749c-2.071-.895-3.529-.936-5.874-.968l-.718-.007-1.609-1.733z" fill="#ADADAD"/><path d="M18.07 70.689c4.137-.743 8.144.795 11.985.23.832-.122 2.784-2.573 3.388-3.202 4.964-5.163 12.42-10.9 21.12-11.84l.69-.07c4.22-.568 7.565-.36 11.584.847l-.375.347-2.495.153c1.29.293 2.382.733 3.58 1.193l-.71.271c-1.602-.229-3.037-.4-4.486-1.013l.375-.819-2.99-.222-1.12 1.022c-1.77-.34-3.108-.397-4.935-.307l-1.417 1.486-1.81-.296-.686 1.152 1.748 1.032-1.329.524.995 3.057 2.95-.14c.82.382 1.521.763 2.241 1.251l2.243-1.322 1.014.33c1.018.323 1.811.435 2.92.454l-.572.754c-4.784-.075-11.507-.91-16.028.085l-.454.89-1.826-.526-1.506 1.102.501.81-.693-.064c-.974-.063-1.768.035-2.721.163l.162.986.894.46-6.08 1.102.475.653c2.19-.23 2.569-.557 4.396.499l-2.389 1.895.148.874.313.605-2.468.159-1.455-1.432c-2.116-.492-3.06-.33-5.129.176-.963.235-1.823.307-2.82.398-1.668.153-1.91.418-3.3 1.043-.864.39-2.156.47-3.155.867-2.603 1.034-6.028-.264-8.917-.204l1.982-2.071h3.738c.01-1.803 1.56-1.72 2.425-3.342z" fill="#787878"/><path d="M51.182 64.234l-2.655-.287c-2.725 1.201-4.567 2.08-7.847 1.863l-.715-.716c1.957-1.576 4.289-2.076 6.739-3.031 1.223-.477 2.151-.697 3.483-.886l.995 3.057z" fill="#C8C8C8"/><path d="M249.51 76.48l1.67-.859c2.4.498 2.512.3 4.676-.443l-.034-.735-3.285-.435.583-1.135-1.872-1.729.919-.426 2.612 1.12.819-.408c-.908-.67-.819-.789-2.097-.954-1.57-.204-2.478-1.076-3.577-1.885l-1.939-1.418 1.939-.995 1.873.351-.381-.727c-1.256-.366-1.424-.673-2.714-.268-1.345.421-1.782.67-3.229.404-3.509-.648-8.734 1.49-11.627 2.902l-.37-.864c2.736-2.722 7.692-4.68 12.109-5.106 6.918-.664 13.478.44 19.005 3.827 2.456 1.5 3.958 3.823 5.371 5.93 1.222 1.83 4.227 4.412 6.884 4.992l7.725.914c6.111.991 12.715 2.57 18.333 4.711l.459.688c-1.771.261-2.803.248-4.541-.055-.874-.15-1.614-.058-2.478.045l-.067.05c-9.16 3.22-19.565 3.848-29.522 3.323-3.812-.26-7.759-.467-11.38-1.487-2.086-.587-5.315-2.648-7.232-2.795-.494-.037-7.67 4.055-8.746 4.63-8.51 4.642-20.16 8.225-30.789 6.925-3.801.14-8.039-.755-11.582-1.763 1.884-.243 2.511-.531 3.946-1.494l-.37-.862c-1.345-.344-1.311-.21-2.601.286l-1.883-1.11c-1.133-1.005-1.895-1.55-3.364-2.325l-2.613.56-1.368-.786c.965-.79 2.03-1.209 3.241-1.752l1.861.569c1.032-.68 2.052-1.06 3.263-1.517.426.208.953.485 1.424.599 2.007.474 2.915-.088 4.653-.71l-.37-.61-2.983.438-.571-.558c1.311-.302 2.309-.694 3.464-1.24l.415-.2c.864 1.038 2.243.829 3.633 1.757.628-.221 1.301-.479 1.985-.606 1.188-.22 2.354-.219 3.408.289l-.381.87-.471-.582c-1.749.102-3.241.901-4.754 1.538v.44c2.097.078 3.061-.693 5.225-.176l2.904-1.35c.953-.522 1.693-.99 2.814-1.27 1.783-.444 3.431-1.073 5.113-1.687l1.267.39.314.962-1.581.45.381.697 3.364-1.031c.616-.863.415-.504.863-1.424.583-1.166 2.927-2.217 4.25-3.013l1.11.206 1.076.659c4.294 1.324 7.882-3.032 11.874-3.766 1.39.251 2.736.423 3.947 1.034z" fill="#656565"/><path d="M142.275.53c5.505-.767 11.123-.763 16.516.42l1.054.225c10.169 2.307 19.038 9.214 23.904 16.299 1.357 1.967 3.106 4.491 3.432 6.705l1.468 1.836c2.68-.041 5.225-.453 7.804-1.017 4.07-.894 9.531.328 13.197 1.748 9.116 3.075 15.563 8.216 19.274 15.348l2.612 6.717c1.11 3.592 1.099 11.444-1.468 14.548-.595 1.285-1.559 2.812-1.514 4.176l.404.448c1.009 1.084 1.02 1.59 1.424 2.803l.19.357.325 3.477 1.962.78-1.356 2.947c-1.323.796-3.667 1.847-4.25 3.013-.448.92-.246.56-.863 1.423l-3.364 1.031-.381-.696 1.581-.45-.314-.963-1.267-.39c-1.682.615-3.33 1.243-5.113 1.688-1.121.28-1.861.748-2.814 1.27l-2.904 1.35c-2.164-.517-3.128.253-5.225.176v-.44c1.514-.637 3.005-1.436 4.754-1.539l.471.582.381-.87c-1.054-.507-2.22-.508-3.408-.288-.684.127-1.357.385-1.985.606-1.39-.928-2.769-.72-3.633-1.758l-.415.201c-1.154.545-2.152.938-3.464 1.24l.572.558 2.982-.438.37.609c-1.738.622-2.646 1.185-4.653.71-.471-.113-.998-.39-1.424-.598-1.211.458-2.231.836-3.263 1.516l-1.861-.568c-1.211.543-2.276.962-3.24 1.751l1.368.786 2.612-.56c1.469.776 2.231 1.32 3.364 2.326l1.883 1.11c1.29-.497 1.256-.63 2.602-.286l.37.862c-1.436.963-2.063 1.251-3.947 1.494-1.626-.4-4.025.779-5.629 1.32-9.014 3.24-20.686 6.526-30.733 4.384-8.162-1.741-20.159-2.257-26.597-6.933-2.827.75-5.39.405-8.278.142l-7.725 1.188c-1.658.193-3.066.678-4.769.84-3.559.34-7.112 1.362-10.709 1.281-3.575.044-7.34.231-10.88-.156-.894-.098-1.702-.21-2.609-.219-9.021-.093-20.052-3.299-26.637-8.092-2.926-1.5-3.255-3.688-4.03-6.197-1.913-.95-1.977-1.185-4.335-.956l-1.506-.35c-1.645.745-2.913.71-4.802.719-1.386.005-3.255 1.16-4.49 1.734l-1.487-.57 1.487-1.133c-2.372-.426-3.743-.044-5.919.627-1.116.345-1.184.171-2.294-.07l1.487-1.148-.59-.581-1.651.57-.877.405c-3.373 1.5-4.838 1.162-8.46.383l-.37-.782 1.86-1.128.665-.578a17.2 17.2 0 011.743-1.895c.977-.904 2.014-.685 3.479-.79l.878-.998 1.455 1.432 2.468-.16-.313-.604-.148-.874 2.39-1.895c-1.828-1.056-2.207-.729-4.397-.499l-.474-.653 6.08-1.101-.895-.461-.162-.986c.953-.128 1.747-.226 2.721-.163l.693.064-.501-.81 1.506-1.102 1.826.525.454-.89c1.43.967 2.443 1.748 4.38 2.042l1.186 1.236c2.028-.112 1.448-.521 2.99-1.185.413-.177 3.067.08 3.63.099 2.582.084 3.957-.576 6.79-.233l1.745-.034c1.205-.329 1.897-.653 3.15-.168l1.5.871c1.723-.008 2.047.051 3.382-.874l1.474-1.377c.931.205 1.992.655 2.897.303 1.154-.448 1.66-1.178 2.334-1.985 1.578.285 4.221 1.557 5.6 2.356.992.573 1.864.777 3.027 1.087l.622-1.008c-.435-1.324-.268-2.034-1.819-2.764l-.09-.378c-.876-2.97-4.409-6.201-7.664-7.859-.138-4.438-.876-9.726 1.303-13.916 2.51-4.828 9.229-9.894 15.603-11.684 3.745-1.05 7.491-.26 10.911 1.012l.439-.355c-.103-3.842.88-7.637 2.024-11.356a23.723 23.723 0 016.116-8.7c6.185-5.536 15.273-9.686 24.795-10.246z" fill="#C8C8C8"/><path d="M142.275.53c5.505-.767 11.123-.763 16.516.42l1.054.225c10.169 2.307 19.038 9.214 23.904 16.299 1.357 1.967 3.106 4.491 3.431 6.705l-.863.623c-1.648-2.474-3.252-4.656-5.572-6.797l1.48 4.793 1.11 2.83c1.58.565 2.601 1.031 3.801 2.016-.135 1.292.19 2.273-1.111 3.163-.112-1.463.101-2.038-1.11-3.205l-.941.906-.729-.116-1.66-5.17-1.054.677-.28 2.592-.942.514-2.545-2.53.617-.97c.83 0 1.513-.072 2.321-.183l-.124-1.44c.191-1.738.505-2.554-.65-4.228l-2.601-3.55 1.626.053c-.527-1.388-1.749-2.007-3.129-2.885l-1.906.527-.695-.576 1.099-.344c-.168-1.11-.976-1.238-1.861-1.992l-.852-.784c-6.414-5.15-14.106-5.732-22.851-6.031-5.158.42-10.495.887-15.349 2.384l-.446.566 1.924.439-.167.675c-2.653-.344-4.534-.97-6.939.344l-5.241 3.59-.053 1.44 1.603.865-.36.57c-.87 1.397-1.54 2.485-1.715 4.034l-1.613-.655-1.684 1.448.315 1.92.882-.535c.318 1.317-.072 1.842-.763 3.013 1.341 1.158 1.001 1.654 1.001 3.169h-.617c-.593-.896-1.187-1.663-1.256-2.692l-1.778-.035c-.786 1.647.467 2.262-.082 3.483-.555 1.238.159 2.196-.671 3.443l-.98-.166-.431-.864-.543.663c1.188 1.308.172 3.266-.163 4.828l-1.085.892c-1.807-1.372-1.154-2.432-2.207-4.06-.103-3.842.88-7.637 2.024-11.356a23.723 23.723 0 016.116-8.7c6.185-5.536 15.272-9.686 24.795-10.246z" fill="#4F4F4F"/><path d="M187.18 24.179l1.469 1.836c2.68-.041 5.225-.453 7.804-1.017 4.07-.894 9.53.328 13.197 1.748 9.116 3.075 15.563 8.216 19.274 15.348l2.612 6.717c1.11 3.592 1.099 11.444-1.469 14.548-.594 1.285-1.558 2.812-1.513 4.176l.403.448-1.098 1.122c-.897.062-3.555.608-3.779.47-.964-.592-1.715-1.125-2.96-1.311l-1.704.864.246.913.729-.286c1.032-.395.606-.255 1.705-.53-.045 1.372.145 1.458-1.223 2.414-.605.419-1.222.622-1.962.847l-1.3 2.038c-1.94-.185-1.817-1.026-4.306-.828l-.841-.823 1.424-1.152-.202-1.11-1.121-.042-1.121 1.353-1.166-.49c.975-1.58 1.413-1.691 3.263-2.592.919.201 1.39.246 2.388.25l.078-.826-.37-.788 1.077-1.778-1.167-.417-1.244.478.325 1.562c-3.42.516-4.07 2.539-7.378 3.823l1.951.99c-.65 1.21-1.312 1.466-2.623 2.262-.785-.975.235-1.246-.068-2.099-.257-.692-1.457-.933-1.951-1.542.785-1.469 2.097-.964 3.846-1.915l-.291-.864-1.155-.383c-.785.637-1.368 1.192-2.411 1.582l-.583.18-.919 1.501c-1.11 1.14-1.503 1.419-1.817 2.838l-.078.392-1.671.293c-.123-1.513 1.133-3.38.381-4.699-.941.479-1.614.766-2.713.956.707-2.525 1.357-1.263 3.207-2.949l-1.334-.575.381-1.729c1.244-.622 2.545-1.405 4.07-1.488l.841-.024.325-.793-.673-.932c-2.691.798-4.888 1.1-7.422 2.325l-.673.336-1.189-.847 2.232-.675.953-.446c1.581-.702 2.321-1.16 3.431-2.3l.325-.342 1.973.83 1.211-.735-.224-1.667-1.738-.547c-1.009-.918-1.816-1.949-2.265-3.104l-.19-.576c.773.566 1.3 1.013 1.861 1.731l.437.611 1.458.094.874-.329c.303 1.419.426 1.496 1.727 2.54l.953-.146.269-1.583c-2.646-1.884-2.926-2.553-3.364-5.328 1.267.849 2.119 1.714 2.826 2.874l.426.726 1.345.259 1.604-1.7 1.009 1.44-1.222 1.023c1.334.68 1.491.707 3.094.712-.235-1.814-1.143-3.686-.101-5.397l1.391 1 1.121-.506-.695-2.305-.976-.39-.605 1.488-1.021-.126-.784-1.26c.684-.484 1.289-.893 2.085-1.27l.628-.282.348-1.57 1.087.241c-.616 1.474.55 3.13 1.357 4.466l.448.72c-.706.957-.594 1.57-.549 2.637l1.491.272 1.873-1.957c1.334.509 2.074.194 3.498-.003-.314-.9-.404-1.841-1.256-2.512l-.93.987-.651-.289-.09-2.593c.83-.085 1.402-.145 2.232.015l.56.134c.325-2.474-1.412-1.872-1.67-3.39-.023-.125.515-.935.504-1.08-.067-.96-1.177-2.776-1.592-3.745l-1.357-.36-1.872 1.124-1.749-.568c-.337-1.43-.561-2.774-.628-4.23l1.211-.206c.661 1.171.874 2.414 1.166 3.664l1.772-1.152-.09-2.016c-1.66-1.185-2.837-2.198-3.891-3.746l.718-.57-1.492.5-1.3-.506-.942.556-.908-.556.157-1.62c-.965-.456-1.951-.775-2.983-1.123l-.908 1.428.751 1.603-.594.448-1.794-1.247c.191-.821.112-1.519 0-2.344l-2.433-.426c-.168 1.056.774 1.586 1.581 2.417l-.919 1.725-.92.285c-.841-2.053-2.119-3.69-3.733-5.417l-.483.529c.449.812.886 1.52 1.548 2.249l.571.632c-1.042 1.363.012 2.197-.897 3.736-.807-.896-1.289-1.871-1.827-2.875-.886-1.663-1.626-2.58-3.397-3.774l-.449 1.47c1.076 1.863 1.402 3.575 2.893 5.334l.617.715-.819 1.368-1.043-.504.527-1.037c-.415-.16-.605-.21-.975-.497-1.828-1.401-1.817-2.38-1.929-4.228-1.009-.793-1.547-1.09-2.937-1.378l-.449.803 1.671 2.295c.93 1.424 1.413 3.109.762 4.66-.605-1.505-1.917-3.042-2.276-4.52-.235-.958-1.659-1.52-2.646-2.147.011-.923.09-1.545-.392-2.41l-.37-.593-1.615-3.296.863-.623z" fill="#656565"/><path d="M154.351 69.307c3.464-.977 7.052-1.744 10.349-3.01 1.525-.588 2.836-.771 3.408-2.067l-2.242-1.728 1.11-.813c1.323-.115 1.984-.098 3.061-.747 1.076-.656 1.435-.69 2.803-.903l.863-.127.404-1.155-1.525-1.729.74-.858c.897.261 1.738.486 2.545.897l.437.25c-.056-.754-.067-1.098.393-1.798l.37-.502-1.379-1.158 1.009-.817h.684c1.446.827 2.298 1.286 4.171 1.416 0-1.276-.213-1.8.74-2.872 1.57.892 1.715 1.12 3.734 1.127l-.729-1.447.729-.858c.84.569 1.177.976 1.536 1.78l.336.81 2.545.861c.011 1.265.09 2.364.617 3.583.516 1.2.717 2.449 1.368 3.62.504.939-.482 1.18-.202 2.354l2.455.544 1.189.847.673-.336c2.534-1.225 4.731-1.527 7.422-2.325l.673.932-.325.794-.841.023c-1.525.083-2.826.866-4.07 1.488l-.381 1.729 1.334.575c-1.85 1.686-2.5.424-3.207 2.95 1.099-.191 1.772-.478 2.713-.957.752 1.32-.504 3.186-.381 4.7l1.671-.294.078-.392c.314-1.42.707-1.698 1.817-2.838l.919-1.5.583-.18c1.043-.391 1.626-.946 2.411-1.583l1.155.383.291.864c-1.749.95-3.061.446-3.846 1.915.494.609 1.694.85 1.951 1.542.303.853-.717 1.124.068 2.1 1.311-.797 1.973-1.052 2.623-2.263l-1.951-.99c3.308-1.284 3.958-3.307 7.378-3.823l-.325-1.562 1.244-.478 1.167.417-1.077 1.778.37.788-.078.826c-.998-.004-1.469-.048-2.388-.25-1.85.9-2.288 1.011-3.263 2.593l1.166.49 1.121-1.354 1.121.042.202 1.11-1.424 1.152.841.823c2.489-.198 2.366.644 4.306.828l1.3-2.037c.74-.226 1.357-.43 1.962-.847 1.368-.957 1.178-1.043 1.223-2.415-1.099.275-.673.135-1.705.53l-.729.287-.246-.914 1.704-.864c1.245.186 1.996.719 2.96 1.31.224.14 2.882-.407 3.779-.468l1.098-1.123c1.01 1.084 1.021 1.59 1.424 2.803l.191.357.325 3.477 1.962.78-1.356 2.947c-1.323.796-3.667 1.847-4.25 3.013-.448.92-.247.56-.863 1.423l-3.364 1.031-.381-.696 1.581-.45-.314-.963-1.267-.39c-1.682.615-3.33 1.244-5.113 1.688-1.121.28-1.861.748-2.814 1.27l-2.904 1.35c-2.164-.517-3.128.253-5.225.176v-.44c1.514-.637 3.005-1.436 4.754-1.539l.471.582.381-.87c-1.054-.507-2.22-.508-3.408-.288-.684.127-1.357.385-1.985.606-1.39-.928-2.769-.72-3.633-1.758l-.415.201c-1.155.545-2.153.938-3.464 1.24l.571.558 2.983-.438.37.609c-1.738.622-2.646 1.185-4.653.71-.471-.113-.998-.39-1.424-.598-1.211.458-2.231.836-3.263 1.516l-1.861-.568c-1.211.543-2.276.962-3.241 1.751l-3.016.298.27-.867.695-.261c.953-.412 1.166-.724 1.659-1.433-2.668.299-4.148 1.427-6.088 2.778l-.583.041c-2.052.164-2.545.576-4.339 1.208l-2.938.404-.034-.284c-.314-.627-.628-.64-.695-1.388 1.301-.69 2.545-1.445 4.104-1.71l1.121-.204c1.581-.427 2.456-.69 3.173-1.835-1.401-.212-2.41.234-3.677.64l-.617.198-1.525-.838.404-.96c1.233-.365 2.164-.703 3.218-1.317l-2.4-.275c-1.906.75-2.332.927-4.552.873-.953.807-1.413 1.456-2.803 1.772-.897.206-1.503.396-2.299.76l-3.251-.255 2.007-1.745c-1.57-.498-2.68-.178-4.238.128l-.651-2.329c2.288-.98 8.084-2.998 9.508-4.642.37-.422.236-.356.09-.879.123-.236 3.397-2.246 4.126-2.942l-.617-.859c-.762.668-1.11.948-2.242 1.152l-.045-1.18 2.209-1.13-.673-.544c-1.659-.118-1.951.01-3.487.567-1.738-.545-2.534-.84-4.361-.342-1.94.53-5.08 1.839-6.694 2.759-.987.565-1.615.564-2.803.642l-.415-.531.067-.46c.067-1.273-.942-1.927-2.029-2.776z" fill="#ADADAD"/><path d="M183.29 79.419l.919-.306 2.198.618.538.92-1.66.87-1.468-.516-.527-1.586z" fill="#BCBCBC"/><path d="M172.952 82.141l1.783-2.354 1.782-.074.987 1.555c-1.906.75-2.332.927-4.552.873zm10.338-2.722c-1.794.574-2.579.976-4.541.809l-.438-1.017c1.402-1.636 3.398-2.009 5.853-2.461l1.009.727-.964 1.636-.919.306zm-3.241-22.679l1.503.411c.033.673.426 2.784.179 3.335-.37.814-1.3.664-1.3 1.726l1.121.578-.74.865c.729.968.818 1.458.773 2.574l-1.524.883c-1.077-.982-1.021-2.083-1.368-3.276l-.146-.47.751-.864-1.502-1.44c1.076-.566 1.412-1.17 2.04-2.017l-.527-1.064.74-1.24zm48.908 11.243c1.01 1.084 1.021 1.59 1.424 2.803l.191.358c-1.289 1.387-1.861 1.71-1.94 3.457l1.491 1.159c-1.558.44-3.229.613-4.854.861l-.37.862c1.681.822 3.307.265 5.224.005-1.67.927-4.148 1.915-6.267 1.636l-.841-.155c-.819-.08-1.121.13-1.817.401-.908.36-1.637.562-2.657.713l-1.883.28.011-1.158.493-.089c.819-.21 1.177-.58 1.738-1.058l-1.11-.57-.628.124c-1.458.28-2.713.498-4.227.441l4.676-3.528 1.3-2.038c.74-.226 1.357-.43 1.962-.847 1.368-.957 1.178-1.043 1.222-2.415-1.098.275-.672.135-1.704.53l-.729.287-.246-.914 1.704-.864c1.245.187 1.996.719 2.96 1.31.224.14 2.882-.407 3.779-.468l1.098-1.123z" fill="#C8C8C8"/><path d="M81.084 55.775c-.138-4.44-.876-9.727 1.303-13.917 2.51-4.828 9.229-9.894 15.603-11.684 3.745-1.05 7.491-.26 10.911 1.012l-3.579 3.654-.544-1.147 1.354-1.44-.81-.904c-.729.788-1.211 1.428-1.619 2.345l-1.371.419c-1.111-.877-1.995-1.55-2.58-2.724l-1.218.576c.47.66.782.934 1.471 1.44-.972 1.773-2.431 1.784-3.034 3.746h-1.552c-1.492 1.543-2.376 2.3-2.549 4.213l-.41 1.549c2.002.933 1.936.999 2.687 2.592l-.562.634c-.638.74-.787 1.307-.903 2.194l-.933.917 1.415 1.781-2.507.96.285.587c.284.638.358 1 .338 1.656l-.23.121c1.814 1.462 5.276 3.561 5.91 5.501.493 1.511 1.97 1.974 3.248 2.937l.751.867c.507-1.156.146-1.75-.365-2.887l.738-.57c1.015.91 1.625 1.364 1.865 2.59 1.959 1.547 1.888 1.8 2.244 3.972l1.87.928v1.042l-.755.393c-1.184.751-3.278 1.824-3.589 2.753l.95.77 1.537-.071c.08-.885-.225-1.525.724-2.116.809-.504 1.289-.59 2.279-.733.557-.72.781-1.3.534-2.152l-.252-.51c-.338-.714-.259-1.228-.197-1.974-1.8-1.512-2.062-1.736-2.482-3.745l.724-.17c2.242 1.832 2.354 3.912 4.736 5.643l1.916 1.47.773-.893c-.451-.812-.867-1.572-1.509-2.305l1.337-1.296 1.76.431.483 1.362 1.494.245c0-1.955-1.095-2.219-1.494-3.972l-1.495-1.086c-1.674.719-1.582 1.082-2.242 2.422-.599-.474-1.21-.703-1.275-1.378-.145-1.515-.656-1.73-1.509-3.031-.848-1.294-.268-2.074-1.789-3.32l1.084.116c1.257 1.62 2.091 2.811 2.442 4.715 2.385.106 3.42-1.558 4.876-.27 1.573 1.391 1.419 2.688 3.945 3.622 1.443-1.21 1.181-2.401 2.9-3.048 1.026.538 1.555.8 2.262 1.607l-.759 1.44.358.423c1.193 1.456 1.662 2.48 1.865 4.187l-.263.413-.678 1.315c1.693.226 2.834-.485 4.202.288l1.022.554.448-.214c3.027-1.335 5.083-1.597 8.514-1.532l2.993-2.06c1.335-.924 2.31-1.087 4.059-1.213-1.872 2.263-6.167 3.496-8.544 5.639-1.065-.227-1.48-.533-2.242-1.146-1.222.612-2.265 1.251-3.36 1.983l-2.736-.032c2.004.056 3.811.189 5.726-.334 2.074 1.26 2.612 1.408 5.225 1.723l.796-.341c1.155-.47 2.052-.415 3.319-.386l.28.728-1.155 1.241.875.641c1.143-.301 4.417-.915 5.113-1.55 1.524-.824 3.004-1.09 4.776-1.438l.415.531c1.188-.078 1.816-.077 2.803-.642 1.614-.92 4.754-2.229 6.694-2.758 1.827-.498 2.623-.204 4.361.34 1.536-.557 1.828-.684 3.487-.566l.673.544-2.209 1.13.045 1.18c1.132-.203 1.48-.484 2.243-1.152l.616.859c-.729.696-4.003 2.707-4.126 2.942.146.523.28.457-.09.879-1.424 1.644-7.22 3.662-9.508 4.642l.651 2.33c1.558-.306 2.668-.627 4.238-.128l-2.007 1.744 3.251.255c.797-.364 1.402-.554 2.299-.76 1.39-.316 1.85-.965 2.803-1.772 2.22.054 2.646-.123 4.552-.873l2.4.275c-1.054.614-1.985.953-3.218 1.317l-.404.96 1.525.838.617-.198c1.267-.406 2.276-.852 3.677-.64-.717 1.146-1.592 1.408-3.173 1.835l-1.121.204c-1.558.265-2.803 1.02-4.104 1.71.068.75.381.761.695 1.388l.034.284 2.938-.403c1.794-.633 2.287-1.044 4.339-1.209l.583-.04c1.94-1.352 3.42-2.48 6.088-2.779-.493.709-.706 1.02-1.659 1.433l-.695.261-.269.867 3.016-.297 1.368.785 2.612-.559c1.469.775 2.231 1.32 3.364 2.325l1.883 1.11c1.29-.496 1.256-.63 2.602-.286l.37.862c-1.436.963-2.063 1.251-3.947 1.494-1.626-.399-4.025.779-5.629 1.32-9.014 3.24-20.686 6.526-30.733 4.384-8.162-1.741-20.159-2.257-26.597-6.933-2.827.75-5.39.405-8.278.142l-7.725 1.188c-1.658.193-3.066.678-4.769.84-3.559.34-7.112 1.363-10.709 1.281-3.575.044-7.34.231-10.88-.156-.894-.098-1.702-.21-2.609-.219-9.021-.093-20.052-3.299-26.637-8.092-2.926-1.5-3.255-3.688-4.03-6.197-1.913-.95-1.977-1.185-4.335-.956l-1.506-.35c-1.645.746-2.913.711-4.802.719-1.386.005-3.255 1.16-4.49 1.734l-1.487-.57 1.487-1.133c-2.372-.426-3.743-.043-5.919.627-1.116.345-1.184.172-2.294-.07l1.487-1.147-.59-.582-1.651.57-.877.405c-3.373 1.5-4.838 1.162-8.46.384l-.37-.783 1.86-1.128.665-.578a17.2 17.2 0 011.743-1.895c.977-.904 2.014-.684 3.479-.79l.878-.998 1.455 1.432 2.468-.159-.313-.605-.148-.874 2.39-1.895c-1.828-1.056-2.207-.729-4.397-.499l-.474-.653 6.08-1.101-.895-.46-.162-.987c.953-.128 1.747-.225 2.721-.162l.693.064-.501-.811 1.506-1.102 1.826.525.454-.889c1.43.966 2.443 1.748 4.38 2.041l1.186 1.236c2.028-.112 1.448-.52 2.99-1.185.413-.177 3.067.08 3.63.099 2.582.084 3.957-.576 6.79-.233l1.745-.034c1.205-.328 1.897-.653 3.15-.168l1.5.871c1.723-.008 2.047.051 3.382-.873l1.474-1.378c.931.205 1.992.655 2.897.303 1.154-.448 1.66-1.178 2.334-1.985 1.578.285 4.221 1.557 5.6 2.356.992.573 1.864.777 3.027 1.087l.622-1.007c-.435-1.324-.268-2.035-1.819-2.765l-.09-.378c-.876-2.97-4.409-6.2-7.664-7.858z" fill="#8C8C8C"/><path d="M157.03 79.564l1.11 2.32-1.625 1.038-1.873-.614-.303-1.08 2.691-1.664z" fill="#D6D6D6"/><path d="M104.917 72.652l1.537-.072c.815.812 2.348 1.63 3.359 2.31-1.648 1.148-2.325.873-4.491.89.536-1.598.376-1.68-.405-3.128z" fill="#9C9C9C"/><path d="M94.737 82.092c1.17.497.77.257 1.724.925l.64.464 2.617-.657.804.42-2.27 1.728-1.432.274c-1.6-.757-3.695-.667-5.552-.85 1.05-.864 2.27-1.569 3.47-2.304z" fill="#ADADAD"/><path d="M162.368 82.801c1.558-.306 2.668-.626 4.238-.128l-2.007 1.745c-2.557.461-4.048 1.11-6.503.181l.28-.984 3.992-.814z" fill="#D6D6D6"/><path d="M171.315 74.951c.146.523.28.457-.09.878-1.424 1.645-7.22 3.663-9.508 4.643-1.155.49-2.321 1.087-3.576 1.412l-1.11-2.32.695.022c1.233-1.33 2.096-1.352 3.823-1.984 3.42-1.252 6.772-1.27 9.766-2.65z" fill="#C8C8C8"/><path d="M128.392 89.85l2.712-1 .82.352c1.995.754 5.911.46 7.918-.224l.695-.253c.684-.243 1.211-.331 1.951-.44 3.442-.503 5.808-3.173 9.239-1.444l-.83.436-1.48-.489c-.762.246-1.39.495-2.085.819-1.727.792-3.689 1.025-5.405 1.825-1.749.815-4.428 1.05-6.423 1.553l-1.439.591c-2.826.75-5.389.405-8.278.142l2.605-1.869z" fill="#4F4F4F"/><path d="M156.728 73.074c1.188-.078 1.816-.077 2.803-.642 1.614-.92 4.754-2.229 6.694-2.759 1.827-.498 2.623-.203 4.361.342l-9.755 4.268c-1.031.392-.627.152-1.334.74-.998-.03-1.222-.177-2.074.272-1.996 1.056-3.364 1.47-5.763 1.656l-.998-.909.998-1.215 3.733.05.427-.69c.549-.857.269-.546.908-1.113zM66.67 67.57c1.206-.329 1.898-.653 3.151-.168l1.5.871c1.723-.009 2.047.051 3.382-.874l1.474-1.377c.931.204 1.992.655 2.896.303 1.155-.449 1.661-1.178 2.335-1.985 1.578.285 4.221 1.557 5.6 2.356.992.573 1.864.777 3.027 1.087l1.764 1.633c-1.659.554-3.612.463-5.416.405-.961-.031-1.607-.315-2.475-.568-1.138-.33-2.407-.392-3.61-.495l.363.845c1.97.623 3.779 1.23 5.576 2.118l-.345.769-.476-.173c-2.787-.817-4.778.245-6.997-1.702l-.831.6.413 1.082-1.45.21c-1.478-1.19-1.486-1.547-3.736-1.574-2.762-.033-5.022.064-7.718-.536l1.573-2.827z" fill="#C8C8C8"/><path d="M92.05 54.355c1.814 1.462 5.276 3.561 5.91 5.502.493 1.51 1.97 1.973 3.248 2.936l.751.867c.507-1.155.146-1.75-.365-2.886l.738-.571c1.015.91 1.625 1.364 1.865 2.59 1.959 1.547 1.888 1.8 2.244 3.972-4.197.012-2.017-1.236-4.855-2.442l-.197 1.229c.598 1.193 1.406 1.804 2.571 2.667l.459.333-.416 1.44c-1.074.073-1.856.068-2.775.557-.636.338-1.218.669-1.885.978l-1.778-.958 1.031-.927 2.242.297.353-.81c-1.15-.915-1.666-1.588-2.24-2.783l-.229-.486c-.386-.774-.668-1.403-.784-2.226l-.09-.717-1.867.625-.928-.544-.763.657 1.44.34-.544 1.388c1.21.915 2.442 1.773 3.361 2.881l-1.194 1.398-1.372.204c-1.666-1.125-1.866-3.016-3.96-4.512-.7-.5-.48-1.814-.528-2.563 1.242-.365 1.85-.706 2.772-1.441l-.642-1.912-1.378-.12c-.382-.44-.544-.582-.797-1.137-.755-1.657-.452-2.363.603-3.825z" fill="#BCBCBC"/><path d="M36.857 74.49l-.148-.874 2.39-1.895c-1.828-1.056-2.207-.729-4.397-.499l-.474-.653 6.079-1.101-.894-.46-.162-.987c.953-.128 1.747-.226 2.721-.162l.693.063-.501-.81 1.506-1.102 1.826.525.454-.889c1.43.966 2.443 1.748 4.38 2.041l1.186 1.236c2.028-.112 1.448-.52 2.99-1.185.413-.177 3.067.08 3.63.099 2.582.084 3.956-.576 6.79-.233l1.745-.034-1.574 2.828-3.492-.098-2.243 1.742-.92-.099c-4.408-.457-8.735-.401-13.058.423-.68.13-1.13.084-1.812.022-1.34-.123-1.335.075-2.518.309l-1.766.176-.296 1.26-2.135.357z" fill="#ADADAD"/><path d="M62.46 86.56l1.996-1.011c.724 1.138 1.02 1.307 2.38 2.043a46.98 46.98 0 013.694-.66l1.38-.231c-.69 1.06-1.095 1.126-2.451 1.728l.37.747a37.8 37.8 0 004.114-.17l.37.433c1.225 1.087 4.47 1.93 6.348 1.866 1.07-.037 1.844-.705 2.616-1.21l2.615.069c-1.043.645-2.152 1.018-3.36 1.437v.57l1.865.606 2.243-1.574 1.494.113-.74.86 1.487 1.299c1.361-.903 2.591-1.763 4.233-2.36l-2.738-1.539c2.501-2.071 4.386-1.811 7.1-3.567l1.163.404c-.944.552-1.833 1.02-2.886 1.44l.601 1.598c1.768.138 2.582 1.12 3.737 1.245 1.246.135 1.719-.76 3.556-.355l.928.975-2.953.88a24.954 24.954 0 00-4.36 1.88c2.318 0 4.161-.244 6.378-.766 1.156-.791 2.835-1.083 4.078-1.838.832-.507 1.125-.742 2.194-.973l1.005-.196c1.733-.505 3.018-.983 4.868-1.303l-.983.977c-2.022.522-2.883.92-4.241 2.198l.739.512c1.745-.295 3.354-.533 4.602-1.586l.63-.556c.95.546.661.333 1.402.913l.466.376 1.861-1.1.008-1.798 1.785-.142-.082.788 1.286.978c1.908-.597 3.702-1.418 5.506-2.182l-.372 1.471-2.605 1.869-7.724 1.187c-1.658.194-3.066.679-4.769.841-3.559.34-7.112 1.362-10.709 1.281-3.575.044-7.34.23-10.88-.156-.894-.098-1.702-.21-2.609-.219-9.021-.093-20.052-3.299-26.637-8.092zm111.972 2.681l2.938-.403c1.794-.633 2.287-1.045 4.339-1.209l.583-.04c1.94-1.352 3.42-2.48 6.088-2.779-.493.709-.706 1.02-1.659 1.433l-.696.261-.269.867 3.016-.297 1.368.785 2.613-.559c1.469.775 2.231 1.32 3.364 2.325l1.883 1.11c1.29-.497 1.256-.63 2.601-.286l.37.862c-1.435.963-2.063 1.251-3.946 1.494-1.626-.399-4.025.779-5.629 1.32-9.014 3.24-20.687 6.526-30.733 4.384-8.162-1.741-20.159-2.257-26.598-6.933l1.439-.59c.593.297 1.311.494 1.961.717 1.917-.675 3.509-.85 5.595-.997-.807.664-.516.508-1.346.933l-.515.248 2.231.546c.74-.716 1.188-1.06 2.287-1.455 1.391-.5 2.243-1.013 3.7-.531.662.218 1.032.423 1.761.523l.515.052c-.784.557-1.513.983-2.433 1.381l-.964.41-.37 1.09 1.11.755c1.043-.634 1.828-1.096 3.106-1.414l1.009-.24c.942-.928 1.615-1.711 3.095-2.144 1.356-.399 2.051-.84 3.139-1.567l.493.871-.661.337c-2.456 1.283-3.341 2.805-6.436 3.435l-1.121 1.12 1.121.797.46-.241c1.244-.64 2.298-1.111 3.733-1.477-.684.71-1.233 1.285-2.197 1.785l.986.257c4.598-1.983 7.715-4.61 13.085-5.168 1.065.528 1.065.92 1.794 1.602l.751.531 3.151-2.407-1.962-.496.561-.87 1.289-.128z" fill="#656565"/><path d="M174.432 89.241l2.938-.403c1.794-.633 2.287-1.045 4.339-1.209l.583-.04c1.94-1.352 3.42-2.48 6.088-2.779-.493.709-.706 1.02-1.659 1.433l-.695.261-.27.867 3.016-.297 1.368.785 2.613-.559c1.469.775 2.231 1.32 3.364 2.325l1.883 1.11c1.29-.497 1.256-.63 2.602-.286l.369.862c-1.435.963-2.062 1.251-3.946 1.494-1.626-.399-4.025.779-5.629 1.32-.459-.682-.516-.85-.572-1.662l1.929-1.081-1.088-.14c-4.081 2.742-8.319 2.753-12.636 4.6-1.928.821-3.498 1.595-5.696 1.23l1.548-1.29c-1.492-.284-2.523.002-3.947.324-.875.199-1.222.003-2.086-.186l3.689-2.658-1.144-.12 3.151-2.407-1.962-.496.561-.87 1.289-.128z" fill="#787878"/></svg>