<svg width="547" height="190" fill="none" xmlns="http://www.w3.org/2000/svg"><path d="M81.853 134.933l1.581-.247-.45.822-1.102.05-.029-.625z" fill="#C8C8C8"/><path d="M53.544 153.834c2.922.211 3.708 1.039 5.894 2.454l-.587.289c-2.351 1.112-3.968 1.407-6.648.851l-.774-.177-.95.82.537.002c1.834.023 2.874.223 4.522.832l.036.454c.138.802.596 1.373 1.085 2.072l.542-.607c.697-.715 1.053-.901 2.074-1.249l.756.421c-.597.641-1.193 1.423-2.25 1.652-.395.085-.808.074-1.212.079l-.562.665c-.838.943-1.773 1.228-3.084 1.696l-1.386 2.378-.226.004-4.204 2.493c-3.188 1.742-9.092-.336-12.867.962-3.3 1.134-11.12.188-14.824.054-7.575-.325-12.982-1.454-19.416-4.632 5.515-.882 13.004-.3 18.038-1.795 2.85-.846 5.532-3.069 7.845-4.581 8.46-5.53 17.203-5.194 27.661-5.137z" fill="#656565"/><path d="M53.544 153.834c2.922.211 3.708 1.039 5.894 2.454l-.587.289c-2.351 1.112-3.968 1.407-6.648.851l-.775-.177-.95.82.538.002c1.834.023 2.874.223 4.522.832l.036.454c.138.802.596 1.374 1.085 2.072l.542-.607c.697-.715 1.053-.9 2.074-1.249l.756.421c-.597.641-1.193 1.424-2.25 1.653-.395.084-.808.073-1.212.078l-.563.665c-.837.943-1.772 1.228-3.083 1.696l-1.386 2.378-.226.004c-.125-.765-.145-1.289.035-2.063l.18-.666-.845-.96c-.925 1.11-.928 1.454-2.616 1.847l-1.125-.884 2.238-2.308-.739-.265c-4.525 1.288-6.23 5.068-10.463 6.678l-.68-1.4c-.946.571-1.55 1.008-2.68 1.325l-.175-.936c1.97-.63 3.393-2.007 4.851-3.175l1.674.858.258-1.356-1.326-.394-.26-.903-1.934.784-.398-1.216c-1.288.658-2.363.976-3.814 1.339l-.747-1.304c-1.18 1.052-2.555 1.962-3.883 2.901.737-3.565 3.604-3.879 5.751-6.534-1.298.162-2.215.262-3.304.863-1.118.616-.41.453-1.882.431.269-.427.456-.787.884-1.153 5.269-4.503 16.303-3.743 23.233-4.145z" fill="#C8C8C8"/><path d="M404.811 135.122l1.914-.314c.395.923.579.86 1.541 1.412l2.184-1.039.294-1.113.884-.372.04 1.236c2.346.455 3.636-1.118 6.313-1.289 2.726-1.412 2.711-3.644 4.307-5.651l.452-.55-.892-1.022c.208-1.167.312-1.606 1.364-2.489l1.276.518c-.315.679-.398 1.092-.396 1.829l-.122 2.604c-.854.774-1.323 1.35-1.772 2.305l.64.859 1.122-.33.908-1.105c1.049-.991 2.078-1.805 3.032-2.881-.279-.864-.323-1.101-.11-2.017h.871c-.001.528-.011 1.027-.1 1.552l-.077.397 1.402 1.22-1.069 1.889-2.242.01c-.319 1.669-1.285 2.303-2.612 3.617l-.844-1.115-1.775-.074-2.235 1.723.37.861 1.865.285 1.868-1.152c.905 1.044 2.787.868 2.552 1.772-.291 1.12-1.2 1.753-2.171 2.556 0 2.736-.002 3.166 2.235 5.467l1.736-.384.321-.689c.547-1.115 1.5-2.02 2.426-2.96 1.793 0 1.971-.301 3.363-.576 1.201-.237 2.885.206 4.11 0 1.521-.256 3.789-2.553 5.048-1.582l.557.43c1.632-.312 1.57-.371 2.561-1.435l.055-1.677 1.495-.334c-.329 1.131-.498 2.249-1.488 3.163l.619.775 1.117.158.446.575c1.959 1.934 3.741 3.929 6.382 5.344 2.977-2.697 5.776-4.607 10.243-5.667 7.302-1.733 14.277-.646 20.805 2.055l.766.381c1.948.982 3.646 2.045 5.198 3.388.963.834 7.682 7.91 8.382 8.078 1.472.352 7.121-.432 9.182-.286 5.073.358 7.751.988 11.359 3.838 5.94.978 9.425 1.831 14.023 4.946 3.357 2.274 10.017 1.682 11.609 4.959-3.103 1.328-5.498 1.633-8.967 1.899l-.451-.77c2.026-.387 4.767-.554 6.048-1.825-4.912-.374-8.895 2.422-13.562 3.449-2.423.532-4.569-.212-6.948-.048-1.939.134-4.494 1.354-6.557 1.756-5.158 1.005-10.301 1.586-15.536 2.271-5.881.519-9.695.767-15.22-1.09l-.085-.964c1.663.253 2.221.572 3.729-.092-2.728-1.111-2.8-.017-5.597-.203-3.044 1.124-5.235 1.83-8.646 1.625-9.488-.568-18.892-.095-28.424-.944-3.36-.299-7.143-.441-10.235-1.567-1.972-.718-3.86-1.165-5.95-1.622a10.124 10.124 0 012.064-2.334l1.774.311c-.736.677-.957.967-1.034 1.853 1.962.138 2.986.418 4.709 1.194.922.415 2.083.192 3.145.155-.983-.477-.526-.326-1.724-.59l-.884-.182c1.632-.964 3.236-.559 5.224-.463l.825-.978c-1.154-.492-1.505-.581-2.165-1.441l2.485-.775c.675-2.007-.509-1.711-.555-3.257-.004-.123.406-1.616.389-1.683-.09-.348-1.02-.832-1.2-1.774-2.005-1.523-4.402-2.602-6.505-4.027-3.15-2.136-5.696-4.49-9.2-6.345-7.495-3.968-15.618-2.757-24.123-1.58-2.72-2.358-5.392-4.594-7.382-7.368 1.224-.133 1.231-.137 2.083-.83l-.186-.945 1.068-1.077c.96-.106.565-.126 1.544.033l.699.126 1.861-1.035 1.754.339.403-1.301z" fill="#656565"/><path d="M500.17 173.953l-.021-.133-1.825-.86c.123-.288.112-.633.369-.862.487-.431 3.994-.692 4.854-.861 2.88-.566 10.102-2.581 11.964-4.327-3.105.075-6.675.022-9.348 1.42-1.337.699-2.155 1.118-3.741 1.412-1.123.209-1.63.351-2.518.925-1.811 1.171-3.975.057-6.072 1.135a33.581 33.581 0 01-4.853-.862c-.163-.863-.425-1.285-1.141-1.941l-.724-.649c.927-2.159 4.631-3.059 7.092-4.027.317-.484 1.965-2.16 2.616-2.304.176-.04 2.11.039 2.241 0 .697-.214 2.735-2.108 3.367-2.597 1.48-.219 2.389-.775 3.737-1.127l1.49-.31c1.184-.468 1.486-.837 1.876-1.735-1.913-.002-3.606.257-5.23-.575 1.308-.617 2.482-1.291 4.1-1.019l.745.161 1.498.287c1.433.539 1.807.675 3.494.764l.617.029.74.93 5.014.489c5.94.978 9.425 1.831 14.023 4.946 3.357 2.274 10.017 1.682 11.609 4.959-3.103 1.329-5.498 1.634-8.967 1.899l-.451-.77c2.026-.386 4.768-.554 6.048-1.824-4.912-.375-8.895 2.421-13.562 3.448-2.423.532-4.569-.212-6.948-.048-1.939.134-4.493 1.355-6.556 1.757-5.159 1.005-10.302 1.586-15.537 2.27z" fill="#787878"/><path d="M458.55 146.636c.799-1.127 1.528-1.668 2.775-2.479l1.128.283-.747-.865.74-.57c1.56.047 2.315.086 3.736-.507l-.74-.94.74-.792c.768.597 1.177.879 2.242 1.089l1.125-1.3c1.832-.206 3.043-.204 4.846.139l-1.487 1.147c1.449-.124 1.716-.224 2.981.294l-.74.858c1.528.015 1.234.098 2.235.87l-1.117 1.15c-2.206.302-3.539 2.705-5.744 3.438-.835.277-1.37.474-2.099.88 1.388.014 1.191-.024 2.242-.565 1.536.057 2.509.012 3.949-.413l.534-.163 4.114-1.443c1.992-.593 2.915-1.293 4.265-2.538l1.832.715c-.585 1.217-.686 2.019-2.363 2.633-1.926.704-3.789.66-5.255 2.135l-.393.509c1.291.434 2.049.397 3.409.064l1.284-.408c1.439-.457 2.445-.363 3.94-.149v.49l-2.238.862-.064.851c2.432-.222 4.592-.532 6.911-1.144l1.909.345-.414 1.507-.539.581c-1.634 1.839.049 4.309-2.198 4.687l-1.387.017c-3.155.024-5.295 1.113-7.581 2.68l-.772-.007c-1.178.055-1.66.352-2.591.854l-4.546.201-.729-.797c1.265-1.385 3.035-2.332 4.773-3.338l.666-.382-.538-.384a22.93 22.93 0 00-2.337 1.012l-4.015 1.922c-1.583.819-3.36 1.829-5.252 2.169-1.582.285-2.864.328-4.343.941-.939.389-.669.373-1.616.536l-2.988.424-1.048-.57c.642-.473 1.006-.763 1.361-1.403.303-.548.555-.915.983-1.404l.573-.644-.695-.871.695-.858 2.615.067c2.918-1.986 7.697-4.21 11.141-5.758l.82-.361-.378-.298-4.114 1.444c-2.02.498-3.151 1.017-4.806 2.075l-.794.515c-1.138-.024-1.939-.054-2.997.294l-.254.353c-1.271 1.406-4.759 2.278-6.838 2.669l-1.113-.717c.935-1.086 2.813-.986 4.476-2.011-2.987-.198-4.944 1.597-7.699 2.059-1.513.254-1.524.295-2.756-.337l.37-.861 3.127-.753.606-.108-.367-.582c-2.316-.05-4.467.257-6.733.57l-.74-1.147-1.871-.375c-.177-.612-.306-1.031-.767-1.564l-.351-.366.748-1.439-.748-.865c1.453-.969 1.732-1.453 2.242-2.881-1.642.39-2.998.941-4.491 1.591-.272-.249-1.623-1.663-1.868-1.718-2.153-.485-1.8.346-3.944-1.025l1.328-1.137 2.616.2c.945-.325 1.379-.638 1.983-1.266l.633-.673c1.998.536 4.473.125 6.339-.595.996-.385 1.968-.66 3.017-.945l2.294 1.535-.815.896c-2.917-.31-1.66-1.531-4.572-.091l-.577.972c2.152.309 4.085.367 6.27.302l3.363 1.378c.108 1.269-.149 1.325-1.121 2.381 1.302-.018 2.151-.157 3.362-.524l1.115.447c-1.572 1.055-3.106 1.997-4.851 2.876-.003.865.139 1.475.382 2.31 1.039-.479 1.767-1.049 2.608-1.716 1.788-.326 3.406-.654 5.227-.298v.571l-1.491.861v.588c2.756-.398 4.456-2.048 6.919-2.961l2.423-1.084c-1.422.164-2.311.435-3.555.933l-2.424.796-1.118-.285v-.571c2.038-1.314 3.503-2.16 5.979-2.862 1.185-.336 1.908-1.298 2.612-2.044-1.679.188-1.992.496-3.363 1.109l-3.736 1.094c-.799-.506-1.27-.875-1.766-1.575l-1.009-.442z" fill="#8C8C8C"/><path d="M490.591 150.767l1.909.345-.414 1.507-3.712.778c-2.519.465-3.01.834-5.46-.035l.766-1.451c2.432-.222 4.592-.533 6.911-1.144z" fill="#C8C8C8"/><path d="M59.438 156.288c.84.754 1.197 1.62 1.647 2.534l.806.104.045-.589c.18-1.528 1.81-3.334 2.735-4.674 4.44-6.418 8.95-9.135 16.242-13.538 4.112-2.484 10.436-4.554 15.738-3.996 1.8.191 2.699.147 3.858 1.293l3.728.012 1.588.455c.958 1.825 3.518 1.525 2.896 3.193-2.518 1.48-3.108-.216-4.513 2.732-1.002 2.107-2.931 4.683-4.79 6.386l.066.986-1.723 1.408 1.093.99 3.863.561-.355 2.093 1.722-.232 2.003-.612.958 1.748c1.009.04 2.901-.09 3.794.15.221.059.977.675 1.12.682 1.094.045.636-.81 2.136-.333.972.309 1.601.264 2.622.211.068.647-.018.854.474 1.403 1.256.023 2.156.09 3.363-.241l1.121 1.264 3.362-.663.761.956-.47.865c-2.495-1.116-4.163-.01-6.924-.576-.963-.197-1.542-.127-2.501 0 .283 1.279-.526 2.147-.107 3.066.532 1.161.456 2.438.481 3.654 1.327.139 2.181-.303 3.326-.75.889-.346 1.498-.039 2.445.126 1.422-.657 1.445-.553 1.861-1.775l.755-.293.008 1.158 1.86 1.146c.651-.526 1.014-.82 1.868-1.152l1.712.537c.211.656.209.992.08 1.686l-.145.663 1.717.571 1.494-.643c1.46.682 2.487.593 4.111.475l1.001-.078c-.218 1.412.151 1.438 1.24 2.521 2.286-1.957-.075-2.828 1.495-4.833l2.242.253c1.583-1.387 1.289-1.484 1.172-3.245l.581-.098c.559.419.959.752 1.354 1.281l.296.43 1.278-.514c-.309-1.02-.003-1.088.55-1.999l1.668.027-.914 1.243.454.576c1.504-.489 1.913-1.288 2.838-2.29.41 1.849.48 2.678-1.007 4.301l-1.167 1.161c0 .86.361.848 1.117 1.432 1.139-1.105 1.645-1.878 3.362-2.413 2.08 1.174 2.578 2.447 4.484 3.565l1.114-.858c-.286-1.279-.905-2.189.007-3.324.939.261 1.497.514 2.25 1.019-.56 1.079-.844 1.217-.377 2.302 1.509 0 2.134-.868 4.114-.862l.37.862c.841.021 1.447.047 2.269-.118.7.72 1.254 1.39 2.21 1.92l.813-.008c1.362.074 1.919.454 3.006 1.03-1.477 1.636-2.393 1.836-4.698 2.652l.506.923 4.483-1.322c.937.311 1.832.82 2.83.624 1.798-.353 2.488-.435 4.273.06l1.41.339 1.595-.851 3.98 1.411c3.61-.23 7.527.181 10.542-1.607l.462-.297 1.438.29c2.264-.519 4.03-.996 5.911-2.126.331-.198 2.783.487 3.804.526 1.631-.855 1.951-1.712 2.84-3.05l.531.183-.165.542c-.215.753-.165.447-.165 1.183.708.445 1.191.781 2.068 1.003.814.207 1.076.509 1.616 1v.598l-1.113.571c2.302 1.565 4.323 3.09 7.279 3.875 1.564.417 2.606.891 3.83 1.743 1.295.902 2.425.908 4.072 1.146 1.214.177 1.788.479 2.748 1.044 1.305-1.278-.317-1.373 1.867-2.261l1.431.791-1.045 1.44c1.365.939 2.985 1.034 4.845.738.533-.084.724-.226 1.121-.444l1.121 1.405 2.616.312.739-.858-1.386-1.153.647-.858 3.389.693c1.381.277 2.46.329 3.785.748 1.824.574 4.323.32 6.278.288l-.74.57 1.113.544c1.328-.513 2.535-1.017 3.736-1.702 1.098.21 1.479.503 2.242 1.132l4.611-2.082c1.722-.322 3.324-1.366 5.207-1.741.815-.605 1.554-1.184 2.538-1.624 2.116-.945 3.463-1.947 5.16-3.293.787.992 1.541 1.567 1.541 2.758l3.736 1.019c1.915-1.356-.097-1.331 3.364-1.968l1.12.704-3.36 1.37-.204.849 4.312.7.661-.7-.756-.864 1.283-1.085 1.572.529-.519.578.008.842 2.234 1.307c1.347-.149 2.145-.482 3.306-1.018-.83-.613-1.129-.645-2.206-.864l.085-.728 4.13.249c2.635.062 7.178.658 9.329-.385-.591-.822-.265-.502-1.216-1.212l-.716-.517.74-.859c1.982.21 5.172.527 6.936-.182 1.55-.622 3.022.031 4.647-.212 1.05-.157 2.47-1.061 3.58-1.376l1.058-.289c1.564-.485 3.667-1.324 4.33-2.567l-6.731 1.515c-1.416.246-1.437.233-2.603-.351l1.171-.77c2.141-.279 4.503-.595 6.478-1.3 1.633-.584 2.974-.92 3.645-2.252l-1.092-.627.172-.813c.861.129 1.404.297 2.21.606l.86.344 1.454-.374-.347-.864.786-1.15h.638l.287 1.475c3.034 2.5 8.869 4.641 13.252 5.058 1.281.121 1.85.408 2.944.861 1.887.783 3.923 1.23 5.795 2.058 1.123.497 1.985.612 3.214.777l3.967.614c1.228.21.526.114 1.711.177 1.108.059 1.867.373 2.916.587l1.672.202.384-.367c.638-.528 1.116-.603 1.986-.785l-.678-.643c-4.233.302-6.568-1.413-9.935-3.302-1.978-1.254-5.859-.958-8.375-2.388 1.386-.03 2.697-.079 4.066.133 1.224.191.352.147 1.536.147l.37-.861c1.675-.005 2.323-.16 3.744.57 1.842 0 2.927.223 4.484-.576.862.127 1.711.238 2.547.452.927.236 2.223-.14 3.172-.324l.632-.128c1.974 1.014 3.632.138 5.605 1.152l.747-.858c1.561.643 3.05.452 4.729.711l.876.153 1.495.288c1.165.444-.268.166 1.121.576 1.629.481 5.573.608 7.252.256 2.062-.273 3.388-.376 5.366.237l.46.153 3.363-1.219c1.318 1.828 4.181.352 6.725 1.298l1.257-1.013-2.117-1.64c1.17-.264.781-.297 1.833-.146 2.015.288 3.969-1.643 5.753-2.223 1.141-.37 2.518-.512 3.737-.672l1.146.936-.789 1.637-1.852-1.728c-1.129.704-1.678 1.03-2.241 2.057-.783 1.427-3.101 2.454-4.672 3.35-5.524 3.154-10.136 5.043-16.611 6.902-9.458 2.712-20.645 3.353-30.6 2.007-3.276-.442-12.283-3.74-15.016-3.137-.569.125-2.23 1.451-2.748 1.784-2.27 1.454-4.378 2.682-6.953 3.799-2.913 1.264-6.016 2.667-9.408 2.925-1.033.078-1.728.284-2.706.535-13.007 3.344-28.515 1.545-41.159-1.936-3.889-1.071-7.506-3.124-11.621-3.398-3.75-.019-7.408 2.403-11.072 3.152-3 .614-6.262.031-9.22.591-11.978 2.27-29.934-.373-40.033-5.745-1.447-.769-6.007-4.773-7.24-5.023-.299-.062-9.23 3.261-10.727 3.615-5.878 1.388-11.655 1.624-17.76 1.21-6.38-.431-11.919-1.162-17.852-3.122-2.704-.892-6.663-3.211-9.456-3.509-5.833-.621-13.245 3.996-19.073 4.536-6.819.632-13.404 1.297-20.227.48-5.627-.674-10.894-1.813-15.339-4.65-2.091-.43-2.541-.738-4.586-.067-2.007 1.813-5.969 2.362-8.827 3.088-7.304 1.853-13.724.848-21.004-.328-5.596-.904-15.89-6.377-18.887-10.045l1.386-2.378c1.31-.468 2.246-.753 3.084-1.696l.562-.665c.404-.005.817.006 1.211-.079 1.058-.229 1.654-1.011 2.25-1.652l-.755-.421c-1.021.348-1.377.534-2.074 1.249l-.542.607c-.489-.699-.947-1.27-1.085-2.072l-.036-.454c-1.648-.609-2.688-.81-4.522-.832l-.537-.002.95-.82.774.177c2.68.556 4.297.261 6.648-.851l.587-.289z" fill="#656565"/><path d="M100.255 173.751c-2.795-.414-5.541.425-7.875 1.682l-1.718-.704-.736.288c-1.853.719-3.265 1.242-5.334 1.4l.172-.768c2.887-1.279 6.143-.6 8.268-2.114l-2.058-.864.64-.504c.75-.637.968-1.006 1.285-1.804l2.742-1.437-.122-.785-1.308-.367 1.682-.908 1.495.589 2.241-1.073c1.414.422 2.009.861 3.036 1.68l-.42.604c-.458.973.122 1.461.83 2.22.528.568 1.124.861 1.892 1.209l-.126 1.723c-2.091-.43-2.541-.738-4.586-.067z" fill="#8C8C8C"/><path d="M107.045 157.142c1.009.04 2.901-.089 3.794.15.221.06.977.676 1.12.682 1.094.046.636-.81 2.136-.333.972.309 1.601.265 2.622.211.068.647-.018.855.474 1.403 1.256.023 2.156.09 3.363-.241l1.121 1.264 3.362-.663.761.957-.47.864c-2.495-1.116-4.163-.009-6.924-.576-.963-.197-1.542-.127-2.501 0 .283 1.28-.526 2.147-.107 3.066.532 1.162.456 2.438.481 3.654l-1.697.504c-.938-.453-1.678-.702-2.754-.865l-1.069-.154c-.371-.94-.205-.984.114-1.883l-1.901-1.435-1.09 1.435.564 1.152-.823.984c-2.08.226-1.927.268-3.609-.696l1.943-.576c-.654-.849-.78-.678-.537-1.729l2.432-.9c1.082-.517 1.067-.532 1.444-1.494l-1.526.873c-1.892.146-2.331-.041-4.028-.597l-.226-.942 1.818-.358-.746-1.767 2.459-1.99z" fill="#ADADAD"/><path d="M367.692 172.473c-1.978-1.254-5.859-.959-8.375-2.388 1.386-.031 2.697-.08 4.066.133 1.224.19.352.146 1.536.146l.37-.861c1.675-.004 2.323-.16 3.744.57 1.842 0 2.927.223 4.484-.576.862.127 1.711.239 2.547.452.927.236 2.223-.14 3.172-.324l.632-.128c1.974 1.015 3.632.138 5.605 1.152l.747-.858c1.561.643 3.05.452 4.729.711l.876.153 1.495.288c1.165.444-.268.166 1.121.576 1.629.482 5.572.608 7.252.256l4.034.609.544.864-.621 1.209c-2.727.398-2.471-.964-5.223.232 1.503.727 2.217.898 3.99.973.632.479 1.246 1.015 1.981 1.402-1.109.732-2.374.971-3.737 1.304l-1.294-.222 2.042-1.315-.772-.047c-2.366-.169-3.636-.356-5.393-1.612l3.167-.483c-2.824-1.299-5.313-.119-8.213-.785-1.011-.233-1.178-1.116-2.445-1.061-2.607.112-4.774-.28-7.269-.758l-.592.586c1.564.947 4.133 1.48 6.11 1.356.449-.028.761-.114 1.207-.206l.892.397c1.565.664 3.357.822 5.095 1.046l-.008 1.17-1.868.808-.747-.367.568-.642c-2.179-.244-2.371.171-4.131 1.102l3.563 1.969c-4.699.397-9.326-.003-13.976-.583l.15-.651 2.242-.842.887.31c1.598.519 3.39.424 5.092.424l.547-.681c-1.794-.86-3.74-.78-5.785-.864l-.637-1.195-.646-.037c-4.423-.322-8.527-1.737-12.755-2.712z" fill="#D6D6D6"/><path d="M304.848 179.395c2.635.063 7.178.658 9.329-.385-.591-.822-.265-.501-1.216-1.212l-.716-.517.74-.859c1.982.21 5.172.527 6.936-.181 1.55-.622 3.022.03 4.647-.213 1.05-.156 2.47-1.061 3.58-1.376l1.058-.288c1.564-.485 3.667-1.324 4.33-2.567l-6.731 1.515c-1.416.245-1.437.232-2.603-.352l1.171-.77c2.141-.279 4.503-.595 6.477-1.3 1.634-.583 2.975-.919 3.646-2.251l-1.092-.628.172-.813c.861.129 1.404.297 2.21.607l.86.344 1.454-.375-.347-.864.786-1.149h.638l.287 1.474-.616.251c-.47.69-1.012 1.394-.707 2.209l.365.672-2.724.865 1.238.889 2.119-.411.656.801-1.904 1.601.623.309c2.202-1.122 2.236-1.143 4.849-.885l-.948 1.44.583.49 2.616-1.086 1.15.309c-1.517 1.507-2.938 2.835-4.891 4.03l-.246.799c2.33-1.015 4.314-2.938 6.976-3.096-.241 1.371-.148 1.366-1.495 2.26l-1.502.039-.045.511c-.179 1.684-.424 2.388-1.82 3.688-2.454-.022-3.017-1.011-5.764-.742l-1.331 1.183 1.678 1.122-.558.431-2.745-.431c-.106-.976-.289-.577.348-1.242l-1.339-.557c-1.344.448-2.678.962-4.11 1.218l-.278-.752 1.026-1.052c-1.58.452-3.141.939-4.786 1.233l-.438-.576.365-.667c-3.129.427-6.522.179-9.714-.15l-.698.003c-.006.664.2.931.557 1.521-1.414-.045-2.043-.145-3.223-.756-1.354-.022-1.954.118-3.135.625l-1.652-1.106-.74.328c-1.089.419-1.682.393-2.856.343l-1.323-1.293.823-2.208zm-200.611-41.961l1.588.455c.958 1.825 3.518 1.526 2.896 3.194-2.518 1.479-3.108-.217-4.513 2.731-1.002 2.107-2.931 4.683-4.79 6.386l.066.986-1.723 1.408 1.093.99 3.863.561-.355 2.093 1.722-.231.62 1.384c-1.497.975-2.646 1.499-4.547 1.907-.816.175-.881.473-1.376.986 1.095.094 1.465.115 2.427.576-2.294 2.182-3.58.855-6.109 2.593 1.434.902 1.803-.061 3.52.576l-1.425 1.44c-.949.149-1.377.296-2.202.734-1.17.623-2.18.484-3.583.547 1.15-.359 1.942-.97 2.883-1.58l-.04-.885-3.59.209c-2.597 1.413-4.904 2.133-7.77 3.06-1.409.455-2.477.717-4 .852-.02-1.397 1.024-2.377 1.955-3.513 1.144-.404 1.863-.633 2.745-1.355l.53-.489c2.632.23 4.37.229 6.846-.559l3.056-.996-1.495-.537c-.791.473-1.197.684-2.213.829-1.108.158-1.223-.165-2.083-.638.775-1.027 1.058-.897 2.428-1.321l1.71.646 1.014-.766c.898-.108 1.65-.199 2.479-.507l3.384-1.221c-1.017-.193-2.013-.33-2.934-.728l-.42-.213-2.393 1.721c-1.269.226-2.063.352-3.344.088-1.347-.276-1.559-.085-2.858.216l-1.495-.999c-1.641 1.388-2.161 1.271-4.484 1.609l.336 1.187-1.768 1.729-1.931-.176c-2.049.679-2.402.89-3.736 2.266-.785-.305-1.51-.585-2.356-.778l-.58-.119-.781-1.193c.389-1.354.654-1.352 2.082-2.234l-.032-.773c-.028-2.047.763-3.163 2.594-4.613.587-.465.133-1.46.605-2.344 1.144-2.146 3.567-3.399 3.596-5.864l-.01-.882c1.013-.143 4.259-.221 4.97-.537 1.94-.863 1.44-1.631 4.111-2.165l1.12.968 1.495-.537-.125-.964c1.26-.751 3.218-1.918 4.818-2.03 3.51-.249 5.696-1.603 8.509-3.18z" fill="#ADADAD"/><path d="M238.294 144.492c.844-.792 1.607-1.564 2.254-2.463 1.255-1.742 2.356-3.189 4.432-4.432 6.488-3.883 18.1-5.84 26.108-4.927l.814.099c1.901-4.336 4.592-8.028 6.877-12.173l.458-.775c5.776-7.488 20.713-13.656 31.448-15.426 12.628-2.081 24.771 1.05 35.286 6.376 5.955 3.619 12.723 8.625 15.591 14.171 1.02 1.97 2.046 9.11 3.772 9.99l.646-.424c1.454-.88 10.684-2.077 12.498-1.769 5.753.975 10.27 4.578 15.557 6.095.796.228 1.035.479 1.55.978 1.99 2.774 4.662 5.01 7.382 7.368 8.505-1.176 16.628-2.388 24.123 1.58 3.504 1.855 6.05 4.209 9.2 6.345 2.103 1.425 4.5 2.504 6.505 4.027.179.942 1.11 1.426 1.2 1.774.017.067-.393 1.56-.389 1.683.046 1.546 1.23 1.25.555 3.257l-2.485.775c.66.86 1.011.949 2.165 1.441l-.825.978c-1.988-.096-3.592-.501-5.224.463l.884.182c1.198.264.741.113 1.724.59-1.062.037-2.223.26-3.145-.155-1.723-.775-2.747-1.056-4.709-1.194.077-.886.298-1.176 1.034-1.853l-1.774-.311a10.124 10.124 0 00-2.064 2.334l-1.315.027.789-1.637-1.146-.936c-1.219.16-2.596.302-3.737.672-1.784.58-3.738 2.511-5.753 2.223-1.052-.151-.663-.118-1.833.146l2.117 1.64-1.257 1.013c-2.544-.946-5.407.53-6.726-1.298l-3.362 1.219-.46-.153c-1.978-.613-3.304-.51-5.366-.237-1.68.352-5.623.225-7.252-.256-1.389-.411.044-.132-1.121-.576l-1.495-.288-.876-.153c-1.679-.26-3.168-.069-4.729-.712l-.747.859c-1.973-1.014-3.631-.138-5.605-1.152l-.632.128c-.949.184-2.245.56-3.172.324-.837-.214-1.685-.325-2.548-.452-1.556.799-2.641.576-4.483.576-1.421-.73-2.069-.575-3.744-.57l-.37.861c-1.184 0-.312.044-1.536-.147-1.369-.212-2.68-.163-4.066-.133 2.516 1.43 6.397 1.134 8.375 2.388 3.367 1.889 5.702 3.604 9.935 3.302l.678.643c-.87.182-1.349.257-1.987.785l-.383.367-1.672-.202c-1.049-.214-1.808-.529-2.916-.587-1.185-.063-.483.033-1.711-.177l-3.967-.614c-1.229-.165-2.091-.28-3.215-.777-1.871-.828-3.907-1.275-5.794-2.058-1.094-.454-1.663-.74-2.944-.861-4.383-.417-10.218-2.558-13.252-5.058l-.287-1.475h-.638l-.786 1.15.347.864-1.454.374-.86-.344c-.806-.309-1.349-.478-2.21-.606l-.173.813 1.093.627c-.671 1.332-2.012 1.668-3.646 2.252-1.974.705-4.336 1.021-6.477 1.3l-1.172.77c1.166.584 1.188.597 2.604.351l6.731-1.515c-.663 1.243-2.766 2.082-4.331 2.567l-1.057.289c-1.11.315-2.531 1.219-3.58 1.376-1.625.243-3.097-.41-4.648.212-1.763.709-4.953.392-6.935.182l-.74.859.716.517c.951.71.625.39 1.215 1.212-2.15 1.043-6.693.447-9.328.385l-4.13-.249-.085.728c1.076.219 1.376.251 2.206.864-1.161.536-1.959.869-3.306 1.018l-2.234-1.307-.008-.842.519-.578-1.572-.529-1.283 1.085.756.864-.662.7-4.311-.7.204-.849 3.359-1.37-1.12-.704c-3.46.637-1.448.612-3.363 1.967l-3.736-1.018c0-1.191-.754-1.766-1.541-2.758-1.697 1.346-3.044 2.348-5.16 3.293-.984.44-1.723 1.019-2.538 1.624-1.883.375-3.485 1.419-5.207 1.741l-4.611 2.082c-.763-.629-1.144-.922-2.242-1.132-1.201.685-2.409 1.189-3.736 1.702l-1.113-.544.74-.571c-1.955.033-4.454.287-6.278-.287-1.325-.419-2.404-.471-3.785-.748l-3.389-.693-.647.858 1.386 1.153-.739.858-2.616-.312-1.121-1.405c-.397.218-.589.36-1.121.444-1.86.296-3.48.201-4.845-.738l1.045-1.44-1.431-.791c-2.184.888-.563.983-1.868 2.261-.959-.565-1.533-.867-2.747-1.044-1.647-.238-2.777-.244-4.072-1.146-1.224-.852-2.266-1.326-3.83-1.743-2.956-.785-4.977-2.31-7.279-3.875l1.113-.571v-.599c-.54-.49-.803-.792-1.617-.999-.876-.222-1.36-.558-2.067-1.003 0-.736-.051-.43.165-1.183l.165-.542-.531-.183c-.889 1.338-1.21 2.195-2.84 3.05-1.021-.039-3.473-.724-3.804-.526-1.882 1.13-3.648 1.607-5.911 2.126l-1.438-.29-.462.297c-3.015 1.787-6.932 1.377-10.543 1.607l-3.979-1.411-1.595.851-1.41-.339c-1.785-.495-2.475-.413-4.273-.06-.998.196-1.894-.313-2.83-.624l-4.484 1.322-.505-.923c2.305-.816 3.221-1.016 4.698-2.652-1.087-.576-1.644-.956-3.006-1.03l-.813.008c-.957-.53-1.51-1.2-2.21-1.92.839-.114 1.202-.164 2.019.098 1.173.376 2.905-.168 4.176-.375l-8.721-2.772-.868-2.23-2.616.084-1.151-1.022c.833-1.411.942-1.382 2.75-2.098l1.795-1.026c3.095-1.72 4.711-2.47 8.563-1.996 2.564-1.041 4.714-1.786 7.677-1.572 1.246.091 1.357-.617 2.412-.869 1.082-.258 2.95.274 4.11.095.685-.105 1.952-.845 2.615-1.133 3.337 1.177 6.729 1.341 10.307.815l4.345-.643c3.016-.001 10.037.026 12.334-1.249l.665-.401 2.429.362 1.724-.033 1.825.003c1.252-.158 1.923-.525 3.229-.308l.881.161 2.563-1.343 1.548.834 1.149-.259c.511-2.808 1.267-5.01 2.898-7.566l.476-.735z" fill="#C8C8C8"/><path d="M315.833 162.589c.771.065 2.109 1.921 3.473 2.495l.412 1.538-1.956-.08c-1.968-1.394-1.642-1.961-1.929-3.953zm-31.292 13.128l1.541-2.752 1.871-.29.423-.617c.727-1.009 1.849-1.744 2.936-2.516 1.888.424 3.02 1.82 4.854 2.556l3.359 2.014.008 1.158 1.117.285.37.862c-1.719.737-3.703.574-5.617.594l.835 1.489-1.283 1.085.756.864-.661.7-4.312-.7.204-.849 3.36-1.37-1.12-.704c-3.461.637-1.449.612-3.364 1.968l-3.736-1.019c0-1.191-.754-1.766-1.541-2.758zm-119.792-14.362a23.79 23.79 0 004.376 1.524c1.802.456 3.082 1.264 5.069 1.568 1.274.194 1.377.605 2.407 1.033l1.487.311 2.172.887c1.552.227 3.043.447 4.539.842.845.223 1.425.276 2.312.29 1.457.024.661-.091 1.756.289 2.032.707 6.068.254 8.284.148-.671-.992-2.512-1.567-3.728-2.201l1.114-.571.607.125 5.368 1.068-.228-.622-.587-2.305 1.191-.902c1.152 1.007 1.665 2.38 1.465 3.778l-.276.748 1.427.527.703-.202c.97-.261.57-.201 1.535-.201.693.713.991 1.346 2.246 1.443 1.848.144 4.825.065 6.444-.643l.133 1.895c-.889 1.338-1.21 2.195-2.84 3.05-1.021-.039-3.473-.724-3.804-.526-1.882 1.13-3.648 1.607-5.911 2.126l-1.438-.29-.462.297c-3.015 1.788-6.932 1.377-10.543 1.607l-3.979-1.41-1.595.85-1.41-.339c-1.785-.495-2.475-.413-4.273-.06-.998.196-1.894-.313-2.83-.624l-4.484 1.322-.505-.923c2.305-.816 3.221-1.016 4.698-2.652-1.087-.576-1.644-.956-3.006-1.03l-.813.008c-.957-.53-1.51-1.2-2.21-1.919.839-.115 1.202-.165 2.019.097 1.173.376 2.905-.168 4.176-.375l-8.721-2.772-.868-2.23-2.616.084-1.151-1.022c.833-1.411.942-1.382 2.75-2.098z" fill="#BCBCBC"/><path d="M175.189 172.613l.246-.871-1.676-.81.6-.653.888.221c3.891.958 8.32 2.234 12.407 1.955l-.59-.772-2.886-.452.024-.675c2.44.047 4.607.169 6.972.651 1.471-.751 2.866-1.447 4.484-1.997l2.616 1.562c-2.249 1.277-5.194.407-7.848 1.618v.663c2.926.251 5.077-.144 7.848-.739l.373.81c-1.632.654-3.796 1.924-5.534 1.558-2.432-.513-5.091-.361-7.6-.525l.075.881-1.595.85-1.41-.339c-1.785-.495-2.475-.413-4.273-.06-.998.196-1.894-.313-2.83-.624l-4.483 1.322-.506-.923c2.305-.816 3.221-1.015 4.698-2.651z" fill="#8C8C8C"/><path d="M221.071 168.105c.787-.858 1.962-1.94 3.306-2.279.918-.232 1.285-.81 1.92-1.387l1.121.745c.758-.536 1.145-.846 2.177-1.019 1.154-.194.506.013 1.59-.418.673-.268 1.105-.401 1.838-.519l.566 1.375 1.302.334 6.333-3.464 1.374 1.444 1.097.572c-1.805 1.528-3.674 3.038-5.819 4.285l-.369.766c-2.992-.492-3.757-.31-6.719.387 1.39.715 2.424 1.22 4.103 1.481l3.364-.659.26.406-2.826 1.076.323 1.146 1.117-.285-.369.298v.627l2.989.229c1.12-1.046.044-.889.503-1.524.154-.213 5.639-2.279 6.442-2.64 2.006-.901 3.672-2.139 5.385-3.333l.781.585c-.888 1.671-2.666 3.223-4.891 4.027-.769.278-1.455.298-2.267.409-1.355.184-2.562.864-3.711 1.423v.874c2.316.229 3.758-.004 5.978-.516l.653-.146c4.402-1.045 8.995-3.809 11.561-6.711l1.611-1.236 1.442.193 1.079 1.971c-1.19 1.49-2.234 2.793-3.913 3.985l-.29.027c-.865 1.27-2.131 2.412-1.681 3.831 3.759-1.107 5.773-4.24 8.591-6.511l.763.396.839-.113 1.428.113-1.031 1.729 2.115.285c1.75-1.246 2.772-2.368 4.013-3.926.592-.741.325-.479 1.402-.969-1.484 2.967-5.358 4.967-6.536 7.716l-1.404-.026-.839-.769c-1.316.834-2.29 1.848-3.338 2.874l2.218.571.386-.321c1.202-.774 3.033-.701 4.477-1.174 1.816-.594 3.496-2.138 4.851-3.222l.921.113c-.978 2.016-4.262 3.93-6.225 5.476l.821.557 3.913-.356-.699.661c-.644.624-.921 1.011-1.044 1.823l1.007.556-3.551.562.093-.636-.233-1.231c-2.249.109-2.559.666-4.188 1.807l.218.698.519.084c1.458.247 2.453.487 3.718 1.143l-4.611 2.082c-.763-.629-1.144-.922-2.242-1.132-1.201.685-2.408 1.189-3.736 1.703l-1.113-.545.74-.57c-1.955.033-4.454.287-6.278-.288-1.325-.418-2.404-.471-3.785-.748l-3.389-.693-.647.858 1.386 1.153-.739.859-2.616-.312-1.121-1.406c-.397.218-.588.36-1.121.445-1.86.295-3.48.2-4.845-.739l1.045-1.439-1.431-.792c-2.184.888-.562.983-1.868 2.262-.959-.566-1.533-.868-2.747-1.044-1.647-.239-2.777-.245-4.072-1.146-1.224-.852-2.266-1.327-3.83-1.744-2.956-.784-4.977-2.31-7.279-3.875l1.113-.57v-.599c-.54-.49-.802-.793-1.616-.999-.877-.222-1.361-.559-2.068-1.004 0-.736-.051-.43.165-1.183l.165-.542-.531-.183-.133-1.894.005-.27c.93-1.118 2.05-1.441 3.548-1.974l.839.57-.598 1.158 2.845.331z" fill="#787878"/><path d="M260.183 165.694l1.611-1.236 1.442.193 1.079 1.97c-1.19 1.491-2.234 2.793-3.913 3.985l-.29.028c-2.408 1.175-4.339 2.337-6.319 3.916l-.592.476c-2.116.163-2.964.419-4.89-.338 1.149-.754 2.38-.744 3.82-.875l.695-.06c.02-1.353 6.067-5.538 7.553-6.788l-.196-1.271zm-39.112 2.411c.787-.858 1.962-1.94 3.306-2.279.919-.232 1.285-.81 1.92-1.387l1.121.745c.758-.536 1.145-.846 2.177-1.019 1.154-.194.506.013 1.59-.418.673-.268 1.105-.401 1.838-.519l.566 1.375 1.302.334 6.333-3.464 1.374 1.444c-1.694 2.669-3.906 3.115-6.959 4.623-1.434-.346-1.606-.506-2.616-1.38l-.752.468c-1.208.711-2.566.788-4.026.926.459.663.685.908 1.349 1.409l-2.222.54c1.841.844 3.552.977 5.651 1.194l1.134 1.11-.386 1.226c-2.912-.681-5.092-1.662-8.221-1.432l-1.416-1.234 1.416-1.01c-1.528-.308-3.201-.503-4.479-1.252z" fill="#BCBCBC"/><path d="M225.692 25.79c1.18-2.866 6.051-6.714 8.812-8.787C251.228 4.443 268.064-.252 291.196.01c1.917.014 4.05-.103 5.902.304 3.746.823 7.884 1.11 11.792 2.032 17.923 4.231 29.396 12.222 38.475 24.715l5.103 7.197c5.275-.688 10.286-1.376 15.661-.895l4.103.676c18 2.568 31.784 8.199 42.428 20.06 1.387 1.545 2.746 3.128 3.764 4.84 1.594 2.39 2.829 4.63 3.796 7.214 1.803 6.273 3.359 12.947-.128 19.082l-.993.146c.513 1.296.617 1.29-.082 2.517l-.218.513c-1.359 3.106-5.858 7.504-8.897 9.85-1.382 1.068-3.357 1.439-4.502 2.677l.866.805.471-.375c2.466-1.702 8.612-1.317 11.826-1.224 8.486-.224 15.533 1.727 21.705 6.149 7.576 5.429 11.416 12.965 11.557 20.861.071 4.008-1.462 7.576-4.161 10.971-.891.428-1.317.826-1.916 1.485l-1.117-.158-.619-.775c.99-.914 1.159-2.032 1.488-3.163l-1.495.334-.055 1.677c-.991 1.064-.929 1.123-2.561 1.435l-.557-.43c-1.259-.971-3.527 1.326-5.048 1.582-1.225.206-2.909-.237-4.11 0-1.392.275-1.57.576-3.363.576-.926.94-1.879 1.845-2.426 2.96l-.321.689-1.736.384c-2.237-2.301-2.235-2.731-2.235-5.467.971-.803 1.88-1.436 2.171-2.556.235-.904-1.647-.728-2.552-1.772l-1.868 1.152-1.865-.285-.37-.861 2.235-1.723 1.775.074.844 1.115c1.327-1.314 2.293-1.948 2.612-3.617l2.242-.01 1.069-1.889-1.402-1.22.077-.397c.089-.525.099-1.024.1-1.552h-.871c-.213.916-.169 1.153.11 2.017-.954 1.076-1.983 1.89-3.032 2.881l-.908 1.105-1.122.33-.64-.859c.449-.955.918-1.531 1.772-2.305l.122-2.604c-.002-.737.081-1.15.396-1.829l-1.276-.518c-1.052.883-1.156 1.322-1.364 2.489l.892 1.022-.452.55c-1.596 2.007-1.581 4.239-4.307 5.651-2.677.171-3.967 1.744-6.314 1.289l-.039-1.236-.884.372-.294 1.113-2.184 1.039c-.962-.552-1.146-.489-1.541-1.412l-1.914.314-.403 1.301-1.754-.339-1.861 1.035-.699-.126c-.979-.159-.584-.139-1.544-.033l-1.068 1.077.186.945c-.852.693-.859.697-2.083.83-.515-.499-.754-.75-1.55-.978-5.287-1.517-9.804-5.12-15.557-6.095-1.814-.308-11.044.889-12.498 1.769l-.646.424c-1.726-.88-2.752-8.02-3.772-9.991-2.868-5.545-9.636-10.551-15.591-14.17-10.515-5.326-22.658-8.458-35.286-6.376-10.735 1.77-25.672 7.938-31.448 15.426l-.458.775c-2.285 4.145-4.976 7.837-6.877 12.173l-.814-.099c-8.008-.913-19.62 1.044-26.108 4.927-2.076 1.243-3.177 2.69-4.432 4.432-.647.899-1.41 1.671-2.254 2.463l-.476.734c-1.631 2.557-2.387 4.759-2.898 7.567l-1.149.259-1.547-.835-2.564 1.344-.881-.161c-1.306-.217-1.977.15-3.229.308l-1.825-.003-1.724.033-2.429-.362-.665.401c-2.297 1.275-9.318 1.248-12.334 1.249l-4.345.643c-3.577.526-6.97.362-10.307-.815-.663.288-1.93 1.028-2.615 1.133-1.16.179-3.028-.353-4.11-.096-1.055.253-1.166.961-2.412.87-2.963-.214-5.113.531-7.677 1.572-3.851-.474-5.468.276-8.563 1.996l-1.795 1.026c-1.807.716-1.917.686-2.75 2.098l1.151 1.022 2.616-.084.868 2.23 8.721 2.772c-1.271.207-3.003.751-4.176.375-.817-.262-1.18-.212-2.019-.098-.822.165-1.428.139-2.269.118l-.37-.862c-1.981-.006-2.605.862-4.114.862-.467-1.085-.183-1.223.377-2.303-.753-.504-1.311-.757-2.25-1.018-.912 1.135-.293 2.045-.008 3.323l-1.113.859c-1.906-1.118-2.404-2.391-4.484-3.565-1.717.535-2.223 1.308-3.362 2.413-.756-.584-1.117-.573-1.117-1.433l1.167-1.16c1.487-1.623 1.417-2.452 1.007-4.301-.925 1.002-1.334 1.801-2.838 2.29l-.454-.576.914-1.244-1.668-.026c-.553.911-.859.979-.55 1.999l-1.278.514-.296-.431c-.395-.528-.795-.861-1.355-1.28l-.58.098c.117 1.761.411 1.857-1.172 3.245l-2.243-.253c-1.569 2.004.792 2.876-1.494 4.833-1.089-1.083-1.458-1.109-1.24-2.521l-1.001.078c-1.624.118-2.651.206-4.111-.475l-1.494.643-1.717-.571.145-.664c.129-.693.131-1.029-.08-1.685l-1.712-.537c-.855.332-1.217.626-1.868 1.152l-1.86-1.146-.008-1.158-.755.293c-.416 1.222-.439 1.118-1.861 1.775-.947-.165-1.556-.472-2.445-.126-1.145.447-2 .889-3.326.75-.025-1.216.051-2.493-.481-3.654-.419-.919.39-1.787.107-3.066.959-.127 1.538-.197 2.501 0 2.761.566 4.429-.54 6.924.576l.469-.865-.76-.956-3.362.663-1.122-1.264c-1.206.331-2.106.264-3.362.241-.492-.549-.406-.756-.474-1.403-1.021.053-1.65.098-2.622-.211-1.5-.477-1.043.378-2.136.332-.143-.006-.899-.622-1.12-.681-.893-.24-2.785-.11-3.794-.15l-.958-1.748-2.003.612-1.722.232.355-2.093-3.863-.561-1.093-.99 1.723-1.408-.066-.986c1.859-1.703 3.788-4.28 4.79-6.386 1.405-2.949 1.995-1.252 4.513-2.732.622-1.668-1.938-1.368-2.896-3.193 1.645.402 2.884.747 4.64.537.847-6.442 3.251-13.245 9.299-17.916 4.385-3.386 12.026-6.648 18.34-6.645l10.326.325c2.915.087 6.878-.279 9.041-1.728l-1.987-2.031c-3.27-2.025-6.331-4.136-8.074-7.136-5.179-8.915-5.644-18.105-1.118-27.236 4.594-9.27 12.628-17.954 24.681-22.099 12.908-4.44 24.493-3.139 37.187.614 3.296 1.896 5.543 3.568 7.956 6.123-.123-4.807-.433-9.73.448-14.502l.085-.427c1.326-7.424 4.395-13.44 9.043-19.978z" fill="#C8C8C8"/><path d="M353.087 89.991l.47.288c.174 1.457.081 2.354-.529 3.745l-1.022-.883 1.081-3.15z" fill="#BCBCBC"/><path d="M389.203 75.586c1.512-.004 1.761-.07 2.996.57v1.76c-1.563-.233-2.418-.537-3.736-1.171l.74-1.159zM243.295 38.564c.948.006 1.864-.088 2.806-.167l.377 2.046-2.245.969c-1.275-1.029-.941-1.463-.938-2.848z" fill="#D6D6D6"/><path d="M333.155 85.381l2.249-.225c1.901 1.012 1.697 1.428 2.234 3.106l-1.671.08c-1.123-.958-1.991-1.834-2.812-2.961z" fill="#BCBCBC"/><path d="M193.757 123.985l.222.146c.579.869.695 1.545 1.514 2.336l.467.398c-.905.899-1.323 1.666-2.761 2.025l-1.408-1.286c-.84.106-.441.009-1.375.396l-.736.317-.349-.875c1.501-.747 3.139-1.428 3.971-2.701l.455-.756z" fill="#ADADAD"/><path d="M341.374 64.64l1.884-.25c.112.716.109 1.18-.072 1.903-.226.906-.013.97.439 1.798l-.748 1.163-3.73-.005c.449-1.739 1.125-3.057 2.227-4.61z" fill="#D6D6D6"/><path d="M267.722 111.453l1.945 1.009-.184.361c-.507 1.11-.47 2.226-.484 3.384l-.476.085c-1.1.265-2.069.796-3.042 1.263-1-.229-2.049-.91-2.936-1.351v-.57c.309-2.099 3.161-3.105 5.177-4.181z" fill="#BCBCBC"/><path d="M332.366 19.44l1.917-.9c.835.552 1.195.946 1.64 1.697.739 1.244 2.017 1.983 2.848 3.203l1.124 1.155c1.345 1.359 1.886 2.438 2.355 4.105l-1.487 1.552-.875-.177c-1.163-2.806-3.594-5.06-4.862-7.781-.575-1.235-1.505-1.895-2.66-2.855zm37.993 22.846c3.818.643 6.427 3.883 8.416 6.267-.86.777-.619.44-1.123 1.344l-.327.623c-1.745 0-2.082-.63-3.435-1.414-2.005-1.161-3.334-2.535-4.857-4.051l-1.75.365-.679.49-1.558-.783c1.212-.82 1.603-.685 3.239-.766l2.074-2.075z" fill="#D6D6D6"/><path d="M346.085 109.204c.569-1.623-.73-2.238.902-3.075l.818.271c.995.307 1.866.454 2.915.591l.235.366c.654.763 1.77 1.186 2.757 1.653l1.495-.521c.988.825.972.88 1.121 2.003 1.082-.008 1.314-.026 2.243-.329l.74.858-.383.331c-1.026.902-1.697 1.57-2.215 2.729l-1.119-1.038-1.507.904c-1.601-.643-1.639-.813-2.488-2.062-1.53-.413-2.723-1.257-3.983-2.018l-1.531-.663z" fill="#BCBCBC"/><path d="M305.62 101.503c1.795-.793 4.505-.573 6.617-1.077l2.25-.064 1.865-1.954 1.863.015.402.476 1.471 1.577a15.852 15.852 0 002.611-1.086c.746.731 1.369 1.373 1.869 2.221l.704-.194c.551-.14.923-.295 1.504-.135l1.76.789c-4.815.41-10.528-.303-15.123.456-2.819.466-5.651 1.103-8.532 1.292l1.15-1.427-.411-.889z" fill="#ADADAD"/><path d="M194.918 117.647l1.684-.177c.654.49 1.26.854 1.562 1.541l.11.37c.695-.803.688-.851 1.868-1.152l1.494 1.717 1.495-.23.469 1.388c1.131.006 1.577.081 2.512.576l-.37.862c-.512 1.447-2.545 2.575-3.928 3.605l-3.167 3.017c-1.416-1.642.333-1.351.747-2.869.254-.932.006-2.477.008-3.462-1.681-.254-3.085-.346-4.484-1.153v-4.033zM275.554 4.656l.132-.02c1.572.085 2.631-.072 4.163-.364l.628-.123 1.113.569c.029 1.496-.205 2.663-.696 4.113l-.174.496 1.251 1.158 1.122-.568c1.665-.005 2.315-.162 3.729.563-1.208.88-1.512.872-3.169 1.114-2.46.012-5.995.502-8.027-.539 1.005-.593 1.67-.9 2.344-1.728l-1.23-.005-1.114-1.147c-1.675-.004-2.323-.16-3.743.57l-.74-.57c0-1.413.019-1.46 1.117-2.59l3.294-.929z" fill="#BCBCBC"/><path d="M165.026 134.356l1.098.448c-.543 1.901-2.432 2.098-2.817 3.873 1.149.784 1.274.659 2.836.664.363-1.163 1.528-1.818 2.612-2.609.847.578.766.291.807 1.069.077 1.454-2.612 4.469-4.04 5.485-.665.474-1.137.635-1.516 1.298-.891 1.562-1.617 2.083-3.472 3.018l-.871-.803c.937-.829 1.385-1.268 1.639-2.36l-1.514-1.018-1.869.554c-.286.934-.585 1.25-1.495 1.899l-1.782-1.147c4.037-2.942 6.323-7.312 10.384-10.371z" fill="#ADADAD"/><path d="M328.894 14.261c-.727-1.694-2.35-2.171-1.71-3.737 1.261.754 1.998 1.274 2.87 2.302 1.538 1.809 4.268 2.553 6.368 3.928 5.297 3.467 9.839 10.737 11.848 15.841.342.869.114.435.738 1.246 1.935 2.518 1.254 5.383 3.586 8.004l.633-.148 1.78.044c-.65.841-.517.502-.749 1.39l-.576 2.204c-.35 1.436-.694 2.54-1.838 3.742l-.74-.57c.074-1.023.283-1.954-.381-2.887l-1.41-.285c-.161-1.04-.627-1.667-1.308-2.543-.371-.478-.301-.238-.267-.909.111-2.154-2.124-3.804-2.495-5.885-.477-2.668-2.83-4.716-2.993-7.298-.469-1.667-1.01-2.746-2.355-4.105l-1.124-1.155c-.831-1.22-2.109-1.96-2.848-3.203-.445-.751-.805-1.145-1.641-1.697l-1.916.9-.506-.047c-.691-.859-1.306-1.614-1.704-2.58l-1.262-2.551zm-92.34 118.495c.886-1.763.492-2.216 2.825-3.294.258-1.679 2.143-2.266 2.732-3.853.504-1.357 1.531-1.182 2.495-2.194 1.265-1.329-.576.127.977-1.049 2.845-2.154 4.926-5.246 8.742-6.732 1.227-.478 1.608-.602 2.619-1.424.631-.512 1.353-.455 2.235-.59l2.981 2.875-1.494 1.44 1.418 1.775c-1.351 1.184-1.169 1.395-1.935 2.741-.438.769-3.069 2.25-3.959 2.844l-2.243-.462c-2.04 1.282-3.377 2.785-4.788 4.483l-.431.293c-.613.47-.818.887-1.132 1.492l-1.474.034-1.142-1.246-1.647.434-.261.5c-.754 1.116-2.46 1.783-3.697 2.578l-2.821-.645zm-24.876.869c1.178-2.942 3.368-5.172 4.928-7.912l.723-1.081c1.188.233 1.365.408 2.251 1.081 1.642-1.534 2.325-2.564 3.377-4.302l1.106-1.171c.911-.935 1.632-1.694 1.865-2.878l2.238-1.438c1.537 1.126 2.781 2.465 4.103 3.739-.628 1.406-1.177 2.236-2.254 3.458-1.2 1.359-2.482 3.202-3.144 4.74-.554 1.292-1.548 1.672-.948 3.044h1.868l.74.858c-.697 2.207-1.97 3.684-4.193 5.144-1.83.219-2.464 1.201-3.524 2.313-.938.983-1.646 2.106-2.363 3.19l-2.262-.852-.267-1.44c-1.604 1.08-2.238 1.233-2.683 2.88l-1.492 1.153c-.922 1.001-1.313 1.534-2.637 2.298l-.388-.858c1.51-1.757 1.486-3.189 2.634-4.927 1.235-1.869 3.611-3.794 4.009-5.873-2.453.954-4.436 3.936-6.003 5.679.01-2.176 1.488-4.756 2.316-6.845z" fill="#BCBCBC"/><path d="M150.323 128.79l1.176 1.541-.32.522-.737 1.415-1.142 1.8 1.145.319c.74-.562 1.008-.597 1.222-1.362.348-1.249 2.233-2.454 3.009-3.727.384-.629.873-1.177 1.374-1.753l2.243-.097.702.858c-.816.728-1.581 1.39-2.533 2.017-.309 2.255-2.625 2.889-3.777 4.895-1.103 1.916-2.856 2.681-3.138 4.9l1.646.483c1.948-1.847 2.937-3.725 5.605-5.087.448.516 1.886 1.783 1.706 2.359-.379 1.206-2.418 2.617-3.533 3.517-1.594 1.285-2.614 3.049-4.151 4.461l-1.118-.262-.194-.862c.768-.768 1.486-1.468 2.059-2.336-1.317-.531-1.549-.6-3.024-.544-.602.828-.929 1.401-1.216 2.318-.652 2.089-3.23 4.768-5.271 6.206l-2.247-1.895c-.922.78-.604.299-.827 1.329-.157.724-.417 1.203-.864 1.843-.649.929-.635 1.435-.554 2.475l-2.065 1.439c-1.011-.356-1.305-.587-1.86-1.328.343-1.156.762-2.089 1.401-3.169l-.661-.545c-1.318 1.291-1.702 2.035-1.981 3.668l-.824.599c-1.077.828-1.212 1.559-1.521 2.66-.181.645-.478 1.12-.913 1.685-.706-.694-1.074-1.311-1.487-2.131-.989.167-1.701.39-2.616.708l-1.539-.882c.372-1.752 1.298-2.562 2.778-3.886l1.185.304c.607-.591.965-1.047 1.332-1.755l2.382-4.167 2.584-.579c.454-1.502 1.008-2.106 2.419-3.202l.443-.334c.022-.786-.111-1.974.372-2.675l2.99-3.219 1.099.499-.39.862c-.992 2.303-2.564 4.254-3.437 6.629l.852 1.152-1.486 1.199 2.242-.041c1.103-2.836 3.78-4.95 4.138-7.906.086-.705.428-.717 1.093-1.173l2.616.168.759-.862-2.275-.285-.68-1.278c1.177-1.529 2.976-2.94 3.656-4.623.46-1.137 1.252-1.912 2.153-2.865zm78.614-93.942c.758-2.583 2.035-5.423 4.568-7.282 1.841-1.35 1.171.19 3.255.204.083-.288.666-1.86.582-2.023-.558-1.078-1.33-.517-1.33-2.01l1.121-.397 1.122 1.207 2.01-.816c.827-1.77 3.939-2.317 4.531-3.457.109-.21-.255-1.666.184-2.555l1.868-.456.927.706.567.723c.496-.808.119-2.923.375-4.14l1.868.907.688-.658c-.356-1.3-.519-2.188-1.765-3.17-.621.755-1.097 1.301-1.391 2.18l-.148.557-1.672-1.008-.01-2.016c2.609-1.027 3.042-2.132 6.166-2.328l1.029.887-1.936 1.018.622.71c1.512-.274 2.696-.969 3.978-1.614l-.115 1.527-1.63 4.12.668.838c1.023-.641 1.406-1.051 1.911-1.99l1.451-.57.74.859-.758 1.152 1.012 1.878 1.255.138 1.488-1.146.467.27c.724.372 1.31.46 2.145.59v.497l-7.664 4.118c-2.043 1.04-2.56.807-3.939 2.585l.016 1.729-.492.246c-1.614.823-2.802 1.677-4.166 2.722-.751.577-.462.373-1.592.777-.778.923-1.57 2.438-2.926 2.755-.808.187-1.476.411-2.224.702-.558 1.392-1.009 1.692-.18 3.046l1.872-.448.612.833-.802 1.32c-.894 2.417-2.576 4.29-3.318 6.76-.357 1.189-.821 2.243-1.095 3.47l-.617 1.978c-.556 1.605-.156 3.584-.01 5.23l.343.356c.506.601.529.961.68 1.657.369 1.69.523 3.181.471 4.9l1.369 1.147-.291.522-.709 1.492h-.739c-1.057-1.22-2.088-.639-2.501-2.014l.295-.523c.423-.765.715-1.237.704-2.073l-2.612 1.926c-1.604-1.365-1.762-2.41-2.341-4.14-.23-.687-.196-1.121-.172-1.813.071-2.108-.794-3.603-1.926-5.476.257-1.075 1.304-1.796 2.205-2.593.006-2.654.743-5.123.74-7.988l-2.514-1.286c.831-2.17 2.462-4.742 4.584-6.32 2.042-1.52 2.4-2.187 2.55-4.333-.961 1.084-1.4 2.47-2.379 3.436-1.232 1.215-3.96 2.03-4.561 3.542-.35.879-.825.898-1.791 1.411l-.679-.85.5-.418.748-.645c1.017-.867 1.916-1.72 2.741-2.704.746-.89 2.206-2.164 1.921-3.178-2.555 1.091-2.766 3.54-5.179 4.526l-.775.284z" fill="#ADADAD"/><path d="M211.678 133.625c-.828 2.09-2.306 4.67-2.316 6.845 1.567-1.742 3.55-4.725 6.003-5.679-.398 2.079-2.774 4.004-4.009 5.873-1.148 1.738-1.124 3.17-2.634 4.928l.387.858c1.325-.764 1.716-1.298 2.638-2.299l1.492-1.152c.445-1.648 1.079-1.801 2.683-2.881l.267 1.44 2.261.852.865.279 2.121.601.37.861-2.242 1.728.171 1.433-1.285.803-1.003-.795.073-.81c.056-.763.009-1.136-.564-1.789l-.486.475c-1.558 1.472-3.568 2.595-5.658 3.573l-1.329-.631c-.548 1.032-.397 1.238-.107 2.351l1.401.865-.365 1.309c-.961-.122-1.39-.252-2.233-.583-1.143.942-1.301 1.733-1.606 2.947l-4.345.643c-3.577.525-6.97.361-10.307-.815-.663.287-1.93 1.027-2.615 1.133-1.16.179-3.028-.354-4.11-.096-1.055.252-1.166.96-2.412.869-2.963-.214-5.113.532-7.677 1.572-3.851-.473-5.468.276-8.563 1.997l-1.795 1.026c-1.807.715-1.917.686-2.75 2.097l1.151 1.023 2.616-.085.868 2.231 8.721 2.771c-1.271.208-3.003.751-4.176.375-.817-.262-1.18-.211-2.019-.097-.822.165-1.428.138-2.269.117l-.37-.862c-1.98-.006-2.605.862-4.114.862-.467-1.084-.183-1.223.377-2.302-.753-.505-1.311-.757-2.25-1.018-.912 1.134-.293 2.045-.007 3.323l-1.114.858c-1.906-1.118-2.404-2.391-4.484-3.565-1.717.536-2.223 1.308-3.362 2.413-.756-.583-1.117-.572-1.117-1.432l1.167-1.161c1.487-1.623 1.418-2.452 1.007-4.3l-.032-.548c.791-.613 2.318-1.53 2.883-2.236.208-.259.191-1.73.383-1.841 1.232-.713 2.101-.599 3.513-1.729l-1.826-.464.459-1.329 2.157-.929 1.86.418c2.98-1.769 6.685-1.745 9.937-2.841l1.503-.532c2.028-.51 4.088-.845 6.13-1.421l.987.761-2.108 1.566c-1.431-.154-2.633-.359-4.019.072l-.842.316-1.491.18c-1.425.38-1.669.952-2.365 1.899-2.001.552-1.598-.184-3.508-.288l-.487 2.017c1.237-.073 3.393-.103 4.492-.479 2.581-.884 2.119-2.069 5.538-2.268.76-.044 1.018.03 1.763-.135 2.054-.454 2.707-1.118 3.661-2.496 1.375-.026 2.087-.472 3.168-1.053l.443-.243 1.196.227c-.832.865-1.517 1.32-1.706 2.413 4.948.328 3.938-3.018 7.775-4.19l-.167 1.27 1.869.233c1.553-.675 2.594-1.167 3.406-2.434.958-1.494 2.284-2.944 3.407-4.386.641-.823 1.106-1.117 1.284-2.103l.122-.777c1.208-1 2.102-1.899 2.979-3.088l.264-.367.506.286c-.563 3.117-2.539 4.646-4.225 7.335-.569.911-.906 1.656-1.955 2.316l-.738.432 1.554 2.13c2.178-1.949 2.94-4.333 4.895-6.287 2.516-2.517 4.312-5.62 6.389-8.386z" fill="#787878"/><path d="M328.536 102.071l1.637-.907 1.318.63c-.734.835-.28.517-1.318.992 1.884 1.283 5.975 2.221 8.431 2.598 1.289.197 2.189.935 3.151 1.584l1.393-.055c.03-1.286-.304-1.441-1.27-2.518l1.099-.576 1.752 2.304-.771 1.729 2.127 1.352 1.531.663-1.645.904c-10.515-5.326-22.658-8.457-35.286-6.376-10.735 1.77-25.672 7.938-31.448 15.426l-.458.775c-2.285 4.145-4.976 7.837-6.877 12.173l-.814-.099c-8.008-.913-19.62 1.044-26.108 4.927-2.076 1.243-3.177 2.69-4.432 4.432-.647.899-1.41 1.671-2.254 2.463l-.476.735c-1.631 2.556-2.387 4.758-2.898 7.566l-1.149.259-1.547-.834-2.564 1.343-.881-.161c-1.306-.217-1.977.15-3.229.308l-1.825-.003-1.724.033-2.429-.362-.665.401c-2.297 1.275-9.318 1.248-12.334 1.249.305-1.213.463-2.005 1.606-2.946.843.33 1.272.461 2.233.583l.365-1.31-1.401-.864c-.29-1.113-.442-1.319.107-2.352l1.328.632c2.09-.978 4.101-2.102 5.659-3.574l.486-.474c.573.652.62 1.026.564 1.789l-.073.81 1.003.795 1.285-.803-.171-1.433 2.242-1.728-.37-.861-2.121-.601-.865-.279c.718-1.084 1.425-2.207 2.364-3.19 1.059-1.112 1.694-2.094 3.524-2.313l.335 1.697c1.508-.099 2.52-.551 3.866-1.044.727-1.068 1.342-1.908 2.483-2.762l.455 1.863 1.546.119 1.495-1.587c.486-.76.559-1.197 1.329-1.851l.707-.586 2.821.645c1.236-.795 2.943-1.462 3.696-2.578l.262-.501 1.647-.433 1.142 1.246 1.474-.035c.314-.604.519-1.021 1.132-1.491l.431-.293c1.411-1.699 2.748-3.202 4.788-4.483l2.243.461c.89-.594 3.521-2.074 3.959-2.843.766-1.347.584-1.558 1.935-2.742l.333.107c.617-.799 2.151-1.617 3.064-2.261.973-.467 1.942-.998 3.042-1.264l.476-.085c.014-1.158-.023-2.273.484-3.383l.184-.361-1.945-1.01-.091-.097c1.178-1.49 3.475-1.932 4.626-3.377.834-1.047 3.704-.39 5.231-.665.561-.101 1.703-.852 2.242-1.121l1.113.508-.747.864 1.035 1.153c3.166-.352 5.888-1.023 8.661-2.269 2.828-1.271 6.399-1.499 9.45-2.52l.665-.227 5.713-2.198.411.888-1.149 1.428c2.88-.189 5.712-.826 8.531-1.292 4.595-.76 10.309-.046 15.123-.456z" fill="#656565"/><path d="M262.417 119.816l-.415 1.003.658.902 1.499-.244c1.326 1.034 3.545 1.495 3.98 2.508l-1.113.57-1.128-.57-1.57 1.152.225.686c.282.898.227.531.227 1.328l-1.865.285c-.864-.885-1.369-1.143-1.494-2.293l-.335.339-4.149 3.556-1.552.063-.509 1.495c-2.774.186-3.252-.199-5.717-1.28 1.411-1.699 2.748-3.201 4.789-4.483l2.242.461c.89-.593 3.521-2.074 3.959-2.843.766-1.347.584-1.557 1.935-2.742l.333.107z" fill="#787878"/><path d="M267.722 111.452l-.091-.097c1.178-1.49 3.475-1.932 4.626-3.377.834-1.047 3.704-.39 5.231-.665.561-.101 1.703-.852 2.242-1.121l1.114.508-.748.864 1.035 1.153-.47 1.518c4.451-.314 8.408-3.595 13.028-3.071l-11.344 4.808 1.823.251c-1.039 1.373-6.761 3.351-8.862 3.707l-2.302.229-.976.624.93.748-.047.754c-2.801 1.781-5.583 2.085-8.752 3.192l-1.5.243-.657-.901.415-1.003c.617-.799 2.151-1.617 3.065-2.261.972-.467 1.942-.998 3.041-1.264l.476-.084c.014-1.159-.023-2.274.484-3.384l.184-.361-1.945-1.01z" fill="#ADADAD"/><path d="M225.692 25.79c1.18-2.866 6.051-6.714 8.812-8.787C251.229 4.443 268.064-.252 291.196.01c1.917.014 4.05-.103 5.902.304 3.746.823 7.885 1.11 11.792 2.032 17.923 4.231 29.396 12.222 38.475 24.715l5.103 7.197c5.275-.688 10.286-1.376 15.661-.895l-2.085 1.81-1.495-.403-1.869 1.066c-1.821-.669-2.468-1.184-4.479-.848l-1.118.842 1.488 1.159c-1.061-.134-1.996-.254-2.99-.577l-.74.86c.874.78 1.612 1.252 2.982 1.434l3.744.005 1.113.57-.148.494-.817.203c-2.692-.498-4.873-.584-7.628-.5-1.047 1.026-1.044.927-.86 2.219l-.632.148c-2.333-2.621-1.652-5.486-3.587-8.004-.624-.812-.396-.378-.738-1.246-2.009-5.104-6.551-12.374-11.848-15.841-2.1-1.375-4.83-2.12-6.368-3.928-.872-1.028-1.609-1.548-2.87-2.302-.64 1.565.983 2.042 1.71 3.737-2.132-.774-3.608-2.385-5.447-3.512-1.827-1.12-4.042-2.037-5.978-3.076l1.486-.65-6.693-2.564-1.118.52-.608.714-2.035-.222-.015 1.262c-1.631 1.046-2.826-.278-5.181-.443l-.414-.961c-2.084-.697-3.982-1.35-6.207-1.722-2.889-.482-4.426-1.6-7.613-1.432-1.448.077-2.527.119-3.901-.253-1.841-.498-3.342.31-5.226-.082-2.225-.463-8.5.71-10.507 1.488-.735.286-.56.207-.758.894-.218.765-.195 1.178-.024 1.929l1.726.871-2.234.582-.507 1.263c-1.842.259-2.293.257-3.291 1.535-1.2 1.538-.397 3.322-1.642 4.843l-1.136-.733 1.171-1.44-.328-.635c-.379-.842-.359-1.307-.246-2.17l-2.615-.075c-.832.791-.573.323-.686 1.386-.066.637-.165 1.174-.449 1.782l-2.387-1.816.115-1.527c-1.281.645-2.465 1.34-3.978 1.614l-.622-.71 1.936-1.018-1.029-.887c-3.124.196-3.557 1.3-6.166 2.327l.01 2.017 1.672 1.008.148-.558c.294-.878.77-1.424 1.392-2.179 1.245.982 1.408 1.87 1.764 3.17l-.688.658-1.868-.907c-.256 1.216.121 3.332-.375 4.14l-.567-.723-.927-.706-1.868.456c-.438.889-.075 2.345-.184 2.555-.592 1.14-3.703 1.687-4.531 3.457l-2.01.816-1.122-1.207-1.121.397c0 1.493.772.932 1.33 2.01.084.163-.499 1.735-.582 2.023-2.084-.014-1.414-1.554-3.255-.204-2.533 1.859-3.81 4.698-4.568 7.282l.775-.284c2.413-.986 2.624-3.435 5.179-4.526.285 1.014-1.175 2.288-1.921 3.178-.825.984-1.724 1.837-2.741 2.703l-.748.646-.5.418.68.85c.965-.514 1.44-.532 1.79-1.411.601-1.512 3.329-2.327 4.561-3.542.979-.966 1.419-2.352 2.38-3.436-.151 2.146-.508 2.814-2.551 4.333-2.122 1.578-3.753 4.15-4.584 6.32-.409 1.239-.907 2.23-.263 3.477l-2.612 1.79c.134.98.34 1.627.904 2.512l1.121-2.443 1.286.192c-.126 1.055.131 1.142-.9 1.907-.821.609-1.139 1.122-1.507 1.958l-1.495.19-.746 2.44-1.643.42.148.773 1.121.54.499-.582c.639-.731 1.368-1.312 2.172-1.936.32 1.456-.082 2.207-.795 3.51l1.172 1.44-.39.614c-.438.737-.404.959-.595 1.69l-1.085 3.17-1.448.35c-1.522 1.98-.899 4.269-2.223 6.223-.793 1.172-1.284 2.24-2.912 2.65-.7-1.772-1.442-3.107-2.848-4.615l-1.304.577-1.079-.57 1.077-1.159c-2.324-1.71-4.563-3.99-7.056-5.478-1.132-.676-2.487-.984-3.663-1.62-1.11-.599-2.061-.346-3.383-.3l-.717-1.517-1.136.2c-1.921.217-7.038 1.238-8.662.933-.68-.127-1.19-.605-1.869-.74-1.248-.25-6.209.727-7.58 1.062-3.29.805-5.809 2.72-9.215 3.562-1.064 1.18-2.051 1.193-3.381 1.982-1.8 1.067-3.954 2.948-5.161 4.427.886 1.078 1.599 2.048 2.16 3.251-.391 1.18-1.253 2.097-2.255 3.007-1.679 1.524-2.074 3.324-3.202 5.059-1.215 1.869-.669 3.815-2.086 5.583-.895 1.116-.778 1.791-.762 3.062.011.792-.298 1.028-.659 1.726-.831 1.608-.6 3.553-.19 5.194l-.841.208-1.577-1.407-2.131.833c-.857-1.046-.772-1.96-.795-3.152-.017-.932-1.183-1.75-1.903-2.501l.923-.697-.285-2.177c-1.042-1.15-2.032-1.816-3.509-2.637l-.524-.286c-.081-1.084-.41-1.538-1.202-2.426-1.135 1.787-1.324 3.03-1.379 5.007-.021.783-.135 1.473-.286 2.243-.402 2.061 1.123 10.457 2.686 12.17.541.592.643.595 1.306.954l1.121-.421 1.121.613c.815-.946.741-1.15.747-2.305l.84.294-.086 2.017c1.855 1.43 1.741 1.721 4.484 1.728l-.381.588c-2.331-.011-2.368.185-4.109-1.158l-.09.447-.983 2.716.695.401 1.498-.901.551.789-1.665 1.439.967.482 1.641-.88 1.254.687c-.028 1.124.093 2.163-.699 3.155-3.27-2.025-6.331-4.136-8.074-7.136-5.179-8.915-5.644-18.105-1.117-27.236 4.593-9.27 12.627-17.954 24.68-22.099 12.908-4.44 24.493-3.139 37.187.614 3.296 1.896 5.543 3.568 7.956 6.123-.123-4.807-.433-9.73.449-14.502l.084-.427c1.326-7.424 4.395-13.44 9.043-19.978z" fill="#656565"/><path d="M290.98.153c3.191.499 6.703.575 9.674 1.476 3.861 1.172 6.931 1.494 10.49 3.35l-.608.714-2.035-.222-.015 1.263c-1.631 1.046-2.826-.279-5.181-.444l-.414-.96c-1.705-1.703-4.102-2.083-6.616-2.797-1.573-.447-2.934-.892-4.644-.866-1.524.023-2.023-.396-3.308-.977l2.657-.537z" fill="#BCBCBC"/><path d="M171.749 56.348l.656-.131c2.01-.418 3.274-.836 4.943-1.788l1.994-.025.996-1.042c4.702-.385 11.06-2.383 15.15-.246l-.578 1.158 2.989-.011-.74-.57 1.115-.571c2.215.395 2.301.49 3.725 1.722-.333.485-.905 1.123-1.042 1.656-1.921.217-7.038 1.238-8.662.934-.68-.128-1.19-.605-1.869-.74-1.248-.252-6.209.726-7.58 1.061-3.29.806-5.809 2.72-9.215 3.562-.249-1.342-.329-1.515.418-2.724-1.451-.812-1.606-.97-2.3-2.245z" fill="#787878"/><path d="M165.089 67.726c.886 1.078 1.599 2.048 2.16 3.251-.391 1.18-1.253 2.097-2.256 3.007-1.678 1.524-2.073 3.324-3.201 5.059-1.215 1.87-.669 3.815-2.086 5.583-.895 1.116-.778 1.791-.762 3.062.01.792-.298 1.028-.659 1.727-.831 1.607-.6 3.552-.191 5.193l-.84.208-1.577-1.407-2.131.833c-.857-1.046-.772-1.959-.795-3.152-.017-.932-1.183-1.75-1.903-2.5l.923-.697c.685.02 1.363.147 2.038.24.459-1.277.797-2.264.621-3.613l-1.463.917c-.252-1.733-.101-2.054.842-3.655.892.26 1.258.343 2.241.34l.625-1.35-1.371-.821c.073-.84.131-1.535.512-2.332.495-1.033.893-1.686.759-2.811-.102-.867-.051-1.45.223-2.314l1.495-.078-.035 4.323c2.819-2.679 4.203-6.166 6.831-9.013z" fill="#BCBCBC"/><path d="M228.937 34.848l.775-.283c2.413-.986 2.624-3.436 5.179-4.526.285 1.013-1.175 2.287-1.921 3.177-.825.984-1.724 1.837-2.741 2.704l-.748.645-.5.418.679.85c.966-.513 1.441-.532 1.791-1.411.601-1.512 3.329-2.327 4.561-3.542.979-.965 1.418-2.352 2.379-3.436-.15 2.147-.508 2.814-2.55 4.333-2.122 1.578-3.753 4.15-4.584 6.32-.409 1.24-.907 2.23-.263 3.477l-2.612 1.791c.134.98.34 1.626.904 2.51l1.121-2.441 1.286.191c-.127 1.056.131 1.142-.9 1.907-.821.61-1.139 1.123-1.507 1.958l-1.495.19-.746 2.44-1.643.42.148.773 1.121.54.499-.582c.639-.73 1.368-1.312 2.172-1.935.32 1.455-.082 2.206-.795 3.508l1.172 1.441-.391.615c-.437.736-.403.958-.594 1.69l-1.085 3.17-1.448.35c-.969.639-1.981 1.662-3.262 1.662l-.37-.861c.39-.862.748-1.657.978-2.555.392-1.52.828-.238 1.255-.897.754-1.158.092-1.527 1.495-2.88l-2.242-.588a13.893 13.893 0 00-1.07-1.795l-.374-.504 1.444-1.147c-.047-1.156-.316-2.55.378-3.608.501-.763.301-1.017.084-1.921-.66-2.744.519-2.876 1.295-5.235.23-.699-.193-.89-.64-1.477l-2.247.14 1.573-3.411c.34-1.105.908-2.156 1.43-3.216h.639l.47 1.437 1.9-.406z" fill="#787878"/><path d="M146.251 80.366c.792.888 1.121 1.342 1.202 2.426l.524.286c1.477.82 2.467 1.486 3.509 2.637l.285 2.177-.923.697c.72.75 1.886 1.569 1.903 2.501.023 1.193-.062 2.106.795 3.152l2.131-.833 1.577 1.407.84-.208c.848 1.13 1.316 1.91 1.466 3.225.138 1.213.503 1.634 1.466 2.563.622.599.316.263.834 1.123.704 1.17 2.286 2.041 3.525 2.876-1.148.747-2.17 1.489-3.516 2.017l.533 1.07c1.248-.124 1.948-.489 2.989-1.011 3.768.427 2.762-.777 5.806 1.669l-1.117 1.729 1.664 1.259-.001-.72c.018-.685.066-1.068.353-1.692l1.143-.729c1.87 1.619 1.505 2.909 3.362 4.631l1.334-.156-.212-2.196c1.229.732 1.746 1.089 2.241 2.235l1.503-.039.424.773.273.482.535 1.171c.935 1.633 3.896 3.051 5.877 3.911-.697-.862-1.356-1.609-2.222-2.376-.841-.745-1.09-1.369-1.658-2.233l-.772-.864.524-.822 3.416 2.723c.821.744 1.319 1.14 2.562 1.457.61 1.218 1.108 2.464 2.047 3.556l-1.043 2.159c-2.252-.628-3.843-1.187-5.487-2.582l-.482.324c-.706.435-1.349.638-2.179.89l-5.791-2.91c-1.284.831-1.948 1.269-2.608 2.5l-.946.192c.191-1.671.146-1.932 1.543-3.314-1.401-.594-2.327-.958-3.978-1.005l.596-1.152-.728-.615c-1.192.491-2.002 1.023-2.989 1.72l-1.564-.528-.311-1.153-.691.397-5.654 2.883-.896-.399.523-1.734-1.133.265-.217.544c-.32.686-.581.905-1.266 1.369-2.622.559-5.925 4.204-7.847 5.983-.887-1.108-.698-1.292-.515-2.61l-1.415-.224c-1.826.989-2.54 1.974-3.58 3.477l1.557 1.614 2.459-.612.739.859-.739 1.445c.823.242 1.715.45 2.492.767-.901.952-1.693 1.728-2.153 2.864-.68 1.684-2.479 3.095-3.656 4.624l.68 1.277 2.275.286-.759.862-2.616-.168c-.665.456-1.007.467-1.093 1.172-.358 2.956-3.035 5.071-4.138 7.907l-2.242.04 1.486-1.198-.852-1.153c.873-2.375 2.445-4.325 3.437-6.628l.39-.862-1.099-.5-2.99 3.22c-.483.701-.35 1.888-.372 2.675l-.443.334c-1.411 1.096-1.965 1.7-2.419 3.201l-2.584.579-2.382 4.168c-.367.708-.725 1.164-1.332 1.755l-1.185-.304c-1.48 1.324-2.406 2.134-2.778 3.886l1.539.881c.915-.317 1.627-.54 2.616-.708.413.82.781 1.438 1.487 2.132.435-.566.732-1.04.913-1.686.309-1.1.444-1.831 1.521-2.659l.824-.599c.279-1.633.663-2.378 1.981-3.669l.661.546c-.639 1.08-1.058 2.012-1.401 3.169.555.74.849.972 1.86 1.327l2.065-1.439c-.081-1.039-.095-1.546.554-2.474.447-.64.707-1.119.864-1.843.223-1.031-.095-.549.827-1.33l2.247 1.896c-.801 1.293-1.6 2.42-2.705 3.575l.632.886c1.577.004 2.483-.568 3.737-1.213l1.007.615c-2.088 1.109-6.168 2.013-7.099 3.745l.546.576 2.184-1.147 1.868.3 1.868-1.452 1.868.663 1.25-.371c-.044-1.514.542-2.24 1.548-3.466 1.948-2.373 3.43-5.056 5.796-7.197l.74.571-.039 2.304c1.896.088 2.168.16 3.783-.57l1.486 1.146-2.399 1.452c-1.668 1.051-1.384 1.251-1.593 2.811l1.47.858-.459 1.329 1.825.464c-1.411 1.13-2.28 1.016-3.512 1.729-.192.111-.175 1.582-.383 1.841-.565.706-2.092 1.623-2.884 2.235l.033.548c-.925 1.002-1.334 1.801-2.838 2.29l-.454-.576.914-1.244-1.668-.026c-.553.911-.859.979-.55 1.999l-1.278.514-.296-.43c-.395-.529-.795-.862-1.355-1.281l-.58.098c.117 1.761.411 1.857-1.172 3.245l-2.243-.253c-1.569 2.004.792 2.876-1.494 4.833-1.089-1.083-1.458-1.109-1.24-2.521l-1.001.078c-1.624.118-2.651.207-4.111-.475l-1.494.643-1.717-.571.145-.664c.129-.693.131-1.029-.08-1.685l-1.712-.537c-.855.332-1.217.626-1.868 1.152l-1.86-1.146-.008-1.158-.755.293c-.416 1.222-.439 1.118-1.861 1.775-.947-.165-1.556-.472-2.445-.126-1.145.447-2 .889-3.326.75-.025-1.216.051-2.493-.481-3.654-.419-.919.39-1.787.107-3.066.959-.127 1.538-.197 2.501 0 2.761.566 4.429-.54 6.924.576l.469-.865-.76-.956-3.362.663-1.122-1.264c-1.206.331-2.106.264-3.362.241-.492-.549-.406-.756-.474-1.403-1.021.053-1.65.098-2.622-.211-1.5-.477-1.043.378-2.136.332-.143-.006-.899-.622-1.12-.681-.893-.24-2.785-.11-3.794-.15l-.958-1.748-2.003.612-1.722.232.355-2.093-3.863-.561-1.093-.99 1.723-1.408-.066-.986c1.859-1.703 3.788-4.279 4.79-6.386 1.405-2.949 1.995-1.252 4.513-2.732.622-1.668-1.938-1.368-2.896-3.193 1.645.402 2.884.747 4.64.537.847-6.442 3.251-13.245 9.299-17.916 4.385-3.386 12.026-6.648 18.34-6.645l10.325.325c2.916.087 6.879-.279 9.042-1.728l-1.987-2.031c.792-.992.671-2.031.699-3.155l-1.254-.687-1.641.88-.967-.482 1.665-1.439-.551-.789-1.498.901-.695-.401.983-2.716.09-.447c1.741 1.343 1.778 1.147 4.109 1.158l.381-.588c-2.744-.007-2.629-.298-4.484-1.728l.085-2.017-.839-.294c-.006 1.154.068 1.36-.747 2.305l-1.121-.613-1.121.421c-.663-.359-.765-.362-1.306-.954-1.563-1.713-3.089-10.109-2.686-12.17.151-.77.265-1.46.286-2.243.055-1.976.244-3.22 1.379-5.007z" fill="#8C8C8C"/><path d="M153.546 94.242l2.131-.833 1.577 1.407 1.039 2.646-1.146 1.235c-2.151-.984-2.6-2.72-3.601-4.455zm-54.692 59.342l.376-.25c1.363-.945 1.712-1.568 2.326-2.863.434-.913 1.179-1.667 1.916-2.446l2.135-.567c.319.946.128 1.909-.475 2.799-1.074 1.584-2.401 1.929-2.415 3.888l-3.863-.561zm3.863.561l2.68-1.352.176-.82c.31-1.274 1.61-4.251 3.121-4.97l.651-.274 1.217.682c-.585 2.19-.898 3.536-2.889 5.255-.766.661-.613 1.133-.94 1.896-.118.276-.426.589-.646.832l-2.003.612-1.722.232.355-2.093zm13.658-22.67l1.468-.023c-.395 2.398-2.741 4.941-3.298 7.317-.284 1.207-.268 1.851-1.392 2.786-1.125.935-1.486 1.786-1.988 2.99l-.205.516-1.99.287c1.311-1.126 1.362-2.025 1.572-3.508.138-.972 1.527-1.591 2.42-2.298l-1.276-1.106c.41-.788.131-1.239-.035-2.064 1.376-1.81 2.958-3.317 4.724-4.897z" fill="#C8C8C8"/><path d="M129.712 127.224l.712.523c.773-.744 1.242-1.188 1.459-2.14 1.607-1.177 2.787-2.081 3.918-3.542 1.247-1.611 4.021-3.261 5.677-4.745l1.869.128c-.582 1.777-2.943 2.279-4.121 3.656-.297.349.05 1.445-.209 1.855-.61.963-1.841 1.01-2.131 2.249l-.843.551c-.82.553-1.15.883-1.518 1.683l-1.472 3.208c-2.284-.556-2.912.053-5.027.819l-1.113-.57 2.799-3.675z" fill="#BCBCBC"/><path d="M123.747 125.713h1.79c-.693 1.597-1.195 3.368-2.067 4.898-.556.976-1.693 1.942-1.944 2.983-.183.758-.435 1.461-.707 2.203-.771 2.114-2.456 3.462-3.837 5.317-1.325 1.781-2.134 3.942-2.814 5.918-.928.451-1.086.493-2.112.576.725-2.616 4.126-11.572 6.484-13.306 1.501-1.104.294-.943.509-2.251.206-1.261 3.722-5.012 4.698-6.338z" fill="#C8C8C8"/><path d="M147.212 156.548c-.044-1.514.543-2.24 1.548-3.466 1.948-2.373 3.43-5.056 5.796-7.197l.74.571-.039 2.305c1.896.087 2.168.16 3.783-.571l1.486 1.146-2.399 1.452c-1.668 1.051-1.384 1.251-1.593 2.812l1.47.857-.459 1.329 1.825.464c-1.411 1.13-2.28 1.016-3.512 1.729-.192.111-.175 1.582-.383 1.841-.565.706-2.092 1.623-2.883 2.235l.032.548c-.925 1.002-1.334 1.801-2.838 2.29l-.454-.576.914-1.243-1.668-.027c-.553.911-.859.979-.55 1.999l-1.278.514-.296-.43c-.395-.529-.795-.862-1.354-1.281l-.581.098-.977.239c-1.048.163-1.825.063-2.847.425l-2.206.73-1.61-.736c1.15-1.544 3.503-1.59 5.494-2.346 1.588-.602 1.22.565 2.337.465.126-.011 1.373-.917 1.626-1.013.566-.216 3.874-.099 4.826-.209l-.15-.93c1.565-1.604 1.952-3.217 3.129-4.911l.229-.296-1.152-.267c-1.06.998-2.651 2.22-2.977 3.491l-.035.543c-1.428 1.118-1.3 1.222-3.304 1.272l.217-1.272c.943-.876 2.073-1.685 2.314-2.845l-2.221.261z" fill="#BCBCBC"/><path d="M133.053 130.65c-.602 1.848-2.79 4.251-2.936 5.974-.08.94.19 1.028-.43 1.966l-.539.764c-.368.737-.321 1.391-.897 2.097-1.118 1.365-1.49 1.238-3.468 1.548-.016.598-.006.931-.427 1.453-1.273 1.575-2.319 3.324-2.722 5.162l-.266 1.163c-.432.977-1.18 1.296-2.309 1.743l-1.113-.879c1.629-3.034 2.544-6.177 4.143-9.202.635-1.203 1.623-1.497 2.437-2.501 1.507-1.855 2.034-4.849 2.494-6.99-1.477 1.828-2.214 3.888-3.565 5.729l-.743.865c-1.01 2.11-3.543 6.482-5.894 7.822l-.655-.908c.891-2.487 3.381-4.398 4.23-6.654 1.277-3.392 3.106-6.157 4.689-9.479.402-.84.72-1.343.83-2.251.12-1.001.891-1.372 1.741-2.116l2.242.171-.183 1.097-2.799 3.675 1.114.57c2.114-.766 2.742-1.375 5.026-.819z" fill="#C8C8C8"/><path d="M130.747 145.565l-3.094.076c-.855 3.353-3.371 6.133-4.72 9.378-.412.991-1.295 1.196-2.379 1.766l-1.416-.823c.638-.864.987-1.846 1.625-2.678 1.726-2.251 2.367-5.461 4.419-7.37l.681-.611c.537-.562.817-1.069 1.465-1.582 1.33-1.055 2.457-2.318 3.922-3.257l.561-.346-1.169-1.025c.92-1.171 1.202-1.824 1.262-3.199.031-.714 1.261-1.374 1.918-1.892.192-2.99 1.125-5.138 3.491-7.568 2.458-2.526 4.552-4.794 7.441-7.057a32.918 32.918 0 01-4.211 7.123l.547 1.067 2.725-2.85 1.557 1.614 2.459-.612.739.859-.739 1.445c.823.242 1.715.45 2.492.767-.901.952-1.693 1.728-2.152 2.864-.681 1.684-2.479 3.095-3.657 4.624l.68 1.277 2.275.286-.759.862-2.616-.168c-.665.456-1.007.467-1.093 1.172-.358 2.956-3.034 5.071-4.138 7.907l-2.242.04 1.487-1.198-.853-1.153c.873-2.375 2.445-4.325 3.437-6.628l.39-.862-1.099-.5-2.99 3.22c-.483.701-.35 1.888-.372 2.675l-.443.334c-1.411 1.096-1.965 1.7-2.419 3.201l-2.584.579-2.382 4.168c-.367.708-.725 1.164-1.332 1.755l-1.185-.304c.115-.617.208-1.174.508-1.756l.297-.553c.994-2.291 1.267-3.368 3.666-5.067z" fill="#BCBCBC"/><path d="M140.165 128.64c1.108.441 2.186.856 3.222 1.395l-.415 1.036c-1.308.3-2.682.509-3.835 1.081l1.028-3.512z" fill="#D6D6D6"/><path d="M145.194 137.556c-.941.256-1.98.101-2.968.055l-.585-.662.95-2.016 1.468-.136.455 1.481.68 1.278z" fill="#C8C8C8"/><path d="M368.129 33.363l4.103.676c18 2.569 31.784 8.2 42.428 20.06 1.387 1.545 2.746 3.128 3.764 4.84 1.594 2.39 2.829 4.63 3.796 7.214 1.803 6.273 3.359 12.947-.128 19.082l-.993.146c.513 1.297.617 1.29-.082 2.518l-.218.512c-1.359 3.106-5.858 7.505-8.897 9.851-1.382 1.067-3.357 1.438-4.502 2.676l.866.805.471-.375c2.466-1.701 8.612-1.317 11.826-1.224 8.486-.223 15.533 1.727 21.705 6.15 7.576 5.428 11.416 12.964 11.557 20.86.071 4.008-1.462 7.576-4.161 10.971-.891.428-1.317.826-1.916 1.485l-1.117-.157-.619-.776c.99-.914 1.159-2.031 1.488-3.163l-1.495.334-.055 1.677c-.991 1.064-.929 1.123-2.561 1.435l-.557-.429c-1.259-.972-3.527 1.325-5.048 1.581-1.225.207-2.909-.237-4.11 0-1.392.275-1.57.577-3.363.577-.926.939-1.879 1.845-2.426 2.96l-.321.688-1.736.384c-2.237-2.3-2.235-2.731-2.235-5.467.971-.803 1.88-1.436 2.171-2.556.235-.904-1.647-.727-2.552-1.771l-1.868 1.152-1.865-.286-.37-.86 2.235-1.724 1.775.075.844 1.115c1.327-1.315 2.293-1.949 2.612-3.617l2.242-.011 1.069-1.888-1.402-1.221.077-.397c.089-.525.099-1.023.1-1.551h-.871c-.213.915-.169 1.153.11 2.016-.954 1.077-1.983 1.89-3.032 2.881l-.908 1.105-1.122.33-.64-.859c.449-.955.918-1.531 1.772-2.304l.122-2.605c-.002-.736.081-1.15.396-1.829l-1.276-.518c-1.052.883-1.156 1.322-1.364 2.49l.892 1.021-.452.551c-1.596 2.006-1.581 4.238-4.307 5.65-2.677.171-3.967 1.744-6.314 1.29l-.039-1.237-.884.372-.294 1.114-2.184 1.038c-.962-.552-1.146-.489-1.541-1.412l-1.914.315-.403 1.3-1.754-.338-1.861 1.034-.699-.126c-.979-.159-.584-.139-1.544-.033l-1.068 1.077.186.946c-.852.692-.859.696-2.083.829-.515-.498-.754-.75-1.55-.978-5.287-1.517-9.804-5.12-15.557-6.095-1.814-.308-11.044.889-12.498 1.769l-.646.425c-1.726-.881-2.752-8.021-3.772-9.991-2.868-5.545-9.636-10.552-15.591-14.171l1.645-.904c1.26.761 2.453 1.605 3.983 2.018.848 1.249.887 1.419 2.488 2.063l1.507-.905 1.119 1.038.13 1.467 1.281-.206c.399-.624.748-1.579 1.539-1.91l1.252 1.91c-.5.999-.705 1.083-1.833 1.729l1.356 1.371.738-.507.538-.288 1.34 3.29 2.219-.581 1.155.974c1.384.037 2.145-.469 3.242-1.039l.483-.256.763.493c-.51 1.554-1.767 2.626-1.916 4.034 1.142-.369 1.811-.793 2.794-1.368.074-1.293.757-1.905 1.722-2.892l1.072-.024c.143 2.501-2.22 3.78-2.738 6.012l2.577-.468-.116-1.26c2.815-3.216 4.996-5.476 8.546-8.296l1.001.805c-2.714 1.699-4.623 3.42-5.59 6.05l.854.441c1.993-1.831 6.287-4.765 6.423-7.067l2.17-.834c-.385.996-.276 1.246 0 2.229l2.242-.665-.413 2.439.786.557c1.825-.754 1.992-.893 3.008-2.286l-.886-1.087-.642-.015c-.864-.041-1.278-.128-1.831-.663-.547-.529-.918-1.049-1.694-1.405-3.662-1.684-.835-1.73-2.591-4.032-1.032.196-1.204.25-2.264 0 .532-1.63 1.131-3.628 2.417-4.998l1.216.239c-1.046 1.296-.994 1.564-1.006 3.031 1.796-.086 2.277-.8 3.561-1.729.145-1.151.134-2.458.832-3.495.495-.733.312-.183.47-1.073l.102-.617c.369-1.12.67-1.176 1.924-1.631.337.993.855 1.852 1.405 2.783-.351 1.381-.603 1.529-1.872 2.566l.094.543 2.917-.6.456-1.684c.262-1.1.68-1.623 1.461-2.554l.77.329 1.494-.899.082-1.284-1.202.93-.792-.228c.776-1.828 1.045-3.097.653-5.026l-.096-.448c.605-.873 1.473-1.568 2.317-2.304-.003-3.998 2.088-6.85 2.983-10.66-.637-1.118-1.092-2.066-2.334-2.88-.883 1.382-.955 2.05-.682 3.581l.089.452-1.391 1.13-.739-.554c.212-1.484.649-3.204-.003-4.643l-.379-.753 1.838-.942.094-2.016c-1.27-1.428-1.485-2.35-1.483-4.08l.012-.53-2.33-1.44.705-1.728.863.184c.952 1.178 1.712 2.164 2.004 3.553l.243 1.16c.448 1.464.916 1.724 2.538 2.516a6.79 6.79 0 00-.747 1.6l2.241 1.607c.272-1.2.723-2.275 1.244-3.419l-1.682-1.44c.056-.49.181-3.316.332-3.457.398-.376 1.602-.4 2.349-1.146l-1.199-1.447c-1.021-2.57-2.554-3.94-4.847-5.942.917 2.362 2.461 4.54 3.803 6.772l-.746.998c-1.821-1.078-2.299-4.339-3.845-5.97-1.082-1.143-1.632-2.318-2.231-3.637-.984-.422-1.35-.66-1.991-1.391-1.184-1.353-3.464-3.585-5.488-4.085-.393-.097-2.597-3.028-3.568-3.864l-8.18-6.874c1.869 4.007 5.301 7.196 6.95 11.029-2.787-.78-4.673-3.792-6.281-5.715-1.989-2.384-4.598-5.624-8.416-6.267-2.042-1.087-3.323-1.49-5.81-1.577l-1.495 1.169-1.494-.149.154-1.75.818-.204.148-.493-1.114-.57-3.743-.006c-1.371-.181-2.108-.654-2.982-1.434l.74-.86c.994.324 1.929.444 2.989.577l-1.487-1.158 1.118-.843c2.011-.336 2.658.18 4.479.849l1.869-1.067 1.495.404 2.085-1.81z" fill="#8C8C8C"/><path d="M433.639 114.768l.173-1.421 1.204.267c.441 1.211.761 1.431.101 2.56l-1.515-.172.037-1.234z" fill="#D6D6D6"/><path d="M404.006 129.17l.859-.089 1.533 1.069-1.71 2.477c-1.12.221-1.831.186-2.97.134.009-1.517 1.198-2.353 2.288-3.591z" fill="#BCBCBC"/><path d="M396.648 128.019c.648.7.53 1.459.624 2.304.884.763 1.454 1.365 1.983 2.305l-1.825 1.13-3.179-2.061-.113-2.526 2.51-1.152z" fill="#C8C8C8"/><path d="M429.836 113.919l1.223 1.654 2.58-.805-.037 1.234 1.515.172c-2.189.993-4.26 2.662-6.541 3.376l-1.376-3.324c1.569-.643 1.863-1.137 2.636-2.307z" fill="#BCBCBC"/><path d="M444.35 129.747c.473.168.999.601 1.401.864-.809 1.164-1.151 1.571-2.735 2.209l-.748-.758-3.97 4.599-1.05-.138c-.726-1.081-.833-1.271-.748-2.479.771-.752 1.402-1.407 2.522-1.872l.82-.294c.766-.313 1.105-.575 1.997-.668 1.006-.104 1.76-.919 2.511-1.463z" fill="#C8C8C8"/><path d="M422.782 118.329l-.971-2.123c-.099-.546-.04-.758 0-1.237.193-2.348-.03-3.818 1.028-6.143l.91.179c-.017 1.05 1.046 2.967.698 3.311l-.861.95c1.438.983 2.382 1.528 2.27 3.199-.055.823-.541 1.636-.81 2.426l-.17.603-2.094-1.165z" fill="#D6D6D6"/><path d="M424.303 102.265l3.175 1.059-1.653 1.108.427.76.224.425c.518.973.9 1.774 1.904 2.524l-.034.441c.113 1.993 2.141 3.202 1.49 5.337-.773 1.17-1.067 1.664-2.636 2.307-.305-2.061.804-2.954-.916-4.701.012-2.203-.165-3.835-1.947-5.627-.648-.653-.124-2.734-.034-3.633zm-33.279 22.129c-.742-1.243-.733-1.461-.539-2.83l2.461-1.442c.643 1.687-.538 2.797 0 4.209l.958-.283c1.338-.373 2.509-.311 3.9-.224l2.242-1.219c1.454.758 1.806 1.179 2.487 2.368l-2.861.994-2.242-1.195-1.401 1.589-2.709.174-2.296-2.141z" fill="#C8C8C8"/><path d="M394.342 110.157c1.371.375 2.284.938 3.289 1.728l-1.959 2.305 2.505.411c.167.969.242 1.58 1.075 2.352l.617.546c-.056 1.854-.718 2.425-1.925 3.992l-2.009.348-1.223-1.039 1.508-1.424c-.176-.743-.308-1.381-.267-2.142.05-.911-.667-1.362-1.333-2.1-.833.409-1.124.564-2.13.665l-.566-1.033c.724-1.645 1.717-1.736 3.006-3.16l-.588-1.449z" fill="#C8C8C8"/><path d="M407.065 77.315l.641-.046c.193 1.136-.242 2.438-.774 3.503l-.413.71c-.563 1.125-.614 2.828.039 3.932l.355.544c.762 1.75-.116 2.447-1.333 3.807l.818 1.35c-.952 1.07-1.523 2.294-2.169 3.485l-1.216.988-1.472-.049-.599-.939c1.445-2.786 1.212-5.29 2.072-8.017.858-2.72 3.034-4.239 1.88-7.17l-.18-.37L406 78.77l1.065-1.455z" fill="#D6D6D6"/><path d="M399.622 108.144l3.039-.281c.206 1.306.264 2.673 1.019 3.87l.958-.001 1.371-1.575-.244-.638c-.247-.742-.254-1.127-.115-1.863l-.941-.598 1.315-.655c1.72.39 1.68.334 2.615 1.506l-.51 1.096c.97 1.098.964 2.994 1.684 4.321l.803 4.515-1.819 1.062c-2.258-.751-.683-1.303-1.425-2.696-.192-.359-1.328-1.073-1.722-1.392-.158-.783-.208-.473.089-1.24l.233-.538-1.442-.485-.81.774.742 1.237c-.733 1.471.372.798.441 1.837.016.24-.697 1.072-.639 1.247.281.859 1.36.817 1.539 2.304l-2.018 1.575-1.498-.181-.745-1.105 1.235-1.441c-1.72-1.664-.925-2.855-2.811-4.609.352-2.083-.373-3.928-.344-6.046z" fill="#C8C8C8"/><path d="M420.563 100.144c8.486-.224 15.533 1.727 21.705 6.149 7.576 5.429 11.417 12.965 11.557 20.861.071 4.008-1.462 7.576-4.161 10.971l-.118-2.328c.789-1.009 1.411-1.647 1.223-2.882l-1.028-.172-.107-.827 2.012-1.051.631-.301c.523-1.191.074-2.223-.265-3.407l-.768.285-.755-.459 1.495-.123c.262-1.326.68-1.712-.375-2.826l-1.494.926-.951-.399 1.485-3.677-1.655-.151c.739-1.202.561-1.527.295-2.795-.251-1.201-.412-2.184-1.272-3.233l-.661-.804c-.587-1.04-.58-1.423-1.725-2.234l-1.104.795-.904-.865.519-1.44c-.732-1.222-.767-1.394-2.247-2.074-2.044.591-2.156.542-3.346 2.074l-.765-.571.74-.581c.867-.834 1.237-1.542 1.2-2.593-2.323-1.638-3.951-1.996-6.963-2.254-1.42-.122-1.819-.714-2.823-1.454l-1.113.539.74 1.051-.378.883-2.934.014-.428-.759 1.653-1.108-3.175-1.06-.521.119c-.936-.643-1.646-1.015-2.812-1.375-.636.834-.724 1.005-1.869 1.49l-.669-1.103-2.572-.371c1.53-.449 3.101-.636 4.703-.88zm-72.947 9.723c1.26.761 2.453 1.605 3.983 2.018.848 1.249.887 1.418 2.488 2.062l1.507-.905 1.119 1.038.13 1.468 1.281-.206c.399-.625.748-1.579 1.539-1.911l1.252 1.911c-.5.998-.705 1.082-1.833 1.729l1.356 1.371.738-.507.538-.288 1.34 3.29 2.219-.581 1.155.974-1.099 1.511.714 1.216-1.055.504c.406 1.05.212 1.256 1.429 1.909l1.299-.405 1.317.642.904-.417.057 1.205-3.313.434c-.663 1.503-1.247 2.003-.509 3.523l.896-.265-.034-1.729 1.251-.479c.333 1.315.299 1.96-.149 3.255l1.27.271 1.113-1.03.216.288 1.287.498c1.494-1.238 1.274-2.556 2.616-3.795l1.338.128-2.251 2.593 1.286.631 1.501-.919 1.488 1.013c2.154-1.208 2.861-2.332 5.595-2.165-.611.687-1.297 1.177-2.101 1.731l1.34 1.033c1.869.387 3.518.791 5.255 1.455.862-.406.786-.481 1.868-.448 2.614 1.541 4.586 3.285 7.525 4.519l.186.945c-.852.693-.859.697-2.083.83-.515-.499-.754-.75-1.55-.978-5.287-1.517-9.804-5.12-15.557-6.095-1.814-.308-11.044.889-12.498 1.769l-.646.424c-1.726-.88-2.752-8.02-3.772-9.99-2.868-5.545-9.636-10.552-15.591-14.171l1.645-.904z" fill="#4F4F4F"/><path d="M422.782 118.329l2.094 1.165.205 1.783 1.723.691c-.124.804-.28 1.307-.793 2.017 1.276.565 1.427.827 2.948.746.399-1.682-.659-2.145-.373-3.85l2.473-1.28 1.415.639-.554 2.27-.227 1.475-.634.657 1.05.242c.095 1.095-.241 1.819-.672 2.846.477.545 1.029.968 1.618 1.44-.637 1.672-3.011 2.987-4.575 4.223-.928.734-1.892 1.214-3.019 1.738l-1.498-.733c1.327-1.314 2.293-1.948 2.612-3.617l2.242-.01 1.069-1.888-1.402-1.221.077-.397c.089-.525.099-1.024.1-1.552h-.871c-.213.916-.169 1.153.109 2.017-.953 1.077-1.982 1.89-3.031 2.881l-.908 1.105-1.122.33-.64-.859c.449-.955.918-1.531 1.772-2.304l.122-2.605c-.002-.737.081-1.15.396-1.829l-1.276-.518c-1.052.883-1.156 1.322-1.364 2.489l.892 1.022-.452.55c-1.596 2.007-1.581 4.239-4.307 5.651-2.677.171-3.967 1.744-6.314 1.289l-.039-1.236-.884.372-.294 1.113-2.184 1.039c-.962-.552-1.146-.489-1.541-1.412l-1.914.315c.652-.712 1.362-1.3 2.155-1.919l1.673-.006.57-1.322c.851.12 1.502.175 2.38.175l3.137-3.968a13.714 13.714 0 01-1.829-2.082l1.72-1.721 2.067.281.845 1.152-2.136 1.729 1.467.346c.673 1.553-.748 2.309-.748 4.163l2.077-1.88c-.017-.843.026-1.156.601-1.912l.485-.574c-.204-1.093-.576-1.298-1.51-2.159.35-.34 1.686-1.387 1.787-1.729.565-1.921-1.172-2.298.747-4.321h.922l-.074 2.016.945.741 1.482-1.029-.792-2.775z" fill="#BCBCBC"/><path d="M368.129 33.363l4.102.676c18.001 2.569 31.785 8.2 42.429 20.06 1.387 1.545 2.746 3.128 3.764 4.84 1.594 2.39 2.829 4.63 3.796 7.214 1.803 6.273 3.359 12.947-.128 19.082l-.993.146c.513 1.297.617 1.29-.082 2.518l-3.41-.106-1.202 1.045.786 2.018-.705.869-1.499-.867c-.533-2.625 3.615-3.76 4.805-6.247-.289-.971-.487-2.084-1.148-2.949-.595-.776-.295-2.257-.297-3.195-1.168-.83-2.002-1.421-2.612-2.593l1.262-1.152-1.703-10.37-.443-.334c-1.871-1.456-1.908-1.664-1.91-3.583l3.075-.621.603-.166c-.547-1.29-.402-1.754-2.002-2.407l-.638 1.187c-1.549-.961-2.16-1.877-2.936-3.252-.521-.925-1.333-1.213-2.355-1.812.08 1.375.077 2.834.522 4.17l1.747 6.044c-1.211-.826-2.953-2.654-3.514-3.833-.733-1.54-2.764-4.384-4.408-5.471l-1.021.57.002 2.017-.85.325-4.484-4.64-1.487 1.146c-.556-.675-1.313-1.11-1.875-1.723-.927-1.007-1.863-1.727-3.034-2.595l.044-.873 1.122.567.74-.561c-.512-1.68-.961-1.772-2.608-2.858l-1.044.84c-.353 1.386-.827 2.128-1.911 3.27l-.343.354-8.18-6.874c1.869 4.007 5.301 7.196 6.95 11.029-2.787-.78-4.673-3.792-6.281-5.715-1.989-2.384-4.598-5.624-8.416-6.267-2.042-1.087-3.323-1.49-5.81-1.577l-1.495 1.169-1.494-.149.154-1.75.818-.204.148-.493-1.114-.57-3.743-.006c-1.371-.181-2.108-.654-2.982-1.434l.74-.86c.994.324 1.929.444 2.989.577l-1.487-1.158 1.117-.843c2.012-.336 2.659.18 4.48.849l1.869-1.067 1.494.404 2.086-1.81z" fill="#787878"/><path d="M408.689 53.364c-1.197-.414-1.26-.844-1.921-1.685-3.718-.511-4.503-4.248-6.349-6.048l-2.107-.006c-.077-.48-.059-.676-.412-1.152-.864-1.164-2.237-1.94-3.832-2.293l-1.114.565c-1.25-1.036-3.176-1.354-4.772-2.148.929-.339.477-.196 1.625-.501l.89-.232c-.984-.928-1.888-1.167-3.359-1.415-1.408-.236-2.124-.564-3.295-1.194l-.438-.24-1.114.544c.516 1.184 1.423 1.227 1.865 2.527l1.801.354-.684 1.646c-2.461-1.482-4.2-3.478-7.099-4.435l-1.114.485c2.24 1.632 5.926 5.112 8.763 5.93l.618.116-.043.582-1.498.313-1.168-.892c-2.284-1.725-5.757-3.776-7.434-5.762-1.272-1.504-4.04-2.56-5.897-3.723l1.631-.66c18 2.568 31.784 8.198 42.428 20.059 1.387 1.545 2.746 3.128 3.764 4.84 1.595 2.39 2.829 4.63 3.797 7.214 1.803 6.273 3.358 12.947-.129 19.082l-.993.146c.513 1.297.617 1.29-.081 2.518l-3.411-.107-1.202 1.046.786 2.017-.704.87-1.499-.867c-.534-2.625 3.615-3.76 4.804-6.247-.289-.971-.486-2.084-1.148-2.949-.594-.776-.295-2.257-.297-3.195-1.167-.83-2.002-1.422-2.611-2.593l1.261-1.152-1.703-10.37-.443-.334c-1.87-1.456-1.907-1.664-1.91-3.583l3.075-.621.603-.166c-.547-1.29-.401-1.754-2.001-2.407l-.638 1.187c-1.55-.961-2.161-1.878-2.937-3.252-.521-.925-1.333-1.213-2.354-1.812z" fill="#656565"/></svg>