<svg width="284" height="95" fill="none" xmlns="http://www.w3.org/2000/svg"><path d="M35.873 58.956l1.868 3.001-.851 1.592c-1.555-.06-2.117-.34-3.37.454-1.02.646-1.749.755-3.064.847 1.334-2.246 3.39-4.008 5.417-5.893z" fill="#4F4F4F"/><path d="M246.364 72.1c.451-.869 1.086-1.607 1.723-2.4.344.444.655.868.919 1.346l.202.382 4.109-2.312c1.124-.765 1.538-.536 2.99-.569l2.057.793.48.153.012.768c-.01 1.639-.727 2.38-1.794 3.753l1.114.86.848-.032c1.284.005 1.369.258 2.453.57l1.487.246c-.871.148-1.296.177-2.192.016l-.723-.154-2.621 1.131-2.254-1.353c-.319-.559-.1-.218-.735-.99-1.099.564-1.587.727-2.99.592-1.12-.107-1.301-.51-1.868-1.167h-2.989l-.228-1.632z" fill="#C8C8C8"/><path d="M262.965 75.658l-1.488-.246c-1.083-.312-1.169-.565-2.452-.57l-.849.032-1.114-.86c1.067-1.373 1.784-2.114 1.794-3.753l-.012-.768c1.573.746 2.778 1.31 4.559 1.688 6.547 1.392 12.859 3.906 19.808 3.76l.738.514c-1.252.817-1.737 1.16-3.359 1.413l-.928.174c-3.039.519-10.938.567-13.64-.44-.957-.357-2.185-.487-3.057-.944z" fill="#BCBCBC"/><path d="M131.223.94c10.407-1.783 20.923-1.208 30.216 3.272 6.631 3.197 10.93 8.863 13.156 14.49l.892 2.136-.778.677-1.082-.505-.329-1.43-2.455-1.152c-1.342-.938-2.153-5.412-3.414-6.996-2.306-2.897-6.51-6.2-10.887-7.055l-1.121.841c-.606-.648-.985-1.076-1.868-1.516C146.565.226 139.871.99 132.345 2.274L131.223.94z" fill="#4F4F4F"/><path d="M170.843 18.428l2.454 1.152.33 1.43 1.082.505.778-.677c.397.325 1.665 1.597 2.095 1.718 2.126.598 7.333-.472 8.085 1.289a9.033 9.033 0 001.095 1.93c3.062 1.12 5.857 2.22 8.626 3.742 5.355 2.694 9.51 7.753 10.933 12.553.381 1.286.494 2.606.572 3.92-.99 1.817.98 3.938-.655 5.836-2.754-1.162-.482-5.457-2.234-7.484.266-3.145-1.99-5.096-4.326-7.49l.741-1.153-1.28-.929-1.862.93c1.061.499 1.247.606 1.844 1.44l-1.477.65-1.397-1.32c-.674-.524-.991-.71-1.94-.93l-.774-.153-.67-1.457c-2.596-2.035-5.899-3.94-9.528-4.186 1.538-1.634 3.652-.868 6.164-1.573-2.169-.497-4.425-.662-6.644-1.004-2.49-.385-7.307-.86-9.47.359l-.501.31-2.03 1.224-.463.302-.345-1.153c1.225-3.305.891-6.383.797-9.781z" fill="#656565"/><path d="M175.487 20.838c.397.325 1.665 1.598 2.095 1.718 2.125.598 7.332-.471 8.085 1.29a9.028 9.028 0 001.095 1.93l-11.164-.965-.889-3.296.778-.677zM35.873 58.956c3.293-2.66 6.221-4.94 10.655-6.409 5.5-1.822 14.701-1.974 20.216-.346l-2.14.547.839.304c1.08.35 1.685.38 2.825.358.811.777 1.017.677.972 1.73l1.909 2.836c1.609 2.757 6.243 8.128 6.552 10.918l.874.511.62.939 1.496.553c0 1.144-.65 1.802-1.74 2.593-3.854 2.796-13.602 4.51-15.783 8.062l.01-1.146-1.598-.712c-1.805.255-4.413.875-6.192.487l-.601-.201c-2.858 1.188-11.354 1.52-14.692 1.239-3.344-.281-7.56.264-10.969.455-6.72.378-13.872.547-20.55-.168-3.113-.334-5.81-1.58-8.576-2.678l.636-.364 23.356-4.7.01-.118c3.504-2.811 4.012-5.573 6.454-8.796 1.315-.092 2.044-.201 3.063-.847 1.254-.794 1.816-.514 3.37-.454l.852-1.592-1.868-3z" fill="#C8C8C8"/><path d="M35.873 58.956c3.293-2.66 6.221-4.94 10.655-6.409 5.5-1.822 14.701-1.974 20.216-.346l-2.14.547-1.606.831c1.254.662 2.355.447 3.858 1.134l-.557.625c-2.23-.558-2.24-.454-4.292.178l.084-.704c-.084-1.304-.357-1.533-1.578-2.29-1.448 1.129-1.833 1.198-3.736 1.602V52.88l-.905.199c-3.102.614 1.026-.146-2.084.089-3.023.226-3.256 2.76-6.39 3.273L40.16 62.78c.229.798.382 1.244 1.08 1.867l-2.025.146c-.59-.967-.932-1.347-.373-2.43l.986-1.266-.343-.055-1.744.916-1.868-3z" fill="#656565"/><path d="M36.89 63.55l1.298 2.152c.422.845.353 1.94.405 2.84l-1.246.372c-.356-1.2-.317-1.598-1.495-2.47-1.233 1.034-1.188 1.262-1.465 2.674l1.99 1.378c1.76-.161 2.478-1.377 4.333-1.698l.153.48c.197.572.45 1.082.744 1.626 4.087-1.181 8.541-6.007 10.741-8.853 1.364-1.764 3.701-3.326 5.519-4.844l1.233-.189c-.518 1.796-3.212 3.575-4.737 4.956-2.57 2.326-4.822 4.912-7.492 7.153-1.776 1.492-3.98 2.534-5.779 3.977-.086.069-1.377 1.144-1.375 1.2.026.516.498.96.747 1.44-2.498.627-3.025 1.055-4.924 2.53l.529-.051c1.44-.147 2.204-.36 3.52-.795 1.275-.422 2.485-.717 3.736-1.209l.345.53-.638.347c-1.678.933-2.689 1.416-3.29 2.968 1.975 0 2.774-.814 4.33-1.707.456.88.444.828 0 1.713 1.483.06 2.12-.03 3.422-.581l.083-1.303 1.727-.42c0 1.02-.237 1.048-.94 1.86 2.194.265 3.255.063 5.28-.617.685-.23 1.098-.307 1.841-.308l1.665 1.138c1.763-.768 1.941-1.009 4.02-.786l.41.642c-1.805.254-4.413.874-6.192.486l-.601-.201c-2.858 1.188-11.354 1.52-14.692 1.239-3.344-.28-7.56.265-10.969.456-6.72.377-13.872.547-20.55-.17-3.113-.333-5.81-1.579-8.576-2.676l.636-.364 23.356-4.701.01-.118c3.504-2.811 4.012-5.573 6.454-8.796 1.315-.092 2.044-.201 3.063-.847 1.254-.793 1.816-.513 3.37-.454z" fill="#656565"/><path d="M192.863 33.93l.67 1.457.774.152c.949.222 1.266.407 1.94.93l1.397 1.321 1.477-.65c-.597-.834-.783-.941-1.844-1.44l1.861-.93 1.281.93-.741 1.151c2.336 2.395 4.592 4.346 4.325 7.49 1.753 2.028-.519 6.324 2.235 7.485 1.635-1.898-.335-4.018.655-5.836l.094.4.746 7.554 2.996-1.536 1.106.462 2.128-.615.955-.932c3.374-.024 6.034.065 9.255.515 1.98.276 2.339.048 4.262.897.73.322 1.362.314 2.087.552l2.409 1.143c1.439.74 2.891 1.209 4.32 2.023l1.076.547c1.777.905 2.813 1.695 4.155 2.92l1.78 1.13.174.614 1.242 3.204c.575 1.412.894 2.16 2.401 3.097-.247 1.055-1.283 1.624-2.245 2.328l-.187 1.505.717.303.228 1.632h2.99c.566.657.747 1.06 1.867 1.167 1.403.135 1.891-.028 2.99-.592.635.772.416.432.735.99l-4.471 1.88c-.87.436-1.37.633-2.383.839l-1.354.271c-2.44.638-7.113 1.005-9.589.34-5.05-1.355-8.52-3.078-11.458-6.68l-1.754-1.102c-1.429 1.448-2.016 3.381-2.813 5.08-2.636 5.617-7.052 8.983-13.246 12.363l-.778-.139c-1.295-.166-2.062-.001-3.1.61l-1.354.878-2.056-.244c-4.854 3.03-10.12 2.493-15.999 2.068-4.592-.332-10.525-1.794-14.791-3.159l-.981-.295c-4.059-1.281-6.093-4.057-9.705-5.49-7.482 6.087-14.061 11.018-25.593 11.626-3 .158-6.528-.195-9.478-.535l-.626-.009c-.116-.472.049-1.044-.345-1.414-.211-.198-5.538.184-6.366-.027-.477-.123-1.419-.876-1.86-1.147l.74-.57c4.14.11 12.7-.776 16.066.618l1.236-.336-.564-1.615c1.667-.143 3.281.144 4.933.333l2.057-1.458c2.482.047 7.062-.948 9.096-2.054 1.073-.583.763-.253.961-1.256l-2.147.243c-2.059-1.87-5.215.873-8.464-.243.972-.936 4.3-2.441 5.97-2.262 1.511.163 1.392.663 2.997.245l-.747-.864.37-.861c1.965-.637 3.897-.988 5.975-1.344l.505-.676c-1.127-.066-1.868-.087-2.87-.542-.916-.414-.752-.733-.991-1.474l1.118-1.145 2.985-.866c1.559-.678 1.566-1.043 2.012-2.296 2.543-1.126 4.544-3.191 5.639-5.243 2.242-1.627 2.553-3.642 4.574-5.33l.332-.267-.226-1.554c1.511-.18 2.399-.76 3.59-1.443l.52-.303.778.297c-1.123 1.057-2.546 2.112-3.006 3.457l1.822.593c2.536-1.362 3.972-3.414 6.01-5.176l1.495.866 2.434-1.306-.192-1.188-1.868.167-1.36-.87c1.405-1.738 3.305-3.288 4.405-5.138.412-.692.604-1.071 1.439-1.528l.511.617c-1.494 1.318-1.718 2.33-2.084 4.032l.926.884c.51-.303 2.48-1.254 2.699-1.608.693-1.12-.249-1.255 1.234-2.258l.236-1.085c.883-2.31.587-4.559.517-6.964.377-1.676.718-2.753 2.221-4.052.686-.593 1.18-.873 1.509-1.643.316-.74.726-1.174 1.321-1.803l1.075-.813z" fill="#8C8C8C"/><path d="M199.392 84.674l.837-.041c1.932.295 2.544.693 4.742.568l.63-.042c-1.594.815-3.342 1.405-5.064 2.039-2.054.647-4.045 1.372-6.256 1.612l.165-1.255c1.251-1.102 2.112-1.072 3.92-1.431l1.026-1.45z" fill="#656565"/><path d="M182.303 60.197l-.175.441c-.647 1.563-1.349 2.401-2.786 3.582l-.54.453c-1.15.886-2.425 1.632-3.787 2.303-1.105.544-.955.855-1.659 1.571l-.739.57 1.113.571c2.467-.472 2.902-1.677 5.677-1.991-2.826 2.129-3.476 2.806-7.419 3.55-1.012-.35-1.3-.205-2.368-.098l-.547.85-1.696.005c1.767-1.41 3.921-2.855 5.383-4.447 1.392-1.515 3.182-2.45 4.769-3.805 1.211-1.033 1.042-1.11.947-2.465l3.827-1.09zm10.09 4.628l-.222-.785 1.732-.989c.157-.582.26-1.044.697-1.549.673-.78 1.545-1.504 1.545-2.465l-1.117-.259c-1.14.821-2.237 1.609-3.116 2.611l-.598.7-1.517.12 1.864-1.5c1.609-2.408 4.907-3.664 6.706-5.948l.398-.526 1.495.91 1.486-.432.015 2.593-1.871.002-2.613 3.167 1.113.57 2.203-1.1.521.768c-1.248.222-2.765.454-3.844 1.012-1.901.983-2.448 2.647-4.877 3.1z" fill="#787878"/><path d="M192.393 64.825c2.429-.453 2.976-2.117 4.877-3.1 1.079-.558 2.596-.79 3.844-1.012-.949 2.842-5.931 5.71-9.196 7.148l-1.747.657-1.69-.553 1.885-1.729c-1.929 0-3.474.573-4.884 1.639l-.541.43c-1.285.988-2.482 1.172-4.175 1.562-1.202.275-1.87.628-2.926 1.126-1.287.606-1.732.563-2.421 1.68 1.857.228 2.472.09 4.21-.448l.793-.235.781-.247.92-.24c2.474-.703 3.463-2.526 6.18-2.584v.907c-2.073 1.189-3.382 1.938-5.98 2.179l-.606.598c-1.503 1.393-8.412 2.146-8.949 3.104-.09.16-.072 1.419-.159 1.53-.419.536-1.624.057-2.435.086l-1.302-1.94c.5-.468.473-.666 1.277-.748 1.843-.189 2.657-.451 4.109-1.336-.734-.705-1.435-1.417-2.27-2.052 3.943-.744 4.594-1.422 7.419-3.55 2.112.256 3.83-.043 5.906-.372 1.499-1.392 2.75-2.14 4.858-2.936l.989.66 1.233-.224zm.47-30.895l.67 1.457.774.152c.949.222 1.266.407 1.94.93-.232 1.233-.398 2.463-.859 3.655-.266.69-.037 1.23.145 1.913-.91 1.721-1.893 3.395-2.449 5.201-.565 1.833-2.99 3.844-4.143 5.574-1.587 2.741-5.477 5.022-6.638 7.385l-3.827 1.09c.536-1.967 1.246-2.784 3.352-3.915l.495-.257-.714-1.25 2.209-.416 3.111-4.464-.945-.695.236-1.085c.883-2.31.587-4.559.517-6.964.377-1.676.718-2.753 2.221-4.052.686-.593 1.18-.873 1.509-1.643.316-.74.726-1.174 1.321-1.803l1.075-.813z" fill="#BCBCBC"/><path d="M192.863 33.93l.67 1.457.774.152c.949.222 1.266.407 1.94.93-.232 1.233-.398 2.463-.859 3.655-.266.69-.037 1.23.145 1.913-.91 1.721-1.893 3.395-2.449 5.201-.565 1.833-2.99 3.844-4.143 5.574l-.957-1.297c-.37-.882.051-2.651.709-3.413.537-.62.349-.985.349-1.744.472-.695.864-.971 1.73-1.351l.889-.38.37-1.437c.361-1.501 1.061-2.844 1.495-4.322l-.739-.858c.094-1.467-.061-1.99-.999-3.267l1.075-.813zm21.1 18.325l.955-.932c3.374-.024 6.034.065 9.255.515 1.98.276 2.339.048 4.262.897.73.322 1.362.314 2.087.552l2.409 1.143c1.439.74 2.891 1.209 4.32 2.023l1.076.547c1.777.905 2.813 1.695 4.155 2.92l1.78 1.13.174.614 1.242 3.204c.575 1.412.894 2.16 2.401 3.097-.247 1.055-1.283 1.624-2.245 2.328l-.187 1.506.717.302.228 1.632h2.99c.566.657.747 1.06 1.867 1.167 1.403.135 1.891-.028 2.99-.592.635.772.416.432.735.99l-4.471 1.88c-.87.436-1.37.633-2.383.839l-1.354.271c-2.44.638-7.113 1.005-9.589.34-5.05-1.355-8.52-3.078-11.458-6.679 1.134-1.299 1.009-1.608 1.025-3.122l-2.328-.545-.675.217c-1.772.554-2.98.768-4.874.828l-1.101.741-1.435.77-1.527-.421.118-1.588-1.038-.833a26.911 26.911 0 01-3.362 2.123l-2.243-.996.595-.17c1.954-.784 3.728-2.91 4.625-4.445l-1.483-.066-1.469 1.806-1.52-.333c-.911-1.084-1.881-2.024-2.989-2.992l-1.114 1.585c1.151.52 2.261.953 2.893 1.902.559.837.262.863-.106 1.695l-1.991-.009c-.572-.764-1.19-1.4-1.924-2.077l-1.495 1.472-2.989.227-.747 1.688-1.495.52c-1.429-.59-2.525-.577-4.091-.584l2.193-1.377c1.837-1.364 3.321-2.514 5.588-3.487l.42-.176c.378-.647.729-1.143 1.383-1.65.885-.688 1.634-1.117 2.109-2.052.504-.988.629-1.886 1.759-2.604l.532-.281.47-2.023 2.943-1.555c.767.425.316.238 1.388.5l1.999-2.382z" fill="#C8C8C8"/><path d="M217.966 70.068l-2.006-1.815c.892-.784 1.712-1.122 2.904-1.565l.451-.163c.807-1.415 1.458-2.158 2.989-3.163.865.387 1.455.649 2.071 1.277.67.681.035.339 1.293.716l.747-1.261 1.494.585 2.243-1.894.74.57c-1.306 1.344-1.907 2.732-2.626 4.304l-1.107.325-.215.843-2.328-.545-.675.217c-1.772.554-2.98.768-4.874.828l-1.101.741z" fill="#BCBCBC"/><path d="M228.266 67.66l1.897.769 1.483-1.61 1.495 1.14 1.154-1.434c-.79-1.067-.74-1.044-2.245-1.44l.415-1.153 1.423-.545 1.863 1.985-.729 1.44.547.843 3.55-3.153.986.006c-.728 1.701-2.655 2.82-4.291 4.033l.693.648c1.336-.627 2.518-1.387 3.734-2.142 1.212.658 1.967.999 2.608 2.07l-.74.571-1.503-1.147-2.227 1.729c2.21.804 2.422-.252 4.335 1.44l-.605 1.184-1.187.256 1.193 1.153 3.532-2.504.717.302.228 1.632h2.99c.566.657.747 1.06 1.867 1.167 1.403.135 1.891-.028 2.99-.592.635.772.416.432.735.99l-4.471 1.88c-.87.436-1.37.633-2.383.839l-1.354.271c-2.44.638-7.113 1.005-9.589.34-5.05-1.355-8.52-3.078-11.458-6.68 1.134-1.298 1.009-1.607 1.025-3.12l.215-.844 1.107-.324z" fill="#ADADAD"/><path d="M105.817 20.495l4.622-8.014c4.212-5.946 12.556-9.813 20.784-11.541l1.121 1.334C139.871.99 146.565.226 153.553 3.702c.883.44 1.262.869 1.868 1.517l1.121-.842c4.377.856 8.581 4.159 10.887 7.056 1.261 1.583 2.072 6.058 3.414 6.995.094 3.398.428 6.476-.797 9.781l.345 1.153.463-.302 2.03-1.224.501-.31c2.163-1.22 6.98-.743 9.47-.358 2.219.342 4.475.506 6.644 1.003-2.512.705-4.626-.06-6.164 1.573 3.629.246 6.932 2.151 9.528 4.186l-1.075.813c-.595.629-1.005 1.064-1.321 1.803-.329.77-.823 1.05-1.509 1.644-1.503 1.298-1.844 2.375-2.222 4.051.071 2.405.367 4.655-.516 6.964l-.236 1.085c-1.483 1.003-.541 1.139-1.234 2.258-.219.355-2.189 1.305-2.699 1.609l-.926-.884c.366-1.703.59-2.715 2.084-4.033l-.511-.616c-.835.456-1.027.835-1.439 1.527-1.1 1.85-3 3.4-4.405 5.139l1.36.87 1.868-.168.192 1.188-2.434 1.306-1.495-.865c-2.038 1.76-3.474 3.813-6.01 5.176l-1.822-.593c.46-1.346 1.883-2.401 3.006-3.457l-.778-.298-.52.303c-1.191.683-2.079 1.263-3.59 1.443l.226 1.554-.332.266c-2.021 1.69-2.332 3.704-4.574 5.331-1.095 2.052-3.096 4.117-5.639 5.243-.446 1.253-.453 1.618-2.012 2.296l-2.985.866-1.118 1.145c.239.74.075 1.06.991 1.475 1.002.454 1.743.475 2.87.541l-.505.676c-2.078.356-4.01.707-5.975 1.344l-.371.861.748.864c-1.605.419-1.486-.082-2.997-.244-1.67-.18-4.998 1.325-5.97 2.261 3.249 1.116 6.405-1.626 8.464.243l2.147-.243c-.198 1.003.112.673-.961 1.256-2.034 1.106-6.614 2.101-9.096 2.055l-2.057 1.457c-1.652-.189-3.266-.476-4.933-.333l.564 1.615-1.236.337c-3.366-1.395-11.926-.509-16.066-.62l-.74.571c.441.271 1.383 1.024 1.86 1.147.828.21 6.155-.17 6.365.028.395.37.23.942.346 1.413l-5.815-.732c-9.322-1.285-12.305-4.858-17.304-10.424-1.719 1.34-4.052 3.118-6.281 3.959-1.265.476-1.848.034-3.104.89-1.078.736-2.09 1.617-3.374 2.147-2.94 1.214-10.328 1.221-13.387.348l-1.866-.581c-5.36-1.712-7.157-3.654-9.346-7.655C65.348 78 75.097 76.286 78.95 73.49c1.091-.79 1.74-1.448 1.74-2.593l-1.494-.553-.621-.938-.874-.511c-.31-2.79-4.943-8.162-6.552-10.918L69.24 55.14c.045-1.053-.161-.953-.972-1.73-1.14.022-1.745-.009-2.825-.359l-.84-.304 2.14-.546 1.086-.502c-.026-4.112-.173-7.935.917-11.988 1.15-3.114 2.203-5.407 4.898-7.922l4.284-4.53c3.415-2.948 10.363-6.183 15.467-6.686 3.996-.394 8.35.035 12.422-.08z" fill="#C8C8C8"/><path d="M174.84 48.376l1.428-.428c.234 1.385.046 2-.6 3.308l-1.478.428c-.287-1.429-.083-1.977.65-3.308zm-19.53 6.337l1.985-.25c.497 1.139.09 1.464-.372 2.555l-1.887.561-.668-.563.942-2.303zm-52.208-.577l1.714-.096c.626 1.439.395 1.593-.204 2.978l-1.824.14c-.622-1.306-.199-1.717.314-3.022zm36.587-4.609c.514-.034 1.389.2 1.903.291.061.649.147.447-.148.98l-3.067 6.22-1.686.249c-.079-1.152-.186-2.119.543-3.165 1.009-1.447 1.598-3.06 2.455-4.575z" fill="#D6D6D6"/><path d="M149.853 73.916c.544-1.177 1.032-1.934 2.22-2.81.745-.548 1.175-.866 1.723-1.57 1.7-2.18 3.792-3.731 6.108-5.525l.74.785-.74.858 2.047 1.692c-1.095 2.052-3.096 4.117-5.639 5.243-1.869 1.108-2.808 2.108-5.264 2.005l-1.195-.678z" fill="#BCBCBC"/><path d="M183.335 29.744c3.629.246 6.932 2.15 9.528 4.186l-1.075.813c-.595.629-1.005 1.063-1.321 1.803-.329.77-.823 1.05-1.509 1.643-1.503 1.3-1.844 2.376-2.222 4.052l-2.17-1.258c-.278-.691-.303-1-.162-1.743.262-1.376-1.038-1.302-1.333-2.383-.469-1.714.645-2.993-.748-4.609.008-1.403-.237-1.52 1.012-2.504z" fill="#D6D6D6"/><path d="M106.528 69.72l3.311.552c.264-.908.088-1.231 1.071-1.816.931-.554 1.752-.957 2.037-1.84.35-1.087 1.088-1.892 2.119-2.655l.74.835-.74 2.028 1.122.753 1.127-.477.37-1.15 1.118-.284c1.137 1.32-.048 2.741 1.868 3.061.785-1.493.876-1.597 2.616-2.485l.659.858-.308.454c-.79 1.188-1.316 1.91-1.116 3.292-.826 1.022-.752 1.35-.786 2.575-1.504.722-2.694.98-4.427 1.235l-1.998-1.677-1.366-.039-2.615 1.934c-1.314-.343-1.637-.216-2.422-1.147l1.674-.31-1.012-1.707c-1.908-.784-1.554.158-3.471.484-.282-1.083-.035-1.41.429-2.474z" fill="#BCBCBC"/><path d="M105.817 20.495l4.622-8.014c4.213-5.946 12.556-9.813 20.784-11.541l1.122 1.334c-5.912 1.324-12.623 4.153-16.142 8.169 7.986-3.167 19.755-9.825 29.328-7.616l7.64 2.336c-1.892.567-5.072-.597-7.07-1.101-5.699-1.441-11.401-.403-16.499 1.662-5.945 2.41-11.136 6.079-13.994 10.85l-.38.622-.323.642-1.927 4.033.967.72c1.652-1.227 2.411-2.637 3.364-4.216l.929-.14.768 1.044-.388.374c-1.032 1.013-1.736 1.862-2.366 3.05l-1.789 2.725-.929-.279.386-1.261-1.095-.695c-1.564.837-1.373.963-1.787 2.423.787.844 1.176.974 2.336 1.44l.198.731-.647.298c-.8.407-1.098.71-1.595 1.317 0-1.114-.192-.629.451-1.48l-1.198-1.377-1.09-.044a20.79 20.79 0 01-2.766-.299c.511 1.569.499 1.6 2.154 2.583l-.548.577-1.721-.67c-.513 1.219-.157 1.747.227 2.974-1.026-.556-1.351-.593-1.894-1.498-.4-.666-.84-1.173-1.462-1.735-2.226-.328-4.347-.585-6.614-.64l.445-.383c.621-.554.406-.317.808-.982-4.341-.07-8.094.994-12.01 2.357l-.361.78 2.413.379c-1.427.809-2.798 1.004-4.484 1.293l-1.7 1.583.491 1.015c1.567.076 2.905-.78 4.197-1.382l.28.655-2.057 2.593c-1.74-.495-2.136-.372-3.9-.114-.035-.355-.438-.728-.675-1.033-.834-.16-1.466-.35-2.252-.64l-.847-.324-1.036 1.137-.719.04c-1.293.16-2.18.675-3.239 1.225.498 1.69 2.013 1.65 1.364 3.45-.697 0-1.192-.062-1.865-.173L70.12 41.75l-1.375-2.037c1.15-3.114 2.203-5.407 4.898-7.922l4.284-4.53c3.415-2.948 10.363-6.183 15.467-6.686 3.996-.394 8.35.035 12.422-.08z" fill="#656565"/><path d="M77.218 33.589l.846.324c.787.29 1.419.48 2.253.64.237.305.64.678.675 1.033l1.625 2.3c1.643-.664 3.19-1.284 4.966-1.708l-.632.609c-.676.657-1.72 1.642-2.05 2.427l2.775.362.893.979.254.69c.379 1.158-.26 2.291-.693 3.396-.239.608-.618.91-1.111 1.395-1.696 1.665-1.898 3.474-2.337 5.508l.492.776c3.784-1.97 4.042-7.835 7.53-9.994.817 4.103-5.246 9.51-6.72 13.54l1.058.57c1.987-1.439 3.245-3.112 4.858-4.77l.595-.534c1.22-1.135 1.848-3.058 2.507-4.438l1.119-.047c-.554 1.963-.481 2.196-2.461 3.457l.979 1.152-1.701 1.152.457 1.38c-.807.538-1.248.763-2.298.925.046 1.442.057 2.777.557 4.173l2.034-.576.383-.772c1.294-2.526 3.518-4.684 4.956-7.146l-.89-1.152 1.106-1.542 1.456.101c.658 2.29-2.23 5.915-2.82 8.48-1.182.756-2.332 1.557-3.643 2.179l-.677 1.44.802 1.062 1.438.21 2.82-2.675.761-.037-.34.501c-.4.643-.549 1.162-.7 1.857l-1.956 1.274 2.242 2.211 1.464-.369.206-1.523 1.692-.446 1.304.816c-.452 1.164-.831 1.545-2.055 2.305 1.049.737 2.031 1.446 2.923 2.305l-1.758 1.729.707.858c1.128-.49 2.009-1.07 2.99-1.714.791.9.66.411.429 1.458-.464 1.064-.711 1.392-.429 2.474 1.917-.326 1.563-1.268 3.471-.484l1.013 1.707-1.675.31c.785.931 1.108.804 2.422 1.147l2.615-1.934 1.366.04 1.998 1.676c1.733-.254 2.923-.513 4.428-1.235 1.443-.406 3.762-.782 4.673-1.692.761-.762.443-.472 1.368-1.171l-.716 1.152.709 1.382c-1.122.247-1.831.298-2.989.188l-1.495 1.864-2.242-.488-1.063 1.087 1.063.987 3.217-.048.52-1.316 1.868-.54-.374 1.41 1.495.294c.968-.972 1.43-1.62 1.943-2.803.401-.924.777-.896 1.793-1.405l.869.253c-1.491 1.364-1.628 1.688-2.011 3.457l1.89.269.489-.75c.707-1.046 1.684-1.813 2.751-2.642l1.587-.515 1.151.547.794-.165 5.185-.772.74.57c-.356.342-1.337 1.07-1.497 1.44-.338.781.577 1.701-.45 2.228-.982.503-1.719 1.159-2.616 1.74 3.495-.847 7.023-1.845 9.463-4.066l1.196.678c2.456.103 3.395-.897 5.264-2.005-.446 1.253-.453 1.618-2.012 2.296l-2.985.866-1.118 1.145c.239.74.075 1.06.991 1.474 1.002.455 1.743.476 2.87.542l-.505.676c-2.078.356-4.01.707-5.975 1.344l-.37.86.747.865c-1.605.418-1.486-.082-2.997-.245-1.67-.18-4.998 1.326-5.97 2.262 3.249 1.116 6.405-1.626 8.464.243l2.147-.243c-.198 1.003.112.673-.961 1.256-2.034 1.106-6.614 2.101-9.096 2.054l-2.057 1.458c-1.652-.189-3.266-.476-4.933-.333l.564 1.615-1.236.336c-3.366-1.394-11.926-.508-16.066-.618l-.74.57c.441.271 1.383 1.024 1.86 1.147.828.21 6.155-.17 6.365.027.395.37.23.942.346 1.414l-5.815-.733c-9.322-1.284-12.305-4.857-17.304-10.423-1.719 1.34-4.052 3.118-6.281 3.959-1.265.476-1.848.034-3.104.89-1.078.736-2.09 1.617-3.374 2.147-2.94 1.214-10.328 1.221-13.387.348l-1.866-.581c-5.36-1.712-7.157-3.655-9.346-7.655C65.348 78 75.097 76.286 78.95 73.49c1.091-.79 1.74-1.449 1.74-2.593l-1.494-.553-.621-.939-.874-.51c-.31-2.791-4.943-8.162-6.552-10.918L69.24 55.14c.045-1.054-.161-.953-.972-1.73-1.14.022-1.745-.009-2.825-.359l-.84-.304 2.14-.546 1.086-.502c-.026-4.112-.173-7.935.917-11.988l1.375 2.037 1.602-2.481c.673.111 1.168.174 1.864.174.65-1.801-.865-1.76-1.363-3.451 1.058-.55 1.945-1.066 3.24-1.225l.718-.04 1.036-1.137z" fill="#787878"/><path d="M78.335 45.494c1.53.071 1.897.451 3.102 1.147l-.547 2.31c-.534.31-1.068.415-1.694.583l-.861-4.04zm-9.095 9.647l.938-.181c1.06-.21 2.037-.5 3.047-.823l.747.864c-.743 1.885-.658 1.964-2.823 2.976L69.24 55.14zm13.377-17.254c1.644-.665 3.19-1.284 4.966-1.709l-.632.609c-.676.657-1.72 1.642-2.05 2.427l-.702.547c-1.12.14-.8.013-1.596.36-1.65.72-2.244.887-4.155.77l-.115-1.158c1.335-.747 2.816-1.277 4.284-1.846z" fill="#656565"/><path d="M84.9 39.214l2.776.363.893.978c-.587.904-1.3 1.842-1.617 2.827l-.45 1.248c-.562 1.017-1.856 1.903-3.196 2.215-1.044-1.177.627-2.755.383-4.52l.737-.618-.227-1.946.702-.547z" fill="#D6D6D6"/><path d="M135.495 72.91l1.587-.516 1.151.547.794-.165 5.185-.772.74.57c-.356.342-1.337 1.07-1.497 1.44-.338.781.577 1.702-.45 2.228-.982.503-1.719 1.159-2.616 1.74-1.741-.044-3.721.146-5.114 1.025l-.717.482c-2.568-.513-3.727-.638-6.04.367-2.704-.198-2.625-.2-4.39-1.798 1.504-.148 2.958-.295 4.476-.196 1.774.117 1.912-.636 3.377-.828 2.682-.351 2.249.597 4.758-.88-2.116-1.52-.808-1.332-1.244-3.245z" fill="#BCBCBC"/><path d="M147.452 84.917l2.147-.243c-.198 1.003.112.673-.961 1.256-2.034 1.106-6.614 2.101-9.096 2.054l-2.057 1.458c-1.652-.189-3.266-.476-4.933-.333-2.564.027-5.073-.335-7.59.187-1.033.214-1.472.268-2.517.055-1.311-.268-.722-.259-1.922-.154-4.074.354-8.795-1.247-12.64-2.225l2.7-.877c2.066.517 4.105.696 6.268.813l9.054.684c3.745.098 6.821.571 10.529-.155l11.018-2.52z" fill="#C8C8C8"/><path d="M109.244 81.088c-.996-.379-1.664-.48-2.756-.47-1.61.012-2.072-.463-3.371-1.13l-1.129.571-1.113-.57c.381-.468.559-.742 1.113-1.145 3.187-2.321 4.114.782 6.727 1.26.68.125 2.23-.139 2.989-.186l-1.829-1.082.338-.798c2.775-.26 3.092-.044 5.585.992l-.732 1.665 1.868.853.717-.29c.911-.344 1.663-.483 2.647-.626l.535.302c1.895.799 5.622.678 7.685.372 3.335 1.093 6.221-1.34 9.341.416l.434-.276c1.346-.844 2.438-1.357 4.051-1.846l1.113.677c-.69 1.725-2.906 2.057-4.85 3l-.981-.267c-1.847-.466-4.121.129-6.046.264-3.069.214-6.254.186-9.338.176-1.5-.005-.886-.454-1.944-.785-.317-.098-2.037.168-2.485.204l.616.674.964.094c1.301.147 1.682.599 2.773 1.057l1.727.48.358.861-1.712.683c-1.415-.602-1.479-.787-2.241-1.904-2.479.877-2.006 1.957-5.402 1.187-1.534-.349-2.77-.172-4.313.043l-1.495-1.02 1.805-1.003-1.688-.575.269-.808c2.556-.13 2.905.465 4.766 1.726.762.518 1.354.274 2.334.234l-.013-.78c-1.457-1.024-2.67-1.873-4.484-2.491l-1.834.764-.999-.503z" fill="#9C9C9C"/></svg>