<svg width="114" height="35" fill="none" xmlns="http://www.w3.org/2000/svg"><path d="M27.143 4.258C32.048 1.74 36.28-.879 42.629.285c5.538 1.015 10.24 4.589 12.919 8.272.926 1.273 1.41 2.343 1.432 3.822 3.578.513 5.827-.733 9.486.447.892.287 1.628.384 2.574.506 1.92.25 3.771.775 5.223 1.81l-.316.522c-.56.872-.734.834-1.941 1.172l-.484.889 1.541.593-.597 1.75-.845-.305c-2.232-.614-3.997-2.062-6.321-2.338-1.253-.149-2.13-.377-3.317-.714l.555-.73-.267-.566c-3.107.532-4.709 2.408-6.42 4.321-.455-.895-.843-1.626-1.005-2.588l-.07-.612-.601-.363c-.422 1.048-.474 1.233-1.533 1.949l-2.136-.276c.752-.925.96-1.745 1.272-2.794-.556-.772-.765-1.089-.691-2.005l.105-.668-1.748-1.188c-2.058-.029-3.21-.164-4.919-1.098l-.413-.237c1.33-.302 2.079-.542 3.477-.307l.816.189 2.312-2.577-.385-.715c-1.908 1.091-2.015 1.326-4.494 1.297.738-.512.466-.354 1.192-.753l.47-.253c-1.727-.647-5.544-.92-7.386-.42l-.566.218-1.892-1.283c1.66-1.111 1.946-1.362 4.199-1.666l.176-.71c-1.602.14-3.455.082-4.997.427-2.402.538-6.806.959-9.324.96l-.567-.005z" fill="#9C9C9C"/><path d="M27.143 4.258l.567.005c2.517-.001 6.922-.422 9.324-.96 1.541-.345 3.395-.287 4.997-.427l-.177.71c-2.252.304-2.539.555-4.199 1.666l1.892 1.283.567-.218c1.842-.5 5.658-.227 7.385.42l-.47.253c-.725.399-.454.241-1.19.753 2.478.029 2.585-.206 4.493-1.297l.385.716-2.312 2.576-.816-.189c-1.398-.235-2.147.005-3.478.307l.414.237c1.708.934 2.86 1.07 4.92 1.098l1.746 1.188-.105.668c-.073.916.136 1.232.692 2.005-.311 1.05-.52 1.869-1.272 2.794l2.136.276c1.059-.715 1.11-.9 1.533-1.95l.602.364.07.612c.16.962.55 1.693 1.005 2.588l-1.276.661 1.147.885c-3.575.01-6.007.561-9.243 1.2-1.87.369-3.436-.618-5 .588 2.681 1.318 5.945-.016 8.606 1.159l-.654.139c-2.816.585-5.58.717-8.34 1.38l-1.93.297c-1.514.28-1.92 1.065-2.825 1.975l-2.172.522 1.527.99c-3.418 2.02-5.582 3.373-9.898 4.075l-2.809.048-.735-.242c-1.91-.609-9.713-.631-11.607-.003-1.567.52-3.067.1-4.653.59-1.12.348-1.83.243-3.032.18C.84 32.168.38 30.947 0 28.415c1.343-2.267 5.008-3.866 7.915-4.736l.824-.236c1.68-.49 3.367-.553 5.003-.961 1.636-.41 2.552-.509 4.303-.513.991-.002 1.078-.206 1.86-.64l-1.431-1.823c-.048-2.476-.514-5.388 1.147-7.592l.338-.425c1.848-3.01 3.495-5.301 7.184-7.23z" fill="#D6D6D6"/><path d="M36.54 22.752l3.774.147c-1.184.71-2.444.867-3.867 1.171-1.553-.027-3.252.126-4.585-.567l4.678-.751z" fill="#C8C8C8"/><path d="M26.956 32.124l.7-.058c1.155-.259 1.453-.492 2.036-1.276-2.353-.125-5.86.21-7.785-.76 1.93-.199 4.482-.25 6.224-.927l2.942-1.017.548.453-.263 1.279c1.507-.178 1.679-.456 2.807-1.276l1.527.99c-3.418 2.02-5.582 3.373-9.898 4.075l1.162-1.483z" fill="#8C8C8C"/><path d="M27.143 4.258l.567.005c2.517-.001 6.922-.422 9.324-.96 1.541-.345 3.395-.287 4.997-.427l-.177.71c-2.252.304-2.539.555-4.199 1.666l1.892 1.283.567-.218c1.842-.5 5.658-.227 7.385.42l-.47.253c-.725.399-.454.241-1.19.753 2.478.029 2.584-.206 4.493-1.297l.385.716-2.312 2.576-.816-.189c-1.398-.235-2.147.005-3.478.307-2.56.057-7.752.616-9.956-.15-1.008.194-1.05.35-1.76.892 3.018 1.86 6.004-.262 9.07 1.781-3.069 1.407-6.869-.238-10.77 1.782 2.1.108 4.058.14 6.156.005l.763.588c-2.578 1.342-5.549-.085-8.081 1.159l-1.54-.849-1.148.879.28.438 1.637 3.177 1.349.264-.193 1.46-1.16.3-.38.9.762.588c-.629.321-1.05.378-1.297.942l-1.007 2.033.763.885c-1.478 1.14-1.823.884-3.844.884l-.763-.587 1.148-.588v-.606l-.652.132c-1.862.361-2.824.544-4.736.168-.638-1.096-1.121-1.48-.774-2.675-1.207.002-3.102-.181-4.244.005-2.275.372-2.373 1.773-5.393 1.782l-.462.375c-.93.743-1.63 1.488-3 1.7-.767 1.133-1.75 2.165-1.438 3.487 1.276.085 2.264-.018 3.505-.19 1.708-.236 2.803-.159 4.49.104l.002 1.057 15.518.146-1.162 1.483-2.809.048-.735-.242c-1.91-.609-9.713-.631-11.607-.003-1.567.52-3.067.1-4.653.59-1.12.348-1.83.243-3.032.18C.84 32.168.38 30.947 0 28.415c1.343-2.267 5.008-3.866 7.915-4.736l.824-.236c1.68-.49 3.367-.553 5.003-.961 1.636-.41 2.552-.509 4.303-.513.991-.002 1.078-.206 1.86-.64l-1.431-1.823c-.048-2.476-.514-5.388 1.147-7.592l.338-.425c1.848-3.01 3.495-5.301 7.184-7.23zm45.323 15.809l.597-1.75-1.54-.593.483-.888c1.207-.338 1.38-.3 1.941-1.172l.316-.521c1.785.966 3.632 2.503 5.958 1.987l1.341-.471c1.551-.56 2.52-.469 4.183-.345 1.174.087.482.067 1.837-.033 2.004-.146 3.54.433 5.081 1.385 1.148.709 1.939 1.689 2.722 2.633l3.635 2.004-.024.058c3.749.777 6.233 1.82 9.342 3.592 2.045 1.174 4.068 2.238 5.409 3.946l-.012 2.08c-.589.343-1.11.782-1.78 1.03-1.549.579-7.577.232-9.542.294-19.867.618-39.87 1.498-59.723.345-2-.116-3.636-.527-5.07-1.676-.865-.694-1.408-1.58-1.928-2.44l-1.527-.99 2.172-.522c.906-.91 1.311-1.695 2.824-1.975l1.93-.298c2.76-.662 5.525-.794 8.342-1.38l.653-.139c-2.661-1.175-5.925.16-8.606-1.159 1.564-1.205 3.13-.219 5-.587 3.236-.64 5.669-1.19 9.243-1.2l-1.147-.885 1.276-.661c1.71-1.913 3.312-3.789 6.419-4.32l.267.564-.555.73c1.187.338 2.064.566 3.317.715 2.324.276 4.089 1.724 6.32 2.338l.846.304z" fill="#C8C8C8"/><path d="M64.862 29.803c1.67-.453 2.274-.871 3.984-.2l.674.343c1.234.513 2.68.414 4.047.423l-.049.805c-1.857.133-3.083-.007-4.88-.404-1.03-.228-1.818.183-2.817.442l-.96-1.409zm9.115-6.14c1.458.104 2.557.085 3.693.891l-.763.886c-3.461-1.069-2.29.758-3.852.593-.121-.013-.963-.67-1.155-.73-.44-.14-1.996.01-2.55.014l-3.385 1.046-.613.235-.498-1.153c2.863-1.513 5.984-.334 9.123-1.782z" fill="#ADADAD"/><path d="M64.43 28.855c2.417-.396 4.612-.885 7.084-.51l.64-.409c1.058-.594 1.762-.657 3.014-.834.974.654 1.027.74 1.37 1.701l-1.18-.092-1.791 1.657c-1.366-.008-2.813.09-4.046-.423l-.675-.343c-1.71-.67-2.313-.252-3.984.2l-.433-.947z" fill="#BCBCBC"/><path d="M72.466 20.067l.597-1.75-1.54-.593.483-.888c1.207-.338 1.38-.3 1.941-1.172l.316-.521c1.785.966 3.632 2.503 5.957 1.987l1.342-.471c1.551-.56 2.52-.469 4.183-.345 1.174.087.482.067 1.837-.033 2.004-.146 3.54.433 5.081 1.385 1.148.709 1.939 1.689 2.722 2.633.325 1.321.524 2.73 1.255 3.958l-.86.718-.876-.075c-1.08-.067-1.92.01-2.976.148l-2.056-1.424.027-.988-4.045-.648.297-.905c1.508.372 1.442.415 2.873-.09-.333-.237-.667-.52-1.09-.672-1.212-.439-3.67-.439-4.894-.023-1.553.528-3.008 1.107-4.627 1.544-1.325.357-4.613-1.276-5.947-1.775z" fill="#8C8C8C"/><path d="M50.085 24.229c1.751-.505 3.276-.392 4.937-.827 1.435-.376 2.675-.34 4.167-.327l.763.588c-1.726.884-2.667.116-3.85 1.485.73.393.969.725 1.936.61l1.151-.307.763.884-.763.898.763.884c-1.476 1.139-1.827.888-3.844.897l.763.885c-.416 1.293-.516 1.262-1.918 2.067-2.879-.004-5.372.14-8.089-.588-1.658-.445-4.663-.72-6.141-.128l-.33.775-2.465-1.53.074-.599.35-.871-2.015-1.005c.906-.91 1.311-1.695 2.824-1.975l1.93-.298c2.76-.662 5.525-.794 8.341-1.38l.653-.139z" fill="#BCBCBC"/><path d="M85.15 24.545l4.233.824c-.236 1.212-.182 1.876.296 3.046l3.405.005-2.303-1.194.396-.735c2.547-.198 2.726-.425 4.9.782 1.3.17 1.828.212 3.103-.128 2.275-.605 5.205-.08 7.528.28l.624.102v-.306c-1.664-1.19-2.938-1.954-5.235-2.196-.927-.097-1.599-.072-2.414-.49-.736-.377-.598-1.52-.687-2.174 3.749.777 6.233 1.82 9.342 3.592 2.045 1.175 4.068 2.238 5.409 3.946l-.012 2.08c-.589.343-1.11.782-1.78 1.03-1.549.579-7.577.233-9.542.294-19.867.618-39.87 1.498-59.723.345-2-.116-3.636-.527-5.07-1.676-.865-.694-1.408-1.58-1.928-2.44l-1.527-.99 2.172-.522 2.014 1.005-.349.871-.074.6 2.464 1.529c.762.28.7.288 1.676.47 3.675.69 37.23.525 38.698-.22l-.77-.891a28.71 28.71 0 01-4.038-.462c.618-.927.668-1.08.58-2.119-.343-.962-.396-1.047-1.37-1.7-1.252.176-1.956.24-3.015.833l-.639.41c-2.472-.376-4.667.113-7.084.509-1.33-.149-1.713-.438-2.774-1.034l.615-.588c3.445.169 6.21.058 9.584-.671l.865-.193c2.111-.34 3.88-.456 5.703-1.462 2.233-1.232 4.269-.001 6.727-.362z" fill="#ADADAD"/></svg>