<svg width="61" height="61" fill="none" xmlns="http://www.w3.org/2000/svg"><path fill-rule="evenodd" clip-rule="evenodd" d="M41.281 20.01l-.015-1.498a2.667 2.667 0 012.11-2.634l11.926-2.545a4.47 4.47 0 01-1.317 3.918h2.2l.139.014c.115 2.33-.822 3.669-3.228 4.38l.006.002c.393.108.914.252 1.043.676.446 1.465-.688 2.7-2.084 3.111l.006.026c1.272 1.083-.08 3.015-1.468 3.316-.28.06-.571.08-.86.1-.115.008-.23.016-.343.026.386 1.41-.349 2.843-1.885 3.179-.365.08-.758.087-1.138.093a39.2 39.2 0 00-.193.004c-.048.077-.076.152-.106.228a2.169 2.169 0 01-.057.14c-.436.93-1.346 1.432-2.364 1.573a1.742 1.742 0 01-.212.014c-.158.003-.26.004-.381.18-1.397 2.002-4.23 2.995-6.541 3.805l-.429.15 4.88 4.725c.563.676-.263 1.049-.86 1.319a7.524 7.524 0 00-.264.123l-1.37.662c-.74.336-.99.388-1.777.235l-1.147-.224c-.318 1.326-2.628 3.558-3.89 3.957l-.326-.135c-1.366-.689-3.08-2.48-3.513-3.835l-.012-.037c-1.877.55-2.006.49-3.593-.269l-.11-.053-1.11-.544c-1.252-.66-.855-1.034-.13-1.72l.099-.093 4.25-4.113-1.368-.456c-1.847-.683-4.57-1.877-5.565-3.624l-.727-.063c-1.225-.2-1.624-.763-2.156-1.513-.086-.12-.175-.246-.272-.376l-.218-.015-.014-.001c-.383-.033-.764-.065-1.133-.177-1.349-.413-2.286-1.761-1.82-3.107l-.053-.004c-.868-.058-1.636-.11-2.29-.732-.696-.66-1.167-1.968-.373-2.723l-.315-.168c-1.2-.51-2.273-1.859-1.618-3.111.151-.29.459-.39.757-.487l.056-.018C7.748 20.607 7.026 19.935 7 17.268c.05-.029.99-.032 1.905-.028A3.961 3.961 0 018 14l11.23 2.246c.998.2 1.773.94 2.042 1.883.32.43.44.986.45 1.631.038 2.767 2.783 4.496 5.335 5.065l1.155-1.859c.345-.616.631-1.253.9-1.903l-3.286-1.538 2.875-1.171c.19-.08.372-.16.548-.239 1.37-.604 2.385-1.052 3.965-.174 1.437.798 1.79 2.197 2.143 3.601.078.309.155.617.245.92l.789 2.42c.115-.014.24-.06.358-.102l.113-.04c1.992-.66 4.398-2.199 4.724-4.315.023-.15.029-.307.029-.466l-.334.051z" fill="#fff"/></svg>