<svg width="337" height="263" fill="none" xmlns="http://www.w3.org/2000/svg"><path d="M168.5 6L19 257l149.5-81.94L318 257 168.5 6z" fill="#FF0013"/><path fill-rule="evenodd" clip-rule="evenodd" d="M156.2 0h24.6L337 263h-42.85L168.5 193.936 42.88 263H0L156.2 0zm72.28 160.963l-38.54 21.19 111.48 61.272A582394.92 582394.92 0 00168.5 19.635a582394.92 582394.92 0 00-132.92 223.79l111.48-61.272-38.53-21.19 10.55-17.76 49.42 27.166 49.42-27.166 10.56 17.76z" fill="#1A1A1A"/><path d="M168.5 217.512L251.25 263H85.75l82.75-45.488z" fill="#1A1A1A"/></svg>