<svg width="152" height="29" fill="none" xmlns="http://www.w3.org/2000/svg"><path d="M13.623.832c.052-.443.694-.443.747 0l.44 3.712a10.445 10.445 0 009.142 9.142l3.712.44c.443.053.443.695 0 .748l-3.712.44a10.445 10.445 0 00-9.142 9.142l-.44 3.712c-.053.443-.695.443-.747 0l-.441-3.712a10.445 10.445 0 00-9.142-9.142l-3.712-.44c-.443-.053-.443-.695 0-.748l3.712-.44a10.445 10.445 0 009.142-9.142l.44-3.712zm31 0c.052-.443.694-.443.747 0l.44 3.712a10.445 10.445 0 009.142 9.142l3.712.44c.443.053.443.695 0 .748l-3.712.44a10.445 10.445 0 00-9.142 9.142l-.44 3.712c-.053.443-.695.443-.747 0l-.441-3.712a10.445 10.445 0 00-9.142-9.142l-3.712-.44c-.442-.053-.442-.695 0-.748l3.712-.44a10.445 10.445 0 009.142-9.142l.44-3.712zm31 0c.052-.443.694-.443.747 0l.44 3.712a10.445 10.445 0 009.142 9.142l3.712.44c.443.053.443.695 0 .748l-3.712.44a10.445 10.445 0 00-9.142 9.142l-.44 3.712c-.053.443-.695.443-.748 0l-.44-3.712a10.445 10.445 0 00-9.142-9.142l-3.712-.44c-.443-.053-.443-.695 0-.748l3.712-.44a10.445 10.445 0 009.142-9.142l.44-3.712z" fill="#1A1A1A"/><path d="M106.622.832c.053-.443.695-.443.748 0l.44 3.712a10.445 10.445 0 009.142 9.142l3.712.44c.443.053.443.695 0 .748l-3.712.44a10.445 10.445 0 00-9.142 9.142l-.44 3.712c-.053.443-.695.443-.748 0l-.44-3.712a10.445 10.445 0 00-9.142-9.142l-3.712-.44c-.443-.053-.443-.695 0-.748l3.712-.44a10.445 10.445 0 009.142-9.142l.44-3.712zm31 0c.053-.443.695-.443.748 0l.44 3.712a10.445 10.445 0 009.142 9.142l3.712.44c.443.053.443.695 0 .748l-3.712.44a10.445 10.445 0 00-9.142 9.142l-.44 3.712c-.053.443-.695.443-.748 0l-.44-3.712a10.445 10.445 0 00-9.142-9.142l-3.712-.44c-.443-.053-.443-.695 0-.748l3.712-.44a10.445 10.445 0 009.142-9.142l.44-3.712z" fill="#1A1A1A" opacity=".3"/></svg>