<svg width="96" height="18" fill="none" xmlns="http://www.w3.org/2000/svg"><path d="M8.606.525c.033-.28.439-.28.472 0l.278 2.345a6.597 6.597 0 005.774 5.774l2.345.278c.28.033.28.439 0 .472l-2.345.278a6.597 6.597 0 00-5.774 5.774l-.278 2.344c-.033.28-.439.28-.472 0l-.278-2.344a6.597 6.597 0 00-5.774-5.774L.21 9.394c-.28-.033-.28-.439 0-.472l2.344-.278A6.597 6.597 0 008.328 2.87L8.606.525zm19.579 0c.033-.28.439-.28.472 0l.278 2.345a6.597 6.597 0 005.774 5.774l2.344.278c.28.033.28.439 0 .472l-2.344.278a6.597 6.597 0 00-5.774 5.774l-.278 2.344c-.033.28-.439.28-.472 0l-.278-2.344a6.597 6.597 0 00-5.774-5.774l-2.344-.278c-.28-.033-.28-.439 0-.472l2.344-.278a6.597 6.597 0 005.774-5.774l.278-2.345zm19.579 0c.033-.28.439-.28.472 0l.278 2.345a6.597 6.597 0 005.774 5.774l2.345.278c.279.033.279.439 0 .472l-2.345.278a6.597 6.597 0 00-5.774 5.774l-.278 2.344c-.033.28-.439.28-.472 0l-.278-2.344a6.597 6.597 0 00-5.774-5.774l-2.345-.278c-.279-.033-.279-.439 0-.472l2.345-.278a6.597 6.597 0 005.774-5.774l.278-2.345zm19.579 0c.033-.28.439-.28.472 0l.278 2.345a6.597 6.597 0 005.774 5.774l2.344.278c.28.033.28.439 0 .472l-2.344.278a6.597 6.597 0 00-5.774 5.774l-.278 2.344c-.033.28-.439.28-.472 0l-.278-2.344a6.597 6.597 0 00-5.774-5.774l-2.344-.278c-.28-.033-.28-.439 0-.472l2.344-.278a6.597 6.597 0 005.774-5.774l.278-2.345z" fill="#fff"/><path opacity=".3" d="M86.922.525c.033-.28.439-.28.472 0l.278 2.345a6.597 6.597 0 005.774 5.774l2.344.278c.28.033.28.439 0 .472l-2.344.278a6.597 6.597 0 00-5.774 5.774l-.278 2.344c-.033.28-.439.28-.472 0l-.278-2.344a6.597 6.597 0 00-5.774-5.774l-2.345-.278c-.28-.033-.28-.439 0-.472l2.345-.278a6.597 6.597 0 005.774-5.774l.278-2.345z" fill="#fff"/></svg>