<?xml version="1.0" encoding="utf-8"?><svg viewBox="0 0 94 94" xmlns="http://www.w3.org/2000/svg" xmlns:xlink="http://www.w3.org/1999/xlink"><style>:root>svg{display:none}:root>svg:target{display:block}</style><svg fill="none" viewBox="0 0 40 36" id="icon-arrow-more" xmlns="http://www.w3.org/2000/svg"><path d="M21.53 35.368l-3.408-3.372L29.959 20.16H.224v-4.924h29.735L18.122 3.417 21.53.027l17.67 17.67-17.67 17.67z" fill="currentColor"/></svg><svg fill="none" viewBox="0 0 68 68" id="icon-arrow-next" xmlns="http://www.w3.org/2000/svg"><path d="M31.554 65.333l31.113-31.112L31.554 3.108" stroke="currentColor" stroke-width="6.667"/></svg><svg fill="none" viewBox="0 0 68 68" id="icon-arrow-prev" xmlns="http://www.w3.org/2000/svg"><path d="M36.446 2.667L5.333 33.779l31.113 31.113" stroke="currentColor" stroke-width="6.667"/></svg><svg fill="none" viewBox="0 0 94 94" id="icon-play" xmlns="http://www.w3.org/2000/svg"><path d="M94 47L23.5 87.703V6.297L94 47z" fill="#fff"/></svg><svg fill="none" viewBox="0 0 28 28" id="icon-soft-star" xmlns="http://www.w3.org/2000/svg"><path d="M13.63.332c.053-.443.695-.443.747 0l.441 3.712a10.445 10.445 0 009.142 9.142l3.712.44c.442.053.442.695 0 .748l-3.712.44a10.445 10.445 0 00-9.142 9.142l-.44 3.712c-.053.443-.695.443-.748 0l-.44-3.712a10.445 10.445 0 00-9.142-9.142l-3.712-.44c-.443-.053-.443-.695 0-.748l3.712-.44a10.445 10.445 0 009.142-9.142l.44-3.712z" fill="currentColor"/></svg></svg>