<?xml version="1.0" encoding="utf-8"?><svg viewBox="0 0 28 28" xmlns="http://www.w3.org/2000/svg" xmlns:xlink="http://www.w3.org/1999/xlink"><style>:root>svg{display:none}:root>svg:target{display:block}</style><svg fill="none" viewBox="0 0 28 28" id="icon-soft-star" xmlns="http://www.w3.org/2000/svg"><path d="M13.63.332c.053-.443.695-.443.747 0l.441 3.712a10.445 10.445 0 009.142 9.142l3.712.44c.442.053.442.695 0 .748l-3.712.44a10.445 10.445 0 00-9.142 9.142l-.44 3.712c-.053.443-.695.443-.748 0l-.44-3.712a10.445 10.445 0 00-9.142-9.142l-3.712-.44c-.443-.053-.443-.695 0-.748l3.712-.44a10.445 10.445 0 009.142-9.142l.44-3.712z" fill="currentColor"/></svg></svg>