<?xml version="1.0" encoding="utf-8"?><svg viewBox="0 0 430 94" xmlns="http://www.w3.org/2000/svg" xmlns:xlink="http://www.w3.org/1999/xlink"><style>:root>svg{display:none}:root>svg:target{display:block}</style><svg fill="none" viewBox="0 0 40 36" id="icon-arrow-more" xmlns="http://www.w3.org/2000/svg"><path d="M21.53 35.368l-3.408-3.372L29.959 20.16H.224v-4.924h29.735L18.122 3.417 21.53.027l17.67 17.67-17.67 17.67z" fill="currentColor"/></svg><svg fill="none" viewBox="0 0 68 68" id="icon-arrow-next" xmlns="http://www.w3.org/2000/svg"><path d="M31.554 65.333l31.113-31.112L31.554 3.108" stroke="currentColor" stroke-width="6.667"/></svg><svg fill="none" viewBox="0 0 68 68" id="icon-arrow-prev" xmlns="http://www.w3.org/2000/svg"><path d="M36.446 2.667L5.333 33.779l31.113 31.113" stroke="currentColor" stroke-width="6.667"/></svg><svg fill="none" viewBox="0 0 41 41" id="icon-caret" xmlns="http://www.w3.org/2000/svg"><path d="M1.608 19.025l18.759 18.76 18.759-18.76" stroke="currentColor" stroke-width="4.02"/></svg><svg fill="none" viewBox="0 0 94 94" id="icon-play" xmlns="http://www.w3.org/2000/svg"><path d="M94 47L23.5 87.703V6.297L94 47z" fill="#fff"/></svg><svg fill="none" viewBox="0 0 28 28" id="icon-soft-star" xmlns="http://www.w3.org/2000/svg"><path d="M13.63.332c.053-.443.695-.443.747 0l.441 3.712a10.445 10.445 0 009.142 9.142l3.712.44c.442.053.442.695 0 .748l-3.712.44a10.445 10.445 0 00-9.142 9.142l-.44 3.712c-.053.443-.695.443-.748 0l-.44-3.712a10.445 10.445 0 00-9.142-9.142l-3.712-.44c-.443-.053-.443-.695 0-.748l3.712-.44a10.445 10.445 0 009.142-9.142l.44-3.712z" fill="currentColor"/></svg><svg fill="none" viewBox="0 0 430 34" id="tautrip-transparent" xmlns="http://www.w3.org/2000/svg"><path fill-rule="evenodd" clip-rule="evenodd" d="M430 0H0v34h44.048V11.985H19.744V.498h63.881v11.487h-24.4V34h11.449L97.907.498h17.099L142.24 34h6.645a15.572 15.572 0 01-2.603-.91 17.666 17.666 0 01-5.38-3.732 18.855 18.855 0 01-3.602-5.504 17.236 17.236 0 01-1.297-6.605V.5h15.178v16.75c0 1.34.464 2.473 1.393 3.398.929.926 2.065 1.388 3.41 1.388h23.919c1.345 0 2.482-.462 3.411-1.388.928-.925 1.393-2.058 1.393-3.398V.5h128.065c2.113 0 4.002.382 5.667 1.148 1.665.766 3.074 1.787 4.227 3.063a13.059 13.059 0 012.642 4.26 13.73 13.73 0 01.912 4.929c0 1.436-.24 2.856-.72 4.26a12.816 12.816 0 01-2.018 3.876 12.78 12.78 0 01-3.218 3.063c-1.248.862-2.673 1.484-4.274 1.867L326.22 34h2.432V.498h15.177V34h2.425V.498h50.433c2.113 0 4.002.383 5.667 1.149s3.074 1.787 4.227 3.063a13.059 13.059 0 012.642 4.26 13.73 13.73 0 01.912 4.929c0 1.659-.304 3.302-.912 4.93a13.617 13.617 0 01-2.642 4.307c-1.153 1.244-2.562 2.25-4.227 3.015-1.665.766-3.554 1.149-5.667 1.149h-35.255V34H430V0zM306.624 34l-9.751-6.7h-19.356V34h29.107zm-44.285 0V11.985h-23.927V34h23.927zm-39.104 0V11.985h-23.351v5.264c0 2.297-.448 4.499-1.345 6.605a17.633 17.633 0 01-3.602 5.504c-1.505 1.563-3.282 2.807-5.331 3.733-.846.382-1.714.685-2.604.909h36.233zm-98.094 0l-3.891-4.786H91.663L87.773 34h37.368zm-18.684-22.973l7.012 8.615H99.444l7.013-8.615zm171.06 4.786v-3.828h31.412c1.409 0 2.113.638 2.113 1.914 0 1.276-.704 1.914-2.113 1.914h-31.412zm83.915-3.828v3.828h31.412c1.409 0 2.113-.638 2.113-1.914 0-1.276-.704-1.914-2.113-1.914h-31.412z" fill="currentColor"/></svg></svg>