<?xml version="1.0" encoding="utf-8"?><svg viewBox="0 0 71 82" xmlns="http://www.w3.org/2000/svg" xmlns:xlink="http://www.w3.org/1999/xlink"><style>:root>svg{display:none}:root>svg:target{display:block}</style><svg fill="none" viewBox="0 0 40 36" id="icon-arrow-more" xmlns="http://www.w3.org/2000/svg"><path d="M21.53 35.368l-3.408-3.372L29.959 20.16H.224v-4.924h29.735L18.122 3.417 21.53.027l17.67 17.67-17.67 17.67z" fill="currentColor"/></svg><svg fill="none" viewBox="0 0 68 68" id="icon-arrow-next" xmlns="http://www.w3.org/2000/svg"><path d="M31.554 65.333l31.113-31.112L31.554 3.108" stroke="currentColor" stroke-width="6.667"/></svg><svg fill="none" viewBox="0 0 68 68" id="icon-arrow-prev" xmlns="http://www.w3.org/2000/svg"><path d="M36.446 2.667L5.333 33.779l31.113 31.113" stroke="currentColor" stroke-width="6.667"/></svg><svg fill="none" viewBox="0 0 47 46" id="icon-calendar" xmlns="http://www.w3.org/2000/svg"><path d="M33.23 19.43H15.357a.37.37 0 00-.37.37v12.83c0 .204.166.37.37.37H33.23a.37.37 0 00.37-.37V19.8a.369.369 0 00-.37-.37zM21.188 30.295a5.225 5.225 0 01-1.824-.332.185.185 0 01-.116-.197l.172-1.255a.183.183 0 01.088-.133.187.187 0 01.16-.014 4.431 4.431 0 001.678.307c.644 0 1.092-.303 1.092-.738 0-.54-.26-.829-1.683-.91a.184.184 0 01-.174-.184v-1.255c0-.096.074-.177.17-.184 1.226-.087 1.368-.463 1.368-.74 0-.186 0-.499-.83-.499-.444 0-.915.121-1.4.359a.184.184 0 01-.264-.14l-.172-1.255a.185.185 0 01.105-.193c.565-.261 1.277-.394 2.12-.394 1.5 0 2.509.697 2.509 1.735 0 .778-.402 1.35-1.228 1.74.709.273 1.433.769 1.433 1.818 0 1.496-1.257 2.464-3.204 2.464zm7.806-.3a.185.185 0 01-.185.185h-1.527a.185.185 0 01-.185-.184v-5.032l-1.004.383a.184.184 0 01-.16-.014.18.18 0 01-.088-.134l-.171-1.254a.184.184 0 01.1-.19l2.19-1.083a.19.19 0 01.083-.02h.762c.102 0 .185.083.185.185v7.159zM33.23 13.653h-1.905v.891c0 .945-.54 1.955-2.054 1.955-1.515 0-2.055-1.01-2.055-1.955v-.891h-5.82v.891c0 .945-.54 1.955-2.055 1.955-1.515 0-2.055-1.01-2.055-1.955v-.891h-1.928a.37.37 0 00-.37.37v3.756c0 .205.166.37.37.37H33.23a.37.37 0 00.37-.37v-3.757a.369.369 0 00-.37-.37z" fill="#fff"/><path d="M19.341 15.305c.613 0 .861-.22.861-.761v-1.782c0-.542-.248-.762-.86-.762-.614 0-.863.22-.863.762v1.782c0 .541.249.761.863.761zM29.27 15.305c.613 0 .861-.22.861-.761v-1.782c0-.542-.248-.762-.86-.762-.614 0-.861.22-.861.762v1.782c0 .541.247.761.86.761z" fill="#fff"/></svg><svg fill="none" viewBox="0 0 41 41" id="icon-caret" xmlns="http://www.w3.org/2000/svg"><path d="M1.608 19.025l18.759 18.76 18.759-18.76" stroke="currentColor" stroke-width="4.02"/></svg><svg fill="none" viewBox="0 0 71 82" id="icon-play" xmlns="http://www.w3.org/2000/svg"><path d="M2.5 3.76L67 41 2.5 78.24V3.76z" fill="currentColor" stroke="#fff" stroke-width="4"/></svg><svg fill="none" viewBox="0 0 28 28" id="icon-soft-star" xmlns="http://www.w3.org/2000/svg"><path d="M13.63.332c.053-.443.695-.443.747 0l.441 3.712a10.445 10.445 0 009.142 9.142l3.712.44c.442.053.442.695 0 .748l-3.712.44a10.445 10.445 0 00-9.142 9.142l-.44 3.712c-.053.443-.695.443-.748 0l-.44-3.712a10.445 10.445 0 00-9.142-9.142l-3.712-.44c-.443-.053-.443-.695 0-.748l3.712-.44a10.445 10.445 0 009.142-9.142l.44-3.712z" fill="currentColor"/></svg></svg>