<svg width="290" height="218" fill="none" xmlns="http://www.w3.org/2000/svg"><g clip-path="url(#clip0_2005_27480)"><path d="M86.5 218c-10 0-14-3-14.5-4l-4-13 9-37.5 45.5 6.5 87-5.5L217 180l3.5 32c-1.833 2-7.1 6-13.5 6H86.5z" fill="#000"/><path d="M142.682.013c.751-.264 2.43-.143 3.282-.134 6.517.07 12.726 1.804 18.278 5.26 1.858 1.155 3.594 2.465 5.28 3.859.043.035.074.108.13.107.598-.004 1.811-.634 2.474-.806 1.766-.457 3.589-.855 5.401-1.067 10.289-1.201 21.215 3.233 28.472 10.478 1.428 1.425 2.791 2.923 3.995 4.545 1.004 1.353 2.001 3.613 3.301 4.626 1.152.896 3.373 1.342 4.769 1.899 4.009 1.6 7.875 4.129 10.998 7.097 2.075 1.971 3.962 4.252 5.63 6.575l2.078 3.183c.185.273.4.73.696.86 1.126.493 2.527.538 3.734.733l5.759 1.108 26.978 6.521c1.675.318 3.393.48 5.089.626 1.334.114 2.7.159 3.979.593 2.095.713 3.901 2.724 4.862 4.703l.098.212.09.188c.274.62.281 1.376.32 2.044.23 3.939-1.156 8.427-2.522 12.086-3.204 8.584-8.45 16.19-15.755 21.734-1.378 1.046-2.91 2.268-4.489 2.981-4.257 1.922-8.259 3.366-12.909 4.078-1.725.264-3.507.504-5.25.297l-.165-.022 1.236 5.161c.461 2.214.708 4.539.795 6.801.296 7.728-2.446 16.31-7.714 22.005-4.25 4.593-9.57 7.242-15.804 7.462l-.271 1.067c-1.135 3.527-3.614 6.907-6.169 9.534-1.182 1.215-2.187 2.205-3.703 2.974l1.864 3.271c1.934 3.322 3.462 6.895 4.891 10.458 3.036 7.572 5.698 15.858 6.237 24.046.114 1.723.262 3.641-.198 5.322-1.465 5.362-5.733 9.24-10.399 11.902-.032-6.396-.487-12.777-1.777-19.053-.293-1.426-.803-2.784-1.145-4.192-.973-3.995-2.222-7.655-3.734-11.481l-2.253-5.22c-.739-1.521-1.481-2.867-2.005-4.482l-.16.127c-1.925 1.566-3.535 3.51-5.45 5.11-.472.395-1.926 1.359-2.182 1.863-.052.104.095.211.143.317l.903 2.113c1.145 2.716 2.405 5.445 3.359 8.233.92 2.689 1.58 5.559 2.212 8.33 1.697 7.433 2.548 14.542 1.783 22.167l-31.544-.015c-.13-.267-.101-.152-.139-.436-.592-4.507-2.06-8.875-3.663-13.103-.569-1.501-1.006-3.301-2.268-4.383-.961-.824-2.468-1.193-3.719-1.057-1.321.143-2.664 1.061-3.482 2.078-.947 1.176-1.235 2.548-1.02 4.031.205 1.414.916 2.768 1.409 4.099 1.022 2.763 2.076 5.854 2.452 8.769l-19.272.018-21.635-.018c.621-2.75 1.303-5.476 2.216-8.146.501-1.465 1.324-2.936 1.664-4.426.284-1.246.225-2.572-.492-3.657-.824-1.248-1.961-2.366-3.475-2.639-1.459-.263-2.766-.006-3.992.855-1.437 1.009-1.98 3.07-2.581 4.655-1.643 4.33-3.053 8.827-3.785 13.409l-30.764.02c-2.06-6.625-.4-14.672 1.158-21.275.787-3.337 1.651-6.705 2.767-9.946l2.193-6.136c.524-1.35 1.191-2.691 1.543-4.098l-.287.103a1.618 1.618 0 00-.406-.516c-2.376-2.033-5.606-4.694-6.533-7.786l-.047-.166c-.874.935-1.436 3-1.923 4.216l-5.232 14.555c-1.305 4.071-2.532 8.088-3.268 12.314-.882 5.058-1.041 9.967-1.241 15.07-4.3-2.497-8.275-6.141-9.979-10.929-.982-2.761-1.05-5.843-.66-8.723.646-4.783 2.435-9.372 3.962-13.928 2.507-7.48 5.03-15.063 8.388-22.209-1.254-.881-2.26-2.083-3.248-3.246-1.79-2.106-3.351-4.254-4.762-6.631-.553-.931-1.233-1.919-1.528-2.97l-.05-.212-2.74-.377c-6.092-1.122-11.573-5.113-15.023-10.196-.78-1.149-1.757-2.468-2.325-3.723-1.943-4.286-2.893-9.499-2.765-14.187.112-4.072.904-8.084 1.669-12.069-9.188-.076-18.586-4.667-25.57-10.427-8.145-6.716-15.19-17.688-16.223-28.346-.376-3.882.843-7.43 4.271-9.554a8.236 8.236 0 012.448-1.018c2.056-.485 4.268-.526 6.365-.81l9.54-1.662 21.379-5.263 5.446-1.097c.668-.11 2.251-.104 2.77-.388.285-.156.574-.822.73-1.107.582-1.06 1.167-2.1 1.845-3.103a42.247 42.247 0 015.958-7.03c3.306-3.128 7.302-5.765 11.643-7.198 1.263-.416 3.23-.587 4.337-1.248.433-.259.937-1.264 1.213-1.688.834-1.282 1.639-2.581 2.616-3.76 7.595-9.158 19.182-15.034 31.184-14.334 1.654.097 3.427.253 5.041.64.86.207 1.71.522 2.548.804.222.075.733.32.945.321.221.002 1.765-1.38 2.069-1.621 1.48-1.174 3.123-2.2 4.792-3.08 4.537-2.395 8.909-3.773 14.018-4.22z" fill="#fff"/><path d="M143.249 12.55l4.214-.01c6.043.503 12.086 3.267 16.417 7.532 1.121 1.105 1.992 2.34 3.008 3.526l1.997-1.153c5.529-2.904 12.365-3.648 18.341-1.746 4.183 1.332 7.461 3.561 10.584 6.598.852.828 1.794 1.688 2.321 2.771.807 1.663 1.919 3.177 2.644 4.899.357.849.577 1.8.873 2.677.024.072.164.538.191.562.043.039 1.482.073 1.705.089 1.369.096 2.756.277 4.087.622a25.008 25.008 0 019.168 4.545c5.544 4.358 8.408 10.112 9.271 17.082 1.648.416 3.372 1.287 4.965 1.922.667.267 1.424.703 2.14.762.718.06 1.08.46 1.698.747l4.265 1.962c3.905 1.824 8.161 3.432 12.276 4.696 5.136 1.578 10.139 1.553 15.409 2.107.598.56 1.283 1.089 1.484 1.929.166.701.239 1.447-.142 2.082l-.133.212c-2.293 3.82-6.785 8.333-10.768 10.287-6.859 3.366-13.633 3.576-20.919 1.602-2.015-.545-3.996-1.33-5.971-2.01-.241 1.874-.453 3.674-.897 5.52-.305 1.266-.706 2.49-1.109 3.728-.11.337-.454 1.07-.456 1.397-.001.304 1.195 1.974 1.417 2.37 1.146 2.05 2.466 4.422 3.296 6.606 2.22 5.835 2.383 13.423-.17 19.17-1.224 2.755-3.371 5.505-6.284 6.546-3.279 1.173-7.614.269-10.625-1.281l-.18-.096c-.493 1.446-.626 3.138-.961 4.642-1.021 4.587-2.992 8.856-6.119 12.392-4.986 5.637-12.627 8.265-20.023 7.7-1.446-.11-2.878-.357-4.308-.59-.545-.088-1.285-.314-1.824-.302-.88.019-2.637 1.385-3.436 1.826-2.832 1.562-5.901 2.843-8.9 4.046-7.608 3.052-15.698 4.324-23.84 4.751-8.844.522-18.048-1.113-26.368-4.01-1.801-.628-3.573-1.148-5.322-1.94l-5.081-2.491-3.12-1.76c-.199-.105-.674-.426-.857-.438-.261-.017-.935.261-1.212.338-1.042.288-2.076.588-3.141.781-6.55 1.181-12.854-.161-18.289-4.03-6.788-4.833-9.645-12.16-11.021-20.078-3.52 1.28-7.8 1.968-11.36.518-2.883-1.174-5.636-3.881-6.78-6.804-.985-2.52-1.165-5.822-1.007-8.49.248-4.181 1.168-8.558 2.579-12.498 1.015-2.836 2.333-5.56 3.58-8.298-1.514-2.815-2.078-6.064-2.522-9.191-1.222.49-2.333 1.236-3.534 1.779-1.636.74-3.5 1.164-5.28 1.365-8.09.915-16.956-1.732-23.323-6.79-1.576-1.252-2.986-2.656-4.318-4.162-.56-.633-1.228-1.34-1.29-2.225-.117-1.704 1.056-3.116 2.494-3.865 1.15-.6 2.586-.6 3.85-.759l6.218-.92c3.167-.622 6.282-1.519 9.344-2.535 6.36-2.111 12.32-4.75 18.305-7.75.522-.262 1.864-.745 2.23-1.123.26-.27 1.127-4.589 1.412-5.443 1.034-3.097 2.797-6.214 5-8.624 3.145-3.438 7.38-6.118 11.938-7.122 1.918-.424 3.874-.496 5.828-.588.472-.493.733-1.559 1.002-2.218a31.97 31.97 0 011.572-3.279c3.115-5.684 8.667-9.995 14.876-11.774 6.733-1.929 13.246-.833 19.289 2.578l.197.113c4.79-6.29 11.674-9.91 19.405-10.984z" fill="#000"/><path d="M143.999 22.408l.047-.008c5.701-.444 11.533 2.243 14.912 6.875 1.047 1.434 1.812 3.009 2.789 4.478 1.016 1.528 2.734 3.255 4.222 4.316 2.452-3.06 4.451-5.546 8.146-7.106 3.605-1.523 7.901-1.709 11.539-.178 5.017 2.112 8.299 6.625 8.97 12.011.153 1.227-.033 3.23.477 4.306 1.245 2.62 6.553 1.055 8.822 1.027 1.789-.022 3.533.253 5.197.92 6.949 2.78 10.17 10.118 8.923 17.294-.172.992-.485 1.915-.817 2.864-.025.07-.254.627-.243.684.093.447 1.436 1.772 1.768 2.174 1.071 1.296 1.891 2.82 2.55 4.364 1.953 4.574 2.413 10.583.531 15.249-.931 2.307-2.312 3.15-4.469 4.079.755 1.136 1.631 2.175 2.346 3.344 3.338 5.459 5.975 12.154 6.2 18.627.069 1.98-.003 3.366-1.425 4.894-4.76 1.417-6.723-2.512-9.897-4.952-.548-.422-1.216-.702-1.841-.99-3.723 2.414-4.332 9.434-5.1 13.43-.418 2.174-.968 4.569-1.889 6.589-1.581 3.467-3.966 6.473-7.629 7.827-3.53 1.304-7.38 1.507-11.013.436-1.343-.396-2.666-1.097-3.939-1.682-1.861 1.681-4.406 2.96-6.616 4.101-10.029 5.177-20.723 7.755-31.984 7.741-8.463-.461-16.472-1.82-24.291-5.23-.219-.305-.109-.227-.414-.389l-.846-.455c-.987.061-1.889-.699-2.737-1.153l-6.615-3.735c-.285-.176-1.655-1.171-1.875-1.176-.1-.003-.537.293-.662.36-.795.431-1.601.903-2.438 1.245-1.671.682-3.609 1.167-5.41 1.261-3.525.183-7.566-.969-10.214-3.39-6.007-5.491-6.337-15.028-6.643-22.628-.36-.48-.99-.865-1.469-1.233l-2.635-2.042c-1.048.661-1.96 1.54-2.965 2.269-1.636 1.186-3.481 2.296-5.342 3.087-1.133.482-3.163 1.196-4.353.709a4.793 4.793 0 01-.81-1.899c-.4-1.974-.191-4.232.099-6.212.79-5.404 2.767-10.189 5.707-14.767.806-1.256 1.781-2.4 2.617-3.644l-2.649-2.878c-2.399-3.225-3.551-7.584-2.88-11.58.641-3.81 2.759-7.254 5.653-9.786.896-.784 2-1.408 2.973-2.101-2.11-2.316-3.545-5.572-3.56-8.706-.02-3.885 1.33-6.73 4.049-9.449 4.86-4.861 12.687-3.678 18.915-3.676.287-2.619.03-5.152.92-7.708 1.356-3.89 4.048-7.038 7.802-8.783 3.353-1.56 7.702-2.014 11.195-.688 3.918 1.487 6.819 4.102 9.177 7.566 1.488-1.385 3.041-2.872 4.192-4.561 1.049-1.538 1.875-3.17 3.024-4.653 3.019-3.9 7.038-6.076 11.908-6.689z" fill="#fff"/><path d="M186.681 86.634l.055-.01c2.951-.197 6.291.28 8.73 2.081 2.799 2.067 4.924 5.272 5.362 8.786.404 3.238-.534 6.565-2.483 9.167-2.329 3.107-4.918 4.731-8.753 5.299-1.988.25-3.583.19-5.531-.28-1.351-.326-2.802-1.183-3.935-1.987-2.462-1.746-4.493-4.643-4.991-7.639-.604-3.633.096-6.907 2.244-9.892 2.414-3.356 5.294-4.901 9.302-5.525z" fill="#000"/><path d="M191.674 90.009c.55-.065 1.065-.116 1.609.03.539.146.843.405 1.109.889.51.927.75 2.567.405 3.57-.238.69-.532 1.003-1.158 1.324-.207.052-.187.056-.387.077-.701.07-1.421-.075-1.949-.575-.593-.56-.647-1.317-.7-2.086-.087-1.247.253-2.294 1.071-3.23z" fill="#fff"/><path d="M100.957 86.798c3.345-.404 6.342.383 9.105 2.276 2.898 1.985 4.566 5.036 5.193 8.457.589 3.212-.181 6.767-2.066 9.444-2.217 3.15-5.115 5.013-8.875 5.647-3.145.31-6.28-.247-8.914-2.077-2.655-1.845-4.714-4.979-5.315-8.152-.666-3.517.1-7.306 2.145-10.234 2.217-3.175 4.981-4.708 8.727-5.361z" fill="#000"/><path d="M106.775 90.096a3.96 3.96 0 01.889.087c.616.138 1.116.565 1.427 1.113.338.595.38 1.414.158 2.057-.28.814-.978 1.28-1.73 1.588-.422.018-.767.022-1.17-.127a2.488 2.488 0 01-1.422-1.347 2.525 2.525 0 01.051-1.955c.361-.752 1.041-1.152 1.797-1.416z" fill="#fff"/><path d="M137.844 101.858a7.185 7.185 0 013.157.449c1.083.425 2.113 1.099 3.293 1.189 1.031.079 2.305.101 3.316-.097 3.218-.631 6.011-2.128 9.299-.618.838.384 1.864 1.4 2.171 2.282l.063.201c.064.194.129.374.159.577.671 4.535-5.97 7.783-8.144 11.018-.81 1.206-1.325 2.756-.97 4.213.21.866.912 1.773 1.699 2.185 2.824 1.482 4.457-3.733 6.771-4.4.471-.136.992-.033 1.416.197.956.521 1.486 1.65 1.756 2.657.446 1.666-.145 4.003-1.041 5.429-1.548 2.464-3.648 3.992-6.464 4.639-1.395.209-2.89.188-4.235-.279-1.432-.497-2.685-1.235-4.239-1.272-2.724-.065-4.964 1.779-7.765 1.677-2.304-.085-4.639-1.155-6.14-2.927a8.555 8.555 0 01-1.996-6.563c.091-.799.331-2.217 1.026-2.717.477-.344.823-.678 1.429-.7 1.605-.06 2.244 2.558 3.266 3.41.782.652 1.859 1.084 2.889.924.719-.112 1.493-.731 1.886-1.327.35-.534.357-1.337.354-1.95-.012-2.496-1.584-3.768-3.342-5.186-2.336-1.883-5.254-3.71-5.855-6.88-.224-1.178-.213-2.594.522-3.597 1.261-1.723 3.724-2.288 5.719-2.534z" fill="#000"/></g><defs><clipPath id="clip0_2005_27480"><path fill="#fff" d="M0 0h290v218H0z"/></clipPath></defs></svg>