<svg width="1920" height="363" fill="none" xmlns="http://www.w3.org/2000/svg"><g filter="url(#filter0_b_249_98592)" fill="#E0E9F8"><path d="M1920 0H0v363h298.1v-85.624H204v-44.673h247.337v44.673h-94.471V363h44.325l105.444-130.297h66.205L678.284 363h25.729a59.981 59.981 0 01-10.079-3.537c-7.935-3.598-14.878-8.438-20.829-14.518-5.827-6.205-10.476-13.34-13.947-21.406-3.348-8.191-5.021-16.753-5.021-25.688v-65.148h58.766v65.148c0 5.212 1.797 9.618 5.393 13.216 3.595 3.599 7.996 5.398 13.203 5.398h92.612c5.208 0 9.609-1.799 13.204-5.398 3.596-3.598 5.393-8.004 5.393-13.216v-65.148h495.852c8.18 0 15.49 1.489 21.94 4.467 6.45 2.978 11.9 6.949 16.37 11.913 4.46 4.84 7.87 10.362 10.22 16.566 2.36 6.205 3.54 12.596 3.54 19.173 0 5.584-.93 11.106-2.79 16.566a50.007 50.007 0 01-7.81 15.077c-3.35 4.592-7.5 8.563-12.46 11.913-4.84 3.351-10.35 5.77-16.55 7.26L1390.63 363h9.41V232.703h58.77V363h9.39V232.703h195.26c8.19 0 15.5 1.489 21.95 4.467 6.44 2.978 11.9 6.949 16.36 11.913 4.47 4.84 7.87 10.362 10.23 16.566a53.492 53.492 0 013.53 19.173c0 6.452-1.17 12.843-3.53 19.172a52.92 52.92 0 01-10.23 16.752c-4.46 4.84-9.92 8.749-16.36 11.727-6.45 2.978-13.76 4.468-21.95 4.468h-136.5V363H1920V0z"/><path d="M1314.75 363L1277 336.941h-74.94V363h112.69zm-171.46 0v-85.624h-92.64V363h92.64zm-151.406 0v-85.624h-90.41v20.475c0 8.935-1.736 17.497-5.207 25.688-3.347 8.066-7.997 15.201-13.948 21.406-5.827 6.08-12.707 10.92-20.642 14.518A59.981 59.981 0 01851.598 363h140.286zm-379.805 0l-15.063-18.614H482.459L467.396 363h144.683zm-45.19-55.842l-27.152-33.505-27.151 33.505h54.303zm635.171-14.891v-14.891h121.62c5.45 0 8.18 2.482 8.18 7.446 0 4.963-2.73 7.445-8.18 7.445h-121.62zm324.9 0v-14.891h121.63c5.45 0 8.18 2.482 8.18 7.446 0 4.963-2.73 7.445-8.18 7.445h-121.63z"/></g><defs><filter id="filter0_b_249_98592" x="-32" y="-32" width="1984" height="427" filterUnits="userSpaceOnUse" color-interpolation-filters="sRGB"><feFlood flood-opacity="0" result="BackgroundImageFix"/><feGaussianBlur in="BackgroundImageFix" stdDeviation="16"/><feComposite in2="SourceAlpha" operator="in" result="effect1_backgroundBlur_249_98592"/><feBlend in="SourceGraphic" in2="effect1_backgroundBlur_249_98592" result="shape"/></filter></defs></svg>