<svg width="390" height="33" fill="none" xmlns="http://www.w3.org/2000/svg"><path d="M24.28 11.314V33h15.162V11.314h24.375V0H0v11.314h24.28z" fill="#fff"/><path fill-rule="evenodd" clip-rule="evenodd" d="M78.085 0L50.879 33H67.96l3.887-4.714h29.557L105.291 33h17.082L95.167 0H78.085zm8.54 10.371l7.006 8.486h-14.01l7.005-8.486zm39.786 21.733a15.64 15.64 0 002.6.896h38.08a15.64 15.64 0 002.6-.896c2.047-.911 3.823-2.137 5.326-3.677a17.354 17.354 0 003.599-5.421 16.236 16.236 0 001.343-6.506v-5.186h23.328V33h15.162V11.314h23.903V33h15.163v-6.6h19.337l9.74 6.6h19.577l-10.22-6.93c1.599-.377 3.023-.99 4.27-1.838a12.704 12.704 0 003.215-3.018 12.549 12.549 0 002.015-3.818c.48-1.383.72-2.782.72-4.196 0-1.666-.304-3.284-.912-4.856a12.81 12.81 0 00-2.639-4.195c-1.151-1.258-2.559-2.263-4.222-3.018C296.732.377 294.845 0 292.734 0H164.797v16.5c0 1.32-.464 2.436-1.392 3.347-.927.912-2.063 1.367-3.406 1.367h-23.896c-1.343 0-2.479-.455-3.406-1.367-.928-.911-1.392-2.027-1.392-3.347V0h-15.163v16.5c0 2.263.432 4.431 1.296 6.506a18.539 18.539 0 003.599 5.421 17.645 17.645 0 005.374 3.677zm131.104-20.79v3.772h31.38c1.408 0 2.111-.629 2.111-1.886s-.703-1.886-2.111-1.886h-31.38z" fill="#fff"/><path d="M308.598 0v33h15.163V0h-15.163z" fill="#fff"/><path fill-rule="evenodd" clip-rule="evenodd" d="M326.183 0v33h15.163v-6.6h35.219c2.111 0 3.998-.377 5.662-1.131 1.663-.755 3.071-1.745 4.222-2.97a13.372 13.372 0 002.639-4.243A13.6 13.6 0 00390 13.2c0-1.666-.304-3.284-.912-4.856a12.827 12.827 0 00-2.639-4.195c-1.151-1.258-2.559-2.263-4.222-3.018C380.563.377 378.676 0 376.565 0h-50.382zm15.163 11.314v3.772h31.38c1.408 0 2.111-.629 2.111-1.886s-.703-1.886-2.111-1.886h-31.38z" fill="#fff"/></svg>