<svg width="430" height="158" fill="none" xmlns="http://www.w3.org/2000/svg"><g filter="url(#filter0_b_2017_14537)" fill="#E0E9F8"><path d="M430 0H0v158h44.048v-22.015H19.744v-11.487h63.881v11.487h-24.4V158h11.449l27.233-33.502h17.099L142.24 158h6.645a15.544 15.544 0 01-2.603-.909 17.685 17.685 0 01-5.38-3.733 18.862 18.862 0 01-3.602-5.504 17.239 17.239 0 01-1.297-6.605v-16.751h15.178v16.751c0 1.34.464 2.473 1.393 3.398.929.925 2.065 1.388 3.41 1.388h23.919c1.345 0 2.482-.463 3.411-1.388.928-.925 1.393-2.058 1.393-3.398v-16.751h128.065c2.113 0 4.002.383 5.667 1.149s3.074 1.787 4.227 3.063a13.057 13.057 0 012.642 4.259c.608 1.596.912 3.239.912 4.93 0 1.436-.24 2.856-.72 4.259a12.809 12.809 0 01-2.018 3.877 12.765 12.765 0 01-3.218 3.063c-1.248.862-2.673 1.484-4.274 1.867L326.22 158h2.432v-33.502h15.177V158h2.425v-33.502h50.433c2.113 0 4.002.383 5.667 1.149s3.074 1.787 4.227 3.063a13.057 13.057 0 012.642 4.259c.608 1.596.912 3.239.912 4.93 0 1.659-.304 3.302-.912 4.929a13.609 13.609 0 01-2.642 4.308c-1.153 1.244-2.562 2.249-4.227 3.015-1.665.766-3.554 1.149-5.667 1.149h-35.255v6.7H430V0z"/><path d="M306.624 158l-9.751-6.7h-19.356v6.7h29.107zm-44.285 0v-22.015h-23.927V158h23.927zm-39.104 0v-22.015h-23.351v5.264c0 2.297-.448 4.499-1.345 6.605a17.64 17.64 0 01-3.602 5.504c-1.505 1.563-3.282 2.807-5.331 3.733-.846.382-1.714.685-2.604.909h36.233zm-98.094 0l-3.891-4.786H91.663L87.773 158h37.368zm-11.672-14.358l-7.012-8.615-7.013 8.615h14.025zm164.048-3.829v-3.828h31.412c1.409 0 2.113.638 2.113 1.914 0 1.276-.704 1.914-2.113 1.914h-31.412zm83.915 0v-3.828h31.412c1.409 0 2.113.638 2.113 1.914 0 1.276-.704 1.914-2.113 1.914h-31.412z"/></g><defs><filter id="filter0_b_2017_14537" x="-7.167" y="-7.167" width="444.333" height="172.333" filterUnits="userSpaceOnUse" color-interpolation-filters="sRGB"><feFlood flood-opacity="0" result="BackgroundImageFix"/><feGaussianBlur in="BackgroundImageFix" stdDeviation="3.583"/><feComposite in2="SourceAlpha" operator="in" result="effect1_backgroundBlur_2017_14537"/><feBlend in="SourceGraphic" in2="effect1_backgroundBlur_2017_14537" result="shape"/></filter></defs></svg>