<svg width="430" height="158" fill="none" xmlns="http://www.w3.org/2000/svg"><g filter="url(#filter0_b_583_26694)"><path d="M0 0h430v158H0V0z" fill="#1A1A1A"/></g><g filter="url(#filter1_b_583_26694)" fill="#fff"><path d="M44.28 136.314V158h15.162v-21.686h24.375V125H20v11.314h24.28z"/><path fill-rule="evenodd" clip-rule="evenodd" d="M98.085 125l-27.206 33H87.96l3.887-4.714h29.557l3.887 4.714h17.082l-27.206-33H98.085zm8.541 10.371l7.005 8.486h-14.01l7.005-8.486zm39.785 21.733a15.64 15.64 0 002.6.896h38.08a15.64 15.64 0 002.6-.896c2.047-.911 3.823-2.137 5.326-3.677a17.346 17.346 0 003.599-5.421 16.24 16.24 0 001.343-6.506v-5.186h23.328V158h15.162v-21.686h23.903V158h15.163v-6.6h19.337l9.74 6.6h19.577l-10.22-6.93c1.599-.377 3.023-.99 4.27-1.839a12.69 12.69 0 003.215-3.017 12.546 12.546 0 002.015-3.818c.48-1.383.72-2.782.72-4.196 0-1.666-.304-3.284-.912-4.856a12.804 12.804 0 00-2.639-4.195c-1.151-1.258-2.559-2.263-4.222-3.018-1.664-.754-3.551-1.131-5.662-1.131H184.797v16.5c0 1.32-.464 2.436-1.392 3.347-.927.912-2.063 1.367-3.406 1.367h-23.896c-1.343 0-2.479-.455-3.406-1.367-.928-.911-1.392-2.027-1.392-3.347V125h-15.163v16.5c0 2.263.432 4.431 1.296 6.506a18.53 18.53 0 003.599 5.421 17.637 17.637 0 005.374 3.677zm131.104-20.79v3.772h31.38c1.408 0 2.111-.629 2.111-1.886s-.703-1.886-2.111-1.886h-31.38z"/><path d="M328.598 125v33h15.163v-33h-15.163z"/><path fill-rule="evenodd" clip-rule="evenodd" d="M346.183 125v33h15.163v-6.6h35.219c2.111 0 3.998-.377 5.662-1.131 1.663-.755 3.071-1.745 4.222-2.97a13.386 13.386 0 002.639-4.243A13.6 13.6 0 00410 138.2c0-1.666-.304-3.284-.912-4.856a12.82 12.82 0 00-2.639-4.195c-1.151-1.258-2.559-2.263-4.222-3.018-1.664-.754-3.551-1.131-5.662-1.131h-50.382zm15.163 11.314v3.772h31.38c1.408 0 2.111-.629 2.111-1.886s-.703-1.886-2.111-1.886h-31.38z"/></g><defs><filter id="filter0_b_583_26694" x="-7.167" y="-7.167" width="444.333" height="172.333" filterUnits="userSpaceOnUse" color-interpolation-filters="sRGB"><feFlood flood-opacity="0" result="BackgroundImageFix"/><feGaussianBlur in="BackgroundImageFix" stdDeviation="3.583"/><feComposite in2="SourceAlpha" operator="in" result="effect1_backgroundBlur_583_26694"/><feBlend in="SourceGraphic" in2="effect1_backgroundBlur_583_26694" result="shape"/></filter><filter id="filter1_b_583_26694" x="12.833" y="117.833" width="404.333" height="47.333" filterUnits="userSpaceOnUse" color-interpolation-filters="sRGB"><feFlood flood-opacity="0" result="BackgroundImageFix"/><feGaussianBlur in="BackgroundImageFix" stdDeviation="3.583"/><feComposite in2="SourceAlpha" operator="in" result="effect1_backgroundBlur_583_26694"/><feBlend in="SourceGraphic" in2="effect1_backgroundBlur_583_26694" result="shape"/></filter></defs></svg>